<svg width="207" height="31" viewBox="0 0 207 31" fill="none" xmlns="http://www.w3.org/2000/svg">
<g clip-path="url(#clip0)">
<path d="M49.4795 5.25952C48.7711 5.02288 32.8666 1.19465 31.7184 0.916026C30.574 0.637402 27.9466 0 26.5297 0C25.1129 0 24.5096 0.278625 23.9685 0.358777C23.4275 0.438929 2.65353 5.8702 1.03428 6.37783C-0.584976 6.88547 0.174049 7.4847 0.174049 7.4847C1.51305 8.29004 17.0906 13.1144 20.512 14.1488C23.9335 15.187 24.2877 14.9465 25.3931 14.9465C26.5025 14.9465 27.4211 14.748 28.328 14.5076C29.235 14.2671 48.4286 8.12973 50.9392 7.17554C53.4537 6.21753 50.188 5.49998 49.4795 5.25952Z" fill="#202D38"/>
<path d="M43.6186 5.83974C43.0854 5.69089 31.1434 3.33975 30.2831 3.17182C29.4229 3.00006 27.4494 2.60693 26.3868 2.60693C25.3242 2.60693 24.8687 2.77869 24.4639 2.82831C24.0591 2.87792 8.45824 6.21379 7.2399 6.52676C6.02546 6.83974 6.59376 7.20615 6.59376 7.20615C7.59801 7.70233 19.2987 10.6642 21.8677 11.3016C24.4367 11.939 24.7014 11.7901 25.5344 11.7901C26.3673 11.7901 27.0563 11.668 27.7375 11.5191C28.4187 11.3703 42.8323 7.59928 44.7202 7.01149C46.6041 6.42753 44.148 5.9886 43.6186 5.83974ZM25.5499 9.95423C24.4172 11.1183 10.6497 7.38172 10.6497 7.38172C10.6497 7.38172 10.1982 7.22905 10.276 6.87409C10.3461 6.56493 10.9066 6.41226 11.1323 6.35119C11.1323 6.35119 23.2651 4.07258 23.557 4.01151C23.9696 3.92754 25.9236 3.66418 26.1727 3.93517C26.6982 4.50006 26.4841 9.00003 25.5499 9.95423Z" fill="white"/>
<path d="M38.9673 24.8434C38.6754 25.9732 35.9896 26.6449 35.0865 26.7594C33.3661 26.9808 33.5296 24.4121 33.5296 24.4121L34.4949 15.0839C35.647 14.7404 38.9829 13.5992 40.2518 13.2175C40.2518 13.2175 39.5122 20.7671 39.2086 23.3053C39.1619 23.6908 39.1463 24.1411 38.9673 24.8434Z" fill="#202D38"/>
<path d="M42.8482 12.6564L42.0035 20.832C42.0035 20.832 41.9334 23.5571 43.3464 23.7403C43.3892 23.7403 43.4359 23.7403 43.4826 23.7327C43.7668 23.6678 44.0626 23.5419 44.3195 23.4045H44.3234C44.5998 23.2594 44.8372 23.1068 44.9812 22.9999C48.4727 20.4388 49.2434 13.4083 49.4147 10.6641C47.5385 11.2366 45.2303 11.9389 42.8482 12.6564Z" fill="#202D38"/>
<path d="M13.721 25.3702C14.0129 26.4999 16.6987 27.1717 17.6018 27.2862C19.3222 27.5076 19.1587 24.9389 19.1587 24.9389L18.1934 15.6107C17.0413 15.2672 13.7054 14.1221 12.4326 13.7443C12.4326 13.7443 13.1722 21.2938 13.4758 23.832C13.5225 24.2175 13.5381 24.6679 13.721 25.3702Z" fill="#202D38"/>
<path d="M9.8363 13.1794L10.681 21.3549C10.681 21.3549 10.751 24.0801 9.33807 24.2633C9.29525 24.2633 9.24855 24.2633 9.20184 24.2557C8.91769 24.1908 8.62186 24.0649 8.36496 23.9274H8.36107C8.08471 23.7824 7.84727 23.6297 7.70325 23.5229C4.20784 20.958 3.43714 13.9275 3.26587 11.1832C5.14592 11.7634 7.45413 12.4618 9.8363 13.1794Z" fill="#202D38"/>
<path d="M28.9831 16.7633C27.9983 17.0037 27.0018 17.206 25.7991 17.206C24.6002 17.206 24.2149 17.4465 20.5054 16.4007C20.264 16.332 19.9604 16.248 19.6101 16.1488C19.6529 16.2594 19.6957 16.3701 19.7347 16.4808C19.832 16.748 19.8553 17.0037 19.8203 17.2442L20.7817 21.6564C20.7817 21.6564 22.51 28.6411 23.8256 29.622C25.1179 30.5838 28.2941 30.9044 29.6331 28.1067C29.6837 27.935 29.7538 27.7518 29.8589 27.5571C29.8822 27.4846 29.9095 27.4388 29.9329 27.3968C29.9367 27.3892 29.9406 27.3815 29.9445 27.3739C29.9718 27.2785 29.999 27.1831 30.0263 27.0838C30.1158 26.767 30.2131 26.4922 30.3182 26.2365C30.723 24.7098 31.0578 22.435 31.3069 20.4083L31.7662 15.9541C30.2248 16.4121 29.1855 16.7136 28.9831 16.7633Z" fill="#202D38"/>
</g>
<path d="M165.707 26.1959H207V26.6693H163.34L165.707 26.1959Z" fill="#202D38"/>
<g clip-path="url(#clip1)">
<path d="M69.5922 13.6373H63.7441L62.8762 15.4204C62.757 15.6662 62.6974 15.8643 62.6974 16.0037C62.6974 16.2752 62.906 16.466 63.3269 16.5687V16.8659H59.0693V16.5687C59.3226 16.521 59.5126 16.433 59.643 16.3082C59.7733 16.1835 59.9261 15.9413 60.0937 15.5855L64.8318 5.8445C64.9845 5.53631 65.059 5.28682 65.059 5.09971C65.059 4.81353 64.8764 4.61174 64.5114 4.487V4.18982H69.0744V4.487C68.7019 4.5934 68.5194 4.77685 68.5194 5.03367C68.5194 5.21345 68.579 5.41891 68.6982 5.64638L73.6039 15.4167C73.8125 15.8313 73.995 16.1138 74.1514 16.2679C74.3079 16.4183 74.5202 16.521 74.7847 16.5687V16.8659H70.0429V16.5687C70.4601 16.499 70.6687 16.3082 70.6687 15.9927C70.6687 15.8643 70.6053 15.6698 70.4787 15.4167L69.5922 13.6373ZM68.7839 11.8982L66.6979 7.38177L64.5785 11.8982H68.7839Z" fill="#202D38"/>
<path d="M79.288 14.7783H87.1997C87.3934 14.7783 87.5424 14.7343 87.6429 14.6499C87.7435 14.5618 87.8254 14.4077 87.8888 14.1839H88.1905V17.4639H87.8888C87.8254 17.2401 87.7435 17.086 87.6429 16.998C87.5424 16.9099 87.3934 16.8696 87.1997 16.8696H75.876V16.5724C76.1032 16.51 76.2596 16.4293 76.349 16.3302C76.4384 16.2312 76.4794 16.0844 76.4794 15.8936V5.16575C76.4794 4.97497 76.4347 4.82821 76.349 4.72915C76.2596 4.63009 76.1032 4.54937 75.876 4.487V4.18982H79.8914V4.487C79.6642 4.54203 79.5078 4.62275 79.4184 4.72548C79.329 4.82821 79.288 4.97497 79.288 5.16575V14.7783Z" fill="#202D38"/>
<path d="M94.8917 10.9516L92.9511 12.4926V15.8937C92.9511 16.0844 92.9958 16.2312 93.0889 16.3339C93.1783 16.4366 93.3347 16.5137 93.5545 16.5724V16.8696H89.5391V16.5724C89.7663 16.51 89.9227 16.4293 90.0121 16.3303C90.1015 16.2312 90.1425 16.0844 90.1425 15.8937V5.15474C90.1425 4.96763 90.0978 4.82821 90.0121 4.72915C89.9227 4.63009 89.7663 4.54937 89.5391 4.487V4.18982H93.5582V4.487C93.331 4.54203 93.1746 4.62275 93.0852 4.72548C92.9958 4.82821 92.9548 4.9713 92.9548 5.15841V9.5978L98.2553 5.33085C98.5012 5.13273 98.6241 4.97497 98.6241 4.85756C98.6241 4.67778 98.4416 4.55304 98.0765 4.487V4.18982H103.34V4.487C103.12 4.53103 102.964 4.57872 102.867 4.63743C102.774 4.69246 102.498 4.90526 102.047 5.26848L101.321 5.86284L96.9442 9.3263L101.906 15.2076C102.364 15.7542 102.695 16.1028 102.9 16.2605C103.105 16.4183 103.362 16.521 103.668 16.5724V16.8696H98.6353V16.5724C98.9705 16.5027 99.1344 16.3853 99.1344 16.2202C99.1344 16.1321 98.9817 15.9047 98.68 15.5341L94.8917 10.9516Z" fill="#202D38"/>
<path d="M111.065 3.96606C113.311 3.96606 115.092 4.5641 116.407 5.76016C117.796 7.01126 118.493 8.62558 118.493 10.6105C118.493 11.8249 118.161 12.9586 117.494 14.0115C116.191 16.0661 114.056 17.0971 111.088 17.0971C108.86 17.0971 107.091 16.4991 105.776 15.303C105.072 14.6646 104.535 13.9015 104.17 13.0099C103.85 12.2248 103.69 11.3956 103.69 10.5297C103.69 9.2603 104.021 8.10093 104.681 7.04795C105.94 5.03005 108.07 4.00275 111.065 3.96606ZM111.076 6.12338C109.851 6.12338 108.827 6.48294 108.007 7.19838C107.039 8.04589 106.554 9.15757 106.554 10.5297C106.554 11.9019 107.039 13.0136 108.007 13.8611C108.827 14.5802 109.855 14.9361 111.095 14.9361C112.335 14.9361 113.36 14.5766 114.172 13.8611C114.656 13.4355 115.029 12.9109 115.286 12.2945C115.513 11.7442 115.625 11.1755 115.625 10.5884C115.625 9.1539 115.14 8.02388 114.172 7.20204C113.349 6.49394 112.313 6.13439 111.076 6.12338Z" fill="#202D38"/>
<path d="M123.924 11.6964V15.9047C123.924 16.0918 123.968 16.2349 124.061 16.3376C124.151 16.4403 124.307 16.5174 124.527 16.5761V16.8732H120.508V16.5761C120.735 16.5137 120.891 16.433 120.981 16.3339C121.07 16.2349 121.111 16.0918 121.111 15.9083V5.16575C121.111 4.97497 121.067 4.82821 120.981 4.72915C120.891 4.63009 120.735 4.54937 120.508 4.487V4.18982H128.561C129.541 4.18982 130.319 4.24485 130.897 4.35859C131.47 4.46866 131.973 4.66678 132.401 4.94562C132.897 5.26848 133.269 5.70508 133.515 6.25542C133.746 6.78741 133.865 7.35609 133.865 7.96513C133.865 10.0344 132.699 11.2451 130.368 11.5974L132.867 15.1012C133.307 15.7139 133.631 16.1101 133.835 16.2862C134.04 16.4623 134.29 16.5614 134.584 16.5797V16.8769H129.932V16.5797C130.252 16.532 130.412 16.4183 130.412 16.2459C130.412 16.1358 130.263 15.8643 129.969 15.4387L127.362 11.7038H123.924V11.6964ZM123.924 9.60513H128.263C128.904 9.60513 129.358 9.58679 129.623 9.5501C129.887 9.51341 130.129 9.43636 130.349 9.31896C130.826 9.0658 131.064 8.60719 131.064 7.94312C131.064 7.27904 130.826 6.8241 130.349 6.56727C130.122 6.44253 129.883 6.36548 129.626 6.3288C129.373 6.29577 128.919 6.27743 128.263 6.27743H123.924V9.60513Z" fill="#202D38"/>
<path d="M139.542 11.7221V15.901C139.542 16.0881 139.587 16.2312 139.68 16.3339C139.769 16.4366 139.926 16.5137 140.146 16.5724V16.8696H136.126V16.5724C136.354 16.51 136.51 16.4293 136.6 16.3303C136.689 16.2312 136.73 16.0881 136.73 15.9047V5.16575C136.73 4.97497 136.685 4.82821 136.6 4.72915C136.51 4.63009 136.354 4.54937 136.126 4.487V4.18982H144.161C145.1 4.18982 145.841 4.25219 146.392 4.37693C146.944 4.50168 147.428 4.71447 147.849 5.01899C148.281 5.33452 148.623 5.74911 148.866 6.26275C149.111 6.79475 149.234 7.35976 149.234 7.95412C149.234 8.80898 149.003 9.55744 148.538 10.2032C148.136 10.7535 147.603 11.1461 146.94 11.3772C146.277 11.6084 145.349 11.7258 144.161 11.7258H139.542V11.7221ZM139.542 9.63448H143.833C144.686 9.63448 145.29 9.54643 145.636 9.36665C145.856 9.24925 146.035 9.06213 146.169 8.80531C146.303 8.54849 146.37 8.26598 146.37 7.95412C146.37 7.6496 146.303 7.37077 146.169 7.11394C146.035 6.85712 145.856 6.67 145.636 6.5526C145.297 6.37282 144.697 6.28477 143.833 6.28477H139.542V9.63448Z" fill="#202D38"/>
<path d="M154.319 14.7783H162.23C162.424 14.7783 162.573 14.7343 162.674 14.6499C162.774 14.5618 162.856 14.4077 162.919 14.1839H163.221V17.4639H162.919C162.856 17.2401 162.774 17.086 162.674 16.998C162.573 16.9099 162.424 16.8696 162.23 16.8696H150.903V16.5724C151.13 16.51 151.286 16.4293 151.376 16.3302C151.465 16.2312 151.506 16.0844 151.506 15.8936V5.16575C151.506 4.97497 151.462 4.82821 151.376 4.72915C151.286 4.63009 151.13 4.54937 150.903 4.487V4.18982H154.922V4.487C154.695 4.54203 154.538 4.62275 154.449 4.72548C154.36 4.82821 154.319 4.97497 154.319 5.16575V14.7783Z" fill="#202D38"/>
<path d="M174.709 13.6373H168.857L167.989 15.4204C167.87 15.6662 167.81 15.8643 167.81 16.0037C167.81 16.2752 168.019 16.466 168.44 16.5687V16.8659H164.182V16.5687C164.435 16.521 164.625 16.433 164.756 16.3082C164.886 16.1835 165.039 15.9413 165.206 15.5855L169.941 5.84083C170.094 5.53264 170.168 5.28316 170.168 5.09604C170.168 4.80987 169.986 4.60808 169.62 4.48333V4.18982H174.183V4.487C173.811 4.5934 173.628 4.77685 173.628 5.03367C173.628 5.21345 173.688 5.41891 173.807 5.64638L178.713 15.4167C178.922 15.8313 179.104 16.1138 179.261 16.2679C179.417 16.4183 179.629 16.521 179.894 16.5687V16.8659H175.156V16.5687C175.573 16.499 175.781 16.3082 175.781 15.9927C175.781 15.8643 175.718 15.6698 175.591 15.4167L174.709 13.6373ZM173.9 11.8982L171.814 7.38177L169.695 11.8982H173.9Z" fill="#202D38"/>
<path d="M192.965 5.26485L191.426 8.25135L191.162 8.10092C191.169 8.03855 191.169 7.99085 191.169 7.9505C191.169 7.74137 190.987 7.5139 190.622 7.27175C189.504 6.50495 188.189 6.11971 186.681 6.11971C186.014 6.11971 185.425 6.20043 184.919 6.36186C184.546 6.4866 184.248 6.67005 184.017 6.91953C183.786 7.16535 183.675 7.43685 183.675 7.72669C183.675 8.20365 183.965 8.52652 184.55 8.70262C184.852 8.79068 185.5 8.8824 186.491 8.98146L187.973 9.12822C188.852 9.21994 189.564 9.34835 190.108 9.50978C190.651 9.67122 191.132 9.89502 191.557 10.1885C191.985 10.4931 192.32 10.8893 192.57 11.3846C192.819 11.8799 192.942 12.4082 192.942 12.9732C192.942 13.8648 192.648 14.6573 192.063 15.3507C191.534 15.9817 190.715 16.4477 189.601 16.7522C188.77 16.9797 187.88 17.0971 186.93 17.0971C185.228 17.0971 183.544 16.6935 181.887 15.89C181.533 15.7286 181.324 15.6479 181.254 15.6479C181.172 15.6479 181.041 15.7176 180.866 15.8533L180.594 15.7139L181.991 12.6027L182.263 12.7311C182.263 12.7861 182.263 12.8265 182.263 12.8522C182.263 13.131 182.397 13.3878 182.669 13.6226C183.079 13.9822 183.708 14.2904 184.565 14.5509C185.422 14.8114 186.23 14.9398 186.997 14.9398C187.835 14.9398 188.547 14.8004 189.139 14.5215C189.467 14.3674 189.728 14.162 189.921 13.9051C190.115 13.6483 190.216 13.3805 190.216 13.1016C190.216 12.6797 189.985 12.3825 189.527 12.2028C189.206 12.078 188.558 11.9643 187.586 11.8616L186.133 11.7148C185.157 11.6157 184.472 11.5203 184.07 11.4323C183.667 11.3406 183.265 11.1975 182.863 10.9994C182.289 10.7205 181.842 10.3023 181.514 9.74459C181.22 9.24195 181.071 8.66593 181.071 8.01654C181.071 6.94521 181.444 6.05734 182.192 5.35658C183.172 4.43201 184.643 3.96973 186.606 3.96973C187.429 3.96973 188.197 4.05044 188.908 4.21554C189.62 4.38064 190.506 4.68516 191.568 5.12543C191.933 5.26852 192.156 5.3419 192.238 5.3419C192.369 5.3419 192.525 5.26852 192.7 5.12543L192.965 5.26485Z" fill="#202D38"/>
<path d="M202.02 6.2811V15.8937C202.02 16.0844 202.064 16.2312 202.15 16.3303C202.239 16.4293 202.396 16.51 202.623 16.5724V16.8696H198.604V16.5724C198.831 16.51 198.987 16.4293 199.077 16.3303C199.166 16.2312 199.207 16.0844 199.207 15.8937V6.2811H195.207C195.017 6.2811 194.875 6.32513 194.775 6.40951C194.674 6.4939 194.592 6.65166 194.529 6.87547H194.227V3.59546H194.529C194.6 3.82293 194.681 3.97703 194.778 4.06141C194.875 4.1458 195.02 4.18982 195.207 4.18982H206.005C206.199 4.18982 206.348 4.1458 206.448 4.06141C206.549 3.97703 206.631 3.81926 206.694 3.59546H206.996V6.87547H206.694C206.631 6.64799 206.549 6.4939 206.448 6.40951C206.348 6.32513 206.199 6.2811 206.005 6.2811H202.02Z" fill="#202D38"/>
</g>
<path d="M61.4749 27.6597H61.124V23.6932H63.7278V24.0025H61.4749V25.4713H63.6848V25.7805H61.4749V27.6597Z" fill="black"/>
<path d="M69.3786 27.731C68.7836 27.731 68.3014 27.5368 67.9321 27.1483C67.5668 26.7597 67.3842 26.2701 67.3842 25.6794C67.3842 25.0887 67.5668 24.5991 67.9321 24.2106C68.3014 23.8221 68.7836 23.6278 69.3786 23.6278C69.9696 23.6278 70.4497 23.8221 70.8191 24.2106C71.1884 24.5991 71.3731 25.0887 71.3731 25.6794C71.3731 26.2701 71.1884 26.7597 70.8191 27.1483C70.4497 27.5368 69.9696 27.731 69.3786 27.731ZM69.3786 27.4218C69.8629 27.4218 70.2548 27.2593 70.5544 26.9342C70.8539 26.6051 71.0037 26.1869 71.0037 25.6794C71.0037 25.168 70.8539 24.7498 70.5544 24.4247C70.2589 24.0996 69.867 23.937 69.3786 23.937C68.8862 23.937 68.4922 24.0996 68.1968 24.4247C67.9013 24.7498 67.7536 25.168 67.7536 25.6794C67.7536 26.1869 67.9013 26.6051 68.1968 26.9342C68.4922 27.2593 68.8862 27.4218 69.3786 27.4218Z" fill="black"/>
<path d="M77.1573 27.731C76.5623 27.731 76.0801 27.5368 75.7107 27.1483C75.3455 26.7597 75.1629 26.2701 75.1629 25.6794C75.1629 25.0887 75.3455 24.5991 75.7107 24.2106C76.0801 23.8221 76.5623 23.6278 77.1573 23.6278C77.7483 23.6278 78.2284 23.8221 78.5977 24.2106C78.9671 24.5991 79.1517 25.0887 79.1517 25.6794C79.1517 26.2701 78.9671 26.7597 78.5977 27.1483C78.2284 27.5368 77.7483 27.731 77.1573 27.731ZM77.1573 27.4218C77.6416 27.4218 78.0335 27.2593 78.333 26.9342C78.6326 26.6051 78.7824 26.1869 78.7824 25.6794C78.7824 25.168 78.6326 24.7498 78.333 24.4247C78.0376 24.0996 77.6457 23.937 77.1573 23.937C76.6649 23.937 76.2709 24.0996 75.9754 24.4247C75.68 24.7498 75.5322 25.168 75.5322 25.6794C75.5322 26.1869 75.68 26.6051 75.9754 26.9342C76.2709 27.2593 76.6649 27.4218 77.1573 27.4218Z" fill="black"/>
<path d="M84.4066 27.6597H83.0955V23.6932H84.4066C85.0263 23.6932 85.5269 23.8855 85.9086 24.2701C86.2902 24.6506 86.481 25.1204 86.481 25.6794C86.481 26.2424 86.2902 26.7142 85.9086 27.0947C85.531 27.4714 85.0304 27.6597 84.4066 27.6597ZM84.4066 27.3505C84.9319 27.3505 85.3464 27.1919 85.65 26.8747C85.9578 26.5576 86.1117 26.1591 86.1117 25.6794C86.1117 25.1997 85.9599 24.8013 85.6562 24.4841C85.3525 24.163 84.936 24.0025 84.4066 24.0025H83.4463V27.3505H84.4066Z" fill="black"/>
<path d="M95.457 27.6597H95.1061V23.6932H96.645C97.0267 23.6932 97.3283 23.8062 97.5499 24.0322C97.7715 24.2542 97.8823 24.5277 97.8823 24.8528C97.8823 25.1779 97.7694 25.4534 97.5437 25.6794C97.3221 25.9014 97.0225 26.0124 96.645 26.0124H95.457V27.6597ZM96.6081 25.7032C96.8789 25.7032 97.0964 25.6239 97.2606 25.4653C97.4288 25.3068 97.5129 25.1026 97.5129 24.8528C97.5129 24.6031 97.4288 24.3989 97.2606 24.2403C97.0964 24.0817 96.8789 24.0025 96.6081 24.0025H95.457V25.7032H96.6081Z" fill="black"/>
<path d="M104.593 27.6597H104.187L103.781 26.6844H101.608L101.201 27.6597H100.795L102.476 23.6932H102.913L104.593 27.6597ZM103.664 26.3752L102.691 24.056L101.725 26.3752H103.664Z" fill="black"/>
<path d="M109.963 27.731C109.372 27.731 108.878 27.5407 108.48 27.1602C108.082 26.7756 107.883 26.282 107.883 25.6794C107.883 25.0768 108.082 24.5852 108.48 24.2046C108.878 23.8201 109.372 23.6278 109.963 23.6278C110.571 23.6278 111.069 23.8617 111.459 24.3295L111.164 24.5139C111.032 24.3394 110.86 24.2007 110.646 24.0976C110.433 23.9906 110.205 23.937 109.963 23.937C109.475 23.937 109.067 24.0996 108.738 24.4247C108.414 24.7498 108.252 25.168 108.252 25.6794C108.252 26.1869 108.414 26.6051 108.738 26.9342C109.067 27.2593 109.475 27.4218 109.963 27.4218C110.205 27.4218 110.433 27.3703 110.646 27.2672C110.86 27.1602 111.032 27.0194 111.164 26.845L111.459 27.0234C111.065 27.4952 110.566 27.731 109.963 27.731Z" fill="black"/>
<path d="M118.199 27.6597H117.749L116.056 25.7924L115.601 26.2741V27.6597H115.25V23.6932H115.601V25.8638L117.583 23.6932H118.032L116.284 25.5843L118.199 27.6597Z" fill="black"/>
<path d="M125.314 27.6597H124.908L124.502 26.6844H122.329L121.922 27.6597H121.516L123.197 23.6932H123.634L125.314 27.6597ZM124.385 26.3752L123.412 24.056L122.446 26.3752H124.385Z" fill="black"/>
<path d="M130.684 27.737C130.097 27.737 129.603 27.5447 129.201 27.1602C128.803 26.7756 128.604 26.282 128.604 25.6794C128.604 25.0768 128.803 24.5852 129.201 24.2046C129.603 23.8201 130.097 23.6278 130.684 23.6278C131.308 23.6278 131.823 23.8538 132.229 24.3057L131.965 24.4901C131.817 24.3196 131.63 24.1848 131.404 24.0857C131.183 23.9866 130.943 23.937 130.684 23.937C130.196 23.937 129.788 24.0996 129.459 24.4247C129.135 24.7498 128.973 25.168 128.973 25.6794C128.973 26.1869 129.135 26.6051 129.459 26.9342C129.788 27.2632 130.196 27.4278 130.684 27.4278C130.935 27.4278 131.164 27.3802 131.374 27.285C131.583 27.1899 131.755 27.0769 131.891 26.9461V25.9946H130.34V25.6913H132.242V27.0769C131.835 27.517 131.316 27.737 130.684 27.737Z" fill="black"/>
<path d="M136.562 27.6597H136.212V23.6932H136.562V27.6597Z" fill="black"/>
<path d="M143.941 27.6597H143.596L141.011 24.2522V27.6597H140.66V23.6932H141.017L143.59 27.0531V23.6932H143.941V27.6597Z" fill="black"/>
<path d="M149.969 27.737C149.382 27.737 148.887 27.5447 148.485 27.1602C148.087 26.7756 147.888 26.282 147.888 25.6794C147.888 25.0768 148.087 24.5852 148.485 24.2046C148.887 23.8201 149.382 23.6278 149.969 23.6278C150.592 23.6278 151.107 23.8538 151.514 24.3057L151.249 24.4901C151.101 24.3196 150.915 24.1848 150.689 24.0857C150.467 23.9866 150.227 23.937 149.969 23.937C149.48 23.937 149.072 24.0996 148.744 24.4247C148.419 24.7498 148.257 25.168 148.257 25.6794C148.257 26.1869 148.419 26.6051 148.744 26.9342C149.072 27.2632 149.48 27.4278 149.969 27.4278C150.219 27.4278 150.449 27.3802 150.658 27.285C150.867 27.1899 151.04 27.0769 151.175 26.9461V25.9946H149.624V25.6913H151.526V27.0769C151.12 27.517 150.601 27.737 149.969 27.737Z" fill="black"/>
<defs>
<clipPath id="clip0">
<rect width="51.8784" height="30.3052" fill="white"/>
</clipPath>
<clipPath id="clip1">
<rect width="147.931" height="13.8685" fill="white" transform="translate(59.0693 3.59546)"/>
</clipPath>
</defs>
</svg>
