<svg width="589" height="99" viewBox="0 0 589 99" fill="none" xmlns="http://www.w3.org/2000/svg">
<path opacity="0.31" fill-rule="evenodd" clip-rule="evenodd" d="M0.258789 88.7158L1.92999 88.4372C3.12345 88.2383 3.97107 87.7248 4.60483 86.9099L4.61324 86.8991L4.6218 86.8884C5.65903 85.5919 6.39102 84.4828 6.85899 83.554L37.6121 16.4751C38.429 14.5684 39.0315 13.0939 39.427 12.0392L39.4479 11.9835L39.472 11.9291C39.9344 10.8889 40.1256 9.99651 40.1259 9.23196L40.092 9.19805C39.931 9.03705 39.6958 8.84289 39.364 8.62167L38.4734 8.02794L38.4734 1.23939L73.6648 1.23939L73.6648 8.02794L72.7742 8.62167C72.4049 8.8679 72.0113 9.06988 71.5992 9.23222C71.5997 9.64027 71.7419 10.3374 72.1996 11.3942C72.9158 12.5551 73.6163 13.8968 74.3043 15.409L107.732 85.5662C108.317 86.606 108.872 87.1968 109.336 87.5065C109.989 87.9415 110.695 88.2678 111.462 88.487L112.912 88.9014L112.912 96.1282L79.5799 96.1282L79.5799 89.0297H81.5799C81.8495 89.0297 82.1865 88.9531 82.6166 88.695L82.6825 88.6555L82.7512 88.6212C82.7972 88.5982 82.8134 88.5827 82.8146 88.5816C82.8148 88.5814 82.8155 88.5815 82.8194 88.5744C82.8273 88.5598 82.885 88.4445 82.885 88.1378C82.885 87.537 82.7856 87.0352 82.6149 86.6084C82.3386 85.9177 81.9986 85.0339 81.5958 83.9609L76.5961 73.406L34.8726 73.406L29.6618 83.455C29.6596 83.4593 29.6575 83.4636 29.6553 83.4679C29.1372 84.5047 28.6857 85.4708 28.2995 86.3671C28.0934 87.0059 28.0138 87.522 28.0138 87.9313C28.0138 88.0518 28.0205 88.1467 28.0294 88.2191C28.414 88.3246 29.0265 88.41 29.9386 88.41H31.9386L31.9386 96.1282L0.258789 96.1282L0.258789 88.7158ZM26.427 85.659C26.8401 84.6951 27.3221 83.6622 27.8729 82.5605L33.6567 71.406L77.8618 71.406L83.439 83.1802C83.8522 84.2819 84.1964 85.177 84.4719 85.8656C84.7473 86.5541 84.885 87.3115 84.885 88.1378C84.885 89.2395 84.4719 89.9969 83.6456 90.41C82.957 90.8232 82.2685 91.0297 81.5799 91.0297V94.1282L110.912 94.1282V90.41C109.948 90.1346 109.053 89.7215 108.227 89.1706C107.401 88.6198 106.643 87.7247 105.955 86.4853L72.4911 16.253C71.8025 14.7382 71.114 13.43 70.4254 12.3283C69.8746 11.0889 69.5991 10.0561 69.5991 9.22979C69.5991 8.26582 69.8057 7.71498 70.2188 7.57726C70.7697 7.43956 71.2517 7.23299 71.6648 6.95757L71.6648 3.23939L40.4734 3.23939L40.4734 6.95757C40.8865 7.23299 41.2308 7.50842 41.5062 7.78384C41.9194 7.92154 42.1259 8.40353 42.1259 9.22979C42.1259 10.3315 41.8505 11.502 41.2997 12.7414C40.8865 13.8431 40.2668 15.3579 39.4406 17.2859L8.66232 84.4196C8.11148 85.5213 7.28522 86.7607 6.18353 88.1378C5.21956 89.3772 3.91131 90.1346 2.25879 90.41L2.25879 94.1282L29.9386 94.1282L29.9386 90.41C28.6992 90.41 27.7352 90.2723 27.0466 89.9969C26.3581 89.7215 26.0138 89.0329 26.0138 87.9313C26.0138 87.2427 26.1515 86.4853 26.427 85.659ZM54.5199 21.4172L39.8537 56.1202L71.2517 56.1202L54.5199 21.4172ZM54.6398 26.271L42.8702 54.1202L68.0671 54.1202L54.6398 26.271ZM161.592 1.23939L161.592 8.95757L159.592 8.95757C158.162 8.95757 157.436 9.20231 157.122 9.40741C156.992 9.49204 156.945 9.56067 156.919 9.61069C156.89 9.66803 156.841 9.79718 156.841 10.0561L156.841 76.8424L210.614 76.8424C211.945 76.8424 212.91 76.5752 213.612 76.1584C214.162 75.7221 214.398 75.2238 214.398 74.5045V72.5045L222.116 72.5045L222.116 98.1939L214.398 98.1939V96.3072C213.421 96.1912 212.166 96.1282 210.614 96.1282L127.64 96.1282L127.64 88.41L129.64 88.41C131.304 88.41 132.226 88.1586 132.669 87.903C132.86 87.7927 132.921 87.7055 132.944 87.6666C132.966 87.6277 133.011 87.5316 133.011 87.3115L133.011 10.0561C133.011 9.83596 132.966 9.73986 132.944 9.70103C132.921 9.66213 132.86 9.57489 132.669 9.46456C132.226 9.20902 131.304 8.95757 129.64 8.95757L127.64 8.95757L127.64 1.23939L161.592 1.23939ZM214.745 77.8095C213.644 78.4981 212.267 78.8424 210.614 78.8424L154.841 78.8424L154.841 10.0561C154.841 7.9904 156.425 6.95757 159.592 6.95757V3.23939L129.64 3.23939V6.95757C133.221 6.95757 135.011 7.9904 135.011 10.0561L135.011 87.3115C135.011 89.3772 133.221 90.41 129.64 90.41L129.64 94.1282L210.614 94.1282C212.267 94.1282 213.644 94.1971 214.745 94.3348C215.847 94.4725 216.398 95.0922 216.398 96.1939L220.116 96.1939L220.116 74.5045L216.398 74.5045C216.398 75.8816 215.847 76.9833 214.745 77.8095ZM273.068 88.41V96.1282L242.008 96.1282L242.008 88.41H244.008C244.833 88.41 245.079 88.2143 245.119 88.1763C245.138 88.1585 245.313 87.9952 245.313 87.3115L245.313 10.0561C245.313 9.37232 245.139 9.20955 245.12 9.19175C245.079 9.15379 244.833 8.95757 244.008 8.95757L242.008 8.95757L242.008 1.23939L273.068 1.23939V8.95757L271.068 8.95757C269.969 8.95757 269.514 9.18359 269.364 9.30196C269.304 9.34959 269.144 9.47601 269.144 10.0561L269.144 39.5064C272.802 36.5342 276.541 33.5623 280.361 30.5908C285.308 26.6055 289.773 22.9653 293.755 19.6698C297.734 16.3765 301.027 13.6327 303.634 11.4376C304.912 10.2929 305.825 9.40739 306.406 8.76587C306.449 8.71806 306.489 8.67256 306.527 8.62933C306.132 8.40586 305.819 8.33788 305.565 8.33788L303.565 8.33788V1.23939L341.648 1.23939V8.39909L340.28 8.85493C338.998 9.28252 336.766 10.6546 333.461 13.2702C333.458 13.2724 333.456 13.2745 333.453 13.2767L300.526 39.8947L331.91 78.8266L331.914 78.8324C333.54 80.8651 335.304 82.9687 337.207 85.1435C338.975 87.0325 340.598 88.0704 342.057 88.487L343.507 88.9014V96.1282L308.935 96.1282V88.41H310.786C310.716 88.3027 310.637 88.1864 310.547 88.0609L310.489 87.9786L310.438 87.8907C309.995 87.1154 308.945 85.7324 307.152 83.6638L307.134 83.6432L282.958 54.1605L269.144 65.1413L269.144 87.3115C269.144 87.8916 269.303 88.0175 269.363 88.0651C269.513 88.1835 269.969 88.41 271.068 88.41H273.068ZM267.144 64.1762L283.256 51.3691L308.663 82.354C310.453 84.4196 311.624 85.9344 312.175 86.8984C312.863 87.8624 313.208 88.6198 313.208 89.1706C313.208 89.9969 312.45 90.41 310.935 90.41V94.1282L341.507 94.1282V90.41C339.579 89.8592 337.651 88.5509 335.723 86.4853C333.795 84.2819 332.005 82.1474 330.353 80.0818L297.715 39.5949L332.212 11.7086C335.517 9.09208 337.996 7.50842 339.648 6.95757V3.23939L305.565 3.23939V6.33788C306.253 6.33788 306.942 6.54444 307.63 6.95757C308.457 7.3707 308.87 7.92154 308.87 8.61009C308.87 9.16093 307.562 10.6069 304.945 12.948C302.329 15.1513 299.023 17.9055 295.03 21.2106C291.036 24.5156 286.561 28.165 281.603 32.1586C277.348 35.4677 273.195 38.7769 269.144 42.086C268.474 42.6328 267.807 43.1795 267.144 43.7262L267.144 10.0561C267.144 7.9904 268.452 6.95757 271.068 6.95757V3.23939L244.008 3.23939V6.95757C246.212 6.95757 247.313 7.9904 247.313 10.0561L247.313 87.3115C247.313 89.3772 246.212 90.41 244.008 90.41L244.008 94.1282L271.068 94.1282V90.41C268.452 90.41 267.144 89.3772 267.144 87.3115L267.144 64.1762ZM307.001 8.0102C307.002 8.01041 306.995 8.02464 306.977 8.05415C306.991 8.02512 307 8.00999 307.001 8.0102ZM394.143 21.4493L394.125 21.4554C390.227 22.7547 386.729 24.6989 383.618 27.2915L383.599 27.3075L383.579 27.3231C380.504 29.7577 377.997 32.7705 376.058 36.3834C374.297 39.9168 373.39 44.0013 373.39 48.6838C373.39 53.3663 374.297 57.4507 376.058 60.9841C377.998 64.5993 380.51 67.6889 383.599 70.2668C386.716 72.7305 390.227 74.6844 394.144 76.1249C398.206 77.431 402.324 78.0818 406.506 78.0818C410.694 78.0818 414.743 77.4291 418.662 76.1249C422.723 74.6817 426.301 72.7261 429.413 70.2668C432.496 67.6928 434.934 64.6118 436.735 61.0096L436.747 60.9844L436.761 60.9595C438.651 57.431 439.622 53.3563 439.622 48.6838C439.622 44.0113 438.651 39.9366 436.761 36.4081L436.747 36.3832L436.735 36.358C434.935 32.7579 432.503 29.7536 429.433 27.3231L429.413 27.3075L429.394 27.2915C426.294 24.7081 422.735 22.7634 418.699 21.4615L418.661 21.4494L418.624 21.4358C414.714 20.002 410.678 19.2859 406.506 19.2859C402.333 19.2859 398.221 20.0022 394.161 21.4429L394.143 21.4493ZM430.674 71.8191C427.369 74.4356 423.582 76.5013 419.313 78.0161C415.182 79.3932 410.913 80.0818 406.506 80.0818C402.099 80.0818 397.761 79.3932 393.492 78.0161C389.361 76.5013 385.643 74.4356 382.338 71.8191C379.033 69.0649 376.347 65.7599 374.282 61.904C372.354 58.0481 371.39 53.6414 371.39 48.6838C371.39 43.7262 372.354 39.3195 374.282 35.4636C376.347 31.6077 379.033 28.3715 382.338 25.755C385.643 23.0008 389.361 20.9352 393.492 19.5581C397.761 18.0433 402.099 17.2859 406.506 17.2859C410.913 17.2859 415.182 18.0433 419.313 19.5581C423.582 20.9352 427.369 23.0008 430.674 25.755C433.979 28.3715 436.596 31.6077 438.524 35.4636C440.589 39.3195 441.622 43.7262 441.622 48.6838C441.622 53.6414 440.589 58.0481 438.524 61.904C436.596 65.7599 433.979 69.0649 430.674 71.8191ZM458.907 70.2264L458.903 70.2348C455.882 76.2776 451.768 81.3339 446.568 85.3786C441.376 89.417 435.273 92.3508 428.295 94.2022L428.281 94.2059L428.267 94.2094C421.482 95.9057 414.226 96.7479 406.506 96.7479C398.786 96.7479 391.464 95.9056 384.547 94.2117L384.524 94.2059L384.5 94.1996C377.657 92.3463 371.629 89.4116 366.444 85.3786C361.243 81.3339 357.13 76.2776 354.108 70.2348L354.104 70.2264L354.1 70.218C351.052 63.9757 349.559 56.7799 349.559 48.6838C349.559 40.5926 351.05 33.46 354.105 27.347C357.123 21.1694 361.236 16.0393 366.444 11.989C371.619 7.96393 377.634 4.96367 384.463 2.97192L384.474 2.96884C391.414 0.986 398.761 0 406.506 0C414.249 0 421.53 0.985458 428.338 2.97059C435.3 4.96062 441.388 7.95969 446.568 11.989C451.776 16.0399 455.89 21.1709 458.908 27.3497C461.962 33.4621 463.452 40.5939 463.452 48.6838C463.452 56.7799 461.96 63.9757 458.912 70.218L458.907 70.2264ZM427.782 4.89191C421.172 2.96397 414.08 2 406.506 2C398.932 2 391.771 2.96397 385.023 4.89191C378.413 6.81986 372.629 9.71178 367.672 13.5677C362.714 17.4236 358.789 22.3123 355.897 28.2338C353.005 34.0177 351.559 40.8343 351.559 48.6838C351.559 56.5333 353.005 63.4188 355.897 69.3404C358.789 75.1242 362.714 79.9441 367.672 83.7999C372.629 87.6558 378.413 90.4789 385.023 92.2691C391.771 93.9217 398.932 94.7479 406.506 94.7479C414.08 94.7479 421.172 93.9217 427.782 92.2691C434.53 90.4789 440.383 87.6558 445.34 83.7999C450.298 79.9441 454.223 75.1242 457.114 69.3404C460.006 63.4188 461.452 56.5333 461.452 48.6838C461.452 40.8343 460.006 34.0177 457.114 28.2338C454.223 22.3123 450.298 17.4236 445.34 13.5677C440.383 9.71178 434.53 6.81986 427.782 4.89191ZM556.729 23.3262L556.687 23.2989C554.021 21.56 549.413 20.5252 542.494 20.5252L511.856 20.5252V40.4868L542.494 40.4868C549.095 40.4868 553.705 39.4311 556.607 37.5949C559.355 35.8565 560.737 33.3202 560.737 29.6798C560.737 27.039 559.545 24.969 556.772 23.3513L556.729 23.3262ZM509.856 42.4868V18.5252L542.494 18.5252C549.517 18.5252 554.612 19.5581 557.78 21.6237C561.085 23.5517 562.737 26.237 562.737 29.6798C562.737 38.2178 555.989 42.4868 542.494 42.4868L509.856 42.4868ZM485.895 6.95757V3.23939L542.907 3.23939C555.163 3.23939 564.734 5.30505 571.619 9.43636C578.505 13.43 581.948 20.3155 581.948 30.0929C581.948 33.8111 581.259 37.1161 579.882 40.008C578.505 42.9 576.646 45.4476 574.305 47.651C572.101 49.7166 569.623 51.438 566.868 52.8151C564.77 53.7592 562.632 54.5435 560.454 55.168C559.773 55.3633 559.088 55.543 558.399 55.707L578.643 85.2459C579.744 86.7607 580.915 87.9313 582.154 88.7575C583.531 89.4461 584.977 89.9969 586.492 90.41V94.1282L554.888 94.1282V90.41C556.678 90.41 557.573 89.7903 557.573 88.5509C557.573 87.1738 556.54 85.0393 554.474 82.1474L538.156 57.7727L509.443 57.7727L509.443 87.3115C509.443 88.4132 509.856 89.2395 510.683 89.7903C511.647 90.2035 512.542 90.41 513.368 90.41V94.1282L485.895 94.1282V90.41C488.374 90.41 489.613 89.3772 489.613 87.3115L489.613 10.0561C489.613 7.9904 488.374 6.95757 485.895 6.95757ZM511.674 88.036C512.36 88.3071 512.919 88.41 513.368 88.41H515.368V96.1282L483.895 96.1282V88.41L485.895 88.41C486.906 88.41 487.292 88.1919 487.403 88.099C487.445 88.0643 487.613 87.9305 487.613 87.3115L487.613 10.0561C487.613 9.44322 487.448 9.30604 487.404 9.26969L487.403 9.26863C487.292 9.17573 486.906 8.95757 485.895 8.95757L483.895 8.95757V1.23939L542.907 1.23939C555.343 1.23939 565.319 3.32783 572.637 7.71427C580.279 12.1531 583.948 19.799 583.948 30.0929C583.948 34.0609 583.212 37.6674 581.688 40.8679C580.204 43.9848 578.197 46.7345 575.676 49.1074L575.673 49.1101C573.326 51.3105 570.687 53.1421 567.763 54.604L567.726 54.6222L567.689 54.639C565.71 55.5297 563.694 56.2846 561.643 56.903L580.26 84.0696C580.265 84.0769 580.271 84.0842 580.276 84.0915C581.235 85.4053 582.203 86.3647 583.164 87.0257C584.386 87.6277 585.67 88.1129 587.018 88.4805L588.492 88.8824V96.1282L552.888 96.1282V88.41H554.888C555.187 88.41 555.405 88.3867 555.557 88.357C555.512 88.0584 555.367 87.5517 554.998 86.7884C554.549 85.8597 553.843 84.7044 552.847 83.3099L552.829 83.2852L537.088 59.7727L511.443 59.7727L511.443 87.3115C511.443 87.7229 511.535 87.9094 511.674 88.036Z" fill="url(#paint0_linear)"/>
<defs>
<linearGradient id="paint0_linear" x1="294.375" y1="0" x2="294.375" y2="98.1282" gradientUnits="userSpaceOnUse">
<stop stop-color="white"/>
<stop offset="1" stop-color="white" stop-opacity="0"/>
</linearGradient>
</defs>
</svg>
