<svg width="546" height="102" viewBox="0 0 546 102" fill="none" xmlns="http://www.w3.org/2000/svg">
<path opacity="0.78" fill-rule="evenodd" clip-rule="evenodd" d="M70.5324 26.6131L70.4832 26.5794C68.2765 25.0695 65.3928 24.2434 61.6974 24.2434L28.9944 24.2434L28.9944 42.7591H61.6974C65.4659 42.7591 68.42 42.1091 70.6644 40.9323C72.5257 39.9006 73.7439 37.8077 73.7439 33.8111C73.7439 29.983 72.5406 27.818 70.5836 26.6438L70.5324 26.6131ZM71.6126 42.6934C68.9961 44.0705 65.691 44.7591 61.6974 44.7591H26.9944L26.9944 22.2434L61.6974 22.2434C65.691 22.2434 68.9961 23.1385 71.6126 24.9288C74.3668 26.5813 75.7439 29.5421 75.7439 33.8111C75.7439 38.2178 74.3668 41.1786 71.6126 42.6934ZM0 12.6758L0 4.95757L62.1106 4.95757C73.4346 4.95757 82.2635 6.97219 88.2694 11.3219C94.6441 15.8364 97.5742 23.5522 97.5742 33.8111C97.5742 44.0691 94.6432 51.7415 88.2329 56.1192L88.2239 56.1254C82.229 60.1719 73.4212 62.0449 62.1106 62.0449H28.9944L28.9944 91.0297C28.9944 91.5369 29.1347 91.6499 29.2414 91.7261C29.472 91.8909 30.064 92.1282 31.3323 92.1282H33.3323V99.8464H0L0 92.1282H2C3.58667 92.1282 4.44417 91.8786 4.84411 91.6386C5.01426 91.5365 5.06992 91.4557 5.09306 91.414C5.11769 91.3697 5.16414 91.2629 5.16414 91.0297L5.16414 13.7742C5.16414 13.5411 5.11769 13.4343 5.09306 13.3899C5.06992 13.3483 5.01426 13.2674 4.84411 13.1654C4.44417 12.9254 3.58667 12.6758 2 12.6758H0ZM26.9944 60.0449H62.1106C73.2651 60.0449 81.5966 58.1858 87.105 54.4676C92.7511 50.6117 95.5742 43.7262 95.5742 33.8111C95.5742 23.8959 92.7511 16.9416 87.105 12.948C81.5966 8.95437 73.2651 6.95757 62.1106 6.95757L2 6.95757L2 10.6758C5.44276 10.6758 7.16414 11.7086 7.16414 13.7742L7.16414 91.0297C7.16414 93.0954 5.44276 94.1282 2 94.1282L2 97.8464H31.3323V94.1282C28.4404 94.1282 26.9944 93.0954 26.9944 91.0297L26.9944 60.0449ZM150.592 4.95757V12.6758L148.592 12.6758C147.162 12.6758 146.436 12.9205 146.121 13.1256C145.992 13.2102 145.944 13.2788 145.919 13.3289C145.89 13.3862 145.841 13.5154 145.841 13.7742V80.5605H199.614C200.945 80.5605 201.909 80.2934 202.611 79.8766C203.162 79.4403 203.398 78.942 203.398 78.2227V76.2227H211.116L211.116 101.912H203.398V100.025C202.421 99.9093 201.166 99.8464 199.614 99.8464L116.64 99.8464V92.1282H118.64C120.304 92.1282 121.226 91.8768 121.669 91.6212C121.86 91.5109 121.921 91.4236 121.943 91.3848C121.966 91.3459 122.011 91.2498 122.011 91.0297L122.011 13.7742C122.011 13.5541 121.966 13.458 121.943 13.4192C121.921 13.3803 121.86 13.2931 121.669 13.1827C121.226 12.9272 120.304 12.6758 118.64 12.6758H116.64V4.95757L150.592 4.95757ZM203.745 81.5277C202.643 82.2163 201.266 82.5605 199.614 82.5605H143.841V13.7742C143.841 11.7086 145.425 10.6758 148.592 10.6758V6.95757L118.64 6.95757V10.6758C122.221 10.6758 124.011 11.7086 124.011 13.7742L124.011 91.0297C124.011 93.0954 122.221 94.1282 118.64 94.1282V97.8464L199.614 97.8464C201.266 97.8464 202.643 97.9152 203.745 98.0529C204.847 98.1907 205.398 98.8104 205.398 99.912H209.116L209.116 78.2227H205.398C205.398 79.5998 204.847 80.7014 203.745 81.5277ZM218.821 92.434L220.492 92.1554C221.685 91.9565 222.533 91.4429 223.167 90.6281L223.175 90.6173L223.184 90.6066C224.221 89.3101 224.953 88.201 225.421 87.2723L256.174 20.1928C256.991 18.2863 257.593 16.812 257.989 15.7573L258.01 15.7017L258.034 15.6473C258.496 14.607 258.687 13.7147 258.688 12.9502L258.654 12.9162C258.493 12.7552 258.258 12.5611 257.926 12.3399L257.035 11.7461V4.95757L292.227 4.95757V11.7461L291.336 12.3398C290.967 12.5861 290.573 12.7881 290.161 12.9504C290.162 13.3585 290.304 14.0556 290.761 15.1123C291.478 16.273 292.178 17.6145 292.866 19.1265C292.868 19.1322 292.871 19.1379 292.874 19.1436L326.294 89.2846C326.879 90.3242 327.434 90.915 327.898 91.2247C328.551 91.6597 329.257 91.986 330.024 92.2052L331.474 92.6196V99.8464L298.142 99.8464V92.7479H300.142C300.411 92.7479 300.748 92.6713 301.178 92.4132L301.244 92.3737L301.313 92.3394C301.359 92.3163 301.375 92.3009 301.376 92.2998C301.377 92.2995 301.377 92.2997 301.381 92.2926C301.389 92.278 301.447 92.1627 301.447 91.856C301.447 91.2552 301.347 90.7534 301.177 90.3266C300.901 89.6359 300.56 88.7521 300.158 87.6791L295.158 77.1242H253.434L248.224 87.1732C248.221 87.1776 248.219 87.1821 248.217 87.1865C247.699 88.2231 247.248 89.1891 246.861 90.0853C246.655 90.724 246.576 91.2401 246.576 91.6494C246.576 91.77 246.582 91.8648 246.591 91.9373C246.976 92.0427 247.588 92.1282 248.5 92.1282H250.5V99.8464L218.821 99.8464V92.434ZM244.989 89.3772C245.402 88.4132 245.884 87.3804 246.435 86.2787L252.219 75.1242H296.424L302.001 86.8984C302.414 88.0001 302.758 88.8952 303.034 89.5838C303.309 90.2723 303.447 91.0297 303.447 91.856C303.447 92.9577 303.034 93.7151 302.207 94.1282C301.519 94.5413 300.83 94.7479 300.142 94.7479V97.8464L329.474 97.8464V94.1282C328.51 93.8528 327.615 93.4397 326.789 92.8888C325.962 92.338 325.205 91.4429 324.517 90.2035L291.053 19.9712C290.364 18.4564 289.676 17.1481 288.987 16.0464C288.436 14.8071 288.161 13.7742 288.161 12.948C288.161 11.984 288.368 11.4332 288.781 11.2954C289.332 11.1577 289.814 10.9512 290.227 10.6758V6.95757L259.035 6.95757V10.6758C259.448 10.9512 259.793 11.2266 260.068 11.502C260.481 11.6397 260.688 12.1217 260.688 12.948C260.688 14.0497 260.412 15.2202 259.862 16.4596C259.448 17.5613 258.829 19.0761 258.002 21.004L227.224 88.1378C226.673 89.2395 225.847 90.4789 224.745 91.856C223.781 93.0954 222.473 93.8528 220.821 94.1282V97.8464L248.5 97.8464V94.1282C247.261 94.1282 246.297 93.9905 245.609 93.7151C244.92 93.4397 244.576 92.7511 244.576 91.6494C244.576 90.9609 244.713 90.2035 244.989 89.3772ZM273.082 25.1353L258.416 59.8383L289.814 59.8383L273.082 25.1353ZM273.202 29.9892L261.432 57.8383H286.629L273.202 29.9892ZM357.432 64.7001V66.2419C357.432 66.8934 357.358 67.5798 357.225 68.2922V69.9601C357.225 71.0625 357.898 72.4559 360.25 74.0727C362.695 75.613 365.624 76.9856 369.057 78.177C372.699 79.2545 376.267 80.1289 379.763 80.8015C383.44 81.4822 386.188 81.7999 388.069 81.7999C389.909 81.7999 392.18 81.6681 394.894 81.3967L394.903 81.3958C397.65 81.1342 400.33 80.6127 402.943 79.8317C405.492 78.9354 407.605 77.8072 409.315 76.4707C410.763 75.2157 411.477 73.651 411.477 71.6126C411.477 70.5043 411.172 69.6391 410.61 68.9191C410.026 68.1725 409.067 67.4582 407.57 66.8594L407.557 66.8541L407.544 66.8486C404.452 65.5605 400.435 64.5604 395.444 63.886L395.418 63.8824L395.392 63.8782C390.331 63.0574 384.852 62.304 378.956 61.6184L378.933 61.6157L378.911 61.6126C372.887 60.772 367.263 59.5084 362.045 57.816L362.022 57.8086L361.999 57.8005C356.687 55.9341 352.172 53.3265 348.501 49.9491L348.47 49.9209L348.44 49.8914C344.667 46.1178 342.897 40.9405 342.897 34.6373C342.897 25.1648 346.869 17.5424 354.68 11.9423C362.444 6.37522 373.173 3.71818 386.623 3.71818C393.183 3.71818 398.848 4.27406 403.586 5.41878C408.324 6.3956 412.354 7.52281 415.652 8.81326C418.829 10.0565 421.45 11.2535 423.484 12.4088C425.506 13.3467 426.639 13.6333 427.11 13.6333C427.93 13.6333 428.381 13.5422 428.59 13.4728C429.219 13.0229 429.949 12.5978 430.76 12.1919L432.05 11.5473L436.388 15.8854L424.57 38.1022L418.106 35.9474L417.495 32.2808C417.482 32.2037 417.349 31.7786 416.408 31.0732L416.359 31.0366L416.313 30.9971C413.874 28.924 409.92 27.0254 404.252 25.4059C398.677 23.813 392.393 23.004 385.384 23.004C382.73 23.004 380.224 23.2031 377.863 23.5965L377.81 23.6055L377.755 23.6115C375.436 23.8692 373.429 24.3787 371.712 25.1145C370.03 25.8356 368.802 26.7551 367.942 27.8307L367.909 27.8712L367.875 27.91C367.151 28.7247 366.727 29.8096 366.727 31.3323C366.727 32.46 367.026 33.3364 367.567 34.057C368.118 34.7918 369.016 35.4901 370.41 36.0777C373.687 37.2528 377.803 38.2532 382.786 39.0624C387.871 39.7496 393.366 40.5052 399.271 41.3292C405.316 42.0336 410.963 43.3025 416.206 45.1444C421.55 47.0222 426.025 49.7914 429.572 53.4812C433.467 57.3847 435.307 62.6893 435.307 69.1338C435.307 75.524 433.707 80.942 430.35 85.224C427.269 89.3257 423.381 92.5485 418.709 94.8842C414.084 97.197 408.977 98.702 403.407 99.4165C398.099 100.115 393.055 100.466 388.276 100.466C383.475 100.466 378.677 100.042 373.882 99.1963L373.848 99.1903L373.814 99.1832C369.232 98.2111 364.986 97.1674 361.079 96.0513L361.038 96.0393L360.996 96.0256C357.266 94.782 354.078 93.6732 351.436 92.6998L351.393 92.6841L351.351 92.6664C350.059 92.1225 349.053 91.7279 348.32 91.4728C347.952 91.3448 347.677 91.2606 347.483 91.2105C347.398 91.1886 347.344 91.1774 347.316 91.172C347.04 91.1843 346.768 91.2896 346.434 91.6904L345.245 93.1165L339.553 89.0506L350.323 62.8292L357.432 64.7001ZM403.149 97.4333L403.41 99.4162C403.409 99.4163 403.408 99.4164 403.407 99.4165C403.405 99.4167 403.404 99.4169 403.403 99.417L403.149 97.4333ZM374.229 97.2267C378.912 98.0529 383.594 98.4661 388.276 98.4661C392.958 98.4661 397.916 98.1218 403.149 97.4333C408.519 96.7447 413.408 95.2988 417.815 93.0954C422.221 90.892 425.871 87.8624 428.763 84.0065C431.792 80.1506 433.307 75.193 433.307 69.1338C433.307 63.0745 431.586 58.3235 428.143 54.8808C424.838 51.438 420.638 48.8215 415.543 47.0313C410.447 45.241 404.939 44.0016 399.017 43.3131C393.096 42.4868 387.587 41.7294 382.492 41.0409C377.397 40.2146 373.128 39.1818 369.685 37.9424C366.38 36.5653 364.727 34.3619 364.727 31.3323C364.727 29.4044 365.278 27.8207 366.38 26.5813C367.482 25.2042 368.996 24.1025 370.924 23.2762C372.852 22.45 375.056 21.8991 377.534 21.6237C380.013 21.2106 382.63 21.004 385.384 21.004C392.545 21.004 399.017 21.8303 404.801 23.4828C410.585 25.1353 414.854 27.1321 417.608 29.4732C418.71 30.2995 419.33 31.1257 419.467 31.952L419.88 34.4308L423.599 35.6702L433.927 16.253L431.655 13.9808C430.828 14.3939 430.14 14.8071 429.589 15.2202C429.038 15.4956 428.212 15.6333 427.11 15.6333C426.146 15.6333 424.631 15.1513 422.566 14.1874C420.638 13.0857 418.09 11.9151 414.923 10.6758C411.755 9.43636 407.831 8.33467 403.149 7.3707C398.604 6.26902 393.096 5.71818 386.623 5.71818C373.403 5.71818 363.144 8.33467 355.845 13.5677C348.546 18.8007 344.897 25.8239 344.897 34.6373C344.897 40.5589 346.55 45.1722 349.855 48.4772C353.297 51.6446 357.566 54.1234 362.662 55.9136C367.757 57.5661 373.265 58.8055 379.187 59.6318C385.109 60.3203 390.617 61.0777 395.712 61.904C400.808 62.5925 405.008 63.6254 408.313 65.0025C411.755 66.3796 413.477 68.5829 413.477 71.6126C413.477 74.2291 412.513 76.3636 410.585 78.0161C408.657 79.5309 406.316 80.7703 403.562 81.7343C400.808 82.5605 397.984 83.1114 395.093 83.3868C392.338 83.6622 389.997 83.7999 388.069 83.7999C386.004 83.7999 383.112 83.4557 379.394 82.7671C375.813 82.0786 372.164 81.1834 368.446 80.0818C364.865 78.8424 361.767 77.3964 359.15 75.7439C356.534 73.9536 355.225 72.0257 355.225 69.9601V68.101C355.363 67.4124 355.432 66.7927 355.432 66.2419L351.507 65.209L342.005 88.3444L344.897 90.41C345.586 89.5838 346.412 89.1706 347.376 89.1706C347.927 89.1706 349.51 89.7215 352.127 90.8232C354.743 91.7871 357.911 92.8888 361.629 94.1282C365.485 95.2299 369.685 96.2627 374.229 97.2267ZM483.912 92.1282H485.912C486.15 92.1282 486.441 92.0683 486.803 91.8761C486.899 91.7661 487.01 91.5441 487.01 91.0297V24.2434L462.157 24.2434C461.406 24.2434 460.715 24.4266 460.051 24.8062C459.793 24.9535 459.612 25.1324 459.612 25.755V27.755L451.894 27.755V0L459.612 0V2C459.612 3.69138 460.045 4.17148 460.221 4.29727C460.873 4.7628 461.504 4.95757 462.157 4.95757L535.694 4.95757C536.347 4.95757 536.978 4.7628 537.63 4.29727C537.806 4.17148 538.239 3.69138 538.239 2V0L545.957 0V27.755L538.239 27.755V25.755C538.239 25.1324 538.058 24.9535 537.8 24.8062C537.136 24.4266 536.445 24.2434 535.694 24.2434L510.841 24.2434V91.0297C510.841 91.6424 511.006 91.7797 511.049 91.8161L511.051 91.8172C511.162 91.91 511.548 92.1282 512.559 92.1282H514.559V99.8464L483.912 99.8464V92.1282ZM508.841 22.2434L535.694 22.2434C536.796 22.2434 537.829 22.5188 538.793 23.0697C539.757 23.6205 540.239 24.5156 540.239 25.755L543.957 25.755V2L540.239 2C540.239 3.92794 539.757 5.23619 538.793 5.92474C537.829 6.6133 536.796 6.95757 535.694 6.95757L462.157 6.95757C461.055 6.95757 460.022 6.6133 459.058 5.92474C458.094 5.23619 457.612 3.92794 457.612 2L453.894 2V25.755H457.612C457.612 24.5156 458.094 23.6205 459.058 23.0697C460.022 22.5188 461.055 22.2434 462.157 22.2434L489.01 22.2434V91.0297C489.01 92.1314 488.666 92.9577 487.978 93.5085C487.289 93.9216 486.6 94.1282 485.912 94.1282V97.8464L512.559 97.8464V94.1282C510.08 94.1282 508.841 93.0954 508.841 91.0297V22.2434Z" fill="url(#paint0_linear)"/>
<defs>
<linearGradient id="paint0_linear" x1="272.978" y1="0" x2="272.978" y2="101.912" gradientUnits="userSpaceOnUse">
<stop stop-color="white"/>
<stop offset="0.842358" stop-color="white" stop-opacity="0"/>
</linearGradient>
</defs>
</svg>
