<svg width="14" height="14" viewBox="0 0 14 14" fill="none" xmlns="http://www.w3.org/2000/svg">
<path d="M11.9294 0H1.32549C0.596471 0 0 0.596471 0 1.32549V11.9294C0 12.6584 0.596471 13.2549 1.32549 13.2549H11.9294C12.6584 13.2549 13.2549 12.6584 13.2549 11.9294V1.32549C13.2549 0.596471 12.6584 0 11.9294 0ZM6.62746 3.97647C8.0855 3.97647 9.27844 5.16942 9.27844 6.62746C9.27844 8.0855 8.0855 9.27844 6.62746 9.27844C5.16942 9.27844 3.97647 8.0855 3.97647 6.62746C3.97647 5.16942 5.16942 3.97647 6.62746 3.97647ZM1.65686 11.9294C1.45804 11.9294 1.32549 11.7969 1.32549 11.598V5.96471H2.71726C2.65098 6.16353 2.65098 6.42863 2.65098 6.62746C2.65098 8.81452 4.4404 10.6039 6.62746 10.6039C8.81452 10.6039 10.6039 8.81452 10.6039 6.62746C10.6039 6.42863 10.6039 6.16353 10.5377 5.96471H11.9294V11.598C11.9294 11.7969 11.7969 11.9294 11.598 11.9294H1.65686ZM11.9294 2.98236C11.9294 3.18118 11.7969 3.31373 11.598 3.31373H10.2726C10.0737 3.31373 9.94118 3.18118 9.94118 2.98236V1.65686C9.94118 1.45804 10.0737 1.32549 10.2726 1.32549H11.598C11.7969 1.32549 11.9294 1.45804 11.9294 1.65686V2.98236Z" fill="#92A6B4"/>
</svg>
