<svg width="16" height="23" viewBox="0 0 16 23" fill="none" xmlns="http://www.w3.org/2000/svg">
<path d="M6.33906 0.139058C4.78085 0.447697 3.3525 1.22902 2.24406 2.37905C1.13562 3.52908 0.399649 4.9933 0.134085 6.57687C-0.127462 7.98101 -0.00486818 9.43075 0.48863 10.7696C0.982128 12.1084 1.82778 13.2854 2.93428 14.1735C5.06762 15.9997 6.62095 18.422 7.39974 21.1371L7.85583 22.8538L8.46042 21.1371C9.32835 18.3369 10.9698 15.8463 13.191 13.9589C14.0193 13.2161 14.68 12.3018 15.1284 11.2781C15.5767 10.2543 15.8023 9.14502 15.7897 8.02538C15.7834 6.84307 15.5204 5.67661 15.0192 4.60853C14.5179 3.54044 13.7908 2.59683 12.8892 1.84447C11.9876 1.09211 10.9336 0.549372 9.80167 0.25467C8.66978 -0.0400316 7.4877 -0.0794999 6.33906 0.139058ZM7.91947 12.5855C7.02535 12.5876 6.1507 12.3213 5.40625 11.8204C4.66179 11.3194 4.08099 10.6063 3.73737 9.77128C3.39375 8.93626 3.30276 8.01688 3.4759 7.12951C3.64905 6.24215 4.07856 5.4267 4.71006 4.78638C5.34155 4.14607 6.14665 3.70967 7.02344 3.53243C7.90023 3.35519 8.80929 3.44508 9.63556 3.79072C10.4618 4.13636 11.1681 4.72221 11.6651 5.47411C12.1621 6.22601 12.4274 7.11016 12.4274 8.01465C12.4218 9.22702 11.9425 10.388 11.094 11.2443C10.2455 12.1005 9.09676 12.5827 7.89826 12.5855H7.91947Z" fill="url(#paint0_linear)"/>
<defs>
<linearGradient id="paint0_linear" x1="7.8951" y1="0" x2="7.8951" y2="22.8538" gradientUnits="userSpaceOnUse">
<stop stop-color="#1DC7FC"/>
<stop offset="0.833333" stop-color="#1D77F1"/>
</linearGradient>
</defs>
</svg>
