<svg width="17" height="14" viewBox="0 0 17 14" fill="none" xmlns="http://www.w3.org/2000/svg">
<path d="M16.7456 0.0765719C16.6613 0.0264681 16.5648 0 16.4665 0C16.3682 0 16.2717 0.0264681 16.1874 0.0765719L0.288621 8.26346C0.195616 8.31006 0.118685 8.38296 0.0675823 8.47291C0.0164797 8.56287 -0.00649185 8.66582 0.00158088 8.76872C0.0108722 8.87104 0.0496166 8.96856 0.113215 9.04973C0.176814 9.13089 0.262596 9.19229 0.36038 9.22662L4.78557 10.7187L14.1941 2.7529L6.90648 11.4372L14.3536 13.9477C14.4117 13.9559 14.4708 13.9559 14.529 13.9477C14.6241 13.9483 14.7177 13.9238 14.8001 13.8766C14.8653 13.8355 14.921 13.7811 14.9636 13.7172C15.0062 13.6533 15.0347 13.5812 15.0472 13.5056L16.9529 0.581838C16.9679 0.486917 16.9566 0.389729 16.92 0.300711C16.8835 0.211693 16.8232 0.134207 16.7456 0.0765719Z" fill="url(#paint0_linear)"/>
<defs>
<linearGradient id="paint0_linear" x1="8.47966" y1="0" x2="8.47966" y2="13.9538" gradientUnits="userSpaceOnUse">
<stop stop-color="#1DC7FC"/>
<stop offset="0.833333" stop-color="#1D77F1"/>
</linearGradient>
</defs>
</svg>
