<svg width="37" height="25" viewBox="0 0 37 25" fill="none" xmlns="http://www.w3.org/2000/svg">
<path d="M3.7002 10.99C4.30182 9.58309 5.64946 6.38556 6.22702 4.85075C6.94898 2.93223 8.0319 0.630005 9.83678 0.630005C11.2807 0.630005 16.214 0.630005 18.5002 0.630005" stroke="#1D77F1"/>
<path d="M33.6699 13.9501C33.0533 15.3067 31.6719 18.3901 31.0799 19.8701C30.3399 21.7201 29.2299 23.9401 27.3799 23.9401C25.8999 23.9401 20.8433 23.9401 18.4999 23.9401" stroke="#1D77F1"/>
<path d="M33.2998 10.99C32.6982 9.58309 31.3505 6.38556 30.773 4.85075C30.051 2.93223 28.9681 0.630005 27.1632 0.630005C25.7193 0.630005 20.786 0.630005 18.4998 0.630005" stroke="#1D77F1"/>
<path d="M3.7002 13.9501C4.31686 15.3067 5.6982 18.3901 6.2902 19.8701C7.0302 21.7201 8.1402 23.9401 9.9902 23.9401C11.4702 23.9401 16.5269 23.9401 18.8702 23.9401" stroke="#1D77F1"/>
<rect x="0.5" y="10.7499" width="36" height="3.44" rx="1.72" stroke="#1D77F1"/>
<path d="M10.7501 14.3001L10.7501 18.3901C10.7501 19.0142 10.2442 19.5201 9.6201 19.5201C8.99602 19.5201 8.4901 19.0142 8.4901 18.3901L8.4901 14.3001L10.7501 14.3001Z" stroke="#1D77F1" stroke-width="0.7"/>
<path d="M16.67 14.3001L16.67 18.3901C16.67 19.0142 16.1641 19.5201 15.54 19.5201C14.9159 19.5201 14.41 19.0142 14.41 18.3901L14.41 14.3001L16.67 14.3001Z" stroke="#1D77F1" stroke-width="0.7"/>
<path d="M22.5899 14.3001L22.5899 18.3901C22.5899 19.0142 22.084 19.5201 21.4599 19.5201C20.8359 19.5201 20.3299 19.0142 20.3299 18.3901L20.3299 14.3001L22.5899 14.3001Z" stroke="#1D77F1" stroke-width="0.7"/>
<path d="M28.5104 14.3001L28.5104 18.3901C28.5104 19.0142 28.0044 19.5201 27.3804 19.5201C26.7563 19.5201 26.2504 19.0142 26.2504 18.3901L26.2504 14.3001L28.5104 14.3001Z" stroke="#1D77F1" stroke-width="0.7"/>
<rect x="10.3599" y="22.0901" width="16.28" height="0.74" fill="#1D77F1"/>
<rect x="10.3599" y="2.8501" width="16.28" height="0.74" fill="#1D77F1"/>
</svg>
