<svg width="32" height="32" viewBox="0 0 32 32" fill="none" xmlns="http://www.w3.org/2000/svg">
<path d="M27.5416 12.58C27.8017 12.6023 28.027 12.4101 28.0494 12.1539L28.1885 10.5638H28.7844C29.2816 10.5638 29.6862 10.1592 29.6862 9.66191V8.76529C29.6862 8.26798 29.2816 7.86343 28.7844 7.86343H15.221C14.7237 7.86343 14.3191 8.26798 14.3191 8.76529V9.66191C14.3191 10.1592 14.7237 10.5638 15.221 10.5638H15.8168L16.6392 19.9636H13.6659V14.869C13.6659 14.2569 13.5856 13.6467 13.4272 13.0555L12.9366 11.2245C12.4263 9.32029 11.0102 7.79218 9.1483 7.13668C8.7143 6.98387 8.38655 6.63663 8.27168 6.20782L8.01137 5.23633C8.36655 5.02827 8.55486 4.60089 8.44337 4.1844L8.11149 2.94604C8.08549 2.84904 8.04149 2.75998 7.98231 2.68248C7.99456 2.5876 7.98899 2.48885 7.96274 2.39085L7.50844 0.695308C7.44362 0.453436 7.28844 0.25125 7.07157 0.126064C6.85463 0.000814907 6.60207 -0.0324973 6.36014 0.0323771L5.10959 0.367374C4.85953 0.434373 4.71115 0.691433 4.77815 0.941493C4.84515 1.19155 5.10209 1.33986 5.35227 1.27293L6.60282 0.937868L7.01019 2.45823C6.62101 2.56254 2.87942 3.56503 2.15355 3.75953L1.74618 2.23911L3.21273 1.84611C3.46279 1.77911 3.61116 1.52205 3.54416 1.27199C3.47716 1.02199 3.22017 0.873681 2.97004 0.940556L1.50356 1.33361C1.00425 1.46743 0.706878 1.98248 0.840627 2.48192L1.295 4.1774C1.32125 4.2754 1.36575 4.36377 1.42387 4.43983C1.41137 4.53652 1.41775 4.63564 1.44375 4.73264L1.77562 5.97101C1.8903 6.39907 2.27543 6.66456 2.67573 6.66631L2.93598 7.63749C3.05092 8.06636 2.94073 8.53092 2.64123 8.88023C1.3565 10.3788 0.894126 12.4103 1.40437 14.3145L2.08586 16.8578C1.85524 17.1547 1.72693 17.5228 1.72693 17.9036V21.5521C1.72693 21.822 1.81749 22.0712 1.96974 22.2709C1.81743 22.4706 1.72693 22.7198 1.72693 22.9897V24.6389C1.72693 24.9088 1.81743 25.158 1.96974 25.3576C1.81743 25.5573 1.72693 25.8065 1.72693 26.0764V27.7256C1.72693 27.9955 1.81749 28.2447 1.96974 28.4444C1.81743 28.6441 1.72693 28.8933 1.72693 29.1632V30.5569C1.72693 31.3526 2.37424 31.9999 3.16992 31.9999H24.1175C26.0187 31.9999 27.6902 30.7173 28.1822 28.8809L29.8278 22.7397H30.4499C30.8586 22.7397 31.1911 22.4072 31.1911 21.9984V20.7049C31.1911 20.2961 30.8586 19.9636 30.4499 19.9636H27.3663L27.8572 14.3519C27.8797 14.0941 27.6891 13.8667 27.4311 13.8441C27.1749 13.8219 26.9459 14.0123 26.9233 14.2702L26.4253 19.9636H17.5803L16.7579 10.5638H27.2475L27.1155 12.0722C27.093 12.3301 27.2837 12.5574 27.5416 12.58ZM2.91436 27.9757C2.77648 27.9757 2.6643 27.8635 2.6643 27.7257V26.0765C2.6643 25.9386 2.77648 25.8264 2.91436 25.8264H12.4785C12.6163 25.8264 12.7284 25.9386 12.7284 26.0765V27.7257C12.7284 27.8635 12.6163 27.9757 12.4785 27.9757H2.91436ZM12.4785 22.7397C12.6163 22.7397 12.7284 22.8519 12.7284 22.9898V24.6389C12.7284 24.7768 12.6163 24.8889 12.4785 24.8889H2.91436C2.77648 24.8889 2.6643 24.7768 2.6643 24.6389V22.9898C2.6643 22.8519 2.77648 22.7397 2.91436 22.7397H12.4785ZM13.4231 28.4445C13.5754 28.2448 13.6659 27.9956 13.6659 27.7257V26.0765C13.6659 25.8066 13.5754 25.5574 13.4231 25.3577C13.5754 25.158 13.6659 24.9088 13.6659 24.6389V22.9898C13.6659 22.904 13.6568 22.8203 13.6394 22.7397H14.6641V31.0624H13.5746C13.6336 30.9051 13.6659 30.7347 13.6659 30.557V29.1633C13.6659 28.8933 13.5754 28.6442 13.4231 28.4445ZM7.25281 3.36384L7.53769 4.42715C-0.929043 6.69569 5.80727 4.89077 2.68105 5.72838L2.39611 4.66514L7.25281 3.36384ZM3.35285 9.49041C3.85385 8.9061 4.03647 8.12267 3.84141 7.39487L3.58973 6.45556L7.11438 5.51114L7.36606 6.45044C7.56112 7.17824 8.11093 7.76536 8.83692 8.02092C10.4068 8.57361 11.6009 9.86191 12.031 11.4671L12.5216 13.2981C12.6588 13.8102 12.7284 14.3388 12.7284 14.869V21.5521C12.7284 21.69 12.6163 21.8022 12.4784 21.8022H2.91436C2.77648 21.8022 2.6643 21.69 2.6643 21.5521V17.9036C2.6643 17.5603 2.89429 17.2541 3.23198 17.1638L10.0722 15.3309C10.3222 15.2639 10.4706 15.0069 10.4037 14.7568C10.3367 14.5068 10.0795 14.3584 9.82954 14.4254C2.58686 16.367 2.98573 16.2569 2.90254 16.2841L2.3098 14.0719C1.87968 12.4668 2.26961 10.754 3.35285 9.49041ZM2.6643 30.557V29.1633C2.6643 29.0254 2.77648 28.9132 2.91436 28.9132H12.4785C12.6163 28.9132 12.7284 29.0254 12.7284 29.1633V30.557C12.7284 30.8357 12.5017 31.0624 12.223 31.0624H3.16985C2.89111 31.0624 2.6643 30.8357 2.6643 30.557ZM19.155 22.7397H21.7647L20.9665 28.6974C20.7681 30.1778 20.1287 31.0624 19.6251 31.0624H18.3356C18.5966 30.3787 18.7049 29.4588 18.7496 28.791L19.155 22.7397ZM25.3119 22.7397L24.1207 28.6673C23.8373 30.0775 22.9122 31.0624 21.8712 31.0624H21.1214C21.4974 30.5092 21.773 29.738 21.8957 28.8219L22.7106 22.7397H25.3119ZM27.2766 28.6383C26.8942 30.0656 25.5951 31.0624 24.1174 31.0624H23.9333C24.4634 30.511 24.86 29.7466 25.0398 28.852L26.2681 22.7397H28.8572L27.2766 28.6383ZM30.2536 20.9012V21.8022C28.7849 21.8022 19.5954 21.8022 18.1138 21.8022C17.8548 21.8022 17.645 22.0121 17.645 22.271C17.645 22.5298 17.8548 22.7397 18.1138 22.7397H18.2154L17.8142 28.7283C17.7183 30.1609 17.4435 30.8839 17.2988 31.0624H15.6015V22.7397H15.9263C16.1852 22.7397 16.395 22.5298 16.395 22.271C16.395 22.0121 16.1852 21.8022 15.9263 21.8022H13.6394C13.6538 21.7367 13.6634 21.6612 13.6656 21.5817C13.6661 21.559 13.6659 21.595 13.6659 20.9011H30.2536V20.9012ZM15.2566 8.80092H28.7487V9.62635H15.2566V8.80092Z" fill="#1D77F1"/>
</svg>
