<svg width="32" height="32" viewBox="0 0 32 32" fill="none" xmlns="http://www.w3.org/2000/svg">
<g clip-path="url(#clip0)">
<path d="M28.6255 1.55469H7.9332C6.1374 1.55469 4.67637 3.00206 4.67637 4.77534L4.54302 22.996H0.504808C0.218623 22.996 0 23.249 0 23.5352V26.0428C0 28.3902 1.87854 30.31 4.14575 30.4153V30.4454H21.5708V30.4115C21.7004 30.4168 21.7788 30.4454 21.8679 30.4454H21.8803C24.2983 30.4312 26.2475 28.4603 26.2348 26.0423V10.1053H31.4952C31.7814 10.1053 32 9.84619 32 9.56025V4.95929C32.0033 3.08935 30.4954 1.5681 28.6255 1.55469V1.55469ZM4.37247 29.4089H4.36893C2.52556 29.4089 1.03644 27.8854 1.03644 26.0423V24.0324H17.4899V26.0337C17.4858 27.2002 17.9466 28.3201 18.7702 29.146C18.8578 29.2341 18.9494 29.2794 19.043 29.4089H4.37247ZM25.1984 26.0418C25.1984 27.8854 23.7237 29.4089 21.8796 29.4089H21.8689C20.0157 29.3955 18.522 27.8872 18.5263 26.0339V23.5352C18.5278 23.245 18.2983 23.0061 18.0081 22.996H5.57945L5.7128 4.77888C5.7128 3.57367 6.70875 2.59112 7.9332 2.59112H26.1789C25.5883 3.2389 25.1984 4.05848 25.1984 4.97321V26.0418ZM30.9636 4.9684V9.06886H26.2348V4.9722C26.2348 3.67513 27.3138 2.59112 28.6103 2.59112H28.6247C29.9246 2.60403 30.9696 3.66451 30.9636 4.96461V4.9684Z" fill="#1D77F1"/>
<path d="M12.1689 14.3102L14.8407 16.1369C15.015 16.2571 15.2456 16.2571 15.4199 16.1369L18.0836 14.3107C19.009 13.6794 19.6924 12.3595 19.6924 11.2404V7.54451C19.698 7.34916 19.5902 7.16799 19.4161 7.07917L15.348 5.07816C15.2053 5.00731 15.0378 5.00731 14.8951 5.07816L10.8346 7.07361C10.6605 7.16242 10.553 7.3436 10.5588 7.53894V11.2404C10.5588 12.3595 11.2438 13.6794 12.1689 14.3102ZM11.5953 7.86232L15.1256 6.12042L18.656 7.86713V11.2404C18.656 12.021 18.1443 13.0139 17.4988 13.4539L15.1195 15.0812L12.7496 13.4542C12.1041 13.0136 11.5953 12.021 11.5953 11.2404V7.86232Z" fill="#1D77F1"/>
<path d="M14.2489 12.0228C14.3455 12.1215 14.4776 12.1774 14.6158 12.1781H14.6171C14.7547 12.1776 14.8865 12.1225 14.9834 12.0248L17.0449 9.96255C17.2476 9.76012 17.2476 9.43168 17.0452 9.22925C16.843 9.02657 16.5146 9.02657 16.3121 9.229L14.6188 10.9221L13.9419 10.2386C13.7403 10.0352 13.4121 10.0337 13.2086 10.2353C13.0052 10.437 13.0039 10.7652 13.2054 10.9686L14.2489 12.0228Z" fill="#1D77F1"/>
<path d="M21.5707 17.6194H9.13345C8.84727 17.6194 8.61523 17.8514 8.61523 18.1376C8.61523 18.4238 8.84727 18.6558 9.13345 18.6558H21.5707C21.8569 18.6558 22.0889 18.4238 22.0889 18.1376C22.0889 17.8514 21.8569 17.6194 21.5707 17.6194Z" fill="#1D77F1"/>
<path d="M21.5707 20.0162H9.13345C8.84727 20.0162 8.61523 20.2483 8.61523 20.5345C8.61523 20.8206 8.84727 21.0527 9.13345 21.0527H21.5707C21.8569 21.0527 22.0889 20.8206 22.0889 20.5345C22.0889 20.2483 21.8569 20.0162 21.5707 20.0162Z" fill="#1D77F1"/>
</g>
<defs>
<clipPath id="clip0">
<rect width="32" height="32" fill="white"/>
</clipPath>
</defs>
</svg>
