<svg width="20" height="20" viewBox="0 0 20 20" fill="none" xmlns="http://www.w3.org/2000/svg">
<g clip-path="url(#clip0)">
<path d="M4.65271 18.8431C4.71146 19.5027 5.2551 20 5.91725 20H14.0827C14.7449 20 15.2885 19.5027 15.3472 18.8431L15.5342 16.7453C15.5485 16.5841 15.4295 16.4418 15.2683 16.4275C15.1071 16.4129 14.9649 16.5321 14.9505 16.6933L14.8513 17.8067H5.14861L4.86061 14.5738C5.04471 14.6127 5.17037 14.6885 5.31709 14.777C5.56221 14.925 5.84002 15.0926 6.37471 15.0926C6.90935 15.0926 7.18717 14.925 7.43228 14.777C7.64643 14.6478 7.8156 14.5457 8.18717 14.5457C8.55877 14.5457 8.72791 14.6478 8.94209 14.777C9.18721 14.925 9.46506 15.0926 9.99975 15.0926C10.5344 15.0926 10.8122 14.925 11.0574 14.777C11.2715 14.6478 11.4407 14.5457 11.8122 14.5457C12.1839 14.5457 12.3531 14.6478 12.5673 14.777C12.8124 14.925 13.0903 15.0926 13.625 15.0926C14.1597 15.0926 14.4376 14.925 14.6828 14.7771C14.8295 14.6885 14.9553 14.6127 15.1394 14.5738L15.0639 15.4215C15.0495 15.5827 15.1685 15.725 15.3297 15.7393C15.3386 15.7401 15.3473 15.7405 15.356 15.7405C15.5061 15.7405 15.6339 15.6258 15.6475 15.4735L16.4161 6.84648H16.7169C17.31 6.84648 17.7925 6.36398 17.7925 5.77098C17.7925 5.46281 17.662 5.18469 17.4536 4.9884C17.662 4.79211 17.7925 4.51402 17.7925 4.20586C17.7925 3.8977 17.662 3.61957 17.4536 3.42328C17.662 3.22699 17.7925 2.94891 17.7925 2.64074C17.7925 2.33258 17.662 2.05445 17.4536 1.8582C17.662 1.66191 17.7925 1.38383 17.7925 1.07562C17.7924 0.4825 17.3099 0 16.7169 0H7.31111C7.14932 0 7.01814 0.131172 7.01814 0.292969C7.01814 0.454766 7.14932 0.585938 7.31111 0.585938H16.7169C16.9869 0.585938 17.2065 0.805586 17.2065 1.07551C17.2065 1.34547 16.9869 1.56512 16.7169 1.56512H3.28307C3.01311 1.56512 2.79346 1.34547 2.79346 1.07551C2.79346 0.805586 3.01311 0.585938 3.28307 0.585938H6.03432C6.19611 0.585938 6.32728 0.454766 6.32728 0.292969C6.32728 0.131172 6.19611 0 6.03432 0H3.28307C2.69002 0 2.20752 0.4825 2.20752 1.07551C2.20752 1.38367 2.33799 1.6618 2.54639 1.85809C2.33799 2.05438 2.20752 2.33246 2.20752 2.64062C2.20752 2.94879 2.33799 3.22691 2.54639 3.42316C2.33799 3.61945 2.20752 3.89754 2.20752 4.20574C2.20752 4.51391 2.33799 4.79203 2.54639 4.98828C2.33799 5.18457 2.20752 5.46266 2.20752 5.77086C2.20752 6.36391 2.69002 6.84637 3.28307 6.84637H3.58393L4.65271 18.8431ZM14.7991 18.3926L14.7636 18.7911C14.732 19.1462 14.4392 19.4141 14.0827 19.4141H5.91725C5.56072 19.4141 5.26799 19.1462 5.23635 18.7911L5.20084 18.3926H14.7991ZM15.5962 9.44539C15.187 9.48516 14.9428 9.6216 14.7239 9.74457C14.4985 9.87117 14.3039 9.98047 13.8938 9.98047C13.4836 9.98047 13.289 9.87117 13.0637 9.74457C12.8042 9.59883 12.5101 9.43359 11.9466 9.43359C11.3832 9.43359 11.0891 9.59883 10.8296 9.74457C10.7311 9.79996 10.6379 9.85227 10.533 9.8927C10.382 9.95086 10.3068 10.1204 10.365 10.2714C10.4232 10.4224 10.5927 10.4976 10.7437 10.4395C10.888 10.3838 11.0042 10.3186 11.1166 10.2555C11.3419 10.1289 11.5365 10.0196 11.9465 10.0196C12.3567 10.0196 12.5513 10.1289 12.7767 10.2555C13.0362 10.4012 13.3303 10.5664 13.8937 10.5664C14.4572 10.5664 14.7513 10.4012 15.0108 10.2555C15.1733 10.1642 15.3202 10.0822 15.5429 10.0434L15.1928 13.9731C14.8124 14.0151 14.5845 14.1519 14.38 14.2754C14.1658 14.4046 13.9966 14.5067 13.6249 14.5067C13.2533 14.5067 13.0841 14.4046 12.8699 14.2754C12.6247 14.1274 12.3469 13.9598 11.8122 13.9598C11.2775 13.9598 10.9997 14.1275 10.7545 14.2754C10.5404 14.4046 10.3712 14.5067 9.99967 14.5067C9.6281 14.5067 9.45893 14.4046 9.24475 14.2754C8.99963 14.1275 8.72178 13.9598 8.18709 13.9598C7.6524 13.9598 7.37459 14.1275 7.12947 14.2754C6.91533 14.4046 6.74615 14.5067 6.37463 14.5067C6.00307 14.5067 5.83393 14.4046 5.61975 14.2754C5.41521 14.152 5.18732 14.0152 4.80701 13.9731L4.45689 10.0434C4.67955 10.0822 4.82643 10.1643 4.98885 10.2555C5.2483 10.4012 5.5424 10.5664 6.10576 10.5664C6.66912 10.5664 6.96322 10.4012 7.22268 10.2555C7.44799 10.1289 7.64256 10.0196 8.05264 10.0196C8.46271 10.0196 8.65732 10.1289 8.88264 10.2555C9.00791 10.3259 9.1499 10.4056 9.32803 10.4656C9.48139 10.5173 9.64752 10.4349 9.6992 10.2816C9.75088 10.1283 9.6685 9.96207 9.51518 9.91043C9.38904 9.86793 9.28248 9.80801 9.16963 9.74465C8.91014 9.59887 8.61603 9.43367 8.05264 9.43367C7.48928 9.43367 7.19518 9.59891 6.93572 9.74465C6.71041 9.87121 6.51584 9.98055 6.10576 9.98055C5.69572 9.98055 5.50111 9.87125 5.2758 9.74465C5.05689 9.62168 4.81268 9.48527 4.40361 9.44547L4.17205 6.84645H15.8277L15.5962 9.44539ZM3.28307 6.26043C3.01311 6.26043 2.79346 6.04078 2.79346 5.77086C2.79346 5.5009 3.01307 5.28125 3.28307 5.28125H16.7169C16.9869 5.28125 17.2065 5.5009 17.2065 5.77086C17.2065 6.04082 16.9869 6.26043 16.7169 6.26043H3.28307ZM17.2065 4.20574C17.2065 4.4757 16.9869 4.69531 16.7169 4.69531H3.28307C3.01311 4.69531 2.79346 4.47566 2.79346 4.20574C2.79346 3.93578 3.01307 3.71613 3.28307 3.71613H16.7169C16.9869 3.71613 17.2065 3.93578 17.2065 4.20574ZM3.28307 3.1302C3.01311 3.1302 2.79346 2.91055 2.79346 2.64062C2.79346 2.3707 3.01307 2.15105 3.28307 2.15105H16.7169C16.9869 2.15105 17.2065 2.3707 17.2065 2.64062C17.2065 2.91055 16.9869 3.1302 16.7169 3.1302H3.28307Z" fill="#2F3744"/>
</g>
<defs>
<clipPath id="clip0">
<rect width="20" height="20" fill="white"/>
</clipPath>
</defs>
</svg>
