<svg width="26" height="18" viewBox="0 0 26 18" fill="none" xmlns="http://www.w3.org/2000/svg">
<path d="M2.54004 8.11109C2.95299 7.14539 3.87801 4.95061 4.27445 3.89711C4.77 2.58024 5.51332 1 6.75219 1C7.74328 1 11.1295 1 12.6987 1" stroke="#92A6B4"/>
<path d="M23.1108 10.1429C22.6876 11.0741 21.7394 13.1905 21.3331 14.2064C20.8251 15.4762 20.0632 17 18.7934 17C17.7775 17 14.3066 17 12.6982 17" stroke="#92A6B4"/>
<path d="M22.8569 8.11109C22.444 7.14539 21.519 4.95061 21.1225 3.89711C20.627 2.58024 19.8837 1 18.6448 1C17.6537 1 14.2675 1 12.6982 1" stroke="#92A6B4"/>
<path d="M2.54004 10.1429C2.96332 11.0741 3.91146 13.1905 4.31781 14.2064C4.82575 15.4762 5.58765 17 6.85749 17C7.87336 17 11.3443 17 12.9527 17" stroke="#92A6B4"/>
<rect x="0.5" y="8.10315" width="24.3968" height="2.04761" rx="1.02381" stroke="#92A6B4"/>
<path d="M7.26914 10.4931L7.26914 13.1907C7.26914 13.5584 6.97102 13.8565 6.60327 13.8565C6.23552 13.8565 5.9374 13.5584 5.9374 13.1907L5.9374 10.4931L7.26914 10.4931Z" stroke="#92A6B4" stroke-width="0.7"/>
<path d="M11.3326 10.4931L11.3326 13.1907C11.3326 13.5584 11.0345 13.8565 10.6667 13.8565C10.299 13.8565 10.0009 13.5584 10.0009 13.1907L10.0009 10.4931L11.3326 10.4931Z" stroke="#92A6B4" stroke-width="0.7"/>
<path d="M15.3956 10.4931L15.3956 13.1907C15.3956 13.5584 15.0975 13.8565 14.7297 13.8565C14.362 13.8565 14.0639 13.5584 14.0639 13.1907L14.0639 10.4931L15.3956 10.4931Z" stroke="#92A6B4" stroke-width="0.7"/>
<path d="M19.4596 10.4931L19.4596 13.1907C19.4596 13.5584 19.1615 13.8565 18.7937 13.8565C18.4259 13.8565 18.1278 13.5584 18.1278 13.1907L18.1278 10.4931L19.4596 10.4931Z" stroke="#92A6B4" stroke-width="0.7"/>
<rect x="7.11084" y="15.7302" width="11.1746" height="0.507935" fill="#92A6B4"/>
<rect x="7.11084" y="2.52405" width="11.1746" height="0.507935" fill="#92A6B4"/>
</svg>
