<svg width="26" height="26" viewBox="0 0 26 26" fill="none" xmlns="http://www.w3.org/2000/svg">
<path d="M24.7812 19.2968C24.7812 19.4443 24.7012 19.5808 24.5716 19.6523L13.1966 25.9491C13.1357 25.9829 13.0678 25.9999 13 25.9999C12.9322 25.9999 12.8643 25.9829 12.8034 25.9491L1.42838 19.6523C1.29878 19.5808 1.21875 19.4443 1.21875 19.2968C1.21875 19.1493 1.29878 19.0128 1.42838 18.9413L6.474 16.1484L1.42838 13.3554C1.29878 13.2839 1.21875 13.1474 1.21875 12.9999C1.21875 12.8525 1.29878 12.7164 1.42838 12.6445L6.47359 9.85148L1.42838 7.05851C1.29878 6.98701 1.21875 6.85051 1.21875 6.70304C1.21875 6.55558 1.29878 6.41908 1.42838 6.34758L12.8034 0.0507002C12.9257 -0.0167373 13.0747 -0.0167373 13.197 0.0507002L24.572 6.34758C24.7012 6.41908 24.7812 6.55558 24.7812 6.70304C24.7812 6.85051 24.7012 6.98701 24.5716 7.05851L19.5264 9.85148L24.5716 12.6445C24.7012 12.7164 24.7812 12.8525 24.7812 12.9999C24.7812 13.1474 24.7012 13.2839 24.5716 13.3554L19.526 16.1484L24.5716 18.9413C24.7012 19.0128 24.7812 19.1493 24.7812 19.2968ZM13.8389 19.2968L18.6895 21.9797L20.6927 20.871L15.8438 18.1873L13.8389 19.2968ZM13 25.1293L15.0077 24.0178L4.47038 18.1861L2.4635 19.2968L13 25.1293ZM5.30969 17.7214L15.847 23.5539L17.851 22.4448L12.8034 19.6527L7.3125 16.6131L5.30969 17.7214ZM18.6895 4.02017L16.6843 5.12964L18.6883 6.23829L20.6932 5.12883L18.6895 4.02017ZM15.847 2.44595L13.8413 3.55583L15.8454 4.66448L17.8506 3.55501L15.847 2.44595ZM8.15181 3.5542L10.1591 4.66529L12.1635 3.55623L10.1558 2.44514L8.15181 3.5542ZM5.30969 5.12761L7.31656 6.23829L9.32059 5.12964L7.31291 4.01895L5.30969 5.12761ZM10.1595 7.8117L12.1635 6.70304L10.1591 5.59398L8.15547 6.70304L10.1595 7.8117ZM7.31697 7.16779L5.31009 8.27848L7.31331 9.38714L9.32059 8.27645L7.31697 7.16779ZM10.9984 8.27645L13.0024 9.38551L15.0069 8.27645L13.0024 7.16739L10.9984 8.27645ZM10.9988 5.12964L13.0024 6.23829L15.0069 5.12964L13.0024 4.02058L10.9988 5.12964ZM15.8454 5.59398L13.8418 6.70304L15.8458 7.8117L17.8494 6.70304L15.8454 5.59398ZM16.6847 8.27645L18.6899 9.38592L20.6932 8.27726L18.6883 7.16779L16.6847 8.27645ZM15.8458 8.7408L13.8413 9.84986L15.847 10.9597L17.851 9.85026L15.8458 8.7408ZM13.0024 10.3146L10.9952 11.4257L13 12.5356L15.0077 11.4241L13.0024 10.3146ZM10.1558 10.961L12.1635 9.84986L10.1591 8.7408L8.15181 9.85189L10.1558 10.961ZM4.47078 7.81373L6.47766 6.70304L4.47078 5.59236L2.46391 6.70304L4.47078 7.81373ZM13 0.870513L10.9948 1.98039L13.0024 3.09148L15.0081 1.98201L13 0.870513ZM21.5321 5.59358L19.5272 6.70304L21.5321 7.81251L23.5365 6.70304L21.5321 5.59358ZM18.6875 10.3158L13.1966 13.3554C13.1357 13.3891 13.0678 13.4062 13 13.4062C12.9322 13.4062 12.8643 13.3891 12.8034 13.3554L7.3125 10.3158L2.4635 12.9999L13 18.8325L23.5365 12.9999L18.6875 10.3158ZM18.6875 16.6131L16.6827 17.7226L21.5321 20.4063L23.5365 19.2968L18.6875 16.6131Z" fill="#92A6B4"/>
</svg>
