<svg width="23" height="15" viewBox="0 0 23 15" fill="none" xmlns="http://www.w3.org/2000/svg">
<path d="M21.3506 7.40185C21.7942 7.37053 22.2131 7.06534 22.5203 6.54977C22.8275 6.03421 22.9993 5.34795 23 4.63379C23 4.49965 22.9668 4.37103 22.9078 4.27618C22.8489 4.18132 22.7689 4.128 22.6855 4.12793H20.9737C21.1047 3.92558 21.2319 3.71804 21.351 3.49979C21.7945 3.46833 22.2134 3.16304 22.5205 2.64742C22.8276 2.13181 22.9994 1.44557 23 0.731445C23 0.597306 22.9668 0.468684 22.9078 0.373833C22.8489 0.278983 22.7689 0.225663 22.6855 0.225586H0.314453C0.23107 0.225663 0.151115 0.278983 0.0921538 0.373833C0.0331927 0.468684 4.7607e-05 0.597306 0 0.731445C0.00063658 1.44566 0.17243 2.13199 0.479636 2.64762C0.786843 3.16325 1.2058 3.46847 1.64935 3.49979C1.76812 3.71804 1.89534 3.92587 2.0267 4.12793H0.314453C0.23107 4.128 0.151115 4.18132 0.0921538 4.27618C0.0331927 4.37103 4.7607e-05 4.49965 0 4.63379C0.000682782 5.34795 0.172497 6.03421 0.479698 6.54977C0.7869 7.06534 1.20584 7.37053 1.64935 7.40185C1.76812 7.62038 1.89534 7.82821 2.0267 8.03027H0.314453C0.23107 8.03035 0.151115 8.08367 0.0921538 8.17852C0.0331927 8.27337 4.7607e-05 8.40199 0 8.53613C0.000680704 9.25025 0.17247 9.93646 0.479633 10.452C0.786797 10.9676 1.20569 11.2728 1.64917 11.3042C2.2409 12.3956 2.97128 13.2702 3.79101 13.8689C4.61074 14.4676 5.50075 14.7764 6.40101 14.7747H16.599C17.4992 14.7764 18.3893 14.4676 19.209 13.8689C20.0287 13.2702 20.7591 12.3956 21.3508 11.3042C21.7943 11.2728 22.2132 10.9676 22.5204 10.452C22.8275 9.93646 22.9993 9.25025 23 8.53613C23 8.40199 22.9668 8.27337 22.9078 8.17852C22.8489 8.08367 22.7689 8.03035 22.6855 8.03027H20.9737C21.1047 7.82821 21.2319 7.62038 21.3506 7.40185ZM2.03694 2.67279C1.99702 2.60486 1.94772 2.553 1.89303 2.52141C1.83833 2.48982 1.77979 2.4794 1.72212 2.49097C1.48713 2.49028 1.25849 2.36812 1.06994 2.1425C0.881388 1.91688 0.7429 1.59975 0.674906 1.23788H22.3251C22.2571 1.59975 22.1186 1.91688 21.9301 2.1425C21.7415 2.36812 21.5129 2.49028 21.2779 2.49097C21.2202 2.47918 21.1616 2.48951 21.1069 2.52111C21.0522 2.55271 21.0029 2.60469 20.9631 2.67279C20.6805 3.21623 20.3595 3.70478 20.0066 4.12851H2.99341C2.64047 3.70478 2.31947 3.21623 2.03694 2.67279ZM21.2779 10.2954C21.2202 10.2836 21.1616 10.2939 21.1069 10.3255C21.0522 10.3571 21.0029 10.4091 20.9631 10.4772C20.4304 11.507 19.7631 12.3353 19.0089 12.9032C18.2546 13.4711 17.4318 13.7647 16.599 13.763H6.40101C5.56822 13.7647 4.74543 13.4712 3.99115 12.9033C3.23688 12.3355 2.56965 11.5072 2.03694 10.4775C1.99699 10.4096 1.94769 10.3578 1.893 10.3262C1.83832 10.2946 1.77979 10.2841 1.72212 10.2957C1.48715 10.295 1.25853 10.1729 1.06998 9.9473C0.881433 9.72174 0.742932 9.40466 0.674906 9.04285H22.3251C22.257 9.4045 22.1184 9.72138 21.9299 9.94678C21.7413 10.1722 21.5128 10.2948 21.2779 10.2954ZM2.99341 8.03027C2.6405 7.60671 2.3195 7.11836 2.03694 6.57513C1.99699 6.50725 1.94769 6.45543 1.893 6.42385C1.83832 6.39227 1.77979 6.38181 1.72212 6.39331C1.48715 6.39264 1.25853 6.27052 1.06998 6.04496C0.881433 5.81939 0.742932 5.50232 0.674906 5.14051H22.3251C22.2571 5.50232 22.1186 5.81939 21.93 6.04496C21.7415 6.27052 21.5128 6.39264 21.2779 6.39331C21.2202 6.38153 21.1616 6.39186 21.1069 6.42346C21.0522 6.45506 21.0029 6.50703 20.9631 6.57513C20.6805 7.11866 20.3595 7.6073 20.0066 8.03114L2.99341 8.03027Z" fill="#92A6B4"/>
</svg>
