<svg width="21" height="16" viewBox="0 0 21 16" fill="none" xmlns="http://www.w3.org/2000/svg">
<path fill-rule="evenodd" clip-rule="evenodd" d="M3.55527 1.37763C3.45331 1.5529 3.3871 1.78829 3.3871 2.11111C3.3871 2.43492 3.45364 2.6501 3.54816 2.79821C3.64117 2.94395 3.77905 3.05276 3.97435 3.13433C4.38998 3.30791 4.99483 3.33333 5.75806 3.33333C6.5213 3.33333 7.12615 3.30791 7.54178 3.13433C7.73708 3.05276 7.87496 2.94395 7.96797 2.79821C8.06248 2.6501 8.12903 2.43492 8.12903 2.11111C8.12903 1.78829 8.06282 1.5529 7.96086 1.37763C7.85964 1.20365 7.7114 1.0685 7.51327 0.9633C7.10181 0.744839 6.49763 0.666667 5.75806 0.666667C5.0185 0.666667 4.41432 0.744839 4.00286 0.9633C3.80472 1.0685 3.65648 1.20365 3.55527 1.37763ZM3.68121 0.376575C4.25046 0.0743372 5.00111 0 5.75806 0C6.51502 0 7.26567 0.0743372 7.83492 0.376575C8.12714 0.531728 8.37573 0.748975 8.54875 1.0464C8.72102 1.34253 8.80645 1.69755 8.80645 2.11111C8.80645 2.52368 8.72135 2.87114 8.54164 3.15276C8.36041 3.43676 8.10147 3.62479 7.80642 3.74802C7.24133 3.98402 6.49135 4 5.75806 4C5.02478 4 4.2748 3.98402 3.70971 3.74802C3.41466 3.62479 3.15572 3.43676 2.97449 3.15276C2.79477 2.87114 2.70968 2.52368 2.70968 2.11111C2.70968 1.69755 2.79511 1.34253 2.96738 1.0464C3.1404 0.748975 3.38899 0.531728 3.68121 0.376575ZM8.80645 6.11111C8.80645 6.52368 8.72135 6.87114 8.54164 7.15276C8.36041 7.43676 8.10147 7.62479 7.80642 7.74802C7.24133 7.98402 6.49135 8 5.75806 8C5.02478 8 4.2748 7.98402 3.70971 7.74802C3.41466 7.62479 3.15572 7.43676 2.97449 7.15276C2.79477 6.87114 2.70968 6.52368 2.70968 6.11111C2.70968 5.69755 2.79511 5.34253 2.96738 5.0464C3.1404 4.74898 3.38899 4.53173 3.68121 4.37657C4.25046 4.07434 5.00111 4 5.75806 4C6.51502 4 7.26567 4.07434 7.83492 4.37657C8.12714 4.53173 8.37573 4.74898 8.54875 5.0464C8.72102 5.34253 8.80645 5.69755 8.80645 6.11111ZM8.80645 6.11111C8.80645 6.52368 8.89155 6.87114 9.07126 7.15276C9.25249 7.43676 9.51143 7.62479 9.80649 7.74802C10.3716 7.98402 11.1216 8 11.8548 8C12.5881 8 13.3381 7.98402 13.9032 7.74802C14.1982 7.62479 14.4572 7.43676 14.6384 7.15276C14.8181 6.87114 14.9032 6.52368 14.9032 6.11111C14.9032 6.52368 14.9883 6.87114 15.168 7.15276C15.3493 7.43676 15.6082 7.62479 15.9033 7.74802C16.4683 7.98402 17.2183 8 17.9516 8C18.6849 8 19.4349 7.98402 20 7.74802C20.295 7.62479 20.554 7.43676 20.7352 7.15276C20.9149 6.87114 21 6.52368 21 6.11111C21 5.69755 20.9146 5.34253 20.7423 5.0464C20.5693 4.74898 20.3207 4.53173 20.0285 4.37657C19.4592 4.07434 18.7086 4 17.9516 4C18.6849 4 19.4349 3.98402 20 3.74802C20.295 3.62479 20.554 3.43676 20.7352 3.15276C20.9149 2.87114 21 2.52368 21 2.11111C21 1.69755 20.9146 1.34253 20.7423 1.0464C20.5693 0.748975 20.3207 0.531728 20.0285 0.376575C19.4592 0.0743372 18.7086 0 17.9516 0C17.1947 0 16.444 0.0743372 15.8748 0.376575C15.5825 0.531728 15.334 0.748975 15.1609 1.0464C14.9887 1.34253 14.9032 1.69755 14.9032 2.11111C14.9032 1.69755 14.8178 1.34253 14.6455 1.0464C14.4725 0.748975 14.2239 0.531728 13.9317 0.376575C13.3624 0.0743372 12.6118 0 11.8548 0C11.0979 0 10.3472 0.0743372 9.77798 0.376575C9.48576 0.531728 9.23718 0.748975 9.06415 1.0464C8.89188 1.34253 8.80645 1.69755 8.80645 2.11111C8.80645 2.52368 8.89155 2.87114 9.07126 3.15276C9.25249 3.43676 9.51143 3.62479 9.80649 3.74802C10.3716 3.98402 11.1216 4 11.8548 4C11.0979 4 10.3472 4.07434 9.77798 4.37657C9.48576 4.53173 9.23718 4.74898 9.06415 5.0464C8.89188 5.34253 8.80645 5.69755 8.80645 6.11111ZM17.9516 4C17.1947 4 16.444 4.07434 15.8748 4.37657C15.5825 4.53173 15.334 4.74898 15.1609 5.0464C14.9887 5.34253 14.9032 5.69755 14.9032 6.11111C14.9032 5.69755 14.8178 5.34253 14.6455 5.0464C14.4725 4.74898 14.2239 4.53173 13.9317 4.37657C13.3624 4.07434 12.6118 4 11.8548 4C12.5881 4 13.3381 3.98402 13.9032 3.74802C14.1982 3.62479 14.4572 3.43676 14.6384 3.15276C14.8181 2.87114 14.9032 2.52368 14.9032 2.11111C14.9032 2.52368 14.9883 2.87114 15.168 3.15276C15.3493 3.43676 15.6082 3.62479 15.9033 3.74802C16.4683 3.98402 17.2183 4 17.9516 4ZM9.65205 1.37763C9.55008 1.5529 9.48387 1.78829 9.48387 2.11111C9.48387 2.43492 9.55042 2.6501 9.64494 2.79821C9.73794 2.94395 9.87582 3.05276 10.0711 3.13433C10.4868 3.30791 11.0916 3.33333 11.8548 3.33333C12.6181 3.33333 13.2229 3.30791 13.6386 3.13433C13.8339 3.05276 13.9717 2.94395 14.0647 2.79821C14.1593 2.6501 14.2258 2.43492 14.2258 2.11111C14.2258 1.78829 14.1596 1.5529 14.0576 1.37763C13.9564 1.20365 13.8082 1.0685 13.61 0.9633C13.1986 0.744839 12.5944 0.666667 11.8548 0.666667C11.1153 0.666667 10.5111 0.744839 10.0996 0.9633C9.9015 1.0685 9.75326 1.20365 9.65205 1.37763ZM15.7488 1.37763C15.6469 1.5529 15.5806 1.78829 15.5806 2.11111C15.5806 2.43492 15.6472 2.6501 15.7417 2.79821C15.8347 2.94395 15.9726 3.05276 16.1679 3.13433C16.5835 3.30791 17.1884 3.33333 17.9516 3.33333C18.7148 3.33333 19.3197 3.30791 19.7353 3.13433C19.9306 3.05276 20.0685 2.94395 20.1615 2.79821C20.256 2.6501 20.3226 2.43492 20.3226 2.11111C20.3226 1.78829 20.2564 1.5529 20.1544 1.37763C20.0532 1.20365 19.905 1.0685 19.7068 0.9633C19.2954 0.744839 18.6912 0.666667 17.9516 0.666667C17.2121 0.666667 16.6079 0.744839 16.1964 0.9633C15.9983 1.0685 15.85 1.20365 15.7488 1.37763ZM2.37097 2.04696V13H20.7197L16.3648 16H0V6.24696L2.37097 2.04696ZM0.677419 6.41971V15.3333H16.1513L18.5706 13.6667H1.69355V4.61971L0.677419 6.41971ZM3.55527 5.37763C3.45331 5.5529 3.3871 5.78829 3.3871 6.11111C3.3871 6.43492 3.45364 6.6501 3.54816 6.79821C3.64117 6.94395 3.77905 7.05276 3.97435 7.13433C4.38998 7.30791 4.99483 7.33333 5.75806 7.33333C6.5213 7.33333 7.12615 7.30791 7.54178 7.13433C7.73708 7.05276 7.87496 6.94395 7.96797 6.79821C8.06248 6.6501 8.12903 6.43492 8.12903 6.11111C8.12903 5.78829 8.06282 5.5529 7.96086 5.37763C7.85964 5.20365 7.7114 5.0685 7.51327 4.9633C7.10181 4.74484 6.49763 4.66667 5.75806 4.66667C5.0185 4.66667 4.41432 4.74484 4.00286 4.9633C3.80472 5.0685 3.65648 5.20365 3.55527 5.37763ZM9.65205 5.37763C9.55008 5.5529 9.48387 5.78829 9.48387 6.11111C9.48387 6.43492 9.55042 6.6501 9.64494 6.79821C9.73794 6.94395 9.87582 7.05276 10.0711 7.13433C10.4868 7.30791 11.0916 7.33333 11.8548 7.33333C12.6181 7.33333 13.2229 7.30791 13.6386 7.13433C13.8339 7.05276 13.9717 6.94395 14.0647 6.79821C14.1593 6.6501 14.2258 6.43492 14.2258 6.11111C14.2258 5.78829 14.1596 5.5529 14.0576 5.37763C13.9564 5.20365 13.8082 5.0685 13.61 4.9633C13.1986 4.74484 12.5944 4.66667 11.8548 4.66667C11.1153 4.66667 10.5111 4.74484 10.0996 4.9633C9.9015 5.0685 9.75326 5.20365 9.65205 5.37763ZM15.7488 5.37763C15.6469 5.5529 15.5806 5.78829 15.5806 6.11111C15.5806 6.43492 15.6472 6.6501 15.7417 6.79821C15.8347 6.94395 15.9726 7.05276 16.1679 7.13433C16.5835 7.30791 17.1884 7.33333 17.9516 7.33333C18.7148 7.33333 19.3197 7.30791 19.7353 7.13433C19.9306 7.05276 20.0685 6.94395 20.1615 6.79821C20.256 6.6501 20.3226 6.43492 20.3226 6.11111C20.3226 5.78829 20.2564 5.5529 20.1544 5.37763C20.0532 5.20365 19.905 5.0685 19.7068 4.9633C19.2954 4.74484 18.6912 4.66667 17.9516 4.66667C17.2121 4.66667 16.6079 4.74484 16.1964 4.9633C15.9983 5.0685 15.85 5.20365 15.7488 5.37763ZM3.55527 10.0443C3.45331 10.2196 3.3871 10.455 3.3871 10.7778C3.3871 11.1016 3.45364 11.3168 3.54816 11.4649C3.64117 11.6106 3.77905 11.7194 3.97435 11.801C4.38998 11.9746 4.99483 12 5.75806 12C6.5213 12 7.12615 11.9746 7.54178 11.801C7.73708 11.7194 7.87496 11.6106 7.96797 11.4649C8.06248 11.3168 8.12903 11.1016 8.12903 10.7778C8.12903 10.455 8.06282 10.2196 7.96086 10.0443C7.85964 9.87031 7.7114 9.73516 7.51327 9.62997C7.10181 9.41151 6.49763 9.33333 5.75806 9.33333C5.0185 9.33333 4.41432 9.41151 4.00286 9.62997C3.80472 9.73516 3.65648 9.87031 3.55527 10.0443ZM3.68121 9.04324C4.25046 8.741 5.00111 8.66667 5.75806 8.66667C6.51502 8.66667 7.26567 8.741 7.83492 9.04324C8.12714 9.1984 8.37573 9.41564 8.54875 9.71307C8.72102 10.0092 8.80645 10.3642 8.80645 10.7778C8.80645 11.1904 8.72135 11.5378 8.54164 11.8194C8.36041 12.1034 8.10147 12.2915 7.80642 12.4147C7.24133 12.6507 6.49135 12.6667 5.75806 12.6667C5.02478 12.6667 4.2748 12.6507 3.70971 12.4147C3.41466 12.2915 3.15572 12.1034 2.97449 11.8194C2.79477 11.5378 2.70968 11.1904 2.70968 10.7778C2.70968 10.3642 2.79511 10.0092 2.96738 9.71307C3.1404 9.41564 3.38899 9.1984 3.68121 9.04324ZM14.9032 10.7778C14.9032 11.1904 14.8181 11.5378 14.6384 11.8194C14.4572 12.1034 14.1982 12.2915 13.9032 12.4147C13.3381 12.6507 12.5881 12.6667 11.8548 12.6667C11.1216 12.6667 10.3716 12.6507 9.80649 12.4147C9.51143 12.2915 9.25249 12.1034 9.07126 11.8194C8.89155 11.5378 8.80645 11.1904 8.80645 10.7778C8.80645 10.3642 8.89188 10.0092 9.06415 9.71307C9.23718 9.41564 9.48576 9.1984 9.77798 9.04324C10.3472 8.741 11.0979 8.66667 11.8548 8.66667C12.6118 8.66667 13.3624 8.741 13.9317 9.04324C14.2239 9.1984 14.4725 9.41564 14.6455 9.71307C14.8178 10.0092 14.9032 10.3642 14.9032 10.7778ZM14.9032 10.7778C14.9032 11.1904 14.9883 11.5378 15.168 11.8194C15.3493 12.1034 15.6082 12.2915 15.9033 12.4147C16.4683 12.6507 17.2183 12.6667 17.9516 12.6667C18.6849 12.6667 19.4349 12.6507 20 12.4147C20.295 12.2915 20.554 12.1034 20.7352 11.8194C20.9149 11.5378 21 11.1904 21 10.7778C21 10.3642 20.9146 10.0092 20.7423 9.71307C20.5693 9.41564 20.3207 9.1984 20.0285 9.04324C19.4592 8.741 18.7086 8.66667 17.9516 8.66667C17.1947 8.66667 16.444 8.741 15.8748 9.04324C15.5825 9.1984 15.334 9.41564 15.1609 9.71307C14.9887 10.0092 14.9032 10.3642 14.9032 10.7778ZM9.65205 10.0443C9.55008 10.2196 9.48387 10.455 9.48387 10.7778C9.48387 11.1016 9.55042 11.3168 9.64494 11.4649C9.73794 11.6106 9.87582 11.7194 10.0711 11.801C10.4868 11.9746 11.0916 12 11.8548 12C12.6181 12 13.2229 11.9746 13.6386 11.801C13.8339 11.7194 13.9717 11.6106 14.0647 11.4649C14.1593 11.3168 14.2258 11.1016 14.2258 10.7778C14.2258 10.455 14.1596 10.2196 14.0576 10.0443C13.9564 9.87031 13.8082 9.73516 13.61 9.62997C13.1986 9.41151 12.5944 9.33333 11.8548 9.33333C11.1153 9.33333 10.5111 9.41151 10.0996 9.62997C9.9015 9.73516 9.75326 9.87031 9.65205 10.0443ZM15.7488 10.0443C15.6469 10.2196 15.5806 10.455 15.5806 10.7778C15.5806 11.1016 15.6472 11.3168 15.7417 11.4649C15.8347 11.6106 15.9726 11.7194 16.1679 11.801C16.5835 11.9746 17.1884 12 17.9516 12C18.7148 12 19.3197 11.9746 19.7353 11.801C19.9306 11.7194 20.0685 11.6106 20.1615 11.4649C20.256 11.3168 20.3226 11.1016 20.3226 10.7778C20.3226 10.455 20.2564 10.2196 20.1544 10.0443C20.0532 9.87031 19.905 9.73516 19.7068 9.62997C19.2954 9.41151 18.6912 9.33333 17.9516 9.33333C17.2121 9.33333 16.6079 9.41151 16.1964 9.62997C15.9983 9.73516 15.85 9.87031 15.7488 10.0443Z" fill="#92A6B4"/>
</svg>
