<svg width="22" height="21" viewBox="0 0 22 21" fill="none" xmlns="http://www.w3.org/2000/svg">
<path d="M1.30958 12.9984C1.14094 13.1975 0.90485 13.8045 1.30958 14.6405C2.32136 14.6405 9.40407 14.8395 12.819 14.939L20.6184 11.4197C20.6605 11.0714 20.8117 10.2145 20.5082 9.97561M1.30958 4.93163C1.14094 5.13067 0.90485 5.73772 1.30958 6.57367C2.32136 6.57367 9.40407 6.7727 12.819 6.87222L20.6184 3.35293C20.6605 3.00462 21.0691 1.39223 20.7656 1.15339M2.03267 13.5763H12.9626C13.1028 13.5763 13.2417 13.5477 13.3705 13.4922L20.213 10.5454C21.2421 10.1022 20.9256 8.56681 19.805 8.56681H8.9788C8.8404 8.56681 8.70342 8.59466 8.57601 8.64871L1.62988 11.5955C0.595457 12.0343 0.909007 13.5763 2.03267 13.5763ZM2.03267 5.50946H12.9626C13.1028 5.50946 13.2417 5.48084 13.3705 5.42536L20.213 2.47861C21.2421 2.03539 20.9256 0.5 19.805 0.5H8.9788C8.8404 0.5 8.70342 0.527854 8.57601 0.581904L1.62988 3.52865C0.595457 3.96748 0.909007 5.50946 2.03267 5.50946Z" stroke="#92A6B4"/>
<path d="M1.10547 15.0366C1.25588 16.3902 2.09815 20 4.264 20C6.42986 20 10.8819 20 12.8372 20L20.9591 16.3902V10.9756" stroke="#92A6B4" stroke-width="0.9"/>
</svg>
