<svg width="23" height="25" viewBox="0 0 23 25" fill="none" xmlns="http://www.w3.org/2000/svg">
<path d="M12.5 22.0426H1.48936V3.44681M17.6383 3.44681V12.2553M21.5418 13.621V24H12.5284V13.621M18.1277 3.20213C18.1277 4.41833 14.2935 5.40426 9.56383 5.40426C4.83416 5.40426 1 4.41833 1 3.20213C1 1.98593 4.83416 1 9.56383 1C14.2935 1 18.1277 1.98593 18.1277 3.20213ZM14.2128 3.20213C14.2128 3.60753 12.1314 3.93617 9.56383 3.93617C6.9963 3.93617 4.9149 3.60753 4.9149 3.20213C4.9149 2.79673 6.9963 2.46809 9.56383 2.46809C12.1314 2.46809 14.2128 2.79673 14.2128 3.20213ZM3.7363 7.85107C3.14856 9.59879 2.32572 14.3945 3.7363 19.5958C4.99569 15.4012 4.24015 9.52888 3.7363 7.85107ZM21.815 13.4844C21.815 14.1632 19.675 14.7135 17.0351 14.7135C14.3953 14.7135 12.2553 14.1632 12.2553 13.4844C12.2553 12.8056 14.3953 12.2553 17.0351 12.2553C19.675 12.2553 21.815 12.8056 21.815 13.4844Z" stroke="#92A6B4" stroke-width="0.8"/>
</svg>
