<svg width="11" height="11" viewBox="0 0 11 11" fill="none" xmlns="http://www.w3.org/2000/svg">
<path d="M10.5515 7.94624L9.03677 6.43524C8.49578 5.8956 7.5761 6.11146 7.3597 6.81299C7.19741 7.29867 6.65641 7.56849 6.16952 7.46056C5.08754 7.19074 3.62687 5.78767 3.35637 4.65442C3.19408 4.16874 3.51867 3.6291 4.00556 3.46721C4.70885 3.25135 4.92525 2.33396 4.38426 1.79431L2.86948 0.283313C2.43669 -0.0944375 1.7875 -0.0944375 1.40881 0.283313L0.380926 1.30863C-0.646955 2.38792 0.489124 5.24803 3.03178 7.78435C5.57443 10.3207 8.44168 11.5079 9.52366 10.4286L10.5515 9.40328C10.9302 8.97156 10.9302 8.32399 10.5515 7.94624Z" fill="white"/>
</svg>
