<svg width="76" height="76" viewBox="0 0 76 76" fill="none" xmlns="http://www.w3.org/2000/svg">
<g opacity="0.65">
<path d="M37.0005 65.3777C37.2405 65.6859 37.6093 65.8661 37.9999 65.8661C38.3906 65.8661 38.7593 65.6859 38.9993 65.3777L65.5993 31.1777C65.8962 30.7959 65.9498 30.2784 65.7374 29.8439C65.7139 29.8029 65.6876 29.7636 65.6589 29.7261H65.669L56.8023 15.7928C56.5638 15.4379 56.1607 15.2292 55.7333 15.2392V15.2H20.2666V15.2392C19.8403 15.2278 19.4375 15.434 19.1975 15.7864L10.3309 29.7198H10.341C10.3122 29.7572 10.286 29.7966 10.2625 29.8376C10.0501 30.2721 10.1037 30.7896 10.4005 31.1714L37.0005 65.3777ZM40.3078 17.7333H53.4254L46.8666 28.0402L40.3078 17.7333ZM44.5587 29.1333H31.4411L37.9999 18.8264L44.5587 29.1333ZM29.1333 28.0402L22.5745 17.7333H35.6921L29.1333 28.0402ZM13.9903 31.6666H28.1617L35.6655 59.5333L13.9903 31.6666ZM40.3825 59.4738L44.4599 44.7133C44.6262 44.0467 44.2308 43.3691 43.5686 43.1859C42.9064 43.0028 42.219 43.3809 42.0191 44.0382L38.0177 58.52L30.7863 31.6666H45.2263L43.6632 37.682C43.5301 38.1266 43.6508 38.6083 43.9776 38.9376C44.3045 39.2669 44.7853 39.3912 45.2308 39.2614C45.6764 39.1317 46.0153 38.7687 46.1142 38.3154L47.8457 31.6666H62.0096L40.3825 59.4738ZM62.2921 29.1333H49.1745L55.7333 18.8264L62.2921 29.1333ZM20.2666 18.8264L26.8254 29.1333H13.7078L20.2666 18.8264Z" fill="white"/>
<path d="M1.26667 39.2666H5.06667C5.76623 39.2666 6.33333 38.6995 6.33333 37.9999C6.33333 37.3004 5.76623 36.7333 5.06667 36.7333H1.26667C0.567106 36.7333 0 37.3004 0 37.9999C0 38.6995 0.567106 39.2666 1.26667 39.2666Z" fill="white"/>
<path d="M70.9332 39.2666H74.7331C75.4327 39.2666 75.9998 38.6995 75.9998 37.9999C75.9998 37.3004 75.4327 36.7333 74.7331 36.7333H70.9332C70.2336 36.7333 69.6665 37.3004 69.6665 37.9999C69.6665 38.6995 70.2336 39.2666 70.9332 39.2666Z" fill="white"/>
<path d="M39.2667 74.7334V70.9334C39.2667 70.2339 38.6996 69.6667 38.0001 69.6667C37.3005 69.6667 36.7334 70.2339 36.7334 70.9334V74.7334C36.7334 75.433 37.3005 76.0001 38.0001 76.0001C38.6996 76.0001 39.2667 75.433 39.2667 74.7334Z" fill="white"/>
<path d="M38.0001 6.33333C38.6996 6.33333 39.2667 5.76623 39.2667 5.06667V1.26667C39.2667 0.567106 38.6996 0 38.0001 0C37.3005 0 36.7334 0.567106 36.7334 1.26667V5.06667C36.7334 5.76623 37.3005 6.33333 38.0001 6.33333Z" fill="white"/>
<path d="M13.8167 60.3922L11.1301 63.0801C10.7879 63.395 10.6458 63.8721 10.76 64.323C10.8741 64.7738 11.2262 65.1258 11.677 65.24C12.1278 65.3541 12.6049 65.212 12.9199 64.8699L15.6065 62.1833C16.0865 61.6862 16.0797 60.8962 15.5911 60.4076C15.1025 59.919 14.3124 59.9122 13.8154 60.3922H13.8167Z" fill="white"/>
<path d="M61.2876 15.979C61.6235 15.9789 61.9457 15.8454 62.1832 15.6079L64.8698 12.92C65.2119 12.6051 65.354 12.1279 65.2399 11.6771C65.1257 11.2263 64.7737 10.8742 64.3229 10.7601C63.872 10.6459 63.3949 10.788 63.08 11.1302L60.3934 13.8168C60.0312 14.1791 59.9229 14.7238 60.1189 15.197C60.3149 15.6703 60.7767 15.9789 61.2889 15.979H61.2876Z" fill="white"/>
<path d="M63.9743 65.241C64.4866 65.2409 64.9483 64.9323 65.1443 64.459C65.3403 63.9858 65.232 63.441 64.8698 63.0788L62.1833 60.3922C61.6862 59.9122 60.8962 59.919 60.4076 60.4076C59.919 60.8962 59.9122 61.6862 60.3922 62.1833L63.08 64.8699C63.3172 65.1071 63.6388 65.2406 63.9743 65.241Z" fill="white"/>
<path d="M13.8167 15.6079C14.3137 16.0879 15.1037 16.081 15.5923 15.5925C16.0809 15.1039 16.0878 14.3138 15.6078 13.8168L12.9199 11.1302C12.6049 10.788 12.1278 10.6459 11.677 10.7601C11.2262 10.8742 10.8741 11.2263 10.76 11.6771C10.6458 12.1279 10.7879 12.6051 11.1301 12.92L13.8167 15.6079Z" fill="white"/>
</g>
</svg>
