<svg width="63" height="41" viewBox="0 0 63 41" fill="none" xmlns="http://www.w3.org/2000/svg">
<path fill-rule="evenodd" clip-rule="evenodd" d="M11.3422 8.24514C11.9476 6.63626 12.678 4.94308 13.6 3.66145C14.5286 2.37068 15.5305 1.65903 16.6581 1.65903H31.2795H31.2797H45.9011C47.0287 1.65903 48.0306 2.37068 48.9592 3.66145C49.8812 4.94308 50.6116 6.63626 51.217 8.24514C52.0192 10.377 53.6882 14.3784 54.8255 17.0655H7.73371C8.871 14.3784 10.54 10.377 11.3422 8.24514ZM52.7697 7.66084C53.6265 9.93771 55.5034 14.4192 56.6275 17.0655H59.1847C61.0172 17.0655 62.5027 18.5511 62.5027 20.3836V21.241C62.5027 23.0735 61.0172 24.559 59.1847 24.559H57.2275C56.0745 27.1128 54.1574 31.4198 53.2815 33.6095C52.6525 35.1821 51.8379 36.9887 50.7505 38.4107C49.6645 39.8307 48.2006 41 46.2667 41L31.904 41L31.2796 41L16.917 41C14.9831 41 13.5191 39.8307 12.4332 38.4107C11.3458 36.9887 10.5312 35.1821 9.90219 33.6095C9.0263 31.4198 7.10919 27.1128 5.95621 24.559H3.37469C1.54219 24.559 0.0566406 23.0735 0.0566406 21.241V20.3836C0.0566406 18.5511 1.54218 17.0655 3.37469 17.0655H5.93172C7.05583 14.4192 8.93268 9.93771 9.78948 7.66084C10.4025 6.03178 11.1953 4.16322 12.2532 2.6926C13.3047 1.23111 14.7396 0 16.6581 0H31.2795H31.2797H45.9011C47.8196 0 49.2546 1.23111 50.306 2.6926C51.3639 4.16322 52.1567 6.03178 52.7697 7.66084ZM48.7646 24.559H55.4078C54.2429 27.1494 52.5562 30.9558 51.7411 32.9933C51.1212 34.5431 50.3747 36.171 49.4326 37.4029C48.489 38.6368 47.4551 39.341 46.2667 39.341L31.904 39.341L31.2796 39.341L16.917 39.341C15.7285 39.341 14.6947 38.6368 13.7511 37.4029C12.809 36.171 12.0624 34.5431 11.4426 32.9933C10.6275 30.9558 8.94075 27.1494 7.77587 24.559H13.795V30.8037C13.795 32.1832 14.9133 33.3015 16.2928 33.3015C17.6723 33.3015 18.7906 32.1832 18.7906 30.8037L18.7906 24.559H23.7862V30.8037C23.7862 32.1832 24.9045 33.3015 26.2841 33.3015C27.6636 33.3015 28.7819 32.1832 28.7819 30.8037V24.559H33.7775V30.8037C33.7775 32.1832 34.8958 33.3015 36.2753 33.3015C37.6548 33.3015 38.7732 32.1832 38.7732 30.8037V24.559H43.769V30.8037C43.769 32.1832 44.8873 33.3015 46.2668 33.3015C47.6463 33.3015 48.7646 32.1832 48.7646 30.8037V24.559ZM44.875 24.559H47.6586V30.8037C47.6586 31.5724 47.0355 32.1955 46.2668 32.1955C45.4981 32.1955 44.875 31.5724 44.875 30.8037V24.559ZM34.8835 24.559H37.6671V30.8037C37.6671 31.5724 37.044 32.1955 36.2753 32.1955C35.5066 32.1955 34.8835 31.5724 34.8835 30.8037V24.559ZM24.8922 24.559H27.6759V30.8037C27.6759 31.5724 27.0527 32.1955 26.2841 32.1955C25.5154 32.1955 24.8922 31.5724 24.8922 30.8037V24.559ZM14.901 24.559H17.6846V30.8037C17.6846 31.5724 17.0615 32.1955 16.2928 32.1955C15.5241 32.1955 14.901 31.5724 14.901 30.8037V24.559ZM59.1847 18.7245H3.37469C2.45844 18.7245 1.71567 19.4673 1.71567 20.3836V21.241C1.71567 22.1573 2.45844 22.9 3.37469 22.9H59.1847C60.1009 22.9 60.8437 22.1573 60.8437 21.241V20.3836C60.8437 19.4673 60.1009 18.7245 59.1847 18.7245ZM17.5417 37.048H45.018V38.297H17.5417V37.048ZM45.018 4.57622H17.5417V5.82514H45.018V4.57622Z" fill="url(#paint0_linear)"/>
<defs>
<linearGradient id="paint0_linear" x1="31.2797" y1="0" x2="31.2797" y2="41" gradientUnits="userSpaceOnUse">
<stop stop-color="#1DC7FC"/>
<stop offset="0.833333" stop-color="#1D77F1"/>
</linearGradient>
</defs>
</svg>
