<svg width="42" height="59" viewBox="0 0 42 59" fill="none" xmlns="http://www.w3.org/2000/svg">
<path d="M36.0713 6.90918C35.7576 6.55776 35.2186 6.52705 34.8669 6.8406C34.5153 7.15415 34.4847 7.69345 34.7982 8.04487C41.0713 15.0759 41.1634 25.554 35.292 32.6866C33.0194 35.4473 31.4704 38.778 30.8123 42.319C30.6658 43.1079 29.9729 43.6559 29.1959 43.6559H23.6633L24.2831 32.7974H27.7196C29.8749 32.7974 31.6283 31.0439 31.6283 28.8885C31.6283 26.7332 29.8749 24.9797 27.7195 24.9797C25.0845 24.9797 22.903 27.0403 22.7528 29.671L22.6717 31.0915H18.6373L18.5562 29.6709C18.4059 27.0403 16.2244 24.9797 13.5896 24.9797C11.4342 24.9797 9.68071 26.7332 9.68059 28.8885C9.68048 31.0487 11.4287 32.7974 13.5893 32.7974H17.026L17.6458 43.6559H12.1134C11.3342 43.6559 10.643 43.1056 10.4968 42.3186C9.83924 38.7772 8.29117 35.4475 6.01956 32.6896C-0.0186173 25.358 0.216346 14.4599 7.14047 7.39844C10.6016 3.86876 15.209 1.84986 20.1143 1.7135C24.421 1.59249 28.5172 2.88399 31.957 5.44458C32.3351 5.72583 32.8692 5.6477 33.1506 5.26967C33.4319 4.89175 33.3535 4.35745 32.9757 4.07609C29.2255 1.28451 24.7612 -0.122533 20.0668 0.00836804C14.7176 0.157011 9.69447 2.35731 5.92244 6.20418C-1.6215 13.8977 -1.88149 25.7797 4.70282 33.7742C6.7911 36.3097 8.21463 39.372 8.81956 42.6301C9.00459 43.6262 9.6218 44.4501 10.4562 44.9244V51.3116C10.4562 52.8877 11.553 54.2118 13.0232 54.5628V54.597C13.0232 56.5997 14.6526 58.2291 16.6553 58.2291H24.6537C26.6564 58.2291 28.2858 56.5997 28.2858 54.597V54.5628C29.756 54.2119 30.8527 52.8879 30.8527 51.3116V44.9246C31.6873 44.4505 32.3046 43.6267 32.4896 42.6307C33.0949 39.3729 34.5194 36.3092 36.6091 33.7708C43.012 25.9927 42.9068 14.5708 36.0713 6.90918ZM24.4561 29.7681C24.5547 28.0396 25.9882 26.6856 27.7196 26.6856C28.9342 26.6856 29.9224 27.6738 29.9224 28.8885C29.9224 30.1033 28.9342 31.0915 27.7196 31.0915H24.3804L24.4561 29.7681ZM13.5893 31.0915C12.3719 31.0915 11.3865 30.1062 11.3865 28.8885C11.3865 27.6738 12.3748 26.6855 13.5896 26.6855C15.3208 26.6855 16.7544 28.0396 16.8531 29.768L16.9286 31.0914H13.5893V31.0915ZM22.5744 32.7974L21.9545 43.6559H19.3544L18.7346 32.7974H22.5744ZM24.6537 56.5229H16.6553C15.6127 56.5229 14.763 55.6898 14.7321 54.6545H26.577C26.5461 55.6898 25.6963 56.5229 24.6537 56.5229ZM29.1469 48.2284H18.2757C17.8047 48.2284 17.4228 48.6103 17.4228 49.0814C17.4228 49.5524 17.8047 49.9343 18.2757 49.9343H29.1469V51.3115C29.1469 52.2142 28.4125 52.9487 27.5098 52.9487H13.7994C12.8966 52.9487 12.1621 52.2142 12.1621 51.3115V49.9343H14.2885C14.7596 49.9343 15.1415 49.5524 15.1415 49.0814C15.1415 48.6103 14.7596 48.2284 14.2885 48.2284H12.1621V45.362H29.1469V48.2284Z" fill="url(#paint0_linear)"/>
<defs>
<linearGradient id="paint0_linear" x1="20.6538" y1="0" x2="20.6538" y2="58.2291" gradientUnits="userSpaceOnUse">
<stop stop-color="#1DC7FC"/>
<stop offset="0.833333" stop-color="#1D77F1"/>
</linearGradient>
</defs>
</svg>
