<svg width="53" height="53" viewBox="0 0 53 53" fill="none" xmlns="http://www.w3.org/2000/svg">
<g clip-path="url(#clip0)">
<path d="M38.7813 52.5C30.9413 52.5 24.5625 46.1212 24.5625 38.2812C24.5625 30.4412 30.9413 24.0625 38.7813 24.0625C46.6213 24.0625 53 30.4412 53 38.2812C53 46.1212 46.6213 52.5 38.7813 52.5ZM38.7813 26.25C32.1466 26.25 26.75 31.6466 26.75 38.2812C26.75 44.9159 32.1466 50.3125 38.7813 50.3125C45.4159 50.3125 50.8125 44.9159 50.8125 38.2812C50.8125 31.6466 45.4159 26.25 38.7813 26.25Z" fill="url(#paint0_linear)"/>
<path d="M36.5938 43.7501C36.3051 43.7501 36.0251 43.6342 35.8194 43.4307L31.4444 39.0557C31.0179 38.6292 31.0179 37.9357 31.4444 37.5092C31.871 37.0826 32.5644 37.0826 32.991 37.5092L36.5391 41.0573L43.4254 33.1867C43.8235 32.7295 44.5148 32.6835 44.9698 33.0839C45.4248 33.482 45.4707 34.1732 45.0726 34.6282L37.4163 43.3782C37.2173 43.6057 36.9307 43.7414 36.6288 43.7501C36.6179 43.7501 36.6048 43.7501 36.5938 43.7501Z" fill="url(#paint1_linear)"/>
<path d="M21.2812 52.5C19.8069 52.5 18.4331 51.9247 17.4137 50.8791L2.11 35.5753C1.07531 34.5669 0.5 33.1931 0.5 31.7188C0.5 30.3188 1.05125 28.9494 2.01156 27.9606L26.6625 2.39094C28.1216 0.850938 30.0991 0 32.2188 0H47.5312C50.5456 0 53 2.45438 53 5.46875V20.7812C53 21.7284 52.8272 22.6537 52.4728 23.6119C52.2628 24.1784 51.6328 24.4716 51.0662 24.2572C50.4997 24.0472 50.2109 23.4172 50.4209 22.8506C50.6834 22.1419 50.8125 21.4659 50.8125 20.7812V5.46875C50.8125 3.65969 49.3403 2.1875 47.5312 2.1875H32.2188C30.705 2.1875 29.2919 2.79563 28.2441 3.9025L3.58437 29.4809C3.01344 30.0694 2.6875 30.8831 2.6875 31.7188C2.6875 32.5981 3.02875 33.4162 3.64781 34.02L18.9691 49.3412C20.0037 50.4022 21.7362 50.61 22.97 49.8247C23.4841 49.5009 24.1556 49.6519 24.4794 50.1637C24.8031 50.6756 24.6522 51.3494 24.1403 51.6731C23.2894 52.2156 22.3006 52.5 21.2812 52.5Z" fill="url(#paint2_linear)"/>
<path d="M42.0625 15.3125C39.6497 15.3125 37.6875 13.3503 37.6875 10.9375C37.6875 8.52469 39.6497 6.5625 42.0625 6.5625C44.4753 6.5625 46.4375 8.52469 46.4375 10.9375C46.4375 13.3503 44.4753 15.3125 42.0625 15.3125ZM42.0625 8.75C40.8572 8.75 39.875 9.73219 39.875 10.9375C39.875 12.1428 40.8572 13.125 42.0625 13.125C43.2678 13.125 44.25 12.1428 44.25 10.9375C44.25 9.73219 43.2678 8.75 42.0625 8.75Z" fill="url(#paint3_linear)"/>
</g>
<defs>
<linearGradient id="paint0_linear" x1="38.7813" y1="24.0625" x2="38.7813" y2="52.5" gradientUnits="userSpaceOnUse">
<stop stop-color="#1DC7FC"/>
<stop offset="0.833333" stop-color="#1D77F1"/>
</linearGradient>
<linearGradient id="paint1_linear" x1="38.234" y1="32.8113" x2="38.234" y2="43.7501" gradientUnits="userSpaceOnUse">
<stop stop-color="#1DC7FC"/>
<stop offset="0.833333" stop-color="#1D77F1"/>
</linearGradient>
<linearGradient id="paint2_linear" x1="26.75" y1="0" x2="26.75" y2="52.5" gradientUnits="userSpaceOnUse">
<stop stop-color="#1DC7FC"/>
<stop offset="0.833333" stop-color="#1D77F1"/>
</linearGradient>
<linearGradient id="paint3_linear" x1="42.0625" y1="6.5625" x2="42.0625" y2="15.3125" gradientUnits="userSpaceOnUse">
<stop stop-color="#1DC7FC"/>
<stop offset="0.833333" stop-color="#1D77F1"/>
</linearGradient>
<clipPath id="clip0">
<rect width="52.5" height="52.5" fill="white" transform="translate(0.5)"/>
</clipPath>
</defs>
</svg>
