<svg width="156" height="77" viewBox="0 0 156 77" fill="none" xmlns="http://www.w3.org/2000/svg">
<path d="M11.316 59.4737H5.17151L4.2617 61.3978C4.15749 61.5924 4.0944 61.8067 4.0764 62.0273C4.0764 62.3195 4.29691 62.5256 4.73791 62.6361V62.949H0.259277V62.6286C0.483103 62.5973 0.692692 62.4995 0.861494 62.3476C1.06097 62.116 1.22124 61.8527 1.33585 61.5683L6.31479 51.0618C6.45009 50.8141 6.53158 50.5401 6.55383 50.2581C6.55383 49.9489 6.36853 49.7316 5.97755 49.5967V49.2764H10.773V49.5967C10.3821 49.711 10.1894 49.9096 10.1894 50.1869C10.1996 50.4189 10.2631 50.6453 10.3747 50.8482L15.5315 61.394C15.6784 61.7267 15.8725 62.036 16.1078 62.312C16.2924 62.485 16.5241 62.5979 16.773 62.6361V62.949H11.7903V62.6286C12.2295 62.5537 12.4481 62.3476 12.4481 62.0066C12.4244 61.7882 12.3562 61.5771 12.248 61.3865L11.316 59.4737ZM10.4673 57.6002L8.27524 52.7292L6.05167 57.6002H10.4673Z" fill="#27353F"/>
<path d="M21.5054 60.7007H29.8179C29.9849 60.7122 30.1505 60.663 30.2848 60.562C30.4152 60.4222 30.5044 60.2483 30.5424 60.0599H30.8592V63.5971H30.5424C30.5036 63.409 30.4145 63.2353 30.2848 63.095C30.1509 62.9932 29.985 62.944 29.8179 62.9563H17.9199V62.636C18.1049 62.6004 18.2767 62.5142 18.4165 62.3868C18.5181 62.2518 18.5669 62.0837 18.5536 61.9147V50.3366C18.5651 50.1683 18.5164 50.0014 18.4165 49.8663C18.2786 49.7335 18.1065 49.6426 17.9199 49.6041V49.2837H22.1391V49.6041C21.9513 49.6365 21.7778 49.7268 21.6425 49.8626C21.5416 49.9986 21.4929 50.167 21.5054 50.3366V60.7007Z" fill="#27353F"/>
<path d="M37.9006 56.579L35.8624 58.2408V61.9091C35.8502 62.0803 35.9018 62.25 36.0069 62.3849C36.1421 62.5164 36.312 62.6055 36.4961 62.6416V62.9619H32.2769V62.6416C32.463 62.6028 32.6349 62.5127 32.7735 62.3812C32.875 62.2462 32.9239 62.0781 32.9106 61.9091V50.3253C32.9217 50.1606 32.8729 49.9974 32.7735 49.8663C32.6356 49.7335 32.4635 49.6426 32.2769 49.6041V49.2837H36.5035V49.6041C36.3156 49.6365 36.1422 49.7268 36.0069 49.8626C35.9065 49.996 35.8577 50.1619 35.8698 50.3291V55.1177L41.4398 50.5146C41.6974 50.301 41.8271 50.1305 41.8271 50.005C41.8271 49.8176 41.6418 49.6752 41.2508 49.6041V49.2837H46.7819V49.6041C46.6087 49.6303 46.4409 49.6854 46.2853 49.7671C46.1871 49.8251 45.8981 50.0556 45.4237 50.4471L44.6566 51.0879L40.0575 54.8236L45.2718 61.1672C45.5856 61.5772 45.9354 61.9578 46.3168 62.3044C46.5537 62.4822 46.8308 62.5975 47.1229 62.6397V62.9601H41.8345V62.6397C42.1866 62.5648 42.3589 62.4374 42.3589 62.265C42.3589 62.1713 42.1995 61.9259 41.8827 61.525L37.9006 56.579Z" fill="#27353F"/>
<path d="M54.8964 49.042C57.2571 49.042 59.128 49.6871 60.509 50.9773C61.9692 52.3262 62.6999 54.0704 62.7011 56.2099C62.7047 57.5088 62.3408 58.7816 61.6523 59.8782C60.2824 62.0952 58.0384 63.2043 54.9205 63.2055C52.5808 63.2055 50.7198 62.5604 49.3375 61.2702C48.5987 60.5845 48.0223 59.7392 47.6513 58.7972C47.315 57.9464 47.1439 57.0381 47.1473 56.1219C47.1354 54.7953 47.4965 53.4926 48.1886 52.3656C49.5116 50.1898 51.7476 49.082 54.8964 49.042ZM54.9075 51.3689C53.6191 51.3689 52.5443 51.7554 51.6833 52.5285C50.6654 53.4428 50.1565 54.6406 50.1565 56.1219C50.1565 57.6032 50.6654 58.801 51.6833 59.7152C52.545 60.4908 53.6252 60.8749 54.9279 60.8749C56.2305 60.8749 57.3071 60.4871 58.1613 59.7152C58.673 59.2506 59.073 58.6738 59.3306 58.0291C59.5668 57.4452 59.6877 56.8202 59.6863 56.1893C59.6863 54.6418 59.178 53.4241 58.1613 52.536C57.296 51.7698 56.2083 51.382 54.9075 51.3689Z" fill="#27353F"/>
<path d="M68.4081 57.3811V61.9206C68.3985 62.0899 68.4528 62.2566 68.56 62.3871C68.6947 62.5191 68.8648 62.6084 69.0492 62.6437V62.9641H64.8188V62.6437C65.005 62.605 65.1769 62.5148 65.3154 62.3833C65.4158 62.2528 65.4647 62.0892 65.4526 61.9243V50.3368C65.464 50.1685 65.4154 50.0017 65.3154 49.8666C65.1776 49.7337 65.0055 49.6428 64.8188 49.6043V49.2839H73.2814C74.1032 49.2689 74.9245 49.3316 75.7347 49.4713C76.2974 49.5762 76.8343 49.7913 77.3153 50.1045C77.8343 50.4491 78.2415 50.9403 78.4864 51.5171C78.7332 52.1002 78.8593 52.7282 78.857 53.3625C78.857 55.5932 77.6322 56.899 75.1825 57.2799L77.8082 61.0588C78.1059 61.5173 78.4472 61.9452 78.8273 62.3365C79.0457 62.5297 79.323 62.6415 79.613 62.6531V62.9753H74.7211V62.6531C75.0584 62.6025 75.2252 62.4789 75.2252 62.2934C75.2252 62.1753 75.0695 61.8812 74.7601 61.4222L72.0195 57.3942H68.4081V57.3811ZM68.4081 55.1329H72.9664C73.444 55.1421 73.9217 55.1221 74.3969 55.073C74.6637 55.0376 74.9218 54.9532 75.1584 54.8238C75.66 54.5503 75.9108 54.0557 75.9108 53.34C75.9108 52.6243 75.6606 52.1335 75.1584 51.8562C74.9238 51.7237 74.6668 51.6366 74.4006 51.5995C73.924 51.5525 73.4451 51.5337 72.9664 51.5433H68.4081V55.1329Z" fill="#27353F"/>
<path d="M84.8197 57.409V61.9166C84.8083 62.085 84.8599 62.2515 84.9642 62.3831C85.0991 62.5149 85.2691 62.6041 85.4534 62.6398V62.9602H81.2305V62.6398C81.4165 62.6006 81.5882 62.5105 81.7271 62.3794C81.8273 62.2488 81.8762 62.0853 81.8642 61.9204V50.3366C81.8756 50.1684 81.827 50.0015 81.7271 49.8664C81.5889 49.7339 81.4169 49.6431 81.2305 49.6041V49.2837H89.6726C90.4589 49.2652 91.2448 49.3331 92.0166 49.4861C92.5684 49.6078 93.0894 49.8431 93.5472 50.1774C94.0097 50.5262 94.3775 50.9877 94.6163 51.5188C94.8737 52.0918 95.0058 52.7142 95.0036 53.3436C95.0181 54.2114 94.7584 55.0613 94.2624 55.7697C93.8473 56.3587 93.2603 56.8016 92.5836 57.0362C91.8869 57.2854 90.916 57.4109 89.6633 57.4109H84.8197V57.409ZM84.8197 55.1609H89.328C90.2248 55.1609 90.8585 55.0653 91.2217 54.8723C91.4638 54.732 91.6578 54.5202 91.7776 54.2653C91.922 53.9816 91.9952 53.6664 91.9907 53.3473C91.9941 53.0326 91.9209 52.7219 91.7776 52.4424C91.6578 52.1876 91.4638 51.9758 91.2217 51.8354C90.8659 51.6481 90.2359 51.5469 89.328 51.5469H84.8197V55.1609Z" fill="#27353F"/>
<path d="M100.346 60.7007H108.66C108.827 60.7122 108.992 60.6631 109.125 60.562C109.256 60.4224 109.346 60.2485 109.385 60.0599H109.696V63.5971H109.379C109.34 63.4088 109.25 63.2351 109.12 63.095C108.987 62.9932 108.821 62.9439 108.655 62.9563H96.7568V62.636C96.9435 62.5971 97.1159 62.507 97.2553 62.3756C97.3559 62.2401 97.4046 62.0724 97.3924 61.9034V50.3366C97.403 50.1684 97.3545 50.0018 97.2553 49.8663C97.1167 49.7335 96.944 49.6426 96.7568 49.6041V49.2837H100.987V49.6041C100.799 49.6367 100.625 49.727 100.489 49.8626C100.389 49.999 100.34 50.1671 100.352 50.3366L100.346 60.7007Z" fill="#27353F"/>
<path d="M121.772 59.4737H115.626L114.714 61.3978C114.61 61.5924 114.547 61.8067 114.529 62.0273C114.529 62.3195 114.747 62.5256 115.19 62.6361V62.949H110.711V62.6286C110.935 62.5969 111.145 62.4991 111.314 62.3476C111.513 62.116 111.673 61.8527 111.788 61.5683L116.761 51.058C116.898 50.8107 116.979 50.5365 117 50.2543C117 49.9452 116.815 49.7279 116.426 49.593V49.2764H121.22V49.5967C120.829 49.711 120.638 49.9096 120.638 50.1869C120.647 50.4191 120.71 50.6457 120.823 50.8482L125.978 61.3865C126.124 61.7191 126.318 62.0284 126.552 62.3045C126.738 62.4776 126.97 62.5904 127.22 62.6286V62.949H122.242V62.6286C122.68 62.5537 122.9 62.3476 122.9 62.0066C122.877 61.7882 122.808 61.5771 122.7 61.3865L121.772 59.4737ZM120.923 57.6002L118.731 52.7292L116.508 57.6002H120.923Z" fill="#27353F"/>
<path d="M140.956 50.4435L139.344 53.664L139.066 53.5029C139.069 53.4486 139.069 53.3942 139.066 53.3399C139.066 53.1151 138.881 52.8697 138.491 52.6074C137.273 51.7667 135.825 51.3324 134.35 51.3653C133.723 51.3536 133.097 51.4421 132.497 51.6275C132.135 51.7417 131.809 51.9489 131.55 52.2289C131.323 52.4603 131.194 52.7722 131.191 53.0982C131.191 53.6134 131.495 53.9619 132.117 54.1511C132.788 54.3018 133.47 54.4026 134.155 54.4527L135.714 54.6101C136.473 54.6788 137.224 54.8168 137.958 55.0223C138.5 55.1824 139.014 55.4298 139.479 55.7548C139.934 56.0889 140.3 56.5318 140.544 57.0438C140.805 57.5766 140.939 58.1636 140.935 58.758C140.942 59.6978 140.613 60.6085 140.009 61.3228C139.454 62.0022 138.59 62.5062 137.415 62.8347C136.501 63.0878 135.557 63.2139 134.609 63.2094C132.767 63.1968 130.953 62.751 129.31 61.9073C129.1 61.7922 128.876 61.7047 128.645 61.6469C128.491 61.6803 128.35 61.757 128.237 61.868L127.952 61.7181L129.419 58.3627L129.705 58.5013V58.6306C129.711 58.7925 129.752 58.951 129.826 59.0948C129.899 59.2386 130.003 59.3642 130.131 59.4624C130.561 59.8502 131.224 60.1819 132.123 60.4629C132.949 60.7315 133.811 60.873 134.68 60.8825C135.456 60.9043 136.227 60.7486 136.935 60.4273C137.259 60.2781 137.542 60.0503 137.758 59.7641C137.952 59.5169 138.061 59.2122 138.067 58.8966C138.067 58.4414 137.824 58.121 137.343 57.9262C137.005 57.7913 136.326 57.6664 135.304 57.5515L133.777 57.3922C132.751 57.2854 132.03 57.1824 131.608 57.0887C131.169 56.9834 130.743 56.8269 130.34 56.6222C129.744 56.3252 129.25 55.8531 128.923 55.2677C128.605 54.6962 128.445 54.0495 128.458 53.3942C128.442 52.859 128.539 52.3266 128.742 51.8321C128.945 51.3377 129.25 50.8925 129.636 50.5259C130.664 49.5267 132.208 49.0271 134.268 49.0271C135.082 49.021 135.893 49.1103 136.687 49.2932C137.643 49.5432 138.577 49.8716 139.481 50.2749C139.706 50.3802 139.943 50.4582 140.187 50.5072C140.37 50.4864 140.541 50.4047 140.672 50.2749L140.956 50.4435Z" fill="#27353F"/>
<path d="M150.471 51.5395V61.9073C150.459 62.0762 150.508 62.2436 150.608 62.3794C150.746 62.5113 150.918 62.6015 151.104 62.6398V62.9602H146.881V62.6398C147.067 62.6011 147.239 62.511 147.378 62.3794C147.48 62.2445 147.528 62.0764 147.515 61.9073V51.5395H143.311C143.148 51.5282 142.986 51.5775 142.857 51.6781C142.726 51.8177 142.637 51.9917 142.599 52.1802H142.282V48.6431H142.599C142.641 48.8308 142.731 49.004 142.86 49.1452C142.989 49.2455 143.149 49.2948 143.311 49.2838H154.658C154.825 49.2954 154.99 49.2462 155.123 49.1452C155.255 49.0061 155.345 48.832 155.383 48.6431H155.7V52.1802H155.383C155.346 51.9912 155.256 51.8169 155.123 51.6781C154.99 51.5771 154.825 51.5279 154.658 51.5395H150.471Z" fill="#27353F"/>
<path d="M40.4094 75.183H40.1147V71.7002H42.3013V71.9719H40.4094V73.2533H42.2624V73.525H40.4094V75.183Z" fill="#27353F"/>
<path d="M47.0434 75.2466C46.8166 75.255 46.5906 75.2136 46.3811 75.1254C46.1716 75.0371 45.9835 74.9039 45.8297 74.7351C45.5326 74.372 45.3701 73.9155 45.3701 73.4443C45.3701 72.973 45.5326 72.5166 45.8297 72.1534C45.9882 71.9914 46.177 71.8628 46.385 71.7751C46.593 71.6873 46.8162 71.6421 47.0416 71.6421C47.267 71.6421 47.4901 71.6873 47.6981 71.7751C47.9062 71.8628 48.0949 71.9914 48.2534 72.1534C48.5528 72.5155 48.7169 72.9724 48.7169 73.4443C48.7169 73.9162 48.5528 74.3731 48.2534 74.7351C48.1001 74.9035 47.9126 75.0365 47.7038 75.1247C47.4949 75.213 47.2697 75.2546 47.0434 75.2466ZM47.0434 74.9749C47.2292 74.9816 47.4141 74.9466 47.5848 74.8724C47.7556 74.7982 47.908 74.6867 48.031 74.5459C48.2748 74.2316 48.4072 73.8437 48.4072 73.4443C48.4072 73.0449 48.2748 72.657 48.031 72.3427C47.9035 72.2071 47.75 72.0991 47.5799 72.0254C47.4098 71.9516 47.2266 71.9135 47.0416 71.9135C46.8565 71.9135 46.6733 71.9516 46.5032 72.0254C46.3331 72.0991 46.1796 72.2071 46.0521 72.3427C45.8108 72.6581 45.6798 73.0455 45.6798 73.4443C45.6798 73.843 45.8108 74.2305 46.0521 74.5459C46.1752 74.6876 46.3281 74.7997 46.4997 74.874C46.6712 74.9482 46.857 74.9827 47.0434 74.9749Z" fill="#27353F"/>
<path d="M53.5712 75.2466C53.3444 75.255 53.1185 75.2136 52.9089 75.1254C52.6994 75.0371 52.5113 74.9039 52.3575 74.7351C52.0605 74.372 51.8979 73.9155 51.8979 73.4443C51.8979 72.973 52.0605 72.5166 52.3575 72.1534C52.5161 71.9914 52.7048 71.8628 52.9128 71.7751C53.1208 71.6873 53.344 71.6421 53.5694 71.6421C53.7948 71.6421 54.0179 71.6873 54.226 71.7751C54.434 71.8628 54.6227 71.9914 54.7812 72.1534C55.0817 72.515 55.2464 72.9721 55.2464 73.4443C55.2464 73.9165 55.0817 74.3736 54.7812 74.7351C54.628 74.9035 54.4405 75.0365 54.2316 75.1247C54.0228 75.213 53.7975 75.2546 53.5712 75.2466ZM53.5712 74.9749C53.757 74.9817 53.9419 74.9468 54.1127 74.8726C54.2835 74.7984 54.4359 74.6868 54.5589 74.5459C54.8038 74.2321 54.9371 73.844 54.9371 73.4443C54.9371 73.0445 54.8038 72.6564 54.5589 72.3427C54.4313 72.2071 54.2778 72.0991 54.1077 72.0254C53.9376 71.9516 53.7545 71.9135 53.5694 71.9135C53.3843 71.9135 53.2011 71.9516 53.031 72.0254C52.8609 72.0991 52.7075 72.2071 52.5799 72.3427C52.3386 72.6581 52.2077 73.0455 52.2077 73.4443C52.2077 73.843 52.3386 74.2305 52.5799 74.5459C52.703 74.6876 52.856 74.7997 53.0275 74.874C53.199 74.9482 53.3848 74.9827 53.5712 74.9749Z" fill="#27353F"/>
<path d="M59.666 75.1829H58.5542V71.7001H59.666C59.8993 71.6905 60.1321 71.7306 60.3491 71.8177C60.5662 71.9049 60.7627 72.0371 60.926 72.206C61.2356 72.5431 61.4076 72.9862 61.4076 73.4462C61.4076 73.9063 61.2356 74.3493 60.926 74.6865C60.7619 74.8536 60.565 74.9841 60.348 75.0696C60.131 75.1551 59.8986 75.1937 59.666 75.1829ZM59.666 74.9113C59.8593 74.9215 60.0526 74.8895 60.2327 74.8174C60.4127 74.7453 60.5752 74.6348 60.7092 74.4935C60.9706 74.2094 61.1099 73.8321 61.0965 73.4443C61.1083 73.0573 60.9715 72.6806 60.7148 72.3933C60.5803 72.2508 60.4169 72.1394 60.2359 72.0667C60.0549 71.9939 59.8605 71.9615 59.666 71.9718H58.8507V74.9113H59.666Z" fill="#27353F"/>
<path d="M68.9304 75.1829H68.6357V71.7001H69.9328C70.0729 71.6928 70.2129 71.7154 70.3438 71.7664C70.4747 71.8174 70.5935 71.8956 70.6925 71.9961C70.836 72.1417 70.9326 72.3278 70.9697 72.5299C71.0069 72.732 70.9829 72.9407 70.9008 73.1287C70.8187 73.3168 70.6824 73.4754 70.5097 73.5838C70.337 73.6923 70.1359 73.7455 69.9328 73.7365H68.9304V75.1829ZM69.8976 73.4649C69.9979 73.4695 70.0981 73.4534 70.192 73.4176C70.286 73.3819 70.3718 73.3272 70.4442 73.2569C70.5797 73.111 70.6552 72.9184 70.6552 72.7183C70.6552 72.5182 70.5797 72.3256 70.4442 72.1797C70.3718 72.1094 70.286 72.0547 70.192 72.019C70.0981 71.9832 69.9979 71.9671 69.8976 71.9717H68.9304V73.4705L69.8976 73.4649Z" fill="#27353F"/>
<path d="M76.5981 75.183H76.2571L75.9162 74.3268H74.0928L73.7482 75.183H73.4072L74.8173 71.7002H75.1879L76.5981 75.183ZM75.818 74.0589L75.0026 72.0224L74.191 74.0589H75.818Z" fill="#27353F"/>
<path d="M81.1065 75.2466C80.877 75.2537 80.6483 75.2136 80.4346 75.1285C80.2208 75.0435 80.0264 74.9154 79.8632 74.752C79.5405 74.3984 79.3613 73.9348 79.3613 73.4537C79.3613 72.9725 79.5405 72.509 79.8632 72.1554C80.0256 71.9895 80.2199 71.8591 80.434 71.7721C80.6482 71.6851 80.8777 71.6434 81.1084 71.6495C81.3507 71.6452 81.5906 71.6988 81.8086 71.8059C82.0266 71.913 82.2165 72.0706 82.3629 72.2659L82.1146 72.427C82.0017 72.2713 81.8528 72.1459 81.681 72.0617C81.5042 71.9685 81.3077 71.9203 81.1084 71.9212C80.9169 71.9162 80.7264 71.9518 80.5493 72.0257C80.3722 72.0995 80.2123 72.2101 80.08 72.3502C79.8187 72.6564 79.6749 73.0474 79.6749 73.4518C79.6749 73.8563 79.8187 74.2472 80.08 74.5534C80.2123 74.6935 80.3722 74.8041 80.5493 74.878C80.7264 74.9519 80.9169 74.9874 81.1084 74.9825C81.3073 74.9837 81.5036 74.9368 81.681 74.8457C81.8532 74.7578 82.0019 74.6293 82.1146 74.471L82.3629 74.6284C82.2162 74.8239 82.026 74.9818 81.8078 75.0892C81.5895 75.1967 81.3493 75.2506 81.1065 75.2466Z" fill="#27353F"/>
<path d="M88.016 75.183H87.6454L86.226 73.5437L85.8425 73.9671V75.183H85.5479V71.7002H85.8425V73.6055L87.5102 71.7002H87.8807L86.4132 73.3601L88.016 75.183Z" fill="#27353F"/>
<path d="M93.9904 75.183H93.6495L93.3085 74.3268H91.4852L91.1443 75.183H90.7959L92.206 71.7002H92.5766L93.9904 75.183ZM93.2103 74.0589L92.3932 72.0224L91.5834 74.0589H93.2103Z" fill="#27353F"/>
<path d="M98.4967 75.2523C98.266 75.2571 98.0367 75.2147 97.8227 75.1274C97.6086 75.0401 97.4143 74.9099 97.2515 74.7445C96.9296 74.3905 96.751 73.9271 96.751 73.4462C96.751 72.9653 96.9296 72.5019 97.2515 72.1479C97.4144 71.9828 97.6088 71.8528 97.8228 71.7659C98.0369 71.6789 98.2661 71.6368 98.4967 71.642C98.7433 71.6365 98.988 71.6871 99.2125 71.7903C99.4371 71.8934 99.6358 72.0464 99.7938 72.2378L99.5715 72.3989C99.4439 72.2463 99.2836 72.1252 99.1027 72.0448C98.9127 71.9565 98.7058 71.9117 98.4967 71.9137C98.3052 71.9089 98.1148 71.9446 97.9378 72.0185C97.7607 72.0924 97.6008 72.2028 97.4683 72.3427C97.207 72.6489 97.0632 73.0399 97.0632 73.4443C97.0632 73.8488 97.207 74.2397 97.4683 74.5459C97.6003 74.6867 97.76 74.798 97.9372 74.8725C98.1143 74.9471 98.3049 74.9832 98.4967 74.9787C98.6961 74.9813 98.8936 74.939 99.0749 74.8551C99.2333 74.7833 99.3786 74.6852 99.5048 74.5647V73.7216H98.2077V73.4537H99.8049V74.6715C99.6426 74.8596 99.4411 75.0092 99.215 75.1096C98.9889 75.21 98.7436 75.2587 98.4967 75.2523Z" fill="#27353F"/>
<path d="M103.431 75.183H103.137V71.7002H103.431V75.183Z" fill="#27353F"/>
<path d="M109.624 75.183H109.335L107.165 72.1854V75.183H106.87V71.7002H107.17L109.325 74.6509V71.7002H109.62L109.624 75.183Z" fill="#27353F"/>
<path d="M114.682 75.2522C114.452 75.2574 114.222 75.215 114.008 75.1277C113.794 75.0404 113.6 74.9101 113.437 74.7445C113.115 74.3905 112.937 73.9271 112.937 73.4462C112.937 72.9653 113.115 72.5019 113.437 72.1479C113.6 71.9827 113.794 71.8527 114.008 71.7657C114.222 71.6788 114.452 71.6367 114.682 71.6421C114.929 71.6365 115.173 71.6871 115.398 71.7903C115.623 71.8934 115.821 72.0464 115.979 72.2378L115.757 72.3989C115.629 72.2458 115.468 72.1246 115.286 72.0449C115.097 71.9563 114.891 71.9115 114.682 71.9137C114.491 71.909 114.3 71.9446 114.123 72.0185C113.946 72.0924 113.786 72.2028 113.654 72.3427C113.393 72.6489 113.249 73.0399 113.249 73.4443C113.249 73.8488 113.393 74.2398 113.654 74.5459C113.786 74.6867 113.946 74.798 114.123 74.8725C114.3 74.947 114.49 74.9832 114.682 74.9787C114.882 74.9811 115.079 74.9389 115.26 74.8551C115.421 74.7812 115.568 74.6805 115.696 74.5572V73.7216H114.399V73.4537H115.996V74.6715C115.834 74.861 115.631 75.0114 115.404 75.1119C115.177 75.2124 114.93 75.2603 114.682 75.2522Z" fill="#27353F"/>
<path d="M124.659 73.2529H155.7V73.6501H122.693L124.659 73.2529Z" fill="#27353F"/>
<path d="M31.2261 73.2529H0.185059V73.6501H33.1902L31.2261 73.2529Z" fill="#27353F"/>
<path d="M92.315 30.7722C91.9796 32.1154 88.8814 32.9154 87.8419 33.0503C85.8573 33.3145 86.0463 30.2607 86.0463 30.2607L87.1581 19.1678C88.4867 18.7594 92.3335 17.403 93.7955 16.9478C93.7955 16.9478 92.9431 25.9255 92.5929 28.938C92.5491 29.556 92.4562 30.1693 92.315 30.7722Z" fill="#27353F"/>
<path d="M99.249 28.58C103.274 25.5356 104.163 16.7603 104.361 13.4985C102.197 14.1786 99.5436 15.4282 96.7901 16.2807C96.7901 16.2807 95.9674 23.5647 95.8155 26.0021C95.7562 26.9501 95.721 29.4606 97.3645 29.4606C98.039 29.4606 98.9711 28.7861 99.249 28.58Z" fill="#27353F"/>
<path d="M63.805 30.9665C64.1423 32.3098 67.2386 33.1098 68.28 33.2446C70.2627 33.5088 70.0755 30.455 70.0755 30.455L68.9637 19.3622C67.6351 18.9537 63.7884 17.5917 62.3208 17.1421C62.3208 17.1421 63.175 26.1198 63.5252 29.1324C63.5681 29.7505 63.6616 30.364 63.805 30.9665Z" fill="#27353F"/>
<path fill-rule="evenodd" clip-rule="evenodd" d="M105.451 7.18499C105.279 7.13253 105.134 7.08944 105.034 7.05385C104.324 6.81029 90.4104 3.34623 85.8873 2.22027L84.5569 1.88866C84.5569 1.88866 80.3173 0.882605 77.2136 0.800172C75.5792 0.755209 72.5496 1.54956 71.2303 1.88866L69.898 2.22027C65.3768 3.34436 51.4628 6.81029 50.7531 7.05385C50.653 7.08944 50.5085 7.13253 50.3362 7.18499C49.1114 7.55969 46.5283 8.33343 49.0706 9.332C51.2571 10.1901 64.4169 14.5628 71.1766 16.7753C72.9536 17.3186 74.1524 17.6783 74.3859 17.7364C75.4755 18.0118 76.5798 18.3678 77.8917 18.3959C79.2055 18.3678 80.3099 18.0118 81.3994 17.7364C81.6329 17.6783 82.8318 17.3186 84.6088 16.7753C91.3684 14.5628 104.528 10.1901 106.715 9.332C109.259 8.33343 106.676 7.55406 105.451 7.18499ZM99.5456 9.13716C97.3702 9.83596 80.8917 14.3529 80.1116 14.5515C79.3704 14.7389 78.166 15.0274 77.397 15.0274C76.6984 15.0274 75.6774 14.8737 73.1982 14.2386C70.2334 13.4892 56.7456 9.95774 55.5949 9.36759C55.5949 9.36759 54.939 8.93107 56.3361 8.55825C57.7332 8.18543 75.7256 4.22115 76.1926 4.16307C76.3204 4.14621 76.4538 4.11998 76.6058 4.08813C77.1978 3.95703 77.8027 3.89418 78.4087 3.90078C79.6335 3.90078 81.909 4.36915 82.9003 4.57336C83.8917 4.77757 97.6611 7.57093 98.28 7.74516C98.3578 7.76764 98.4653 7.79574 98.6043 7.82947C99.5234 8.05616 101.443 8.53015 99.5456 9.13716Z" fill="#27353F"/>
<path fill-rule="evenodd" clip-rule="evenodd" d="M60.5681 9.69902C60.5681 9.69902 75.9015 13.9912 77.1634 12.6535C78.2048 11.5575 78.5865 6.52347 77.8564 5.73848C77.5099 5.27948 75.4031 5.73848 74.9435 5.82654C74.6193 5.89773 61.1055 8.51498 61.1055 8.51498C60.8535 8.5843 60.2291 8.76041 60.1512 9.11637C60.0641 9.52291 60.5681 9.69902 60.5681 9.69902Z" fill="#27353F"/>
<path d="M58.7502 29.4606C60.392 29.4606 60.3568 26.9501 60.2975 26.0021C60.1455 23.5666 59.3247 16.2807 59.3247 16.2807C56.5767 15.4282 53.9214 14.1786 51.7534 13.4985C51.9498 16.7603 52.8393 25.5356 56.8639 28.58C57.1437 28.7861 58.0739 29.4606 58.7502 29.4606Z" fill="#27353F"/>
<path d="M84.6103 19.9842L83.6987 20.2633C83.1738 20.4546 82.6386 20.616 82.0959 20.7467C81.7345 20.8535 81.4918 20.9228 81.401 20.9472C80.3114 21.2207 79.2071 21.5785 77.8933 21.6066C76.5814 21.5785 75.4845 21.2207 74.3875 20.9472C74.154 20.8872 72.9551 20.5294 71.1781 19.9842L70.6074 19.7968C70.6463 20.0797 70.8038 21.1776 70.8724 21.5748C71.0966 22.875 71.9471 26.7306 71.9471 26.7306C71.9471 26.7306 73.4295 34.084 75.3529 35.935C75.9885 36.5458 76.9668 36.9186 78.0082 36.9392C79.0496 36.9186 80.0279 36.5458 80.6635 35.935C82.5962 34.084 84.0693 26.7306 84.0693 26.7306C84.0693 26.7306 84.8901 22.9106 85.1144 21.6122C85.194 21.1532 85.4201 19.7388 85.4201 19.7388L85.2181 19.795L84.6103 19.9842Z" fill="#27353F"/>
</svg>
