<svg width="0" height="0" class="hidden">
  <symbol xmlns="http://www.w3.org/2000/svg" viewBox="0 0 10 16" id="fb">
    <path d="M9 .003L6.924 0c-2.33 0-3.837 1.546-3.837 3.938v1.815H1.001a.326.326 0 00-.326.327v2.63c0 .18.146.326.326.326h2.086v6.638c0 .18.146.326.326.326h2.722c.18 0 .327-.146.327-.326V9.036H8.9c.18 0 .326-.146.326-.326V6.08a.327.327 0 00-.325-.327h-2.44V4.214c0-.74.176-1.115 1.14-1.115h1.397c.18 0 .326-.147.326-.327V.33A.326.326 0 009 .003z"></path>
  </symbol>
  <symbol xmlns="http://www.w3.org/2000/svg" viewBox="0 0 14 14" id="inst">
    <path d="M11.93 0H1.324A1.33 1.33 0 000 1.325V11.93a1.33 1.33 0 001.325 1.326H11.93a1.33 1.33 0 001.326-1.326V1.325A1.33 1.33 0 0011.929 0zM6.626 3.976a2.659 2.659 0 012.651 2.651 2.659 2.659 0 01-2.65 2.651 2.659 2.659 0 01-2.652-2.65 2.659 2.659 0 012.651-2.652zm-4.97 7.953c-.199 0-.332-.132-.332-.331V5.965h1.392c-.066.199-.066.464-.066.662a3.988 3.988 0 003.976 3.977 3.988 3.988 0 003.977-3.977c0-.198 0-.463-.066-.662h1.391v5.633c0 .199-.132.331-.331.331h-9.94zm10.272-8.947c0 .2-.132.332-.331.332h-1.325c-.2 0-.332-.133-.332-.332V1.657c0-.199.133-.332.332-.332h1.325c.199 0 .331.133.331.332v1.325z"></path>
  </symbol>
  <symbol fill="none" xmlns="http://www.w3.org/2000/svg" viewBox="0 0 20 20" id="nav-icon1">
    <g clip-path="url(#clip0)">
      <path d="M4.653 18.843c.058.66.602 1.157 1.264 1.157h8.166c.662 0 1.206-.497 1.264-1.157l.187-2.098a.293.293 0 00-.584-.052l-.099 1.114H5.15l-.288-3.233c.184.039.31.114.456.203.245.148.523.316 1.058.316.534 0 .812-.168 1.057-.316.214-.13.384-.231.755-.231.372 0 .54.102.755.231.245.148.523.316 1.058.316.534 0 .812-.168 1.057-.316.214-.13.384-.231.755-.231.372 0 .541.102.755.231.245.148.523.316 1.058.316s.813-.168 1.058-.316c.146-.088.272-.164.456-.203l-.075.848a.293.293 0 10.584.051l.768-8.627h.3a1.077 1.077 0 00.738-1.858 1.072 1.072 0 000-1.565 1.072 1.072 0 000-1.565A1.077 1.077 0 0016.717 0H7.31a.293.293 0 000 .586h9.406a.49.49 0 010 .98H3.283a.49.49 0 010-.98h2.751a.293.293 0 000-.586h-2.75a1.077 1.077 0 00-.738 1.858 1.072 1.072 0 000 1.565 1.072 1.072 0 000 1.565 1.077 1.077 0 00.737 1.858h.3l1.07 11.997zm10.146-.45l-.035.398a.68.68 0 01-.681.623H5.917a.68.68 0 01-.68-.623l-.036-.398h9.598zm.797-8.948c-.409.04-.653.177-.872.3-.226.126-.42.235-.83.235s-.605-.109-.83-.235c-.26-.146-.554-.311-1.117-.311-.564 0-.858.165-1.117.31a2.259 2.259 0 01-.297.149.293.293 0 10.21.546c.145-.055.261-.12.374-.184.225-.126.42-.235.83-.235s.604.109.83.236c.26.145.553.31 1.117.31.563 0 .857-.165 1.117-.31a1.54 1.54 0 01.532-.213l-.35 3.93c-.38.042-.608.179-.813.302-.214.13-.383.232-.755.232s-.54-.102-.755-.232c-.245-.148-.523-.315-1.058-.315-.534 0-.812.167-1.057.315-.215.13-.384.232-.755.232-.372 0-.541-.102-.755-.232-.245-.148-.523-.315-1.058-.315s-.812.167-1.058.315c-.214.13-.383.232-.754.232-.372 0-.541-.102-.755-.232-.205-.123-.433-.26-.813-.302l-.35-3.93c.223.04.37.121.532.213.26.145.553.31 1.117.31.563 0 .857-.165 1.117-.31.225-.127.42-.236.83-.236s.604.109.83.236c.125.07.267.15.445.21a.293.293 0 10.187-.556 1.956 1.956 0 01-.345-.165c-.26-.146-.554-.311-1.117-.311-.564 0-.858.165-1.117.31-.226.127-.42.237-.83.237s-.605-.11-.83-.236c-.22-.123-.463-.26-.872-.3l-.232-2.599h11.656l-.232 2.6zM3.283 6.26a.49.49 0 010-.979h13.434a.49.49 0 010 .98H3.283zm13.923-2.054c0 .27-.22.49-.49.49H3.284a.49.49 0 010-.98h13.434c.27 0 .49.22.49.49zM3.283 3.13a.49.49 0 010-.979h13.434a.49.49 0 010 .98H3.283z" fill="#2F3744"></path>
    </g>
    <defs>
      <clipPath id="clip0">
        <path fill="#fff" d="M0 0h20v20H0z"></path>
      </clipPath>
    </defs>
  </symbol>
  <symbol fill="none" xmlns="http://www.w3.org/2000/svg" viewBox="0 0 22 21" id="nav-icon2">
    <path d="M1.31 12.998c-.17.2-.405.807 0 1.643 1.011 0 8.094.198 11.509.298l7.8-3.52c.041-.348.193-1.205-.11-1.443m-19.2-5.044c-.168.199-.404.806 0 1.642 1.012 0 8.095.199 11.51.298l7.8-3.52c.041-.347.45-1.96.147-2.199M2.033 13.576h10.93c.14 0 .279-.028.408-.084l6.842-2.947c1.03-.443.713-1.978-.408-1.978H8.979a1.03 1.03 0 00-.403.082L1.63 11.596c-1.035.438-.721 1.98.403 1.98zm0-8.067h10.93c.14 0 .279-.028.408-.084l6.842-2.946c1.03-.444.713-1.979-.408-1.979H8.979a1.03 1.03 0 00-.403.082L1.63 3.529c-1.035.438-.721 1.98.403 1.98z" stroke="#2F3744"></path>
    <path d="M1.105 15.037C1.255 16.39 2.098 20 4.264 20h8.573l8.122-3.61v-5.414" stroke="#2F3744" stroke-width=".9"></path>
  </symbol>
  <symbol fill="none" xmlns="http://www.w3.org/2000/svg" viewBox="0 0 26 26" id="nav-icon3">
    <path d="M24.781 19.297c0 .147-.08.284-.21.355L13.198 25.95a.405.405 0 01-.394 0L1.428 19.652a.406.406 0 010-.71l5.046-2.794-5.046-2.793a.406.406 0 010-.71L6.474 9.85 1.428 7.06a.406.406 0 010-.711L12.803.05a.408.408 0 01.394 0l11.375 6.297a.406.406 0 010 .71L19.526 9.85l5.046 2.793a.406.406 0 010 .711l-5.046 2.793 5.046 2.793c.13.072.21.208.21.356zm-10.942 0l4.85 2.683 2.004-1.109-4.85-2.684-2.004 1.11zM13 25.129l2.008-1.111L4.47 18.186l-2.006 1.11L13 25.13zm-7.69-7.408l10.537 5.833 2.004-1.11-5.048-2.791-5.49-3.04-2.003 1.108zm13.38-13.7L16.683 5.13l2.004 1.108 2.005-1.11L18.69 4.02zm-2.843-1.575l-2.006 1.11 2.004 1.108 2.006-1.109-2.004-1.11zM8.152 3.554l2.007 1.111 2.005-1.109-2.008-1.11-2.004 1.108zM5.31 5.128l2.007 1.11L9.32 5.13 7.313 4.019 5.31 5.128zm4.85 2.684l2.004-1.109-2.005-1.109-2.004 1.109 2.005 1.109zm-2.843-.644L5.31 8.278l2.003 1.11 2.008-1.112-2.004-1.108zm3.681 1.108l2.004 1.11 2.005-1.11-2.005-1.109-2.004 1.11zm0-3.146l2.004 1.108 2.005-1.108-2.005-1.11L11 5.13zm4.847.464l-2.003 1.109 2.004 1.109 2.003-1.109-2.004-1.109zm.84 2.682l2.005 1.11 2.003-1.109-2.005-1.11-2.003 1.11zm-.84.465L13.842 9.85l2.006 1.11 2.004-1.11-2.005-1.11zm-2.843 1.574l-2.007 1.11L13 12.536l2.008-1.11-2.006-1.11zm-2.846.646l2.008-1.111-2.005-1.11-2.007 1.112 2.004 1.109zM4.47 7.814l2.007-1.111-2.007-1.11-2.007 1.11 2.007 1.11zM13 .87l-2.005 1.11 2.007 1.11 2.006-1.109L13 .871zm8.532 4.723l-2.005 1.109 2.005 1.11 2.005-1.11-2.005-1.11zm-2.845 4.722l-5.49 3.04a.406.406 0 01-.394 0l-5.49-3.04L2.463 13 13 18.832 23.537 13l-4.85-2.684zm0 6.297l-2.004 1.11 4.85 2.683 2.003-1.11-4.849-2.683z" fill="#2F3744"></path>
  </symbol>
  <symbol fill="none" xmlns="http://www.w3.org/2000/svg" viewBox="0 0 23 15" id="nav-icon4">
    <path d="M21.35 7.402c.444-.031.863-.337 1.17-.852.308-.516.48-1.202.48-1.916a.69.69 0 00-.092-.358c-.06-.095-.14-.148-.223-.148h-1.711c.13-.202.258-.41.377-.628.444-.032.862-.337 1.17-.853.307-.515.478-1.201.479-1.916a.69.69 0 00-.092-.357c-.06-.095-.14-.148-.223-.148H.316C.23.226.15.279.091.374A.691.691 0 000 .73c0 .715.172 1.401.48 1.917.307.515.726.82 1.17.852.118.218.245.426.377.628H.314c-.083 0-.163.053-.222.148A.691.691 0 000 4.634c0 .714.172 1.4.48 1.916.307.515.726.82 1.17.852.118.218.245.426.377.628H.314c-.083 0-.163.054-.222.149A.691.691 0 000 8.536c0 .714.172 1.4.48 1.916.307.516.726.82 1.17.852.59 1.092 1.321 1.966 2.141 2.565.82.599 1.71.907 2.61.906h10.198c.9.001 1.79-.307 2.61-.906.82-.599 1.55-1.473 2.142-2.565.443-.031.862-.336 1.17-.852.306-.516.478-1.202.479-1.916a.69.69 0 00-.092-.357c-.06-.095-.14-.149-.223-.149h-1.711c.13-.202.258-.41.377-.628zM2.038 2.672a.412.412 0 00-.144-.15.242.242 0 00-.17-.031c-.236 0-.465-.123-.653-.349C.88 1.917.743 1.6.675 1.239h21.65c-.068.362-.206.679-.395.905-.189.225-.417.347-.652.348a.24.24 0 00-.171.03.41.41 0 00-.144.152 8.142 8.142 0 01-.956 1.456H2.993a8.136 8.136 0 01-.956-1.456zm19.24 7.623a.24.24 0 00-.17.03.41.41 0 00-.144.152c-.533 1.03-1.2 1.858-1.954 2.426-.754.568-1.577.862-2.41.86H6.401c-.833.002-1.656-.292-2.41-.86-.754-.568-1.421-1.396-1.954-2.426a.413.413 0 00-.144-.15.241.241 0 00-.17-.031c-.236-.001-.464-.123-.653-.349-.189-.225-.327-.542-.395-.904h21.65c-.068.362-.207.678-.395.904-.189.225-.417.348-.652.348zM2.994 8.03a8.135 8.135 0 01-.956-1.455.412.412 0 00-.144-.151.242.242 0 00-.17-.03c-.236-.001-.464-.123-.653-.349-.189-.226-.327-.543-.395-.904h21.65c-.068.361-.206.678-.395.904-.189.226-.417.348-.652.348a.24.24 0 00-.171.03.41.41 0 00-.144.152 8.145 8.145 0 01-.956 1.456H2.993z" fill="#2F3744"></path>
  </symbol>
  <symbol fill="none" xmlns="http://www.w3.org/2000/svg" viewBox="0 0 26 18" id="nav-icon5">
    <path d="M2.54 8.111c.413-.966 1.338-3.16 1.734-4.214C4.77 2.58 5.514 1 6.752 1H12.7m10.41 9.143c-.422.931-1.37 3.047-1.777 4.063-.508 1.27-1.27 2.794-2.54 2.794h-6.095" stroke="#2F3744"></path>
    <path d="M22.857 8.111c-.413-.966-1.338-3.16-1.735-4.214C20.627 2.58 19.884 1 18.645 1h-5.947M2.54 10.143c.423.931 1.371 3.047 1.778 4.063.508 1.27 1.27 2.794 2.54 2.794h6.095" stroke="#2F3744"></path>
    <rect x=".5" y="8.103" width="24.397" height="2.048" rx="1.024" stroke="#2F3744"></rect>
    <path d="M7.27 10.493v2.698a.666.666 0 01-1.333 0v-2.698H7.27zm4.063 0v2.698a.666.666 0 01-1.332 0v-2.698h1.332zm4.063 0v2.698a.666.666 0 01-1.332 0v-2.698h1.332zm4.064 0v2.698a.666.666 0 01-1.332 0v-2.698h1.332z" stroke="#2F3744" stroke-width=".7"></path>
    <path fill="#2F3744" d="M7.111 15.73h11.175v.508H7.111zm0-13.206h11.175v.508H7.111z"></path>
  </symbol>
  <symbol fill="none" xmlns="http://www.w3.org/2000/svg" viewBox="0 0 22 21" id="nav-icon6">
    <path d="M1.31 12.998c-.17.2-.405.807 0 1.643 1.011 0 8.094.198 11.509.298l7.8-3.52c.041-.348.193-1.205-.11-1.443m-19.2-5.044c-.168.199-.404.806 0 1.642 1.012 0 8.095.199 11.51.298l7.8-3.52c.041-.347.45-1.96.147-2.199M2.033 13.576h10.93c.14 0 .279-.028.408-.084l6.842-2.947c1.03-.443.713-1.978-.408-1.978H8.979a1.03 1.03 0 00-.403.082L1.63 11.596c-1.035.438-.721 1.98.403 1.98zm0-8.067h10.93c.14 0 .279-.028.408-.084l6.842-2.946c1.03-.444.713-1.979-.408-1.979H8.979a1.03 1.03 0 00-.403.082L1.63 3.529c-1.035.438-.721 1.98.403 1.98z" stroke="#92A6B4"></path>
    <path d="M1.105 15.037C1.255 16.39 2.098 20 4.264 20h8.573l8.122-3.61v-5.414" stroke="#92A6B4" stroke-width=".9"></path>
  </symbol>
  <symbol fill="none" xmlns="http://www.w3.org/2000/svg" viewBox="0 0 21 16" id="nav-icon7">
    <path fill-rule="evenodd" clip-rule="evenodd" d="M3.555 1.378c-.102.175-.168.41-.168.733 0 .324.067.54.161.687a.878.878 0 00.426.336c.416.174 1.02.2 1.784.2.763 0 1.368-.026 1.784-.2a.882.882 0 00.426-.336c.094-.148.161-.363.161-.687 0-.323-.066-.558-.168-.733a1.087 1.087 0 00-.448-.415C7.102.745 6.498.667 5.758.667S4.414.745 4.003.963c-.198.106-.347.24-.448.415zM3.681.377C4.251.074 5.001 0 5.758 0c.757 0 1.508.074 2.077.377.292.155.54.372.714.67.172.296.257.65.257 1.064 0 .413-.085.76-.264 1.042-.182.284-.44.472-.736.595C7.241 3.984 6.491 4 5.758 4c-.733 0-1.483-.016-2.048-.252a1.554 1.554 0 01-.736-.595c-.18-.282-.264-.63-.264-1.042 0-.413.085-.768.257-1.065.173-.297.422-.514.714-.67zM8.806 6.11c0 .413-.085.76-.264 1.042-.182.284-.44.472-.736.595C7.241 7.984 6.491 8 5.758 8c-.733 0-1.483-.016-2.048-.252a1.554 1.554 0 01-.736-.595c-.18-.282-.264-.63-.264-1.042 0-.413.085-.768.257-1.065.173-.297.422-.514.714-.67C4.251 4.075 5.001 4 5.758 4c.757 0 1.508.074 2.077.377.292.155.54.372.714.67.172.296.257.65.257 1.064zm0 0c0 .413.086.76.265 1.042.181.284.44.472.735.595.566.236 1.316.252 2.049.252.733 0 1.483-.016 2.048-.252a1.55 1.55 0 00.735-.595c.18-.282.265-.63.265-1.042 0 .413.085.76.265 1.042.181.284.44.472.735.595.565.236 1.315.252 2.049.252.733 0 1.483-.016 2.048-.252a1.55 1.55 0 00.735-.595c.18-.282.265-.63.265-1.042 0-.413-.085-.768-.258-1.065a1.758 1.758 0 00-.713-.67c-.57-.302-1.32-.376-2.077-.376.733 0 1.483-.016 2.048-.252a1.55 1.55 0 00.735-.595c.18-.282.265-.63.265-1.042 0-.413-.085-.768-.258-1.065a1.758 1.758 0 00-.713-.67c-.57-.3-1.32-.375-2.077-.375-.757 0-1.508.074-2.077.377a1.75 1.75 0 00-.714.67c-.172.296-.258.65-.258 1.064 0-.413-.085-.768-.258-1.065a1.758 1.758 0 00-.713-.67C13.362.075 12.612 0 11.855 0c-.757 0-1.508.074-2.077.377-.292.155-.54.372-.714.67-.172.296-.258.65-.258 1.064 0 .413.086.76.265 1.042.181.284.44.472.735.595.566.236 1.316.252 2.049.252-.757 0-1.508.074-2.077.377-.292.155-.54.372-.714.67-.172.296-.258.65-.258 1.064zM17.952 4c-.757 0-1.508.074-2.077.377a1.75 1.75 0 00-.714.67c-.172.296-.258.65-.258 1.064 0-.413-.085-.768-.258-1.065a1.758 1.758 0 00-.713-.67c-.57-.302-1.32-.376-2.077-.376.733 0 1.483-.016 2.048-.252a1.55 1.55 0 00.735-.595c.18-.282.265-.63.265-1.042 0 .413.085.76.265 1.042.181.284.44.472.735.595.565.236 1.315.252 2.049.252zm-8.3-2.622c-.102.175-.168.41-.168.733 0 .324.066.54.16.687a.886.886 0 00.427.336c.416.174 1.02.2 1.784.2.763 0 1.368-.026 1.784-.2a.882.882 0 00.426-.336c.094-.148.16-.363.16-.687 0-.323-.065-.558-.167-.733a1.087 1.087 0 00-.448-.415c-.411-.218-1.016-.296-1.755-.296-.74 0-1.344.078-1.755.296-.198.106-.347.24-.448.415zm6.097 0c-.102.175-.168.41-.168.733 0 .324.066.54.16.687a.886.886 0 00.427.336c.416.174 1.02.2 1.784.2.763 0 1.368-.026 1.783-.2a.882.882 0 00.427-.336c.094-.148.16-.363.16-.687 0-.323-.066-.558-.168-.733a1.087 1.087 0 00-.447-.415C19.295.745 18.69.667 17.952.667c-.74 0-1.344.078-1.756.296-.198.106-.346.24-.447.415zM2.37 2.047V13h18.35l-4.355 3H0V6.247l2.371-4.2zM.677 6.42v8.913h15.474l2.42-1.666H1.694V4.62L.677 6.42zm2.878-1.042c-.102.175-.168.41-.168.733 0 .324.067.54.161.687a.878.878 0 00.426.336c.416.174 1.02.2 1.784.2.763 0 1.368-.026 1.784-.2a.882.882 0 00.426-.336c.094-.148.161-.363.161-.687 0-.323-.066-.558-.168-.733a1.087 1.087 0 00-.448-.415c-.411-.218-1.015-.296-1.755-.296s-1.344.078-1.755.296c-.198.106-.347.24-.448.415zm6.097 0c-.102.175-.168.41-.168.733 0 .324.066.54.16.687a.886.886 0 00.427.336c.416.174 1.02.2 1.784.2.763 0 1.368-.026 1.784-.2a.882.882 0 00.426-.336c.094-.148.16-.363.16-.687 0-.323-.065-.558-.167-.733a1.087 1.087 0 00-.448-.415c-.411-.218-1.016-.296-1.755-.296-.74 0-1.344.078-1.755.296-.198.106-.347.24-.448.415zm6.097 0c-.102.175-.168.41-.168.733 0 .324.066.54.16.687a.886.886 0 00.427.336c.416.174 1.02.2 1.784.2.763 0 1.368-.026 1.783-.2a.882.882 0 00.427-.336c.094-.148.16-.363.16-.687 0-.323-.066-.558-.168-.733a1.087 1.087 0 00-.447-.415c-.412-.218-1.016-.296-1.755-.296-.74 0-1.344.078-1.756.296-.198.106-.346.24-.447.415zM3.555 10.044c-.102.176-.168.411-.168.734 0 .324.067.539.161.687a.884.884 0 00.426.336c.416.174 1.02.199 1.784.199.763 0 1.368-.025 1.784-.199a.883.883 0 00.426-.336c.094-.148.161-.363.161-.687 0-.323-.066-.558-.168-.734a1.087 1.087 0 00-.448-.414c-.411-.218-1.015-.297-1.755-.297s-1.344.079-1.755.297c-.198.105-.347.24-.448.414zm.126-1c.57-.303 1.32-.377 2.077-.377.757 0 1.508.074 2.077.376.292.155.54.373.714.67.172.296.257.651.257 1.065 0 .412-.085.76-.264 1.041-.182.284-.44.472-.736.596-.565.236-1.315.252-2.048.252-.733 0-1.483-.016-2.048-.252a1.554 1.554 0 01-.736-.596c-.18-.281-.264-.629-.264-1.041 0-.414.085-.769.257-1.065.173-.297.422-.515.714-.67zm11.222 1.734c0 .412-.085.76-.265 1.041-.18.284-.44.472-.735.596-.565.236-1.315.252-2.048.252-.733 0-1.483-.016-2.049-.252a1.554 1.554 0 01-.735-.596c-.18-.281-.265-.629-.265-1.041 0-.414.086-.769.258-1.065.173-.297.422-.515.714-.67.57-.302 1.32-.376 2.077-.376.757 0 1.507.074 2.077.376.292.155.54.373.713.67.173.296.258.651.258 1.065zm0 0c0 .412.085.76.265 1.041.181.284.44.472.735.596.565.236 1.315.252 2.049.252.733 0 1.483-.016 2.048-.252.295-.123.554-.312.735-.596.18-.281.265-.629.265-1.041 0-.414-.085-.769-.258-1.065a1.758 1.758 0 00-.713-.67c-.57-.302-1.32-.376-2.077-.376-.757 0-1.508.074-2.077.376a1.756 1.756 0 00-.714.67c-.172.296-.258.651-.258 1.065zm-5.251-.734c-.102.176-.168.411-.168.734 0 .324.066.539.16.687a.891.891 0 00.427.336c.416.174 1.02.199 1.784.199.763 0 1.368-.025 1.784-.199a.882.882 0 00.426-.336c.094-.148.16-.363.16-.687 0-.323-.065-.558-.167-.734a1.086 1.086 0 00-.448-.414c-.411-.218-1.016-.297-1.755-.297-.74 0-1.344.079-1.755.297-.198.105-.347.24-.448.414zm6.097 0c-.102.176-.168.411-.168.734 0 .324.066.539.16.687a.891.891 0 00.427.336c.416.174 1.02.199 1.784.199.763 0 1.368-.025 1.783-.199a.883.883 0 00.427-.336c.094-.148.16-.363.16-.687 0-.323-.066-.558-.168-.734a1.086 1.086 0 00-.447-.414c-.412-.218-1.016-.297-1.755-.297-.74 0-1.344.079-1.756.297-.198.105-.346.24-.447.414z" fill="#2F3744"></path>
  </symbol>
  <symbol fill="none" xmlns="http://www.w3.org/2000/svg" viewBox="0 0 16 23" id="location">
    <path d="M6.34.14a7.791 7.791 0 00-4.096 2.239 7.94 7.94 0 00-2.11 4.198A7.93 7.93 0 00.49 10.77a7.84 7.84 0 002.445 3.404A14.384 14.384 0 017.4 21.137l.456 1.717.604-1.717c.868-2.8 2.51-5.29 4.731-7.178a7.807 7.807 0 001.937-2.68 7.89 7.89 0 00.662-3.254 8.147 8.147 0 00-.77-3.416 8.058 8.058 0 00-2.13-2.765A7.943 7.943 0 009.801.254 7.887 7.887 0 006.339.14zm1.58 12.445a4.482 4.482 0 01-2.514-.765 4.56 4.56 0 01-1.669-2.049 4.62 4.62 0 01-.261-2.641A4.588 4.588 0 014.71 4.786a4.503 4.503 0 012.313-1.254 4.47 4.47 0 012.613.259 4.53 4.53 0 012.03 1.683c.496.752.761 1.636.761 2.54a4.62 4.62 0 01-1.333 3.23 4.514 4.514 0 01-3.196 1.341h.021z" fill="url(#paint0_linear)"></path>
    <defs>
      <linearGradient id="paint0_linear" x1="7.895" y1="0" x2="7.895" y2="22.854" gradientUnits="userSpaceOnUse">
        <stop stop-color="#1DC7FC"></stop>
        <stop offset=".833" stop-color="#1D77F1"></stop>
      </linearGradient>
    </defs>
  </symbol>
  <symbol xmlns="http://www.w3.org/2000/svg" viewBox="0 0 17 17" id="lupa">
    <path d="M16.457 15.484l-4.046-4.208a6.84 6.84 0 001.61-4.412A6.872 6.872 0 007.157 0 6.872 6.872 0 00.293 6.864a6.872 6.872 0 006.864 6.863 6.79 6.79 0 003.932-1.242l4.077 4.24c.17.177.4.275.646.275a.896.896 0 00.645-1.516zm-9.3-13.693a5.079 5.079 0 015.073 5.073 5.079 5.079 0 01-5.073 5.073 5.079 5.079 0 01-5.073-5.073A5.079 5.079 0 017.157 1.79z"></path>
  </symbol>
  <symbol fill="none" xmlns="http://www.w3.org/2000/svg" viewBox="0 0 17 14" id="mail">
    <path d="M16.746.077a.546.546 0 00-.559 0L.29 8.263a.524.524 0 00-.287.506.534.534 0 00.358.458l4.426 1.492 9.408-7.966-7.288 8.684 7.448 2.51a.628.628 0 00.175 0 .539.539 0 00.271-.07.547.547 0 00.247-.371L16.953.582a.524.524 0 00-.207-.505z" fill="url(#paint0_linear)"></path>
    <defs>
      <linearGradient id="paint0_linear" x1="8.48" y1="0" x2="8.48" y2="13.954" gradientUnits="userSpaceOnUse">
        <stop stop-color="#1DC7FC"></stop>
        <stop offset=".833" stop-color="#1D77F1"></stop>
      </linearGradient>
    </defs>
  </symbol>
  <symbol fill="none" xmlns="http://www.w3.org/2000/svg" viewBox="0 0 11 11" id="phone">
    <path d="M10.552 7.946l-1.515-1.51c-.541-.54-1.46-.325-1.677.377-.163.486-.704.755-1.19.648-1.082-.27-2.543-1.673-2.814-2.807-.162-.485.163-1.025.65-1.187.703-.216.92-1.133.378-1.673L2.87.284c-.432-.378-1.082-.378-1.46 0L.38 1.308c-1.027 1.08.109 3.94 2.65 6.476 2.543 2.537 5.41 3.724 6.493 2.645l1.028-1.026c.378-.431.378-1.079 0-1.457z" fill="#fff"></path>
  </symbol>
  <symbol fill="none" xmlns="http://www.w3.org/2000/svg" viewBox="0 0 37 25" id="main-icon1">
    <path d="M3.7 10.99c.602-1.407 1.95-4.604 2.527-6.14C6.949 2.933 8.032.63 9.837.63H18.5m15.17 13.32c-.617 1.357-1.998 4.44-2.59 5.92-.74 1.85-1.85 4.07-3.7 4.07H18.5m14.8-12.95c-.602-1.407-1.95-4.604-2.527-6.14-.722-1.918-1.805-4.22-3.61-4.22H18.5" stroke="#1D77F1"></path>
    <path d="M3.7 13.95c.617 1.357 1.998 4.44 2.59 5.92.74 1.85 1.85 4.07 3.7 4.07h8.88" stroke="#1D77F1"></path>
    <rect x=".5" y="10.75" width="36" height="3.44" rx="1.72" stroke="#1D77F1"></rect>
    <path d="M10.75 14.3v4.09a1.13 1.13 0 11-2.26 0V14.3h2.26zm5.92 0v4.09a1.13 1.13 0 11-2.26 0V14.3h2.26zm5.92 0v4.09a1.13 1.13 0 11-2.26 0V14.3h2.26zm5.92 0v4.09a1.13 1.13 0 01-2.26 0V14.3h2.26z" stroke="#1D77F1" stroke-width=".7"></path>
    <path fill="#1D77F1" d="M10.36 22.09h16.28v.74H10.36zm0-19.24h16.28v.74H10.36z"></path>
  </symbol>
  <symbol fill="none" xmlns="http://www.w3.org/2000/svg" viewBox="0 0 32 32" id="main-icon2">
    <g clip-path="url(#clip0)" fill="#1D77F1">
      <path d="M28.625 1.555H7.933c-1.796 0-3.257 1.447-3.257 3.22l-.133 18.221H.505c-.286 0-.505.253-.505.54v2.507c0 2.347 1.879 4.267 4.146 4.372v.03H21.57v-.034c.13.006.208.034.297.034h.012a4.38 4.38 0 004.355-4.403V10.105h5.26c.286 0 .505-.259.505-.545v-4.6a3.399 3.399 0 00-3.375-3.405zM4.372 29.409H4.37c-1.843 0-3.333-1.524-3.333-3.367v-2.01H17.49v2.002a4.386 4.386 0 001.28 3.112c.088.088.18.133.273.263H4.373zm20.826-3.367c0 1.843-1.474 3.367-3.318 3.367h-.011a3.367 3.367 0 01-3.343-3.375v-2.499a.537.537 0 00-.518-.539H5.58l.134-18.217c0-1.205.996-2.188 2.22-2.188H26.18c-.59.648-.98 1.467-.98 2.382v21.069zm5.766-21.074v4.1h-4.73V4.973c0-1.297 1.08-2.38 2.376-2.38h.015a2.362 2.362 0 012.339 2.373v.003z"></path>
      <path d="M12.169 14.31l2.672 1.827a.51.51 0 00.579 0l2.664-1.826c.925-.632 1.608-1.951 1.608-3.07V7.544a.507.507 0 00-.276-.466l-4.068-2a.51.51 0 00-.453 0l-4.06 1.995a.506.506 0 00-.276.465v3.701c0 1.12.685 2.44 1.61 3.07zm-.574-6.448l3.53-1.742 3.531 1.747v3.373c0 .781-.512 1.774-1.157 2.214l-2.38 1.627-2.37-1.627c-.645-.44-1.154-1.433-1.154-2.214V7.862z"></path>
      <path d="M14.249 12.023a.517.517 0 00.367.155h.001c.138 0 .27-.056.366-.153l2.062-2.062a.518.518 0 10-.733-.734l-1.693 1.693-.677-.683a.519.519 0 10-.737.73l1.044 1.054zm7.321 5.597H9.134a.518.518 0 000 1.036h12.438a.518.518 0 100-1.037zm0 2.396H9.134a.518.518 0 000 1.037h12.438a.518.518 0 000-1.037z"></path>
    </g>
    <defs>
      <clipPath id="clip0">
        <path fill="#fff" d="M0 0h32v32H0z"></path>
      </clipPath>
    </defs>
  </symbol>
  <symbol fill="none" xmlns="http://www.w3.org/2000/svg" viewBox="0 0 32 32" id="main-icon3">
    <path d="M27.542 12.58c.26.022.485-.17.507-.426l.14-1.59h.595a.903.903 0 00.902-.902v-.897a.903.903 0 00-.902-.902H15.221a.903.903 0 00-.902.902v.897c0 .497.405.902.902.902h.596l.822 9.4h-2.973v-5.095a7.01 7.01 0 00-.239-1.813l-.49-1.831a5.972 5.972 0 00-3.789-4.088 1.369 1.369 0 01-.876-.93l-.26-.97a.94.94 0 00.431-1.053l-.332-1.238a.755.755 0 00-.129-.264.752.752 0 00-.02-.291L7.509.695a.931.931 0 00-.436-.569.931.931 0 00-.712-.094L5.11.367a.469.469 0 00.242.906l1.25-.335.408 1.52L2.154 3.76l-.408-1.52 1.467-.394A.469.469 0 002.97.941l-1.466.393A.939.939 0 00.84 2.482l.454 1.695c.026.098.07.187.129.263a.755.755 0 00.02.293l.332 1.238c.114.428.5.694.9.695l.26.971c.115.43.005.894-.295 1.243a5.971 5.971 0 00-1.237 5.434l.682 2.544c-.23.297-.36.665-.36 1.046v3.648c0 .27.091.52.244.719-.153.2-.243.449-.243.719v1.649c0 .27.09.519.243.719-.153.2-.243.448-.243.718v1.65c0 .27.09.519.243.718-.153.2-.243.45-.243.72v1.393c0 .796.647 1.443 1.443 1.443h20.947a4.214 4.214 0 004.065-3.12l1.646-6.14h.622a.742.742 0 00.741-.742v-1.293a.742.742 0 00-.741-.741h-3.084l.491-5.612a.469.469 0 00-.934-.082l-.498 5.694H17.58l-.822-9.4h10.49l-.133 1.508a.469.469 0 00.427.508zM2.914 27.976a.25.25 0 01-.25-.25v-1.65a.25.25 0 01.25-.25h9.564a.25.25 0 01.25.25v1.65a.25.25 0 01-.25.25H2.915zm9.565-5.236a.25.25 0 01.25.25v1.649a.25.25 0 01-.25.25H2.914a.25.25 0 01-.25-.25v-1.65a.25.25 0 01.25-.25h9.564zm.944 5.705c.152-.2.243-.45.243-.72v-1.649c0-.27-.09-.519-.243-.718.152-.2.243-.45.243-.72V22.99c0-.086-.01-.17-.027-.25h1.025v8.322h-1.09a1.41 1.41 0 00.092-.505v-1.394c0-.27-.09-.519-.243-.718zM7.253 3.364l.285 1.063L2.68 5.728l-.285-1.063 4.857-1.301zm-3.9 6.126a2.305 2.305 0 00.488-2.095l-.251-.94 3.524-.944.252.94a2.306 2.306 0 001.47 1.57 5.035 5.035 0 013.195 3.446l.49 1.831c.138.512.207 1.04.207 1.571v6.683a.25.25 0 01-.25.25H2.914a.25.25 0 01-.25-.25v-3.648c0-.344.23-.65.568-.74l6.84-1.833a.469.469 0 00-.242-.906c-7.243 1.942-6.844 1.832-6.927 1.86l-.593-2.213A5.035 5.035 0 013.353 9.49zm-.689 21.067v-1.394a.25.25 0 01.25-.25h9.564a.25.25 0 01.25.25v1.394a.506.506 0 01-.505.505H3.17a.506.506 0 01-.506-.505zm16.491-7.817h2.61l-.799 5.957c-.198 1.48-.837 2.365-1.34 2.365h-1.29c.26-.683.369-1.603.414-2.271l.405-6.051zm6.157 0l-1.191 5.927c-.284 1.41-1.209 2.395-2.25 2.395h-.75c.376-.553.652-1.324.775-2.24l.815-6.082h2.6zm1.965 5.898a3.275 3.275 0 01-3.16 2.424h-.184c.53-.551.927-1.315 1.107-2.21l1.228-6.112h2.59l-1.581 5.898zm2.977-7.737v.901h-12.14a.469.469 0 100 .938h.101l-.4 5.988c-.097 1.433-.372 2.156-.516 2.334h-1.697V22.74h.324a.469.469 0 000-.938H13.64c.015-.065.024-.14.027-.22v-.68h16.588zm-14.997-12.1h13.492v.825H15.257v-.825z" fill="#1D77F1"></path>
  </symbol>
    <symbol xmlns="http://www.w3.org/2000/svg" viewBox="0 0 76 76" id="icon1">
    <path d="M37 65.378a1.267 1.267 0 002 0l26.6-34.2c.296-.382.35-.9.137-1.334a1.067 1.067 0 00-.078-.118h.01l-8.867-13.933a1.253 1.253 0 00-1.069-.554V15.2H20.267v.04a1.253 1.253 0 00-1.07.546L10.332 29.72h.01a1.044 1.044 0 00-.079.118c-.212.434-.158.952.138 1.333L37 65.378zm3.308-47.645h13.117L46.867 28.04l-6.56-10.307zm4.25 11.4H31.442L38 18.826l6.559 10.307zM29.134 28.04l-6.558-10.307h13.117l-6.56 10.307zM13.99 31.667h14.172l7.504 27.866L13.99 31.667zm26.393 27.807l4.077-14.76a1.267 1.267 0 00-2.44-.676L38.017 58.52l-7.232-26.853h14.44l-1.563 6.015a1.267 1.267 0 102.451.633l1.732-6.648H62.01L40.383 59.474zm21.91-30.34H49.174l6.558-10.308 6.56 10.307zM20.266 18.825l6.558 10.307H13.708l6.559-10.307zM1.267 39.267h3.8a1.267 1.267 0 000-2.534h-3.8a1.267 1.267 0 100 2.534zm69.666 0h3.8a1.267 1.267 0 100-2.534h-3.8a1.267 1.267 0 100 2.534zM39.267 74.733v-3.8a1.267 1.267 0 00-2.534 0v3.8a1.267 1.267 0 102.534 0zM38 6.333c.7 0 1.267-.567 1.267-1.266v-3.8a1.267 1.267 0 10-2.534 0v3.8c0 .7.568 1.266 1.267 1.266zM13.817 60.392L11.13 63.08a1.266 1.266 0 101.79 1.79l2.687-2.687a1.267 1.267 0 00-1.792-1.79h.002zm47.471-44.413c.336 0 .658-.134.895-.371l2.687-2.688a1.267 1.267 0 10-1.79-1.79l-2.687 2.687a1.267 1.267 0 00.896 2.162h-.001zm2.686 49.262a1.267 1.267 0 00.896-2.162l-2.687-2.687a1.267 1.267 0 00-1.79 1.791l2.687 2.687c.237.237.559.37.894.371zM13.817 15.608a1.267 1.267 0 001.79-1.791L12.92 11.13a1.267 1.267 0 10-1.79 1.79l2.687 2.688z"></path>
  </symbol>
  <symbol xmlns="http://www.w3.org/2000/svg" viewBox="0 0 53 53" id="icon2">
    <g clip-path="url(#clip0)">
      <path d="M38.781 52.5c-7.84 0-14.218-6.379-14.218-14.219S30.94 24.063 38.78 24.063 53 30.44 53 38.28 46.621 52.5 38.781 52.5zm0-26.25c-6.634 0-12.031 5.397-12.031 12.031 0 6.635 5.397 12.032 12.031 12.032 6.635 0 12.032-5.397 12.032-12.032 0-6.634-5.397-12.031-12.032-12.031z"></path>
      <path d="M36.594 43.75c-.289 0-.569-.116-.775-.32l-4.375-4.374a1.095 1.095 0 011.547-1.547l3.548 3.548 6.886-7.87a1.094 1.094 0 111.647 1.441l-7.656 8.75a1.091 1.091 0 01-.787.372h-.035z"></path>
      <path d="M21.281 52.5a5.355 5.355 0 01-3.867-1.62L2.11 35.574A5.345 5.345 0 01.5 31.72c0-1.4.551-2.77 1.512-3.758l24.65-25.57A7.593 7.593 0 0132.22 0h15.31A5.476 5.476 0 0153 5.469V20.78a8.04 8.04 0 01-.527 2.83 1.094 1.094 0 11-2.052-.761 5.877 5.877 0 00.392-2.069V5.47a3.285 3.285 0 00-3.282-3.282H32.22a5.427 5.427 0 00-3.975 1.716L3.584 29.48a3.232 3.232 0 00-.897 2.238c0 .88.342 1.697.96 2.301L18.97 49.341c1.035 1.061 2.767 1.269 4.001.484a1.092 1.092 0 011.51.339 1.092 1.092 0 01-.34 1.51c-.85.542-1.84.826-2.859.826z"></path>
      <path d="M42.063 15.313a4.38 4.38 0 01-4.376-4.376 4.38 4.38 0 014.376-4.374 4.38 4.38 0 014.374 4.375 4.38 4.38 0 01-4.374 4.374zm0-6.563a2.191 2.191 0 00-2.188 2.188 2.19 2.19 0 002.188 2.187 2.191 2.191 0 002.187-2.188 2.191 2.191 0 00-2.188-2.187z"></path>
    </g>
    <defs>
      <linearGradient id="paint0_linear" x1="38.781" y1="24.063" x2="38.781" y2="52.5" gradientUnits="userSpaceOnUse">
        <stop stop-color="#1DC7FC"></stop>
        <stop offset=".833" stop-color="#1D77F1"></stop>
      </linearGradient>
      <linearGradient id="paint1_linear" x1="38.234" y1="32.811" x2="38.234" y2="43.75" gradientUnits="userSpaceOnUse">
        <stop stop-color="#1DC7FC"></stop>
        <stop offset=".833" stop-color="#1D77F1"></stop>
      </linearGradient>
      <linearGradient id="paint2_linear" x1="26.75" y1="0" x2="26.75" y2="52.5" gradientUnits="userSpaceOnUse">
        <stop stop-color="#1DC7FC"></stop>
        <stop offset=".833" stop-color="#1D77F1"></stop>
      </linearGradient>
      <linearGradient id="paint3_linear" x1="42.063" y1="6.563" x2="42.063" y2="15.313" gradientUnits="userSpaceOnUse">
        <stop stop-color="#1DC7FC"></stop>
        <stop offset=".833" stop-color="#1D77F1"></stop>
      </linearGradient>
      <clipPath id="clip0">
        <path fill="#fff" transform="translate(.5)" d="M0 0h52.5v52.5H0z"></path>
      </clipPath>
    </defs>
  </symbol>
  <symbol xmlns="http://www.w3.org/2000/svg" viewBox="0 0 63 41" id="icon3">
    <path fill-rule="evenodd" clip-rule="evenodd" d="M11.342 8.245c.606-1.609 1.336-3.302 2.258-4.584.929-1.29 1.93-2.002 3.058-2.002h29.243c1.128 0 2.13.712 3.058 2.002.922 1.282 1.653 2.975 2.258 4.584.802 2.132 2.471 6.133 3.608 8.82H7.734c1.137-2.687 2.806-6.688 3.608-8.82zm41.428-.584c.856 2.277 2.733 6.758 3.857 9.405h2.558a3.318 3.318 0 013.318 3.318v.857a3.318 3.318 0 01-3.318 3.318h-1.958c-1.152 2.554-3.07 6.86-3.945 9.05-.63 1.573-1.444 3.38-2.531 4.802C49.663 39.83 48.2 41 46.267 41h-29.35c-1.934 0-3.398-1.17-4.484-2.59-1.087-1.421-1.902-3.228-2.53-4.8-.877-2.19-2.794-6.497-3.947-9.051H3.375a3.318 3.318 0 01-3.318-3.318v-.857a3.318 3.318 0 013.318-3.319h2.557c1.124-2.646 3-7.127 3.857-9.404.614-1.63 1.406-3.498 2.464-4.968C13.305 1.23 14.74 0 16.658 0h29.243c1.919 0 3.354 1.231 4.405 2.693 1.058 1.47 1.85 3.339 2.464 4.968zm-4.005 16.898h6.643c-1.165 2.59-2.852 6.397-3.667 8.434-.62 1.55-1.366 3.178-2.308 4.41-.944 1.234-1.978 1.938-3.166 1.938h-29.35c-1.189 0-2.222-.704-3.166-1.938-.942-1.232-1.689-2.86-2.308-4.41-.816-2.037-2.502-5.844-3.667-8.434h6.019v6.245a2.498 2.498 0 104.996 0v-6.245h4.995v6.245a2.498 2.498 0 004.996 0v-6.245h4.996v6.245a2.498 2.498 0 104.995 0v-6.245h4.996v6.245a2.498 2.498 0 104.996 0v-6.245zm-3.89 0h2.784v6.245a1.392 1.392 0 11-2.784 0v-6.245zm-9.992 0h2.784v6.245a1.392 1.392 0 11-2.784 0v-6.245zm-9.99 0h2.783v6.245a1.392 1.392 0 01-2.784 0v-6.245zm-9.992 0h2.784v6.245a1.392 1.392 0 11-2.784 0v-6.245zm44.284-5.835H3.375a1.66 1.66 0 00-1.66 1.66v.857a1.66 1.66 0 001.66 1.659h55.81a1.66 1.66 0 001.659-1.659v-.857a1.66 1.66 0 00-1.66-1.66zM17.542 37.049h27.476v1.249H17.542v-1.249zM45.018 4.576H17.542v1.25h27.476v-1.25z"></path>
    <defs>
      <linearGradient id="paint0_linear" x1="31.28" y1="0" x2="31.28" y2="41" gradientUnits="userSpaceOnUse">
        <stop></stop>
        <stop offset=".833"></stop>
      </linearGradient>
    </defs>
  </symbol>
  <symbol xmlns="http://www.w3.org/2000/svg" viewBox="0 0 42 59" id="icon4">
    <path d="M36.071 6.91a.853.853 0 00-1.273 1.135c6.273 7.03 6.365 17.509.494 24.642a21.316 21.316 0 00-4.48 9.632 1.642 1.642 0 01-1.616 1.337h-5.533l.62-10.859h3.437a3.913 3.913 0 003.908-3.908 3.913 3.913 0 00-3.909-3.91 4.978 4.978 0 00-4.966 4.692l-.081 1.42h-4.035l-.08-1.42a4.978 4.978 0 00-4.967-4.691 3.913 3.913 0 00-3.91 3.909 3.907 3.907 0 003.91 3.908h3.436l.62 10.859h-5.533c-.779 0-1.47-.55-1.616-1.337a21.29 21.29 0 00-4.477-9.63C-.02 25.359.216 14.46 7.14 7.4c3.462-3.53 8.069-5.55 12.974-5.686 4.307-.12 8.403 1.171 11.843 3.732a.853.853 0 101.019-1.369c-3.75-2.792-8.216-4.2-12.91-4.069-5.347.149-10.371 2.35-14.143 6.196-7.543 7.694-7.803 19.576-1.22 27.57A19.58 19.58 0 018.82 42.63c.185.996.802 1.82 1.636 2.294v6.388c0 1.576 1.097 2.9 2.567 3.25v.035a3.636 3.636 0 003.632 3.632h7.999a3.636 3.636 0 003.632-3.632v-.034a3.348 3.348 0 002.567-3.251v-6.387a3.337 3.337 0 001.637-2.294 19.604 19.604 0 014.12-8.86c6.402-7.778 6.297-19.2-.539-26.862zM24.456 29.767a3.27 3.27 0 013.264-3.082c1.214 0 2.202.988 2.202 2.203a2.205 2.205 0 01-2.202 2.203h-3.34l.076-1.324zM13.59 31.091a2.202 2.202 0 01-2.203-2.203c0-1.214.989-2.203 2.204-2.203a3.271 3.271 0 013.263 3.083l.076 1.323h-3.34zm8.985 1.706l-.62 10.859h-2.6l-.62-10.859h3.84zm2.08 23.726h-7.999a1.927 1.927 0 01-1.923-1.869h11.845a1.927 1.927 0 01-1.923 1.869zm4.493-8.295H18.276a.853.853 0 000 1.706h10.87v1.378c0 .902-.733 1.637-1.636 1.637H13.8a1.64 1.64 0 01-1.638-1.637v-1.378h2.127a.853.853 0 100-1.706h-2.127v-2.866h16.985v2.866z"></path>
    <defs>
      <linearGradient id="paint0_linear" x1="20.654" y1="0" x2="20.654" y2="58.229" gradientUnits="userSpaceOnUse">
        <stop></stop>
        <stop offset=".833"></stop>
      </linearGradient>
    </defs>
  </symbol>
  <symbol xmlns="http://www.w3.org/2000/svg" viewBox="0 0 38 38" id="arrow-circle">
    <rect width="38" height="38" rx="19"></rect>
    <path d="M26.768 19.53a.75.75 0 000-1.06l-4.773-4.773a.75.75 0 00-1.06 1.06L25.177 19l-4.242 4.243a.75.75 0 001.06 1.06l4.773-4.773zm-14.102.22h13.572v-1.5H12.666v1.5z" fill="#fff"></path>
  </symbol>
  <symbol xmlns="http://www.w3.org/2000/svg" viewBox="0 0 23 8" id="arrow-long">
    <path d="M22.354 4.354a.5.5 0 000-.708L19.172.464a.5.5 0 10-.707.708L21.293 4l-2.828 2.828a.5.5 0 10.707.708l3.182-3.182zM0 4.5h22v-1H0v1z"></path>
  </symbol>
  <symbol xmlns="http://www.w3.org/2000/svg" viewBox="0 0 36 33" id="chat">
    <g clip-path="url(#clip0)" filter="url(#filter0_d)">
      <path d="M29.546 8.642h-.753v8.27c0 1.288-.75 2.452-2.253 2.452H11.813v.394c0 1.138 1.295 2.287 2.625 2.287h11.26l4.307 2.533-.625-2.533h.166c1.329 0 1.928-1.146 1.928-2.287v-9.153c0-1.139-.6-1.963-1.928-1.963z"></path>
      <path d="M24.342 2.896H7.237C5.732 2.896 4 4.232 4 5.52v10.366c0 1.187 1.467 2.044 2.875 2.176l-.916 3.478 5.87-3.454h12.513c1.505 0 2.893-.912 2.893-2.2V5.521c0-1.289-1.39-2.625-2.893-2.625zm-14.496 8.75a1.545 1.545 0 110-3.09 1.545 1.545 0 010 3.09zm5.772 0a1.545 1.545 0 110-3.09 1.545 1.545 0 010 3.09zm5.772 0a1.546 1.546 0 110-3.091 1.546 1.546 0 010 3.091z"></path>
    </g>
    <defs>
      <clipPath id="clip0">
        <path fill="#fff" transform="translate(4)" d="M0 0h27.474v27.474H0z"></path>
      </clipPath>
      <filter id="filter0_d" x="0" y="0" width="35.474" height="35.474" filterUnits="userSpaceOnUse" color-interpolation-filters="sRGB">
        <feFlood flood-opacity="0" result="BackgroundImageFix"></feFlood>
        <feColorMatrix in="SourceAlpha" values="0 0 0 0 0 0 0 0 0 0 0 0 0 0 0 0 0 0 127 0"></feColorMatrix>
        <feOffset dy="4"></feOffset>
        <feGaussianBlur stdDeviation="2"></feGaussianBlur>
        <feColorMatrix values="0 0 0 0 0 0 0 0 0 0 0 0 0 0 0 0 0 0 0.25 0"></feColorMatrix>
        <feBlend in2="BackgroundImageFix" result="effect1_dropShadow"></feBlend>
        <feBlend in="SourceGraphic" in2="effect1_dropShadow" result="shape"></feBlend>
      </filter>
    </defs>
  </symbol>
  <symbol xmlns="http://www.w3.org/2000/svg" viewBox="0 0 14 14" id="email">
    <path d="M7.405 8.769a.785.785 0 01-.413.115.785.785 0 01-.413-.115L0 4.752v5.339c0 1.14.926 2.066 2.066 2.066h9.868c1.14 0 2.066-.926 2.066-2.066V4.752L7.405 8.77z"></path>
    <path d="M11.934 1.843H2.066c-.975 0-1.801.694-2 1.62l6.942 4.231 6.926-4.231a2.054 2.054 0 00-2-1.62z"></path>
  </symbol>
  <symbol xmlns="http://www.w3.org/2000/svg" viewBox="0 0 15 15" id="tel">
    <path d="M14.177 10.973l-1.91-2.064c-.681-.737-1.84-.442-2.113.516-.205.663-.887 1.032-1.5.884-1.365-.368-3.206-2.284-3.547-3.831-.204-.664.205-1.4.819-1.622.886-.294 1.159-1.547.477-2.284L4.493.508c-.545-.515-1.363-.515-1.84 0l-1.296 1.4c-1.296 1.474.136 5.38 3.341 8.844 3.205 3.463 6.82 5.084 8.183 3.61l1.296-1.4c.477-.59.477-1.473 0-1.99z"></path>
  </symbol>
  <symbol xmlns="http://www.w3.org/2000/svg" viewBox="0 0 19 16" id="telegram">
    <path d="M7.47 10.351l-.292 4.3c.417 0 .598-.188.815-.413l1.957-1.96 4.056 3.112c.744.434 1.268.205 1.469-.717l2.662-13.07h.001C18.374.45 17.74 0 17.016.282L1.366 6.559C.298 6.994.314 7.617 1.185 7.9l4 1.304 9.294-6.092c.437-.304.835-.136.508.168L7.47 10.35z"></path>
  </symbol>
  <symbol xmlns="http://www.w3.org/2000/svg" viewBox="0 0 17 19" id="viber">
    <path d="M15.87 10.753c.517-4.355-.25-7.105-1.63-8.348C12.01.28 4.48-.035 1.812 2.5.614 3.739.192 5.557.146 7.809c-.047 2.252-.102 6.471 3.83 7.616h.003l-.003 1.748s-.027.708.425.85c.518.168.752-.161 2.361-2.083 2.69.233 4.757-.301 4.992-.38.544-.181 3.618-.588 4.115-4.807zM7.026 14.71s-1.703 2.124-2.233 2.675c-.173.18-.363.163-.36-.193 0-.233.013-2.902.013-2.902-3.333-.955-3.137-4.547-3.1-6.427.036-1.88.38-3.42 1.394-4.457 2.34-2.194 8.942-1.703 10.625-.122 2.056 1.823 1.324 6.973 1.328 7.149-.422 3.521-2.914 3.745-3.372 3.897-.196.065-2.013.533-4.295.38z"></path>
    <path d="M7.969 3.819c-.278 0-.278.434 0 .437 2.158.017 3.936 1.521 3.955 4.28 0 .292.426.288.423-.003-.024-2.973-1.965-4.697-4.378-4.714z"></path>
    <path d="M10.809 8.079c-.007.288.419.301.423.01.035-1.64-.976-2.99-2.876-3.132-.278-.02-.307.417-.03.437 1.648.125 2.516 1.25 2.483 2.685zm-.455 1.865c-.357-.207-.72-.078-.871.125l-.314.407c-.16.206-.459.179-.459.179C6.533 10.079 5.95 7.8 5.95 7.8s-.027-.309.173-.474l.393-.325c.197-.156.32-.532.12-.901-.534-.966-.893-1.3-1.076-1.555-.192-.24-.481-.295-.782-.132h-.006c-.625.365-1.31 1.05-1.09 1.754.373.743 1.06 3.11 3.247 4.9 1.028.846 2.656 1.713 3.346 1.913l.007.01c.68.227 1.342-.484 1.696-1.128v-.005c.157-.311.105-.606-.124-.799-.406-.396-1.02-.833-1.5-1.114z"></path>
    <path d="M8.654 6.57c.694.04 1.03.403 1.067 1.148.013.291.436.27.423-.02-.046-.973-.554-1.515-1.467-1.566-.278-.016-.304.421-.023.438z"></path>
  </symbol>
  <symbol xmlns="http://www.w3.org/2000/svg" viewBox="0 0 64 56" id="icon">
    <circle opacity=".14" cx="41.133" cy="33.642" r="22.18"></circle>
    <path fill-rule="evenodd" clip-rule="evenodd" d="M31.652 9.665c0 5.33-4.331 9.667-9.655 9.667-5.325 0-9.658-4.337-9.658-9.667S16.672 0 21.997 0c5.324 0 9.655 4.336 9.655 9.665zm-1.881 0c0-4.292-3.488-7.783-7.774-7.783-4.288 0-7.776 3.491-7.776 7.783 0 4.293 3.488 7.785 7.776 7.785 4.287 0 7.774-3.492 7.774-7.785zm13.434 19.567l-3.37-6.62a.94.94 0 00-.838-.513h-34a.94.94 0 00-.838.514l-3.37 6.619a.94.94 0 00.838 1.368h1.174v16.608c0 .52.422.94.941.94H40.25a.94.94 0 00.94-.94V30.6h1.178a.94.94 0 00.838-1.368zM38.42 23.98l2.412 4.738H25.944l-2.412-4.738H38.42zm-32.846 0h14.888l-2.412 4.738H3.162l2.412-4.738zm33.734 22.287h-16.37v-5.215a.941.941 0 00-1.882 0v5.215H4.683V30.6h13.944a.94.94 0 00.838-.514l1.591-3.125v5.642a.94.94 0 001.882 0v-5.642l1.59 3.125a.94.94 0 00.84.514h13.94v15.667zm-25.357-5.153H8.594a.94.94 0 000 1.882h5.357a.94.94 0 000-1.882zm3.828-30.038l2.504 2.122a.941.941 0 001.33-.113l4.713-5.633a.94.94 0 00-1.443-1.208l-4.105 4.907-1.782-1.51a.94.94 0 10-1.217 1.435zm-10.195-.47h-4.07a.941.941 0 010-1.882h4.07a.94.94 0 010 1.881zm-4.51-6.547l4.071 2.147a.94.94 0 10.878-1.664l-4.07-2.148a.94.94 0 10-.878 1.665zm.44 12.985a.94.94 0 01-.439-1.774l4.07-2.144a.94.94 0 01.878 1.665l-4.071 2.144a.938.938 0 01-.438.109zm32.893-6.439h4.071a.941.941 0 000-1.881h-4.07a.94.94 0 000 1.881zm.44-4.4a.94.94 0 11-.878-1.664l4.07-2.147a.94.94 0 11.878 1.665l-4.07 2.147zm-.878 8.586l4.07 2.144a.937.937 0 001.271-.394.94.94 0 00-.394-1.27l-4.07-2.145a.94.94 0 10-.877 1.665zM21.056 36.828a.94.94 0 111.882 0c0 .52-.421.943-.94.943a.939.939 0 01-.942-.938v-.005z"></path>
    <defs>
      <linearGradient id="paint0_linear" x1="6.33" y1="0" x2="39.957" y2="51.206" gradientUnits="userSpaceOnUse">
        <stop stop-color="#1DC7FC"></stop>
        <stop offset=".786" stop-color="#1D77F1"></stop>
      </linearGradient>
    </defs>
  </symbol>
  <symbol xmlns="http://www.w3.org/2000/svg" viewBox="0 0 24 24" id="loader">
    <path d="M18.743 17.452c2.16-2.706 2.166-6.602.01-9.313-2.818-3.546-8-3.782-11.135-.716L6.191 5.995c-.08-.079-.22-.022-.238.095l-.78 5.097a.128.128 0 00.146.146l5.097-.78c.117-.018.171-.161.094-.238L9.085 8.89c2.213-2.144 5.812-2.035 7.878.33 1.78 2.031 1.772 5.132-.012 7.159a5.443 5.443 0 01-7.266.823 1.035 1.035 0 00-1.336.111 1.026 1.026 0 00.112 1.554 7.515 7.515 0 0010.282-1.415z"></path>
  </symbol>
  <symbol fill="none" xmlns="http://www.w3.org/2000/svg" viewBox="0 0 26 26" id="contacts-fb">
    <path d="M13 26c7.18 0 13-5.82 13-13S20.18 0 13 0 0 5.82 0 13s5.82 13 13 13z" fill="#3B5998"></path>
    <path d="M16.267 13.509h-2.32v8.498h-3.514V13.51H8.762v-2.987h1.671V8.59c0-1.382.657-3.547 3.546-3.547l2.603.011v2.9h-1.889c-.31 0-.745.154-.745.813v1.758h2.627l-.308 2.984z" fill="#fff"></path>
  </symbol>
  <symbol fill="none" xmlns="http://www.w3.org/2000/svg" viewBox="0 0 24 24" id="contacts-inst">
    <g clip-path="url(#clip0)">
      <path d="M1.5 1.633C-.386 3.592 0 5.673 0 11.995c0 5.25-.916 10.513 3.878 11.752 1.497.385 14.76.385 16.256-.002 1.996-.515 3.62-2.134 3.842-4.957.03-.394.03-13.185-.001-13.587-.236-3.007-2.087-4.74-4.526-5.091-.56-.081-.671-.105-3.54-.11C5.738.005 3.508-.448 1.5 1.633z" fill="url(#paint0_linear)"></path>
      <path d="M11.998 3.139c-3.631 0-7.08-.323-8.396 3.057-.544 1.396-.465 3.209-.465 5.805 0 2.278-.073 4.419.465 5.804 1.314 3.382 4.79 3.058 8.394 3.058 3.477 0 7.062.362 8.395-3.058.545-1.41.465-3.196.465-5.804 0-3.462.19-5.697-1.488-7.375-1.7-1.7-4-1.487-7.374-1.487h.004zm-.794 1.597c7.574-.012 8.538-.854 8.006 10.843-.19 4.137-3.34 3.683-7.211 3.683-7.06 0-7.263-.202-7.263-7.265 0-7.145.56-7.257 6.468-7.263v.002zm5.524 1.471a1.063 1.063 0 100 2.126 1.063 1.063 0 000-2.126zm-4.73 1.243a4.55 4.55 0 10.001 9.101 4.55 4.55 0 00-.001-9.1zm0 1.597c3.905 0 3.91 5.908 0 5.908-3.904 0-3.91-5.908 0-5.908z" fill="#fff"></path>
    </g>
    <defs>
      <linearGradient id="paint0_linear" x1="1.546" y1="22.467" x2="23.851" y2="3.162" gradientUnits="userSpaceOnUse">
        <stop stop-color="#FD5"></stop>
        <stop offset=".5" stop-color="#FF543E"></stop>
        <stop offset="1" stop-color="#C837AB"></stop>
      </linearGradient>
      <clipPath id="clip0">
        <path fill="#fff" d="M0 0h24v24H0z"></path>
      </clipPath>
    </defs>
  </symbol>
  <symbol fill="none" xmlns="http://www.w3.org/2000/svg" viewBox="0 0 18 17" id="contacts-phone">
    <path d="M7.049 9.962a6.854 6.854 0 01-2.08-3.892.575.575 0 01.172-.49l1.313-1.313a.594.594 0 00.087-.728L4.44.299a.585.585 0 00-.757-.221L.328 1.66a.594.594 0 00-.326.585A16.298 16.298 0 004.95 12.06a16.182 16.182 0 009.817 4.937.584.584 0 00.575-.316l1.572-3.355a.585.585 0 00-.21-.767l-3.24-2.09a.594.594 0 00-.73.086L11.42 11.87a.575.575 0 01-.489.163A6.71 6.71 0 017.04 9.962h.01z" fill="url(#paint0_linear)"></path>
    <path d="M13.492 9.088a.585.585 0 01-.585-.585 4.41 4.41 0 00-4.4-4.4.585.585 0 010-1.17 5.57 5.57 0 015.57 5.57.585.585 0 01-.585.585z" fill="url(#paint1_linear)"></path>
    <path d="M16.425 9.088a.585.585 0 01-.585-.585A7.353 7.353 0 008.508 1.17a.585.585 0 010-1.17 8.513 8.513 0 018.503 8.503.595.595 0 01-.36.542.556.556 0 01-.225.043z" fill="url(#paint2_linear)"></path>
    <defs>
      <linearGradient id="paint0_linear" x1="8.49" y1=".018" x2="8.49" y2="17.001" gradientUnits="userSpaceOnUse">
        <stop stop-color="#1DC7FC"></stop>
        <stop offset=".833" stop-color="#1D77F1"></stop>
      </linearGradient>
      <linearGradient id="paint1_linear" x1="10.999" y1="2.933" x2="10.999" y2="9.088" gradientUnits="userSpaceOnUse">
        <stop stop-color="#1DC7FC"></stop>
        <stop offset=".833" stop-color="#1D77F1"></stop>
      </linearGradient>
      <linearGradient id="paint2_linear" x1="12.466" y1="0" x2="12.466" y2="9.088" gradientUnits="userSpaceOnUse">
        <stop stop-color="#1DC7FC"></stop>
        <stop offset=".833" stop-color="#1D77F1"></stop>
      </linearGradient>
    </defs>
  </symbol>
  <symbol fill="none" xmlns="http://www.w3.org/2000/svg" viewBox="0 0 18 17" id="home">
    <path d="M15.376 7.837A946.744 946.744 0 018.997 3.91a.682.682 0 00-.257-.089.682.682 0 00-.257.089C6.344 5.17 4.215 6.513 2.086 7.837a.648.648 0 00-.364.622v7.572h4.49V9.945h5.127v6.061h4.437V8.434a.65.65 0 00-.4-.596z" fill="url(#paint0_linear)"></path>
    <path d="M17.443 6.104c0-.089-.169-.186-.284-.258l-5.004-3.075L9.005.825A.576.576 0 008.74.727a.612.612 0 00-.266.098L5.323 2.77.302 5.846C.186 5.918 0 6.06 0 6.104v1.502l.95-.56 7.479-4.621a.656.656 0 01.301-.107c.108.01.212.047.302.107l7.488 4.621.94.56c0-.542.01-1.022-.017-1.502z" fill="url(#paint1_linear)"></path>
    <defs>
      <linearGradient id="paint0_linear" x1="8.748" y1="3.82" x2="8.748" y2="16.032" gradientUnits="userSpaceOnUse">
        <stop stop-color="#1DC7FC"></stop>
        <stop offset=".833" stop-color="#1D77F1"></stop>
      </linearGradient>
      <linearGradient id="paint1_linear" x1="8.731" y1=".727" x2="8.731" y2="7.606" gradientUnits="userSpaceOnUse">
        <stop stop-color="#1DC7FC"></stop>
        <stop offset=".833" stop-color="#1D77F1"></stop>
      </linearGradient>
    </defs>
  </symbol>
</svg>