<svg width="0" height="0" class="hidden">
  <symbol xmlns="http://www.w3.org/2000/svg" viewBox="0 0 10 16" id="fb">
    <path d="M9 .003L6.924 0c-2.33 0-3.837 1.546-3.837 3.938v1.815H1.001a.326.326 0 00-.326.327v2.63c0 .18.146.326.326.326h2.086v6.638c0 .18.146.326.326.326h2.722c.18 0 .327-.146.327-.326V9.036H8.9c.18 0 .326-.146.326-.326V6.08a.327.327 0 00-.325-.327h-2.44V4.214c0-.74.176-1.115 1.14-1.115h1.397c.18 0 .326-.147.326-.327V.33A.326.326 0 009 .003z"></path>
  </symbol>
  <symbol xmlns="http://www.w3.org/2000/svg" viewBox="0 0 14 14" id="inst">
    <path d="M11.93 0H1.324A1.33 1.33 0 000 1.325V11.93a1.33 1.33 0 001.325 1.326H11.93a1.33 1.33 0 001.326-1.326V1.325A1.33 1.33 0 0011.929 0zM6.626 3.976a2.659 2.659 0 012.651 2.651 2.659 2.659 0 01-2.65 2.651 2.659 2.659 0 01-2.652-2.65 2.659 2.659 0 012.651-2.652zm-4.97 7.953c-.199 0-.332-.132-.332-.331V5.965h1.392c-.066.199-.066.464-.066.662a3.988 3.988 0 003.976 3.977 3.988 3.988 0 003.977-3.977c0-.198 0-.463-.066-.662h1.391v5.633c0 .199-.132.331-.331.331h-9.94zm10.272-8.947c0 .2-.132.332-.331.332h-1.325c-.2 0-.332-.133-.332-.332V1.657c0-.199.133-.332.332-.332h1.325c.199 0 .331.133.331.332v1.325z"></path>
  </symbol>
</svg>