<svg width="64" height="56" viewBox="0 0 64 56" fill="none" xmlns="http://www.w3.org/2000/svg">
<circle opacity="0.14" cx="41.1332" cy="33.6423" r="22.1805" fill="#1DA4F7"/>
<path fill-rule="evenodd" clip-rule="evenodd" d="M31.6524 9.66461C31.6524 14.9951 27.321 19.3319 21.9972 19.3319C16.6717 19.3319 12.3393 14.9951 12.3393 9.66461C12.3393 4.33553 16.6718 0 21.9972 0C27.321 0 31.6523 4.33553 31.6524 9.66461ZM29.7706 9.66461C29.7706 5.37312 26.2835 1.88174 21.9972 1.88174C17.7093 1.88174 14.2211 5.37312 14.2211 9.66461C14.2211 13.9576 17.7094 17.4501 21.9972 17.4501C26.2835 17.4501 29.7706 13.9576 29.7706 9.66461ZM43.2053 29.232L39.8352 22.6126C39.6746 22.2972 39.3507 22.0986 38.9967 22.0986H21.9971H4.99728C4.64332 22.0986 4.31938 22.2972 4.15877 22.6126L0.788675 29.232C0.640206 29.5237 0.653943 29.8716 0.824993 30.1506C0.996043 30.4297 1.29985 30.5997 1.62708 30.5997H2.80148V47.2076C2.80148 47.7272 3.2227 48.1485 3.74235 48.1485H40.2487C40.7684 48.1485 41.1896 47.7272 41.1896 47.2076V30.5998H42.3667C42.694 30.5998 42.9979 30.4297 43.1688 30.1507C43.34 29.8716 43.3538 29.5237 43.2053 29.232ZM38.42 23.9803L40.8321 28.718H25.9439L23.5318 23.9803H38.42ZM5.57412 23.9803H20.4623L18.0501 28.718H3.16202L5.57412 23.9803ZM39.308 46.2668H22.938V41.0522C22.938 40.5326 22.5167 40.1113 21.9971 40.1113C21.4775 40.1113 21.0562 40.5326 21.0562 41.0522V46.2668H4.6834V30.5998H18.627C18.9809 30.5998 19.3049 30.4013 19.4655 30.0858L21.0562 26.9613V32.6033C21.0562 33.1228 21.4775 33.5441 21.9971 33.5441C22.5167 33.5441 22.938 33.1228 22.938 32.6033V26.9613L24.5287 30.0858C24.6893 30.4013 25.0132 30.5998 25.3672 30.5998H39.308V46.2668ZM13.9514 41.1141H8.59386C8.07422 41.1141 7.65299 41.5354 7.65299 42.055C7.65299 42.5745 8.07422 42.9958 8.59386 42.9958H13.9514C14.471 42.9958 14.8922 42.5745 14.8922 42.055C14.8922 41.5354 14.471 41.1141 13.9514 41.1141ZM17.7788 11.0757L20.2831 13.1985C20.4537 13.3431 20.6695 13.4217 20.8915 13.4217C20.9182 13.4217 20.945 13.4205 20.9718 13.4183C21.2215 13.3968 21.4523 13.2768 21.6131 13.0846L26.3259 7.45195C26.6594 7.05349 26.6066 6.46008 26.2081 6.12655C25.8096 5.79329 25.2163 5.84589 24.8828 6.24444L20.7776 11.1508L18.9957 9.64022C18.5993 9.30424 18.0055 9.35298 17.6697 9.74955C17.3335 10.146 17.3824 10.7396 17.7788 11.0757ZM7.58413 10.6055H3.51336C2.99372 10.6055 2.57249 10.1841 2.57249 9.66459C2.57249 9.14505 2.99372 8.72372 3.51336 8.72372H7.58413C8.10377 8.72372 8.525 9.14505 8.525 9.66459C8.525 10.1841 8.10377 10.6055 7.58413 10.6055ZM3.07457 4.05863L7.14533 6.2056C7.28533 6.27946 7.4354 6.31446 7.5835 6.31446C7.92127 6.31446 8.24794 6.13202 8.41654 5.81232C8.65891 5.3527 8.48287 4.78357 8.02326 4.5412L3.9524 2.39423C3.49297 2.15186 2.92365 2.32781 2.68128 2.78752C2.43892 3.24713 2.61495 3.81626 3.07457 4.05863ZM3.51427 17.0437C3.17622 17.0437 2.84955 16.861 2.68104 16.5411C2.43895 16.0814 2.61527 15.5124 3.07498 15.2702L7.14575 13.126C7.60546 12.8839 8.17449 13.0602 8.41667 13.52C8.65885 13.9797 8.48244 14.5487 8.02273 14.7909L3.95197 16.9352C3.81215 17.0088 3.66208 17.0437 3.51427 17.0437ZM36.4072 10.6055H40.478C40.9977 10.6055 41.4189 10.1841 41.4189 9.66459C41.4189 9.14505 40.9977 8.72372 40.478 8.72372H36.4072C35.8876 8.72372 35.4664 9.14505 35.4664 9.66459C35.4664 10.1841 35.8876 10.6055 36.4072 10.6055ZM36.8461 6.20558C36.7061 6.27944 36.5559 6.31444 36.4079 6.31444C36.07 6.31444 35.7436 6.13201 35.575 5.8123C35.3326 5.35268 35.5086 4.78355 35.9682 4.54118L40.039 2.39422C40.4986 2.15166 41.0677 2.32789 41.3101 2.7875C41.5525 3.24711 41.3765 3.81625 40.9168 4.05861L36.8461 6.20558ZM35.9687 14.7908L40.0395 16.9351C40.1794 17.0087 40.3293 17.0436 40.4771 17.0436C40.8152 17.0436 41.1419 16.861 41.3104 16.541C41.5526 16.0813 41.3761 15.5123 40.9164 15.2701L36.8457 13.1259C36.3859 12.8837 35.8169 13.06 35.5747 13.5199C35.3326 13.9796 35.509 14.5487 35.9687 14.7908ZM21.0562 36.8278C21.0562 36.3082 21.4774 35.8869 21.9971 35.8869C22.5167 35.8869 22.9379 36.3083 22.9379 36.8279C22.9379 37.3474 22.5167 37.7714 21.9971 37.7714C21.4774 37.7714 21.0562 37.3527 21.0562 36.8332V36.8278Z" fill="url(#paint0_linear)"/>
<defs>
<linearGradient id="paint0_linear" x1="6.32962" y1="-6.82468e-07" x2="39.9571" y2="51.2056" gradientUnits="userSpaceOnUse">
<stop stop-color="#1DC7FC"/>
<stop offset="0.786458" stop-color="#1D77F1"/>
</linearGradient>
</defs>
</svg>
