<svg width="36" height="33" viewBox="0 0 36 33" fill="none" xmlns="http://www.w3.org/2000/svg">
<g clip-path="url(#clip0)" filter="url(#filter0_d)">
<path d="M29.5456 8.64166H28.7931V16.9123C28.7931 18.2 28.0433 19.3644 26.5402 19.3644H11.8134V19.7577C11.8134 20.8961 13.1083 22.0454 14.4381 22.0454H25.6975L30.0049 24.5779L29.3803 22.0454H29.5456C30.8745 22.0454 31.4741 20.8988 31.4741 19.7577V10.605C31.4741 9.46649 30.8745 8.64166 29.5456 8.64166Z" fill="white"/>
<path d="M24.3417 2.89557H7.23687C5.73193 2.89557 4 4.23245 4 5.52108V15.8873C4 17.0741 5.46741 17.9311 6.87493 18.0633L5.95892 21.5405L11.8285 18.0875H24.3417C25.8466 18.0875 27.2354 17.175 27.2354 15.8873V7.5005V5.52108C27.2354 4.23245 25.8457 2.89557 24.3417 2.89557ZM9.84639 11.6461C8.99293 11.6461 8.30123 10.9544 8.30123 10.101C8.30123 9.24756 8.99293 8.55589 9.84639 8.55589C10.6989 8.55589 11.3915 9.24756 11.3915 10.101C11.3915 10.9544 10.6989 11.6461 9.84639 11.6461ZM15.6177 11.6461C14.7642 11.6461 14.0725 10.9544 14.0725 10.101C14.0725 9.24756 14.7642 8.55589 15.6177 8.55589C16.4712 8.55589 17.1629 9.24756 17.1629 10.101C17.1629 10.9544 16.4712 11.6461 15.6177 11.6461ZM21.3899 11.6461C20.5365 11.6461 19.8439 10.9544 19.8439 10.101C19.8439 9.24756 20.5365 8.55589 21.3899 8.55589C22.2416 8.55589 22.9351 9.24756 22.9351 10.101C22.9351 10.9544 22.2416 11.6461 21.3899 11.6461Z" fill="white"/>
</g>
<defs>
<filter id="filter0_d" x="0" y="0" width="35.4741" height="35.4741" filterUnits="userSpaceOnUse" color-interpolation-filters="sRGB">
<feFlood flood-opacity="0" result="BackgroundImageFix"/>
<feColorMatrix in="SourceAlpha" type="matrix" values="0 0 0 0 0 0 0 0 0 0 0 0 0 0 0 0 0 0 127 0"/>
<feOffset dy="4"/>
<feGaussianBlur stdDeviation="2"/>
<feColorMatrix type="matrix" values="0 0 0 0 0 0 0 0 0 0 0 0 0 0 0 0 0 0 0.25 0"/>
<feBlend mode="normal" in2="BackgroundImageFix" result="effect1_dropShadow"/>
<feBlend mode="normal" in="SourceGraphic" in2="effect1_dropShadow" result="shape"/>
</filter>
<clipPath id="clip0">
<rect width="27.4741" height="27.4741" fill="white" transform="translate(4)"/>
</clipPath>
</defs>
</svg>
