<svg width="15" height="15" viewBox="0 0 15 15" fill="none" xmlns="http://www.w3.org/2000/svg">
<path d="M14.177 10.9728L12.2676 8.90939C11.5856 8.17247 10.4263 8.46724 10.1536 9.42524C9.94898 10.0885 9.26704 10.4569 8.6533 10.3095C7.28943 9.94108 5.44821 8.02508 5.10724 6.47755C4.90266 5.81431 5.31182 5.07739 5.92556 4.85631C6.81208 4.56154 7.08485 3.30878 6.40292 2.57185L4.4935 0.508467C3.94795 -0.00737953 3.12963 -0.00737953 2.65227 0.508467L1.35659 1.90862C0.0609161 3.38247 1.49298 7.28816 4.69808 10.7517C7.90317 14.2152 11.5174 15.8365 12.8813 14.3626L14.177 12.9625C14.6543 12.3729 14.6543 11.4886 14.177 10.9728Z" fill="white"/>
</svg>
