<svg width="17" height="19" viewBox="0 0 17 19" fill="none" xmlns="http://www.w3.org/2000/svg">
<path d="M15.8692 10.7527C16.3866 6.39783 15.6207 3.64847 14.2391 2.40494L14.2399 2.40421C12.01 0.280595 4.47945 -0.0337211 1.81175 2.49959C0.613734 3.73879 0.191756 5.55749 0.145512 7.809C0.0992677 10.0612 0.0443528 14.2803 3.97583 15.4248H3.97944L3.97583 17.1727C3.97583 17.1727 3.94909 17.8808 4.40142 18.0232C4.91877 18.1908 5.15288 17.862 6.76204 15.94C9.45287 16.1734 11.5194 15.6387 11.7542 15.5607C12.2976 15.3786 15.3721 14.9718 15.8692 10.7527ZM7.02722 14.7102C7.02722 14.7102 5.32413 16.8338 4.79449 17.3852C4.62108 17.5643 4.43104 17.5477 4.43393 17.1922C4.43393 16.9588 4.44694 14.2904 4.44694 14.2904C1.11375 13.3352 1.31029 9.74258 1.34641 7.86319C1.38254 5.98308 1.72648 4.44329 2.74096 3.40641C5.08135 1.21198 11.6834 1.7026 13.3656 3.28357C15.422 5.10661 14.69 10.257 14.6944 10.4326C14.2717 13.9544 11.7802 14.1777 11.3221 14.3301C11.1263 14.3952 9.30908 14.8627 7.02722 14.7102Z" fill="white"/>
<path d="M7.96877 3.81897C7.69058 3.81897 7.69058 4.25251 7.96877 4.25612C10.1271 4.27274 11.9046 5.77712 11.9241 8.5366C11.9241 8.82779 12.3504 8.82418 12.3468 8.53298H12.3461C12.3229 5.55963 10.3821 3.83559 7.96877 3.81897Z" fill="white"/>
<path d="M10.8088 8.079C10.8023 8.36658 11.2279 8.38031 11.2315 8.08911C11.2669 6.44961 10.2561 5.09914 8.35645 4.9568C8.07826 4.93656 8.04936 5.37372 8.32682 5.39395C9.97427 5.51895 10.8421 6.64326 10.8088 8.079Z" fill="white"/>
<path d="M10.3535 9.94381C9.99657 9.73716 9.63312 9.86577 9.48283 10.0688L9.16851 10.4756C9.00882 10.6823 8.71041 10.6548 8.71041 10.6548C6.5326 10.0789 5.95021 7.79996 5.95021 7.79996C5.95021 7.79996 5.92347 7.49142 6.1229 7.32596L6.51598 7.0008C6.71251 6.84473 6.8368 6.46899 6.63664 6.09976C6.10195 5.13369 5.74283 4.80059 5.56002 4.5448C5.36782 4.30419 5.0788 4.25 4.77821 4.41257H4.77171C4.14669 4.77819 3.46242 5.46246 3.68136 6.16696C4.05492 6.90976 4.74136 9.2776 6.92928 11.0667C7.95749 11.9128 9.58471 12.7799 10.2755 12.98L10.282 12.9901C10.9626 13.217 11.6245 12.506 11.9778 11.8622V11.8572C12.1346 11.5457 12.0826 11.2509 11.8536 11.058C11.4475 10.662 10.8347 10.2249 10.3535 9.94381Z" fill="white"/>
<path d="M8.65377 6.56963C9.34815 6.6101 9.68487 6.97282 9.721 7.71779C9.734 8.00898 10.1567 7.98875 10.1437 7.69756C10.0975 6.72498 9.59021 6.18306 8.67689 6.13248C8.3987 6.11586 8.37269 6.55301 8.65377 6.56963Z" fill="white"/>
</svg>
