<svg width="508" height="83" viewBox="0 0 508 83" fill="none" xmlns="http://www.w3.org/2000/svg">
<path d="M37.9127 17.2184L37.4247 15.6731L37.9127 17.2184ZM27.7914 22.3524L28.7497 23.6593L28.757 23.6539L27.7914 22.3524ZM20.6038 30.4202L19.1993 29.6116L20.6038 30.4202ZM20.6038 52.423L19.1993 53.2317L20.6038 52.423ZM27.7914 60.6375L26.8054 61.9235L26.8291 61.9417L26.8535 61.959L27.7914 60.6375ZM37.9127 65.6248L38.4007 64.0794L37.9127 65.6248ZM60.209 65.6248L60.697 67.1701L60.209 65.6248ZM70.1836 60.6375L71.142 61.9443L71.1492 61.9389L70.1836 60.6375ZM77.5179 52.423L76.1135 51.6144L77.5179 52.423ZM77.5179 30.4202L76.1135 31.2288L77.5179 30.4202ZM70.1836 22.3524L69.1976 23.6385L69.2213 23.6567L69.2457 23.674L70.1836 22.3524ZM60.209 17.2184L60.697 15.6731H60.697L60.209 17.2184ZM65.4896 4.45675L65.0265 6.00972L65.0391 6.01346L65.0517 6.01701L65.4896 4.45675ZM92.0398 23.966L90.6429 24.7877L90.6502 24.7997L92.0398 23.966ZM92.0398 59.0239L93.4295 59.8577L93.4366 59.8456L92.0398 59.0239ZM80.745 71.1988L79.8138 69.8726V69.8726L80.745 71.1988ZM65.4896 78.2398L65.9021 79.807L65.4896 78.2398ZM32.632 78.2398L32.2196 79.807L32.632 78.2398ZM17.3767 71.1988L18.3079 69.8726L17.3767 71.1988ZM6.08185 59.0239L4.68498 59.8456L4.69223 59.8577L6.08185 59.0239ZM6.08185 23.966L7.47152 24.7998L7.47867 24.7876L6.08185 23.966ZM32.632 4.45675L33.07 6.01701L33.0826 6.01346L33.0952 6.00972L32.632 4.45675ZM49.0608 13.8376C45.1713 13.8376 41.2909 14.4522 37.4247 15.6731L38.4007 18.7638C41.9666 17.6377 45.5182 17.0788 49.0608 17.0788V13.8376ZM37.4247 15.6731C33.5426 16.899 30.0065 18.6911 26.8258 21.051L28.757 23.6539C31.6393 21.5154 34.8507 19.8848 38.4007 18.7638L37.4247 15.6731ZM26.833 21.0456C23.7132 23.3334 21.1671 26.1939 19.1993 29.6116L22.0082 31.2288C23.7565 28.1922 26.002 25.6742 28.7497 23.6593L26.833 21.0456ZM19.1993 29.6116C17.1855 33.1094 16.1962 37.0606 16.1962 41.4216H19.4373C19.4373 37.5682 20.306 34.1852 22.0082 31.2288L19.1993 29.6116ZM16.1962 41.4216C16.1962 45.7826 17.1855 49.7339 19.1993 53.2317L22.0082 51.6144C20.306 48.6581 19.4373 45.275 19.4373 41.4216H16.1962ZM19.1993 53.2317C21.1632 56.6425 23.7008 59.5434 26.8054 61.9235L28.7774 59.3514C26.0145 57.2332 23.7604 54.6577 22.0082 51.6144L19.1993 53.2317ZM26.8535 61.959C30.0289 64.2126 33.5558 65.9484 37.4247 67.1701L38.4007 64.0794C34.8375 62.9542 31.6168 61.3651 28.7293 59.3159L26.8535 61.959ZM37.4247 67.1701C41.2909 68.391 45.1713 69.0056 49.0608 69.0056V65.7645C45.5182 65.7645 41.9666 65.2055 38.4007 64.0794L37.4247 67.1701ZM49.0608 69.0056C52.9503 69.0056 56.8308 68.391 60.697 67.1701L59.721 64.0794C56.1551 65.2055 52.6034 65.7645 49.0608 65.7645V69.0056ZM60.697 67.1701C64.5697 65.9471 68.0557 64.2075 71.1419 61.9443L69.2253 59.3306C66.4441 61.3702 63.2803 62.9554 59.721 64.0794L60.697 67.1701ZM71.1492 61.9389C74.3567 59.5592 76.9518 56.6541 78.9223 53.2317L76.1135 51.6144C74.3679 54.6462 72.0735 57.2174 69.218 59.336L71.1492 61.9389ZM78.9223 53.2317C80.9362 49.7339 81.9255 45.7826 81.9255 41.4216H78.6844C78.6844 45.275 77.8156 48.6581 76.1135 51.6144L78.9223 53.2317ZM81.9255 41.4216C81.9255 37.0606 80.9362 33.1094 78.9223 29.6116L76.1135 31.2288C77.8156 34.1852 78.6844 37.5682 78.6844 41.4216H81.9255ZM78.9223 29.6116C76.9478 26.1822 74.344 23.3178 71.1215 21.0309L69.2457 23.674C72.0862 25.6898 74.3719 28.204 76.1135 31.2288L78.9223 29.6116ZM71.1696 21.0663C68.0783 18.6963 64.583 16.9003 60.697 15.6731L59.7209 18.7638C63.267 19.8836 66.4215 21.5102 69.1976 23.6385L71.1696 21.0663ZM60.697 15.6731C56.8308 14.4522 52.9503 13.8376 49.0608 13.8376V17.0788C52.6034 17.0788 56.1551 17.6377 59.721 18.7638L60.697 15.6731ZM49.0608 3.58366C54.2702 3.58366 59.5905 4.38847 65.0265 6.00972L65.9528 2.90378C60.2406 1.20015 54.6084 0.342529 49.0608 0.342529V3.58366ZM65.0517 6.01701C70.4548 7.53368 75.3722 9.85213 79.8138 12.9707L81.6762 10.3181C76.9254 6.98241 71.6726 4.50912 65.9276 2.89649L65.0517 6.01701ZM79.8138 12.9707C84.2146 16.0606 87.823 19.9936 90.643 24.7876L93.4366 23.1443C90.3892 17.9637 86.4676 13.6823 81.6762 10.3181L79.8138 12.9707ZM90.6502 24.7997C93.4071 29.3946 94.8198 34.9134 94.8198 41.4216H98.0609C98.0609 34.4347 96.5399 28.3164 93.4294 23.1322L90.6502 24.7997ZM94.8198 41.4216C94.8198 47.9288 93.4074 53.5027 90.643 58.2023L93.4366 59.8456C96.5396 54.5704 98.0609 48.4095 98.0609 41.4216H94.8198ZM90.6502 58.1901C87.8313 62.8883 84.2214 66.7778 79.8138 69.8726L81.6762 72.5251C86.4608 69.1657 90.3809 64.9386 93.4294 59.8577L90.6502 58.1901ZM79.8138 69.8726C75.379 72.9863 70.4704 75.2533 65.0772 76.6726L65.9021 79.807C71.657 78.2925 76.9186 75.8656 81.6762 72.5251L79.8138 69.8726ZM65.0772 76.6726C59.6282 78.1065 54.2905 78.8195 49.0608 78.8195V82.0606C54.5881 82.0606 60.203 81.3067 65.9021 79.807L65.0772 76.6726ZM49.0608 78.8195C43.8311 78.8195 38.4935 78.1065 33.0444 76.6726L32.2196 79.807C37.9187 81.3067 43.5336 82.0606 49.0608 82.0606V78.8195ZM33.0444 76.6726C27.6512 75.2533 22.7426 72.9863 18.3079 69.8726L16.4454 72.5251C21.203 75.8656 26.4646 78.2925 32.2196 79.807L33.0444 76.6726ZM18.3079 69.8726C13.9002 66.7778 10.2904 62.8883 7.47147 58.1901L4.69223 59.8577C7.74076 64.9386 11.6608 69.1657 16.4454 72.5251L18.3079 69.8726ZM7.47867 58.2023C4.71424 53.5027 3.30183 47.9288 3.30183 41.4216H0.0607071C0.0607071 48.4095 1.58201 54.5704 4.68503 59.8456L7.47867 58.2023ZM3.30183 41.4216C3.30183 34.9134 4.71456 29.3946 7.47147 24.7998L4.69223 23.1322C1.58169 28.3164 0.0607071 34.4347 0.0607071 41.4216H3.30183ZM7.47867 24.7876C10.2987 19.9936 13.907 16.0606 18.3079 12.9707L16.4454 10.3181C11.654 13.6823 7.73246 17.9637 4.68503 23.1443L7.47867 24.7876ZM18.3079 12.9707C22.7494 9.85213 27.6668 7.53368 33.07 6.01701L32.194 2.89649C26.449 4.50912 21.1962 6.98241 16.4454 10.3181L18.3079 12.9707ZM33.0952 6.00972C38.5311 4.38847 43.8514 3.58366 49.0608 3.58366V0.342529C43.5133 0.342529 37.881 1.20015 32.1688 2.90378L33.0952 6.00972ZM152.081 17.2184L151.593 15.6731L152.081 17.2184ZM141.96 22.3524L142.918 23.6593L142.926 23.6539L141.96 22.3524ZM134.772 30.4202L133.368 29.6116L134.772 30.4202ZM134.772 52.423L133.368 53.2317L134.772 52.423ZM141.96 60.6375L140.974 61.9235L140.998 61.9417L141.022 61.959L141.96 60.6375ZM152.081 65.6248L152.569 64.0794L152.081 65.6248ZM174.378 65.6248L174.866 67.1701L174.378 65.6248ZM184.352 60.6375L185.311 61.9443L185.318 61.9389L184.352 60.6375ZM191.687 52.423L190.282 51.6144H190.282L191.687 52.423ZM191.687 30.4202L190.282 31.2288H190.282L191.687 30.4202ZM184.352 22.3524L183.366 23.6385L183.39 23.6567L183.414 23.674L184.352 22.3524ZM174.378 17.2184L174.866 15.6731L174.378 17.2184ZM179.658 4.45675L179.195 6.00972L179.208 6.01346L179.22 6.01701L179.658 4.45675ZM206.208 23.966L204.812 24.7877L204.819 24.7997L206.208 23.966ZM206.208 59.0239L207.598 59.8577L207.605 59.8456L206.208 59.0239ZM194.914 71.1988L193.982 69.8726V69.8726L194.914 71.1988ZM179.658 78.2398L180.071 79.807L179.658 78.2398ZM146.801 78.2398L146.388 79.807L146.801 78.2398ZM131.545 71.1988L132.477 69.8726L131.545 71.1988ZM120.25 59.0239L118.854 59.8456L118.861 59.8577L120.25 59.0239ZM120.25 23.966L121.64 24.7998L121.647 24.7876L120.25 23.966ZM146.801 4.45675L147.239 6.01701L147.251 6.01346L147.264 6.00972L146.801 4.45675ZM163.229 13.8376C159.34 13.8376 155.46 14.4522 151.593 15.6731L152.569 18.7638C156.135 17.6377 159.687 17.0788 163.229 17.0788V13.8376ZM151.593 15.6731C147.711 16.899 144.175 18.6911 140.994 21.051L142.926 23.6539C145.808 21.5154 149.019 19.8848 152.569 18.7638L151.593 15.6731ZM141.002 21.0456C137.882 23.3334 135.336 26.1939 133.368 29.6116L136.177 31.2288C137.925 28.1922 140.171 25.6742 142.918 23.6593L141.002 21.0456ZM133.368 29.6116C131.354 33.1094 130.365 37.0606 130.365 41.4216H133.606C133.606 37.5682 134.475 34.1852 136.177 31.2288L133.368 29.6116ZM130.365 41.4216C130.365 45.7826 131.354 49.7339 133.368 53.2317L136.177 51.6144C134.475 48.6581 133.606 45.275 133.606 41.4216H130.365ZM133.368 53.2317C135.332 56.6425 137.869 59.5434 140.974 61.9235L142.946 59.3514C140.183 57.2332 137.929 54.6577 136.177 51.6144L133.368 53.2317ZM141.022 61.959C144.198 64.2126 147.724 65.9484 151.593 67.1701L152.569 64.0794C149.006 62.9542 145.785 61.3651 142.898 59.3159L141.022 61.959ZM151.593 67.1701C155.46 68.391 159.34 69.0056 163.229 69.0056V65.7645C159.687 65.7645 156.135 65.2055 152.569 64.0794L151.593 67.1701ZM163.229 69.0056C167.119 69.0056 170.999 68.391 174.866 67.1701L173.89 64.0794C170.324 65.2055 166.772 65.7645 163.229 65.7645V69.0056ZM174.866 67.1701C178.738 65.9471 182.224 64.2075 185.311 61.9443L183.394 59.3306C180.613 61.3702 177.449 62.9554 173.89 64.0794L174.866 67.1701ZM185.318 61.9389C188.525 59.5592 191.12 56.6541 193.091 53.2317L190.282 51.6144C188.537 54.6462 186.242 57.2174 183.387 59.336L185.318 61.9389ZM193.091 53.2317C195.105 49.7339 196.094 45.7826 196.094 41.4216H192.853C192.853 45.275 191.984 48.6581 190.282 51.6144L193.091 53.2317ZM196.094 41.4216C196.094 37.0606 195.105 33.1094 193.091 29.6116L190.282 31.2288C191.984 34.1852 192.853 37.5682 192.853 41.4216H196.094ZM193.091 29.6116C191.116 26.1822 188.513 23.3178 185.29 21.0309L183.414 23.674C186.255 25.6898 188.541 28.204 190.282 31.2288L193.091 29.6116ZM185.338 21.0663C182.247 18.6963 178.752 16.9003 174.866 15.6731L173.89 18.7638C177.436 19.8836 180.59 21.5102 183.366 23.6385L185.338 21.0663ZM174.866 15.6731C170.999 14.4522 167.119 13.8376 163.229 13.8376V17.0788C166.772 17.0788 170.324 17.6377 173.89 18.7638L174.866 15.6731ZM163.229 3.58366C168.439 3.58366 173.759 4.38847 179.195 6.00972L180.121 2.90378C174.409 1.20015 168.777 0.342529 163.229 0.342529V3.58366ZM179.22 6.01701C184.623 7.53368 189.541 9.85213 193.982 12.9707L195.845 10.3181C191.094 6.98241 185.841 4.50912 180.096 2.89649L179.22 6.01701ZM193.982 12.9707C198.383 16.0606 201.992 19.9936 204.812 24.7876L207.605 23.1443C204.558 17.9637 200.636 13.6823 195.845 10.3181L193.982 12.9707ZM204.819 24.7997C207.576 29.3946 208.988 34.9134 208.988 41.4216H212.23C212.23 34.4347 210.709 28.3164 207.598 23.1322L204.819 24.7997ZM208.988 41.4216C208.988 47.9288 207.576 53.5027 204.812 58.2023L207.605 59.8456C210.708 54.5704 212.23 48.4095 212.23 41.4216H208.988ZM204.819 58.1901C202 62.8883 198.39 66.7778 193.982 69.8726L195.845 72.5251C200.629 69.1657 204.549 64.9386 207.598 59.8577L204.819 58.1901ZM193.982 69.8726C189.548 72.9863 184.639 75.2533 179.246 76.6726L180.071 79.807C185.826 78.2925 191.087 75.8656 195.845 72.5251L193.982 69.8726ZM179.246 76.6726C173.797 78.1065 168.459 78.8195 163.229 78.8195V82.0606C168.757 82.0606 174.372 81.3067 180.071 79.807L179.246 76.6726ZM163.229 78.8195C158 78.8195 152.662 78.1065 147.213 76.6726L146.388 79.807C152.087 81.3067 157.702 82.0606 163.229 82.0606V78.8195ZM147.213 76.6726C141.82 75.2533 136.911 72.9863 132.477 69.8726L130.614 72.5251C135.372 75.8656 140.633 78.2925 146.388 79.807L147.213 76.6726ZM132.477 69.8726C128.069 66.7778 124.459 62.8883 121.64 58.1901L118.861 59.8577C121.909 64.9386 125.829 69.1657 130.614 72.5251L132.477 69.8726ZM121.647 58.2023C118.883 53.5027 117.47 47.9288 117.47 41.4216H114.229C114.229 48.4095 115.751 54.5704 118.854 59.8456L121.647 58.2023ZM117.47 41.4216C117.47 34.9134 118.883 29.3946 121.64 24.7998L118.861 23.1322C115.75 28.3164 114.229 34.4347 114.229 41.4216H117.47ZM121.647 24.7876C124.467 19.9936 128.076 16.0606 132.477 12.9707L130.614 10.3181C125.823 13.6823 121.901 17.9637 118.854 23.1443L121.647 24.7876ZM132.477 12.9707C136.918 9.85213 141.835 7.53368 147.239 6.01701L146.363 2.89649C140.618 4.50912 135.365 6.98241 130.614 10.3181L132.477 12.9707ZM147.264 6.00972C152.7 4.38847 158.02 3.58366 163.229 3.58366V0.342529C157.682 0.342529 152.05 1.20015 146.337 2.90378L147.264 6.00972ZM279.598 40.8349L280.353 42.2689L280.366 42.262L280.379 42.2548L279.598 40.8349ZM279.598 28.2199L278.683 29.5573L278.723 29.5846L278.765 29.6095L279.598 28.2199ZM247.914 26.313V24.6924H246.294V26.313H247.914ZM247.914 42.3017H246.294V43.9223H247.914V42.3017ZM230.165 18.0985H228.545V19.7191H230.165V18.0985ZM230.165 15.4582V13.8376H228.545V15.4582H230.165ZM290.6 19.7121L289.649 21.0241L289.656 21.0297L289.664 21.0351L290.6 19.7121ZM290.6 49.196L291.506 50.5392L291.514 50.5342L290.6 49.196ZM247.914 53.1565V51.5359H246.294V53.1565H247.914ZM250.995 77.3596H252.615V75.7391H250.995V77.3596ZM250.995 80V81.6206H252.615V80H250.995ZM230.165 80H228.545V81.6206H230.165V80ZM230.165 77.3596V75.7391H228.545V77.3596H230.165ZM272.557 43.9223C275.568 43.9223 278.195 43.4047 280.353 42.2689L278.844 39.4008C277.285 40.2209 275.218 40.6812 272.557 40.6812V43.9223ZM280.379 42.2548C283.051 40.7851 284.153 37.9799 284.153 34.5274H280.912C280.912 37.3335 280.057 38.7332 278.817 39.4149L280.379 42.2548ZM284.153 34.5274C284.153 31.1386 283.034 28.3913 280.432 26.8302L278.765 29.6095C280.074 30.3954 280.912 31.8531 280.912 34.5274H284.153ZM280.513 26.8824C278.323 25.3839 275.635 24.6924 272.557 24.6924V27.9335C275.152 27.9335 277.157 28.5132 278.683 29.5573L280.513 26.8824ZM272.557 24.6924H247.914V27.9335H272.557V24.6924ZM246.294 26.313V42.3017H249.535V26.313H246.294ZM247.914 43.9223H272.557V40.6812H247.914V43.9223ZM235.453 20.2988C235.453 19.0164 234.866 17.9288 233.749 17.259C232.765 16.6683 231.497 16.478 230.165 16.478V19.7191C231.278 19.7191 231.844 19.8955 232.082 20.0382C232.132 20.0684 232.159 20.0918 232.171 20.1039C232.182 20.1153 232.185 20.1213 232.187 20.1232C232.188 20.1253 232.193 20.135 232.199 20.1585C232.204 20.1832 232.212 20.228 232.212 20.2988L235.453 20.2988ZM231.786 18.0985V15.4582H228.545V18.0985H231.786ZM230.165 17.0788L272.851 17.0788V13.8376L230.165 13.8376V17.0788ZM272.851 17.0788C280.63 17.0788 286.14 18.4806 289.649 21.0241L291.551 18.4001C287.236 15.2718 280.914 13.8376 272.851 13.8376V17.0788ZM289.664 21.0351C293.078 23.4498 294.993 27.7691 294.993 34.5274H298.234C298.234 27.2037 296.141 21.6463 291.536 18.389L289.664 21.0351ZM294.993 34.5274C294.993 41.2904 293.076 45.5424 289.686 47.8577L291.514 50.5342C296.142 47.3733 298.234 41.8461 298.234 34.5274H294.993ZM289.693 47.8528C286.176 50.227 280.645 51.5359 272.851 51.5359V54.777C280.898 54.777 287.201 53.4456 291.506 50.5392L289.693 47.8528ZM272.851 51.5359H247.914V54.777H272.851V51.5359ZM246.294 53.1565L246.294 75.1594H249.535V53.1565H246.294ZM246.294 75.1594C246.294 76.3187 246.73 77.4049 247.742 78.1283C248.655 78.78 249.824 78.9802 250.995 78.9802V75.7391C250.112 75.7391 249.741 75.5726 249.626 75.4909C249.587 75.4631 249.581 75.4486 249.575 75.4367C249.566 75.4162 249.535 75.3378 249.535 75.1594H246.294ZM249.374 77.3596V80H252.615V77.3596H249.374ZM250.995 78.3794H230.165V81.6206H250.995V78.3794ZM231.786 80V77.3596H228.545V80H231.786ZM230.165 78.9802C231.497 78.9802 232.765 78.7899 233.749 78.1992C234.866 77.5294 235.453 76.4418 235.453 75.1594H232.212C232.212 75.2302 232.204 75.275 232.199 75.2997C232.193 75.3232 232.188 75.3329 232.187 75.335C232.185 75.3369 232.182 75.3429 232.171 75.3543C232.159 75.3664 232.132 75.3898 232.082 75.42C231.844 75.5627 231.278 75.7391 230.165 75.7391V78.9802ZM235.453 75.1594L235.453 20.2988L232.212 20.2988L232.212 75.1594H235.453ZM318.127 57.5571H319.748V56.3078L318.54 55.9898L318.127 57.5571ZM317.981 58.8772L316.392 58.5594L316.36 58.7168V58.8772H317.981ZM320.768 64.3046L319.853 65.6421L319.877 65.6589L319.902 65.6748L320.768 64.3046ZM327.369 67.385L326.839 68.9164L326.873 68.9284L326.908 68.9388L327.369 67.385ZM335.143 69.2919L334.837 70.8834L334.848 70.8854L335.143 69.2919ZM346.291 69.732L346.138 68.1187L346.13 68.1195L346.291 69.732ZM352.305 68.5585L352.771 70.1107L352.806 70.1002L352.841 70.0881L352.305 68.5585ZM357.293 65.9182L358.294 67.1924L358.321 67.1711L358.347 67.1486L357.293 65.9182ZM355.679 56.6769L355.056 58.1728L355.066 58.1773L355.077 58.1816L355.679 56.6769ZM346.731 54.4766L346.472 56.0763L346.493 56.0798L346.514 56.0826L346.731 54.4766ZM334.996 52.8631L334.772 54.4681L334.791 54.4707L334.809 54.4728L334.996 52.8631ZM323.261 50.2228L322.724 51.7517L322.743 51.7582L322.762 51.7643L323.261 50.2228ZM314.167 44.9421L313.021 46.088L313.045 46.1118L313.07 46.1347L314.167 44.9421ZM318.421 20.1521L317.477 18.8351L318.421 20.1521ZM352.012 15.7516L351.63 17.3265L351.658 17.3332L351.685 17.3388L352.012 15.7516ZM365.8 20.5922L364.996 21.9992L365.054 22.0324L365.115 22.0607L365.8 20.5922ZM370.788 21.3256L371.512 22.7751L371.643 22.7098L371.76 22.6221L370.788 21.3256ZM372.255 20.4455L373.4 19.2996L372.575 18.4737L371.53 18.996L372.255 20.4455ZM373.868 22.0591L375.299 22.8201L375.862 21.7612L375.014 20.9132L373.868 22.0591ZM366.534 35.8475L366.021 37.3849L367.321 37.8182L367.965 36.6086L366.534 35.8475ZM363.893 34.9674L362.295 35.2338L362.455 36.1963L363.381 36.5048L363.893 34.9674ZM363.6 33.2072L365.199 32.9408L363.6 33.2072ZM362.28 31.447L361.23 32.6817L361.268 32.7137L361.308 32.7434L362.28 31.447ZM333.823 25.8729L334.002 27.4835L334.046 27.4787L334.089 27.4714L333.823 25.8729ZM329.129 27.0464L328.491 25.5568L329.129 27.0464ZM325.902 29.3934L327.113 30.47L327.141 30.4386L327.167 30.4057L325.902 29.3934ZM328.249 37.4611L327.626 38.957L327.662 38.9723L327.7 38.9858L328.249 37.4611ZM337.343 39.6614L337.084 41.261L337.105 41.2645L337.126 41.2673L337.343 39.6614ZM349.078 41.2749L348.854 42.8799L348.873 42.8825L348.891 42.8846L349.078 41.2749ZM369.761 49.4893L368.592 50.6116L368.603 50.6236L368.615 50.6352L369.761 49.4893ZM370.201 70.172L368.927 69.1708L368.915 69.1851L368.905 69.1997L370.201 70.172ZM362.427 76.6262L361.702 75.1768L362.427 76.6262ZM352.012 79.7066L351.806 78.0992L351.801 78.0999L352.012 79.7066ZM331.476 79.5599L331.14 81.1452L331.167 81.151L331.194 81.1558L331.476 79.5599ZM322.528 77.3596L322.016 78.8971L322.049 78.9082L322.083 78.9179L322.528 77.3596ZM315.78 75.0127L315.152 76.5062L315.186 76.5206L315.22 76.5333L315.78 75.0127ZM310.646 74.7193L309.705 76.038L310.929 76.9123L311.891 75.7568L310.646 74.7193ZM308.593 73.2524L307.094 72.6368L306.606 73.8247L307.651 74.5712L308.593 73.2524ZM315.34 56.8236L315.753 55.2564L314.381 54.8953L313.841 56.2079L315.34 56.8236ZM316.507 57.5571C316.507 57.8171 316.474 58.1481 316.392 58.5594L319.57 59.195C319.683 58.6284 319.748 58.0793 319.748 57.5571H316.507ZM316.36 58.8772C316.36 58.878 316.36 58.8788 316.36 58.8795C316.36 58.8803 316.36 58.8811 316.36 58.8818C316.36 58.8826 316.36 58.8833 316.36 58.8841C316.36 58.8849 316.36 58.8856 316.36 58.8864C316.36 58.8872 316.36 58.8879 316.36 58.8887C316.36 58.8895 316.36 58.8902 316.36 58.891C316.36 58.8918 316.36 58.8925 316.36 58.8933C316.36 58.8941 316.36 58.8948 316.36 58.8956C316.36 58.8964 316.36 58.8971 316.36 58.8979C316.36 58.8987 316.36 58.8994 316.36 58.9002C316.36 58.901 316.36 58.9017 316.36 58.9025C316.36 58.9033 316.36 58.904 316.36 58.9048C316.36 58.9056 316.36 58.9063 316.36 58.9071C316.36 58.9079 316.36 58.9087 316.36 58.9094C316.36 58.9102 316.36 58.911 316.36 58.9117C316.36 58.9125 316.36 58.9133 316.36 58.914C316.36 58.9148 316.36 58.9156 316.36 58.9164C316.36 58.9171 316.36 58.9179 316.36 58.9187C316.36 58.9194 316.36 58.9202 316.36 58.921C316.36 58.9217 316.36 58.9225 316.36 58.9233C316.36 58.9241 316.36 58.9248 316.36 58.9256C316.36 58.9264 316.36 58.9271 316.36 58.9279C316.36 58.9287 316.36 58.9295 316.36 58.9302C316.36 58.931 316.36 58.9318 316.36 58.9326C316.36 58.9333 316.36 58.9341 316.36 58.9349C316.36 58.9356 316.36 58.9364 316.36 58.9372C316.36 58.938 316.36 58.9387 316.36 58.9395C316.36 58.9403 316.36 58.9411 316.36 58.9418C316.36 58.9426 316.36 58.9434 316.36 58.9442C316.36 58.9449 316.36 58.9457 316.36 58.9465C316.36 58.9473 316.36 58.948 316.36 58.9488C316.36 58.9496 316.36 58.9504 316.36 58.9511C316.36 58.9519 316.36 58.9527 316.36 58.9535C316.36 58.9542 316.36 58.955 316.36 58.9558C316.36 58.9566 316.36 58.9574 316.36 58.9581C316.36 58.9589 316.36 58.9597 316.36 58.9605C316.36 58.9612 316.36 58.962 316.36 58.9628C316.36 58.9636 316.36 58.9644 316.36 58.9651C316.36 58.9659 316.36 58.9667 316.36 58.9675C316.36 58.9682 316.36 58.969 316.36 58.9698C316.36 58.9706 316.36 58.9714 316.36 58.9721C316.36 58.9729 316.36 58.9737 316.36 58.9745C316.36 58.9753 316.36 58.976 316.36 58.9768C316.36 58.9776 316.36 58.9784 316.36 58.9792C316.36 58.9799 316.36 58.9807 316.36 58.9815C316.36 58.9823 316.36 58.9831 316.36 58.9838C316.36 58.9846 316.36 58.9854 316.36 58.9862C316.36 58.987 316.36 58.9877 316.36 58.9885C316.36 58.9893 316.36 58.9901 316.36 58.9909C316.36 58.9917 316.36 58.9924 316.36 58.9932C316.36 58.994 316.36 58.9948 316.36 58.9956C316.36 58.9964 316.36 58.9971 316.36 58.9979C316.36 58.9987 316.36 58.9995 316.36 59.0003C316.36 59.0011 316.36 59.0018 316.36 59.0026C316.36 59.0034 316.36 59.0042 316.36 59.005C316.36 59.0058 316.36 59.0065 316.36 59.0073C316.36 59.0081 316.36 59.0089 316.36 59.0097C316.36 59.0105 316.36 59.0113 316.36 59.012C316.36 59.0128 316.36 59.0136 316.36 59.0144C316.36 59.0152 316.36 59.016 316.36 59.0168C316.36 59.0175 316.36 59.0183 316.36 59.0191C316.36 59.0199 316.36 59.0207 316.36 59.0215C316.36 59.0223 316.36 59.0231 316.36 59.0238C316.36 59.0246 316.36 59.0254 316.36 59.0262C316.36 59.027 316.36 59.0278 316.36 59.0286C316.36 59.0294 316.36 59.0301 316.36 59.0309C316.36 59.0317 316.36 59.0325 316.36 59.0333C316.36 59.0341 316.36 59.0349 316.36 59.0357C316.36 59.0365 316.36 59.0372 316.36 59.038C316.36 59.0388 316.36 59.0396 316.36 59.0404C316.36 59.0412 316.36 59.042 316.36 59.0428C316.36 59.0436 316.36 59.0444 316.36 59.0452C316.36 59.0459 316.36 59.0467 316.36 59.0475C316.36 59.0483 316.36 59.0491 316.36 59.0499C316.36 59.0507 316.36 59.0515 316.36 59.0523C316.36 59.0531 316.36 59.0539 316.36 59.0546C316.36 59.0554 316.36 59.0562 316.36 59.057C316.36 59.0578 316.36 59.0586 316.36 59.0594C316.36 59.0602 316.36 59.061 316.36 59.0618C316.36 59.0626 316.36 59.0634 316.36 59.0642C316.36 59.065 316.36 59.0658 316.36 59.0666C316.36 59.0673 316.36 59.0681 316.36 59.0689C316.36 59.0697 316.36 59.0705 316.36 59.0713C316.36 59.0721 316.36 59.0729 316.36 59.0737C316.36 59.0745 316.36 59.0753 316.36 59.0761C316.36 59.0769 316.36 59.0777 316.36 59.0785C316.36 59.0793 316.36 59.0801 316.36 59.0809C316.36 59.0817 316.36 59.0825 316.36 59.0833C316.36 59.0841 316.36 59.0848 316.36 59.0856C316.36 59.0864 316.36 59.0872 316.36 59.088C316.36 59.0888 316.36 59.0896 316.36 59.0904C316.36 59.0912 316.36 59.092 316.36 59.0928C316.36 59.0936 316.36 59.0944 316.36 59.0952C316.36 59.096 316.36 59.0968 316.36 59.0976C316.36 59.0984 316.36 59.0992 316.36 59.1C316.36 59.1008 316.36 59.1016 316.36 59.1024C316.36 59.1032 316.36 59.104 316.36 59.1048C316.36 59.1056 316.36 59.1064 316.36 59.1072C316.36 59.108 316.36 59.1088 316.36 59.1096C316.36 59.1104 316.36 59.1112 316.36 59.112C316.36 59.1128 316.36 59.1136 316.36 59.1144C316.36 59.1152 316.36 59.116 316.36 59.1168C316.36 59.1176 316.36 59.1184 316.36 59.1192C316.36 59.12 316.36 59.1208 316.36 59.1216C316.36 59.1224 316.36 59.1233 316.36 59.1241C316.36 59.1249 316.36 59.1257 316.36 59.1265C316.36 59.1273 316.36 59.1281 316.36 59.1289C316.36 59.1297 316.36 59.1305 316.36 59.1313C316.36 59.1321 316.36 59.1329 316.36 59.1337C316.36 59.1345 316.36 59.1353 316.36 59.1361C316.36 59.1369 316.36 59.1377 316.36 59.1385C316.36 59.1393 316.36 59.1401 316.36 59.1409C316.36 59.1418 316.36 59.1426 316.36 59.1434C316.36 59.1442 316.36 59.145 316.36 59.1458C316.36 59.1466 316.36 59.1474 316.36 59.1482C316.36 59.149 316.36 59.1498 316.36 59.1506C316.36 59.1514 316.36 59.1522 316.36 59.153C316.36 59.1539 316.36 59.1547 316.36 59.1555C316.36 59.1563 316.36 59.1571 316.36 59.1579C316.36 59.1587 316.36 59.1595 316.36 59.1603C316.36 59.1611 316.36 59.1619 316.36 59.1628C316.36 59.1636 316.36 59.1644 316.36 59.1652C316.36 59.166 316.36 59.1668 316.36 59.1676C316.36 59.1684 316.36 59.1692 316.36 59.17C316.36 59.1708 316.36 59.1717 316.36 59.1725C316.36 59.1733 316.36 59.1741 316.36 59.1749C316.36 59.1757 316.36 59.1765 316.36 59.1773C316.36 59.1781 316.36 59.179 316.36 59.1798C316.36 59.1806 316.36 59.1814 316.36 59.1822C316.36 59.183 316.36 59.1838 316.36 59.1846C316.36 59.1855 316.36 59.1863 316.36 59.1871C316.36 59.1879 316.36 59.1887 316.36 59.1895C316.36 59.1903 316.36 59.1911 316.36 59.192C316.36 59.1928 316.36 59.1936 316.36 59.1944C316.36 59.1952 316.36 59.196 316.36 59.1968C316.36 59.1977 316.36 59.1985 316.36 59.1993C316.36 59.2001 316.36 59.2009 316.36 59.2017C316.36 59.2025 316.36 59.2034 316.36 59.2042C316.36 59.205 316.36 59.2058 316.36 59.2066C316.36 59.2074 316.36 59.2083 316.36 59.2091C316.36 59.2099 316.36 59.2107 316.36 59.2115C316.36 59.2123 316.36 59.2132 316.36 59.214C316.36 59.2148 316.36 59.2156 316.36 59.2164C316.36 59.2172 316.36 59.2181 316.36 59.2189C316.36 59.2197 316.36 59.2205 316.36 59.2213C316.36 59.2221 316.36 59.223 316.36 59.2238C316.36 59.2246 316.36 59.2254 316.36 59.2262C316.36 59.2271 316.36 59.2279 316.36 59.2287C316.36 59.2295 316.36 59.2303 316.36 59.2312C316.36 59.232 316.36 59.2328 316.36 59.2336C316.36 59.2344 316.36 59.2353 316.36 59.2361C316.36 59.2369 316.36 59.2377 316.36 59.2385C316.36 59.2394 316.36 59.2402 316.36 59.241C316.36 59.2418 316.36 59.2426 316.36 59.2435C316.36 59.2443 316.36 59.2451 316.36 59.2459C316.36 59.2467 316.36 59.2476 316.36 59.2484C316.36 59.2492 316.36 59.25 316.36 59.2509C316.36 59.2517 316.36 59.2525 316.36 59.2533C316.36 59.2542 316.36 59.255 316.36 59.2558C316.36 59.2566 316.36 59.2574 316.36 59.2583C316.36 59.2591 316.36 59.2599 316.36 59.2607C316.36 59.2616 316.36 59.2624 316.36 59.2632C316.36 59.264 316.36 59.2649 316.36 59.2657C316.36 59.2665 316.36 59.2673 316.36 59.2682C316.36 59.269 316.36 59.2698 316.36 59.2706C316.36 59.2715 316.36 59.2723 316.36 59.2731C316.36 59.2739 316.36 59.2748 316.36 59.2756C316.36 59.2764 316.36 59.2772 316.36 59.2781C316.36 59.2789 316.36 59.2797 316.36 59.2806C316.36 59.2814 316.36 59.2822 316.36 59.283C316.36 59.2839 316.36 59.2847 316.36 59.2855C316.36 59.2863 316.36 59.2872 316.36 59.288C316.36 59.2888 316.36 59.2897 316.36 59.2905C316.36 59.2913 316.36 59.2921 316.36 59.293C316.36 59.2938 316.36 59.2946 316.36 59.2955C316.36 59.2963 316.36 59.2971 316.36 59.298C316.36 59.2988 316.36 59.2996 316.36 59.3004C316.36 59.3013 316.36 59.3021 316.36 59.3029C316.36 59.3038 316.36 59.3046 316.36 59.3054C316.36 59.3063 316.36 59.3071 316.36 59.3079C316.36 59.3087 316.36 59.3096 316.36 59.3104C316.36 59.3112 316.36 59.3121 316.36 59.3129C316.36 59.3137 316.36 59.3146 316.36 59.3154C316.36 59.3162 316.36 59.3171 316.36 59.3179C316.36 59.3187 316.36 59.3196 316.36 59.3204C316.36 59.3212 316.36 59.3221 316.36 59.3229C316.36 59.3237 316.36 59.3246 316.36 59.3254C316.36 59.3262 316.36 59.3271 316.36 59.3279C316.36 59.3287 316.36 59.3296 316.36 59.3304C316.36 59.3312 316.36 59.3321 316.36 59.3329C316.36 59.3337 316.36 59.3346 316.36 59.3354C316.36 59.3362 316.36 59.3371 316.36 59.3379C316.36 59.3387 316.36 59.3396 316.36 59.3404C316.36 59.3413 316.36 59.3421 316.36 59.3429C316.36 59.3438 316.36 59.3446 316.36 59.3454C316.36 59.3463 316.36 59.3471 316.36 59.3479C316.36 59.3488 316.36 59.3496 316.36 59.3505C316.36 59.3513 316.36 59.3521 316.36 59.353C316.36 59.3538 316.36 59.3547 316.36 59.3555C316.36 59.3563 316.36 59.3572 316.36 59.358C316.36 59.3588 316.36 59.3597 316.36 59.3605C316.36 59.3614 316.36 59.3622 316.36 59.363C316.36 59.3639 316.36 59.3647 316.36 59.3656C316.36 59.3664 316.36 59.3672 316.36 59.3681C316.36 59.3689 316.36 59.3698 316.36 59.3706C316.36 59.3714 316.36 59.3723 316.36 59.3731C316.36 59.374 316.36 59.3748 316.36 59.3756C316.36 59.3765 316.36 59.3773 316.36 59.3782C316.36 59.379 316.36 59.3799 316.36 59.3807C316.36 59.3815 316.36 59.3824 316.36 59.3832C316.36 59.3841 316.36 59.3849 316.36 59.3857C316.36 59.3866 316.36 59.3874 316.36 59.3883C316.36 59.3891 316.36 59.39 316.36 59.3908C316.36 59.3916 316.36 59.3925 316.36 59.3933C316.36 59.3942 316.36 59.395 316.36 59.3959C316.36 59.3967 316.36 59.3976 316.36 59.3984C316.36 59.3992 316.36 59.4001 316.36 59.4009C316.36 59.4018 316.36 59.4026 316.36 59.4035C316.36 59.4043 316.36 59.4052 316.36 59.406C316.36 59.4069 316.36 59.4077 316.36 59.4085C316.36 59.4094 316.36 59.4102 316.36 59.4111C316.36 59.4119 316.36 59.4128 316.36 59.4136C316.36 59.4145 316.36 59.4153 316.36 59.4162C316.36 59.417 316.36 59.4179 316.36 59.4187C316.36 59.4196 316.36 59.4204 316.36 59.4212C316.36 59.4221 316.36 59.4229 316.36 59.4238C316.36 59.4246 316.36 59.4255 316.36 59.4263C316.36 59.4272 316.36 59.428 316.36 59.4289C316.36 59.4297 316.36 59.4306 316.36 59.4314C316.36 59.4323 316.36 59.4331 316.36 59.434C316.36 59.4348 316.36 59.4357 316.36 59.4365C316.36 59.4374 316.36 59.4382 316.36 59.4391C316.36 59.4399 316.36 59.4408 316.36 59.4416C316.36 59.4425 316.36 59.4433 316.36 59.4442C316.36 59.445 316.36 59.4459 316.36 59.4467C316.36 59.4476 316.36 59.4484 316.36 59.4493C316.36 59.4501 316.36 59.451 316.36 59.4519C316.36 59.4527 316.36 59.4536 316.36 59.4544C316.36 59.4553 316.36 59.4561 316.36 59.457C316.36 59.4578 316.36 59.4587 316.36 59.4595C316.36 59.4604 316.36 59.4612 316.36 59.4621C316.36 59.4629 316.36 59.4638 316.36 59.4647C316.36 59.4655 316.36 59.4664 316.36 59.4672C316.36 59.4681 316.36 59.4689 316.36 59.4698C316.36 59.4706 316.36 59.4715 316.36 59.4724C316.36 59.4732 316.36 59.4741 316.36 59.4749C316.36 59.4758 316.36 59.4766 316.36 59.4775C316.36 59.4783 316.36 59.4792 316.36 59.48C316.36 59.4809 316.36 59.4818 316.36 59.4826C316.36 59.4835 316.36 59.4843 316.36 59.4852C316.36 59.4861 316.36 59.4869 316.36 59.4878C316.36 59.4886 316.36 59.4895 316.36 59.4903C316.36 59.4912 316.36 59.4921 316.36 59.4929C316.36 59.4938 316.36 59.4946 316.36 59.4955C316.36 59.4963 316.36 59.4972 316.36 59.4981C316.36 59.4989 316.36 59.4998 316.36 59.5006C316.36 59.5015 316.36 59.5024 316.36 59.5032C316.36 59.5041 316.36 59.5049 316.36 59.5058C316.36 59.5067 316.36 59.5075 316.36 59.5084C316.36 59.5092 316.36 59.5101 316.36 59.511C316.36 59.5118 316.36 59.5127 316.36 59.5135C316.36 59.5144 316.36 59.5153 316.36 59.5161C316.36 59.517 316.36 59.5179 316.36 59.5187C316.36 59.5196 316.36 59.5204 316.36 59.5213C316.36 59.5222 316.36 59.523 316.36 59.5239C316.36 59.5248 316.36 59.5256 316.36 59.5265C316.36 59.5273 316.36 59.5282 316.36 59.5291C316.36 59.5299 316.36 59.5308 316.36 59.5317C316.36 59.5325 316.36 59.5334 316.36 59.5343C316.36 59.5351 316.36 59.536 316.36 59.5368C316.36 59.5377 316.36 59.5386 316.36 59.5394C316.36 59.5403 316.36 59.5412 316.36 59.542C316.36 59.5429 316.36 59.5438 316.36 59.5446C316.36 59.5455 316.36 59.5464 316.36 59.5472C316.36 59.5481 316.36 59.549 316.36 59.5498C316.36 59.5507 316.36 59.5516 316.36 59.5524C316.36 59.5533 316.36 59.5542 316.36 59.555C316.36 59.5559 316.36 59.5568 316.36 59.5576C316.36 59.5585 316.36 59.5594 316.36 59.5602C316.36 59.5611 316.36 59.562 316.36 59.5629C316.36 59.5637 316.36 59.5646 316.36 59.5655C316.36 59.5663 316.36 59.5672 316.36 59.5681C316.36 59.5689 316.36 59.5698 316.36 59.5707C316.36 59.5715 316.36 59.5724 316.36 59.5733C316.36 59.5742 316.36 59.575 316.36 59.5759C316.36 59.5768 316.36 59.5776 316.36 59.5785C316.36 59.5794 316.36 59.5802 316.36 59.5811C316.36 59.582 316.36 59.5829 316.36 59.5837C316.36 59.5846 316.36 59.5855 316.36 59.5863C316.36 59.5872 316.36 59.5881 316.36 59.589C316.36 59.5898 316.36 59.5907 316.36 59.5916C316.36 59.5924 316.36 59.5933 316.36 59.5942C316.36 59.5951 316.36 59.5959 316.36 59.5968C316.36 59.5977 316.36 59.5986 316.36 59.5994C316.36 59.6003 316.36 59.6012 316.36 59.6021C316.36 59.6029 316.36 59.6038 316.36 59.6047C316.36 59.6056 316.36 59.6064 316.36 59.6073C316.36 59.6082 316.36 59.609 316.36 59.6099C316.36 59.6108 316.36 59.6117 316.36 59.6125C316.36 59.6134 316.36 59.6143 316.36 59.6152C316.36 59.6161 316.36 59.6169 316.36 59.6178C316.36 59.6187 316.36 59.6196 316.36 59.6204C316.36 59.6213 316.36 59.6222 316.36 59.6231C316.36 59.6239 316.36 59.6248 316.36 59.6257C316.36 59.6266 316.36 59.6275 316.36 59.6283C316.36 59.6292 316.36 59.6301 316.36 59.631C316.36 59.6318 316.36 59.6327 316.36 59.6336C316.36 59.6345 316.36 59.6354 316.36 59.6362C316.36 59.6371 316.36 59.638 316.36 59.6389C316.36 59.6398 316.36 59.6406 316.36 59.6415C316.36 59.6424 316.36 59.6433 316.36 59.6441C316.36 59.645 316.36 59.6459 316.36 59.6468C316.36 59.6477 316.36 59.6486 316.36 59.6494C316.36 59.6503 316.36 59.6512 316.36 59.6521C316.36 59.653 316.36 59.6538 316.36 59.6547C316.36 59.6556 316.36 59.6565 316.36 59.6574C316.36 59.6582 316.36 59.6591 316.36 59.66C316.36 59.6609 316.36 59.6618 316.36 59.6627C316.36 59.6635 316.36 59.6644 316.36 59.6653C316.36 59.6662 316.36 59.6671 316.36 59.668C316.36 59.6688 316.36 59.6697 316.36 59.6706C316.36 59.6715 316.36 59.6724 316.36 59.6733C316.36 59.6741 316.36 59.675 316.36 59.6759C316.36 59.6768 316.36 59.6777 316.36 59.6786C316.36 59.6795 316.36 59.6803 316.36 59.6812C316.36 59.6821 316.36 59.683 316.36 59.6839C316.36 59.6848 316.36 59.6856 316.36 59.6865C316.36 59.6874 316.36 59.6883 316.36 59.6892C316.36 59.6901 316.36 59.691 316.36 59.6919C316.36 59.6927 316.36 59.6936 316.36 59.6945C316.36 59.6954 316.36 59.6963 316.36 59.6972C316.36 59.6981 316.36 59.699 316.36 59.6998C316.36 59.7007 316.36 59.7016 316.36 59.7025C316.36 59.7034 316.36 59.7043 316.36 59.7052C316.36 59.7061 316.36 59.7069 316.36 59.7078C316.36 59.7087 316.36 59.7096 316.36 59.7105C316.36 59.7114 316.36 59.7123 316.36 59.7132C316.36 59.7141 316.36 59.715 316.36 59.7158C316.36 59.7167 316.36 59.7176 316.36 59.7185C316.36 59.7194 316.36 59.7203 316.36 59.7212C316.36 59.7221 316.36 59.723 316.36 59.7239C316.36 59.7247 316.36 59.7256 316.36 59.7265C316.36 59.7274 316.36 59.7283 316.36 59.7292C316.36 59.7301 316.36 59.731 316.36 59.7319C316.36 59.7328 316.36 59.7337 316.36 59.7346C316.36 59.7355 316.36 59.7363 316.36 59.7372C316.36 59.7381 316.36 59.739 316.36 59.7399C316.36 59.7408 316.36 59.7417 316.36 59.7426C316.36 59.7435 316.36 59.7444 316.36 59.7453C316.36 59.7462 316.36 59.7471 316.36 59.748C316.36 59.7489 316.36 59.7498 316.36 59.7506C316.36 59.7515 316.36 59.7524 316.36 59.7533C316.36 59.7542 316.36 59.7551 316.36 59.756C316.36 59.7569 316.36 59.7578 316.36 59.7587C316.36 59.7596 316.36 59.7605 316.36 59.7614C316.36 59.7623 316.36 59.7632 316.36 59.7641C316.36 59.765 316.36 59.7659 316.36 59.7668C316.36 59.7677 316.36 59.7686 316.36 59.7695C316.36 59.7704 316.36 59.7713 316.36 59.7722C316.36 59.7731 316.36 59.774 316.36 59.7749C316.36 59.7758 316.36 59.7766 316.36 59.7775C316.36 59.7785 316.36 59.7794 316.36 59.7803C316.36 59.7811 316.36 59.782 316.36 59.7829C316.36 59.7838 316.36 59.7847 316.36 59.7856C316.36 59.7865 316.36 59.7874 316.36 59.7883C316.36 59.7892 316.36 59.7901 316.36 59.791C316.36 59.7919 316.36 59.7928 316.36 59.7937C316.36 59.7946 316.36 59.7955 316.36 59.7964C316.36 59.7973 316.36 59.7983 316.36 59.7992C316.36 59.8001 316.36 59.801 316.36 59.8019C316.36 59.8028 316.36 59.8037 316.36 59.8046C316.36 59.8055 316.36 59.8064 316.36 59.8073C316.36 59.8082 316.36 59.8091 316.36 59.81C316.36 59.8109 316.36 59.8118 316.36 59.8127C316.36 59.8136 316.36 59.8145 316.36 59.8154C316.36 59.8163 316.36 59.8172 316.36 59.8181C316.36 59.819 316.36 59.8199 316.36 59.8208C316.36 59.8217 316.36 59.8226 316.36 59.8235C316.36 59.8244 316.36 59.8254 316.36 59.8263C316.36 59.8272 316.36 59.8281 316.36 59.829C316.36 59.8299 316.36 59.8308 316.36 59.8317C316.36 59.8326 316.36 59.8335 316.36 59.8344C316.36 59.8353 316.36 59.8362 316.36 59.8371C316.36 59.838 316.36 59.8389 316.36 59.8399C316.36 59.8408 316.36 59.8417 316.36 59.8426C316.36 59.8435 316.36 59.8444 316.36 59.8453C316.36 59.8462 316.36 59.8471 316.36 59.848C316.36 59.8489 316.36 59.8498 316.36 59.8508C316.36 59.8517 316.36 59.8526 316.36 59.8535C316.36 59.8544 316.36 59.8553 316.36 59.8562C316.36 59.8571 316.36 59.858 316.36 59.8589C316.36 59.8598 316.36 59.8608 316.36 59.8617C316.36 59.8626 316.36 59.8635 316.36 59.8644C316.36 59.8653 316.36 59.8662 316.36 59.8671C316.36 59.868 316.36 59.8689 316.36 59.8699C316.36 59.8708 316.36 59.8717 316.36 59.8726C316.36 59.8735 316.36 59.8744 316.36 59.8753C316.36 59.8762 316.36 59.8772 316.36 59.8781C316.36 59.879 316.36 59.8799 316.36 59.8808C316.36 59.8817 316.36 59.8826 316.36 59.8835C316.36 59.8845 316.36 59.8854 316.36 59.8863C316.36 59.8872 316.36 59.8881 316.36 59.889C316.36 59.8899 316.36 59.8909 316.36 59.8918C316.36 59.8927 316.36 59.8936 316.36 59.8945C316.36 59.8954 316.36 59.8963 316.36 59.8973C316.36 59.8982 316.36 59.8991 316.36 59.9C316.36 59.9009 316.36 59.9018 316.36 59.9027C316.36 59.9037 316.36 59.9046 316.36 59.9055C316.36 59.9064 316.36 59.9073 316.36 59.9082C316.36 59.9092 316.36 59.9101 316.36 59.911C316.36 59.9119 316.36 59.9128 316.36 59.9137C316.36 59.9147 316.36 59.9156 316.36 59.9165C316.36 59.9174 316.36 59.9183 316.36 59.9193C316.36 59.9202 316.36 59.9211 316.36 59.922C316.36 59.9229 316.36 59.9238 316.36 59.9248C316.36 59.9257 316.36 59.9266 316.36 59.9275C316.36 59.9284 316.36 59.9294 316.36 59.9303C316.36 59.9312 316.36 59.9321 316.36 59.933C316.36 59.934 316.36 59.9349 316.36 59.9358C316.36 59.9367 316.36 59.9376 316.36 59.9386C316.36 59.9395 316.36 59.9404 316.36 59.9413C316.36 59.9422 316.36 59.9432 316.36 59.9441C316.36 59.945 316.36 59.9459 316.36 59.9469C316.36 59.9478 316.36 59.9487 316.36 59.9496C316.36 59.9505 316.36 59.9515 316.36 59.9524C316.36 59.9533 316.36 59.9542 316.36 59.9552C316.36 59.9561 316.36 59.957 316.36 59.9579C316.36 59.9588 316.36 59.9598 316.36 59.9607C316.36 59.9616 316.36 59.9625 316.36 59.9635C316.36 59.9644 316.36 59.9653 316.36 59.9662C316.36 59.9672 316.36 59.9681 316.36 59.969C316.36 59.9699 316.36 59.9709 316.36 59.9718C316.36 59.9727 316.36 59.9736 316.36 59.9746C316.36 59.9755 316.36 59.9764 316.36 59.9773C316.36 59.9783 316.36 59.9792 316.36 59.9801C316.36 59.981 316.36 59.982 316.36 59.9829C316.36 59.9838 316.36 59.9847 316.36 59.9857C316.36 59.9866 316.36 59.9875 316.36 59.9885C316.36 59.9894 316.36 59.9903 316.36 59.9912C316.36 59.9922 316.36 59.9931 316.36 59.994C316.36 59.9949 316.36 59.9959 316.36 59.9968C316.36 59.9977 316.36 59.9987 316.36 59.9996C316.36 60.0005 316.36 60.0015 316.36 60.0024C316.36 60.0033 316.36 60.0042 316.36 60.0052C316.36 60.0061 316.36 60.007 316.36 60.008C316.36 60.0089 316.36 60.0098 316.36 60.0107C316.36 60.0117 316.36 60.0126 316.36 60.0135C316.36 60.0145 316.36 60.0154 316.36 60.0163C316.36 60.0173 316.36 60.0182 316.36 60.0191C316.36 60.0201 316.36 60.021 316.36 60.0219C316.36 60.0229 316.36 60.0238 316.36 60.0247C316.36 60.0257 316.36 60.0266 316.36 60.0275C316.36 60.0285 316.36 60.0294 316.36 60.0303C316.36 60.0312 316.36 60.0322 316.36 60.0331C316.36 60.034 316.36 60.035 316.36 60.0359C316.36 60.0368 316.36 60.0378 316.36 60.0387C316.36 60.0396 316.36 60.0406 316.36 60.0415C316.36 60.0425 316.36 60.0434 316.36 60.0443C316.36 60.0453 316.36 60.0462 316.36 60.0471C316.36 60.0481 316.36 60.049 316.36 60.0499C316.36 60.0509 316.36 60.0518 316.36 60.0527C316.36 60.0537 316.36 60.0546 316.36 60.0555C316.36 60.0565 316.36 60.0574 316.36 60.0584C316.36 60.0593 316.36 60.0602 316.36 60.0612C316.36 60.0621 316.36 60.063 316.36 60.064C316.36 60.0649 316.36 60.0659 316.36 60.0668C316.36 60.0677 316.36 60.0687 316.36 60.0696C316.36 60.0705 316.36 60.0715 316.36 60.0724C316.36 60.0734 316.36 60.0743 316.36 60.0752C316.36 60.0762 316.36 60.0771 316.36 60.0781C316.36 60.079 316.36 60.0799 316.36 60.0809C316.36 60.0818 316.36 60.0828 316.36 60.0837C316.36 60.0846 316.36 60.0856 316.36 60.0865C316.36 60.0875 316.36 60.0884 316.36 60.0893C316.36 60.0903 316.36 60.0912 316.36 60.0922C316.36 60.0931 316.36 60.094 316.36 60.095C316.36 60.0959 316.36 60.0969 316.36 60.0978C316.36 60.0988 316.36 60.0997 316.36 60.1006C316.36 60.1016 316.36 60.1025 316.36 60.1035C316.36 60.1044 316.36 60.1054 316.36 60.1063C316.36 60.1072 316.36 60.1082 316.36 60.1091C316.36 60.1101 316.36 60.111 316.36 60.112C316.36 60.1129 316.36 60.1138 316.36 60.1148C316.36 60.1157 316.36 60.1167 316.36 60.1176C316.36 60.1186 316.36 60.1195 316.36 60.1205C316.36 60.1214 316.36 60.1223 316.36 60.1233C316.36 60.1242 316.36 60.1252 316.36 60.1261C316.36 60.1271 316.36 60.128 316.36 60.129C316.36 60.1299 316.36 60.1309 316.36 60.1318C316.36 60.1328 316.36 60.1337 316.36 60.1346C316.36 60.1356 316.36 60.1365 316.36 60.1375C316.36 60.1384 316.36 60.1394 316.36 60.1403C316.36 60.1413 316.36 60.1422 316.36 60.1432C316.36 60.1441 316.36 60.1451 316.36 60.146C316.36 60.147 316.36 60.1479 316.36 60.1489C316.36 60.1498 316.36 60.1508 316.36 60.1517C316.36 60.1527 316.36 60.1536 316.36 60.1546C316.36 60.1555 316.36 60.1564 316.36 60.1574C316.36 60.1583 316.36 60.1593 316.36 60.1602C316.36 60.1612 316.36 60.1622 316.36 60.1631C316.36 60.1641 316.36 60.165 316.36 60.166C316.36 60.1669 316.36 60.1679 316.36 60.1688C316.36 60.1698 316.36 60.1707 316.36 60.1717C316.36 60.1726 316.36 60.1736 316.36 60.1745C316.36 60.1755 316.36 60.1764 316.36 60.1774C316.36 60.1783 316.36 60.1793 316.36 60.1802C316.36 60.1812 316.36 60.1821 316.36 60.1831C316.36 60.184 316.36 60.185 316.36 60.186C316.36 60.1869 316.36 60.1879 316.36 60.1888C316.36 60.1898 316.36 60.1907 316.36 60.1917C316.36 60.1926 316.36 60.1936 316.36 60.1945C316.36 60.1955 316.36 60.1964 316.36 60.1974H319.601C319.601 60.1964 319.601 60.1955 319.601 60.1945C319.601 60.1936 319.601 60.1926 319.601 60.1917C319.601 60.1907 319.601 60.1898 319.601 60.1888C319.601 60.1879 319.601 60.1869 319.601 60.186C319.601 60.185 319.601 60.184 319.601 60.1831C319.601 60.1821 319.601 60.1812 319.601 60.1802C319.601 60.1793 319.601 60.1783 319.601 60.1774C319.601 60.1764 319.601 60.1755 319.601 60.1745C319.601 60.1736 319.601 60.1726 319.601 60.1717C319.601 60.1707 319.601 60.1698 319.601 60.1688C319.601 60.1679 319.601 60.1669 319.601 60.166C319.601 60.165 319.601 60.1641 319.601 60.1631C319.601 60.1622 319.601 60.1612 319.601 60.1602C319.601 60.1593 319.601 60.1583 319.601 60.1574C319.601 60.1564 319.601 60.1555 319.601 60.1546C319.601 60.1536 319.601 60.1527 319.601 60.1517C319.601 60.1508 319.601 60.1498 319.601 60.1489C319.601 60.1479 319.601 60.147 319.601 60.146C319.601 60.1451 319.601 60.1441 319.601 60.1432C319.601 60.1422 319.601 60.1413 319.601 60.1403C319.601 60.1394 319.601 60.1384 319.601 60.1375C319.601 60.1365 319.601 60.1356 319.601 60.1346C319.601 60.1337 319.601 60.1328 319.601 60.1318C319.601 60.1309 319.601 60.1299 319.601 60.129C319.601 60.128 319.601 60.1271 319.601 60.1261C319.601 60.1252 319.601 60.1242 319.601 60.1233C319.601 60.1223 319.601 60.1214 319.601 60.1205C319.601 60.1195 319.601 60.1186 319.601 60.1176C319.601 60.1167 319.601 60.1157 319.601 60.1148C319.601 60.1138 319.601 60.1129 319.601 60.112C319.601 60.111 319.601 60.1101 319.601 60.1091C319.601 60.1082 319.601 60.1072 319.601 60.1063C319.601 60.1054 319.601 60.1044 319.601 60.1035C319.601 60.1025 319.601 60.1016 319.601 60.1006C319.601 60.0997 319.601 60.0988 319.601 60.0978C319.601 60.0969 319.601 60.0959 319.601 60.095C319.601 60.094 319.601 60.0931 319.601 60.0922C319.601 60.0912 319.601 60.0903 319.601 60.0893C319.601 60.0884 319.601 60.0875 319.601 60.0865C319.601 60.0856 319.601 60.0846 319.601 60.0837C319.601 60.0828 319.601 60.0818 319.601 60.0809C319.601 60.0799 319.601 60.079 319.601 60.0781C319.601 60.0771 319.601 60.0762 319.601 60.0752C319.601 60.0743 319.601 60.0734 319.601 60.0724C319.601 60.0715 319.601 60.0705 319.601 60.0696C319.601 60.0687 319.601 60.0677 319.601 60.0668C319.601 60.0659 319.601 60.0649 319.601 60.064C319.601 60.063 319.601 60.0621 319.601 60.0612C319.601 60.0602 319.601 60.0593 319.601 60.0584C319.601 60.0574 319.601 60.0565 319.601 60.0555C319.601 60.0546 319.601 60.0537 319.601 60.0527C319.601 60.0518 319.601 60.0509 319.601 60.0499C319.601 60.049 319.601 60.0481 319.601 60.0471C319.601 60.0462 319.601 60.0453 319.601 60.0443C319.601 60.0434 319.601 60.0425 319.601 60.0415C319.601 60.0406 319.601 60.0396 319.601 60.0387C319.601 60.0378 319.601 60.0368 319.601 60.0359C319.601 60.035 319.601 60.034 319.601 60.0331C319.601 60.0322 319.601 60.0312 319.601 60.0303C319.601 60.0294 319.601 60.0285 319.601 60.0275C319.601 60.0266 319.601 60.0257 319.601 60.0247C319.601 60.0238 319.601 60.0229 319.601 60.0219C319.601 60.021 319.601 60.0201 319.601 60.0191C319.601 60.0182 319.601 60.0173 319.601 60.0163C319.601 60.0154 319.601 60.0145 319.601 60.0135C319.601 60.0126 319.601 60.0117 319.601 60.0107C319.601 60.0098 319.601 60.0089 319.601 60.008C319.601 60.007 319.601 60.0061 319.601 60.0052C319.601 60.0042 319.601 60.0033 319.601 60.0024C319.601 60.0015 319.601 60.0005 319.601 59.9996C319.601 59.9987 319.601 59.9977 319.601 59.9968C319.601 59.9959 319.601 59.9949 319.601 59.994C319.601 59.9931 319.601 59.9922 319.601 59.9912C319.601 59.9903 319.601 59.9894 319.601 59.9885C319.601 59.9875 319.601 59.9866 319.601 59.9857C319.601 59.9847 319.601 59.9838 319.601 59.9829C319.601 59.982 319.601 59.981 319.601 59.9801C319.601 59.9792 319.601 59.9783 319.601 59.9773C319.601 59.9764 319.601 59.9755 319.601 59.9746C319.601 59.9736 319.601 59.9727 319.601 59.9718C319.601 59.9709 319.601 59.9699 319.601 59.969C319.601 59.9681 319.601 59.9672 319.601 59.9662C319.601 59.9653 319.601 59.9644 319.601 59.9635C319.601 59.9625 319.601 59.9616 319.601 59.9607C319.601 59.9598 319.601 59.9588 319.601 59.9579C319.601 59.957 319.601 59.9561 319.601 59.9552C319.601 59.9542 319.601 59.9533 319.601 59.9524C319.601 59.9515 319.601 59.9505 319.601 59.9496C319.601 59.9487 319.601 59.9478 319.601 59.9469C319.601 59.9459 319.601 59.945 319.601 59.9441C319.601 59.9432 319.601 59.9422 319.601 59.9413C319.601 59.9404 319.601 59.9395 319.601 59.9386C319.601 59.9376 319.601 59.9367 319.601 59.9358C319.601 59.9349 319.601 59.934 319.601 59.933C319.601 59.9321 319.601 59.9312 319.601 59.9303C319.601 59.9294 319.601 59.9284 319.601 59.9275C319.601 59.9266 319.601 59.9257 319.601 59.9248C319.601 59.9238 319.601 59.9229 319.601 59.922C319.601 59.9211 319.601 59.9202 319.601 59.9193C319.601 59.9183 319.601 59.9174 319.601 59.9165C319.601 59.9156 319.601 59.9147 319.601 59.9137C319.601 59.9128 319.601 59.9119 319.601 59.911C319.601 59.9101 319.601 59.9092 319.601 59.9082C319.601 59.9073 319.601 59.9064 319.601 59.9055C319.601 59.9046 319.601 59.9037 319.601 59.9027C319.601 59.9018 319.601 59.9009 319.601 59.9C319.601 59.8991 319.601 59.8982 319.601 59.8973C319.601 59.8963 319.601 59.8954 319.601 59.8945C319.601 59.8936 319.601 59.8927 319.601 59.8918C319.601 59.8909 319.601 59.8899 319.601 59.889C319.601 59.8881 319.601 59.8872 319.601 59.8863C319.601 59.8854 319.601 59.8845 319.601 59.8835C319.601 59.8826 319.601 59.8817 319.601 59.8808C319.601 59.8799 319.601 59.879 319.601 59.8781C319.601 59.8772 319.601 59.8762 319.601 59.8753C319.601 59.8744 319.601 59.8735 319.601 59.8726C319.601 59.8717 319.601 59.8708 319.601 59.8699C319.601 59.8689 319.601 59.868 319.601 59.8671C319.601 59.8662 319.601 59.8653 319.601 59.8644C319.601 59.8635 319.601 59.8626 319.601 59.8617C319.601 59.8608 319.601 59.8598 319.601 59.8589C319.601 59.858 319.601 59.8571 319.601 59.8562C319.601 59.8553 319.601 59.8544 319.601 59.8535C319.601 59.8526 319.601 59.8517 319.601 59.8508C319.601 59.8498 319.601 59.8489 319.601 59.848C319.601 59.8471 319.601 59.8462 319.601 59.8453C319.601 59.8444 319.601 59.8435 319.601 59.8426C319.601 59.8417 319.601 59.8408 319.601 59.8399C319.601 59.8389 319.601 59.838 319.601 59.8371C319.601 59.8362 319.601 59.8353 319.601 59.8344C319.601 59.8335 319.601 59.8326 319.601 59.8317C319.601 59.8308 319.601 59.8299 319.601 59.829C319.601 59.8281 319.601 59.8272 319.601 59.8263C319.601 59.8254 319.601 59.8244 319.601 59.8235C319.601 59.8226 319.601 59.8217 319.601 59.8208C319.601 59.8199 319.601 59.819 319.601 59.8181C319.601 59.8172 319.601 59.8163 319.601 59.8154C319.601 59.8145 319.601 59.8136 319.601 59.8127C319.601 59.8118 319.601 59.8109 319.601 59.81C319.601 59.8091 319.601 59.8082 319.601 59.8073C319.601 59.8064 319.601 59.8055 319.601 59.8046C319.601 59.8037 319.601 59.8028 319.601 59.8019C319.601 59.801 319.601 59.8001 319.601 59.7992C319.601 59.7983 319.601 59.7973 319.601 59.7964C319.601 59.7955 319.601 59.7946 319.601 59.7937C319.601 59.7928 319.601 59.7919 319.601 59.791C319.601 59.7901 319.601 59.7892 319.601 59.7883C319.601 59.7874 319.601 59.7865 319.601 59.7856C319.601 59.7847 319.601 59.7838 319.601 59.7829C319.601 59.782 319.601 59.7811 319.601 59.7803C319.601 59.7794 319.601 59.7785 319.601 59.7775C319.601 59.7766 319.601 59.7758 319.601 59.7749C319.601 59.774 319.601 59.7731 319.601 59.7722C319.601 59.7713 319.601 59.7704 319.601 59.7695C319.601 59.7686 319.601 59.7677 319.601 59.7668C319.601 59.7659 319.601 59.765 319.601 59.7641C319.601 59.7632 319.601 59.7623 319.601 59.7614C319.601 59.7605 319.601 59.7596 319.601 59.7587C319.601 59.7578 319.601 59.7569 319.601 59.756C319.601 59.7551 319.601 59.7542 319.601 59.7533C319.601 59.7524 319.601 59.7515 319.601 59.7506C319.601 59.7498 319.601 59.7489 319.601 59.748C319.601 59.7471 319.601 59.7462 319.601 59.7453C319.601 59.7444 319.601 59.7435 319.601 59.7426C319.601 59.7417 319.601 59.7408 319.601 59.7399C319.601 59.739 319.601 59.7381 319.601 59.7372C319.601 59.7363 319.601 59.7355 319.601 59.7346C319.601 59.7337 319.601 59.7328 319.601 59.7319C319.601 59.731 319.601 59.7301 319.601 59.7292C319.601 59.7283 319.601 59.7274 319.601 59.7265C319.601 59.7256 319.601 59.7247 319.601 59.7239C319.601 59.723 319.601 59.7221 319.601 59.7212C319.601 59.7203 319.601 59.7194 319.601 59.7185C319.601 59.7176 319.601 59.7167 319.601 59.7158C319.601 59.715 319.601 59.7141 319.601 59.7132C319.601 59.7123 319.601 59.7114 319.601 59.7105C319.601 59.7096 319.601 59.7087 319.601 59.7078C319.601 59.7069 319.601 59.7061 319.601 59.7052C319.601 59.7043 319.601 59.7034 319.601 59.7025C319.601 59.7016 319.601 59.7007 319.601 59.6998C319.601 59.699 319.601 59.6981 319.601 59.6972C319.601 59.6963 319.601 59.6954 319.601 59.6945C319.601 59.6936 319.601 59.6927 319.601 59.6919C319.601 59.691 319.601 59.6901 319.601 59.6892C319.601 59.6883 319.601 59.6874 319.601 59.6865C319.601 59.6856 319.601 59.6848 319.601 59.6839C319.601 59.683 319.601 59.6821 319.601 59.6812C319.601 59.6803 319.601 59.6795 319.601 59.6786C319.601 59.6777 319.601 59.6768 319.601 59.6759C319.601 59.675 319.601 59.6741 319.601 59.6733C319.601 59.6724 319.601 59.6715 319.601 59.6706C319.601 59.6697 319.601 59.6688 319.601 59.668C319.601 59.6671 319.601 59.6662 319.601 59.6653C319.601 59.6644 319.601 59.6635 319.601 59.6627C319.601 59.6618 319.601 59.6609 319.601 59.66C319.601 59.6591 319.601 59.6582 319.601 59.6574C319.601 59.6565 319.601 59.6556 319.601 59.6547C319.601 59.6538 319.601 59.653 319.601 59.6521C319.601 59.6512 319.601 59.6503 319.601 59.6494C319.601 59.6486 319.601 59.6477 319.601 59.6468C319.601 59.6459 319.601 59.645 319.601 59.6441C319.601 59.6433 319.601 59.6424 319.601 59.6415C319.601 59.6406 319.601 59.6398 319.601 59.6389C319.601 59.638 319.601 59.6371 319.601 59.6362C319.601 59.6354 319.601 59.6345 319.601 59.6336C319.601 59.6327 319.601 59.6318 319.601 59.631C319.601 59.6301 319.601 59.6292 319.601 59.6283C319.601 59.6275 319.601 59.6266 319.601 59.6257C319.601 59.6248 319.601 59.6239 319.601 59.6231C319.601 59.6222 319.601 59.6213 319.601 59.6204C319.601 59.6196 319.601 59.6187 319.601 59.6178C319.601 59.6169 319.601 59.6161 319.601 59.6152C319.601 59.6143 319.601 59.6134 319.601 59.6125C319.601 59.6117 319.601 59.6108 319.601 59.6099C319.601 59.609 319.601 59.6082 319.601 59.6073C319.601 59.6064 319.601 59.6056 319.601 59.6047C319.601 59.6038 319.601 59.6029 319.601 59.6021C319.601 59.6012 319.601 59.6003 319.601 59.5994C319.601 59.5986 319.601 59.5977 319.601 59.5968C319.601 59.5959 319.601 59.5951 319.601 59.5942C319.601 59.5933 319.601 59.5924 319.601 59.5916C319.601 59.5907 319.601 59.5898 319.601 59.589C319.601 59.5881 319.601 59.5872 319.601 59.5863C319.601 59.5855 319.601 59.5846 319.601 59.5837C319.601 59.5829 319.601 59.582 319.601 59.5811C319.601 59.5802 319.601 59.5794 319.601 59.5785C319.601 59.5776 319.601 59.5768 319.601 59.5759C319.601 59.575 319.601 59.5742 319.601 59.5733C319.601 59.5724 319.601 59.5715 319.601 59.5707C319.601 59.5698 319.601 59.5689 319.601 59.5681C319.601 59.5672 319.601 59.5663 319.601 59.5655C319.601 59.5646 319.601 59.5637 319.601 59.5629C319.601 59.562 319.601 59.5611 319.601 59.5602C319.601 59.5594 319.601 59.5585 319.601 59.5576C319.601 59.5568 319.601 59.5559 319.601 59.555C319.601 59.5542 319.601 59.5533 319.601 59.5524C319.601 59.5516 319.601 59.5507 319.601 59.5498C319.601 59.549 319.601 59.5481 319.601 59.5472C319.601 59.5464 319.601 59.5455 319.601 59.5446C319.601 59.5438 319.601 59.5429 319.601 59.542C319.601 59.5412 319.601 59.5403 319.601 59.5394C319.601 59.5386 319.601 59.5377 319.601 59.5368C319.601 59.536 319.601 59.5351 319.601 59.5343C319.601 59.5334 319.601 59.5325 319.601 59.5317C319.601 59.5308 319.601 59.5299 319.601 59.5291C319.601 59.5282 319.601 59.5273 319.601 59.5265C319.601 59.5256 319.601 59.5248 319.601 59.5239C319.601 59.523 319.601 59.5222 319.601 59.5213C319.601 59.5204 319.601 59.5196 319.601 59.5187C319.601 59.5179 319.601 59.517 319.601 59.5161C319.601 59.5153 319.601 59.5144 319.601 59.5135C319.601 59.5127 319.601 59.5118 319.601 59.511C319.601 59.5101 319.601 59.5092 319.601 59.5084C319.601 59.5075 319.601 59.5067 319.601 59.5058C319.601 59.5049 319.601 59.5041 319.601 59.5032C319.601 59.5024 319.601 59.5015 319.601 59.5006C319.601 59.4998 319.601 59.4989 319.601 59.4981C319.601 59.4972 319.601 59.4963 319.601 59.4955C319.601 59.4946 319.601 59.4938 319.601 59.4929C319.601 59.4921 319.601 59.4912 319.601 59.4903C319.601 59.4895 319.601 59.4886 319.601 59.4878C319.601 59.4869 319.601 59.4861 319.601 59.4852C319.601 59.4843 319.601 59.4835 319.601 59.4826C319.601 59.4818 319.601 59.4809 319.601 59.48C319.601 59.4792 319.601 59.4783 319.601 59.4775C319.601 59.4766 319.601 59.4758 319.601 59.4749C319.601 59.4741 319.601 59.4732 319.601 59.4724C319.601 59.4715 319.601 59.4706 319.601 59.4698C319.601 59.4689 319.601 59.4681 319.601 59.4672C319.601 59.4664 319.601 59.4655 319.601 59.4647C319.601 59.4638 319.601 59.4629 319.601 59.4621C319.601 59.4612 319.601 59.4604 319.601 59.4595C319.601 59.4587 319.601 59.4578 319.601 59.457C319.601 59.4561 319.601 59.4553 319.601 59.4544C319.601 59.4536 319.601 59.4527 319.601 59.4519C319.601 59.451 319.601 59.4501 319.601 59.4493C319.601 59.4484 319.601 59.4476 319.601 59.4467C319.601 59.4459 319.601 59.445 319.601 59.4442C319.601 59.4433 319.601 59.4425 319.601 59.4416C319.601 59.4408 319.601 59.4399 319.601 59.4391C319.601 59.4382 319.601 59.4374 319.601 59.4365C319.601 59.4357 319.601 59.4348 319.601 59.434C319.601 59.4331 319.601 59.4323 319.601 59.4314C319.601 59.4306 319.601 59.4297 319.601 59.4289C319.601 59.428 319.601 59.4272 319.601 59.4263C319.601 59.4255 319.601 59.4246 319.601 59.4238C319.601 59.4229 319.601 59.4221 319.601 59.4212C319.601 59.4204 319.601 59.4196 319.601 59.4187C319.601 59.4179 319.601 59.417 319.601 59.4162C319.601 59.4153 319.601 59.4145 319.601 59.4136C319.601 59.4128 319.601 59.4119 319.601 59.4111C319.601 59.4102 319.601 59.4094 319.601 59.4085C319.601 59.4077 319.601 59.4069 319.601 59.406C319.601 59.4052 319.601 59.4043 319.601 59.4035C319.601 59.4026 319.601 59.4018 319.601 59.4009C319.601 59.4001 319.601 59.3992 319.601 59.3984C319.601 59.3976 319.601 59.3967 319.601 59.3959C319.601 59.395 319.601 59.3942 319.601 59.3933C319.601 59.3925 319.601 59.3916 319.601 59.3908C319.601 59.39 319.601 59.3891 319.601 59.3883C319.601 59.3874 319.601 59.3866 319.601 59.3857C319.601 59.3849 319.601 59.3841 319.601 59.3832C319.601 59.3824 319.601 59.3815 319.601 59.3807C319.601 59.3799 319.601 59.379 319.601 59.3782C319.601 59.3773 319.601 59.3765 319.601 59.3756C319.601 59.3748 319.601 59.374 319.601 59.3731C319.601 59.3723 319.601 59.3714 319.601 59.3706C319.601 59.3698 319.601 59.3689 319.601 59.3681C319.601 59.3672 319.601 59.3664 319.601 59.3656C319.601 59.3647 319.601 59.3639 319.601 59.363C319.601 59.3622 319.601 59.3614 319.601 59.3605C319.601 59.3597 319.601 59.3588 319.601 59.358C319.601 59.3572 319.601 59.3563 319.601 59.3555C319.601 59.3547 319.601 59.3538 319.601 59.353C319.601 59.3521 319.601 59.3513 319.601 59.3505C319.601 59.3496 319.601 59.3488 319.601 59.3479C319.601 59.3471 319.601 59.3463 319.601 59.3454C319.601 59.3446 319.601 59.3438 319.601 59.3429C319.601 59.3421 319.601 59.3413 319.601 59.3404C319.601 59.3396 319.601 59.3387 319.601 59.3379C319.601 59.3371 319.601 59.3362 319.601 59.3354C319.601 59.3346 319.601 59.3337 319.601 59.3329C319.601 59.3321 319.601 59.3312 319.601 59.3304C319.601 59.3296 319.601 59.3287 319.601 59.3279C319.601 59.3271 319.601 59.3262 319.601 59.3254C319.601 59.3246 319.601 59.3237 319.601 59.3229C319.601 59.3221 319.601 59.3212 319.601 59.3204C319.601 59.3196 319.601 59.3187 319.601 59.3179C319.601 59.3171 319.601 59.3162 319.601 59.3154C319.601 59.3146 319.601 59.3137 319.601 59.3129C319.601 59.3121 319.601 59.3112 319.601 59.3104C319.601 59.3096 319.601 59.3087 319.601 59.3079C319.601 59.3071 319.601 59.3063 319.601 59.3054C319.601 59.3046 319.601 59.3038 319.601 59.3029C319.601 59.3021 319.601 59.3013 319.601 59.3004C319.601 59.2996 319.601 59.2988 319.601 59.298C319.601 59.2971 319.601 59.2963 319.601 59.2955C319.601 59.2946 319.601 59.2938 319.601 59.293C319.601 59.2921 319.601 59.2913 319.601 59.2905C319.601 59.2897 319.601 59.2888 319.601 59.288C319.601 59.2872 319.601 59.2863 319.601 59.2855C319.601 59.2847 319.601 59.2839 319.601 59.283C319.601 59.2822 319.601 59.2814 319.601 59.2806C319.601 59.2797 319.601 59.2789 319.601 59.2781C319.601 59.2772 319.601 59.2764 319.601 59.2756C319.601 59.2748 319.601 59.2739 319.601 59.2731C319.601 59.2723 319.601 59.2715 319.601 59.2706C319.601 59.2698 319.601 59.269 319.601 59.2682C319.601 59.2673 319.601 59.2665 319.601 59.2657C319.601 59.2649 319.601 59.264 319.601 59.2632C319.601 59.2624 319.601 59.2616 319.601 59.2607C319.601 59.2599 319.601 59.2591 319.601 59.2583C319.601 59.2574 319.601 59.2566 319.601 59.2558C319.601 59.255 319.601 59.2542 319.601 59.2533C319.601 59.2525 319.601 59.2517 319.601 59.2509C319.601 59.25 319.601 59.2492 319.601 59.2484C319.601 59.2476 319.601 59.2467 319.601 59.2459C319.601 59.2451 319.601 59.2443 319.601 59.2435C319.601 59.2426 319.601 59.2418 319.601 59.241C319.601 59.2402 319.601 59.2394 319.601 59.2385C319.601 59.2377 319.601 59.2369 319.601 59.2361C319.601 59.2353 319.601 59.2344 319.601 59.2336C319.601 59.2328 319.601 59.232 319.601 59.2312C319.601 59.2303 319.601 59.2295 319.601 59.2287C319.601 59.2279 319.601 59.2271 319.601 59.2262C319.601 59.2254 319.601 59.2246 319.601 59.2238C319.601 59.223 319.601 59.2221 319.601 59.2213C319.601 59.2205 319.601 59.2197 319.601 59.2189C319.601 59.2181 319.601 59.2172 319.601 59.2164C319.601 59.2156 319.601 59.2148 319.601 59.214C319.601 59.2132 319.601 59.2123 319.601 59.2115C319.601 59.2107 319.601 59.2099 319.601 59.2091C319.601 59.2083 319.601 59.2074 319.601 59.2066C319.601 59.2058 319.601 59.205 319.601 59.2042C319.601 59.2034 319.601 59.2025 319.601 59.2017C319.601 59.2009 319.601 59.2001 319.601 59.1993C319.601 59.1985 319.601 59.1977 319.601 59.1968C319.601 59.196 319.601 59.1952 319.601 59.1944C319.601 59.1936 319.601 59.1928 319.601 59.192C319.601 59.1911 319.601 59.1903 319.601 59.1895C319.601 59.1887 319.601 59.1879 319.601 59.1871C319.601 59.1863 319.601 59.1855 319.601 59.1846C319.601 59.1838 319.601 59.183 319.601 59.1822C319.601 59.1814 319.601 59.1806 319.601 59.1798C319.601 59.179 319.601 59.1781 319.601 59.1773C319.601 59.1765 319.601 59.1757 319.601 59.1749C319.601 59.1741 319.601 59.1733 319.601 59.1725C319.601 59.1717 319.601 59.1708 319.601 59.17C319.601 59.1692 319.601 59.1684 319.601 59.1676C319.601 59.1668 319.601 59.166 319.601 59.1652C319.601 59.1644 319.601 59.1636 319.601 59.1628C319.601 59.1619 319.601 59.1611 319.601 59.1603C319.601 59.1595 319.601 59.1587 319.601 59.1579C319.601 59.1571 319.601 59.1563 319.601 59.1555C319.601 59.1547 319.601 59.1539 319.601 59.153C319.601 59.1522 319.601 59.1514 319.601 59.1506C319.601 59.1498 319.601 59.149 319.601 59.1482C319.601 59.1474 319.601 59.1466 319.601 59.1458C319.601 59.145 319.601 59.1442 319.601 59.1434C319.601 59.1426 319.601 59.1418 319.601 59.1409C319.601 59.1401 319.601 59.1393 319.601 59.1385C319.601 59.1377 319.601 59.1369 319.601 59.1361C319.601 59.1353 319.601 59.1345 319.601 59.1337C319.601 59.1329 319.601 59.1321 319.601 59.1313C319.601 59.1305 319.601 59.1297 319.601 59.1289C319.601 59.1281 319.601 59.1273 319.601 59.1265C319.601 59.1257 319.601 59.1249 319.601 59.1241C319.601 59.1233 319.601 59.1224 319.601 59.1216C319.601 59.1208 319.601 59.12 319.601 59.1192C319.601 59.1184 319.601 59.1176 319.601 59.1168C319.601 59.116 319.601 59.1152 319.601 59.1144C319.601 59.1136 319.601 59.1128 319.601 59.112C319.601 59.1112 319.601 59.1104 319.601 59.1096C319.601 59.1088 319.601 59.108 319.601 59.1072C319.601 59.1064 319.601 59.1056 319.601 59.1048C319.601 59.104 319.601 59.1032 319.601 59.1024C319.601 59.1016 319.601 59.1008 319.601 59.1C319.601 59.0992 319.601 59.0984 319.601 59.0976C319.601 59.0968 319.601 59.096 319.601 59.0952C319.601 59.0944 319.601 59.0936 319.601 59.0928C319.601 59.092 319.601 59.0912 319.601 59.0904C319.601 59.0896 319.601 59.0888 319.601 59.088C319.601 59.0872 319.601 59.0864 319.601 59.0856C319.601 59.0848 319.601 59.0841 319.601 59.0833C319.601 59.0825 319.601 59.0817 319.601 59.0809C319.601 59.0801 319.601 59.0793 319.601 59.0785C319.601 59.0777 319.601 59.0769 319.601 59.0761C319.601 59.0753 319.601 59.0745 319.601 59.0737C319.601 59.0729 319.601 59.0721 319.601 59.0713C319.601 59.0705 319.601 59.0697 319.601 59.0689C319.601 59.0681 319.601 59.0673 319.601 59.0666C319.601 59.0658 319.601 59.065 319.601 59.0642C319.601 59.0634 319.601 59.0626 319.601 59.0618C319.601 59.061 319.601 59.0602 319.601 59.0594C319.601 59.0586 319.601 59.0578 319.601 59.057C319.601 59.0562 319.601 59.0554 319.601 59.0546C319.601 59.0539 319.601 59.0531 319.601 59.0523C319.601 59.0515 319.601 59.0507 319.601 59.0499C319.601 59.0491 319.601 59.0483 319.601 59.0475C319.601 59.0467 319.601 59.0459 319.601 59.0452C319.601 59.0444 319.601 59.0436 319.601 59.0428C319.601 59.042 319.601 59.0412 319.601 59.0404C319.601 59.0396 319.601 59.0388 319.601 59.038C319.601 59.0372 319.601 59.0365 319.601 59.0357C319.601 59.0349 319.601 59.0341 319.601 59.0333C319.601 59.0325 319.601 59.0317 319.601 59.0309C319.601 59.0301 319.601 59.0294 319.601 59.0286C319.601 59.0278 319.601 59.027 319.601 59.0262C319.601 59.0254 319.601 59.0246 319.601 59.0238C319.601 59.0231 319.601 59.0223 319.601 59.0215C319.601 59.0207 319.601 59.0199 319.601 59.0191C319.601 59.0183 319.601 59.0175 319.601 59.0168C319.601 59.016 319.601 59.0152 319.601 59.0144C319.601 59.0136 319.601 59.0128 319.601 59.012C319.601 59.0113 319.601 59.0105 319.601 59.0097C319.601 59.0089 319.601 59.0081 319.601 59.0073C319.601 59.0065 319.601 59.0058 319.601 59.005C319.601 59.0042 319.601 59.0034 319.601 59.0026C319.601 59.0018 319.601 59.0011 319.601 59.0003C319.601 58.9995 319.601 58.9987 319.601 58.9979C319.601 58.9971 319.601 58.9964 319.601 58.9956C319.601 58.9948 319.601 58.994 319.601 58.9932C319.601 58.9924 319.601 58.9917 319.601 58.9909C319.601 58.9901 319.601 58.9893 319.601 58.9885C319.601 58.9877 319.601 58.987 319.601 58.9862C319.601 58.9854 319.601 58.9846 319.601 58.9838C319.601 58.9831 319.601 58.9823 319.601 58.9815C319.601 58.9807 319.601 58.9799 319.601 58.9792C319.601 58.9784 319.601 58.9776 319.601 58.9768C319.601 58.976 319.601 58.9753 319.601 58.9745C319.601 58.9737 319.601 58.9729 319.601 58.9721C319.601 58.9714 319.601 58.9706 319.601 58.9698C319.601 58.969 319.601 58.9682 319.601 58.9675C319.601 58.9667 319.601 58.9659 319.601 58.9651C319.601 58.9644 319.601 58.9636 319.601 58.9628C319.601 58.962 319.601 58.9612 319.601 58.9605C319.601 58.9597 319.601 58.9589 319.601 58.9581C319.601 58.9574 319.601 58.9566 319.601 58.9558C319.601 58.955 319.601 58.9542 319.601 58.9535C319.601 58.9527 319.601 58.9519 319.601 58.9511C319.601 58.9504 319.601 58.9496 319.601 58.9488C319.601 58.948 319.601 58.9473 319.601 58.9465C319.601 58.9457 319.601 58.9449 319.601 58.9442C319.601 58.9434 319.601 58.9426 319.601 58.9418C319.601 58.9411 319.601 58.9403 319.601 58.9395C319.601 58.9387 319.601 58.938 319.601 58.9372C319.601 58.9364 319.601 58.9356 319.601 58.9349C319.601 58.9341 319.601 58.9333 319.601 58.9326C319.601 58.9318 319.601 58.931 319.601 58.9302C319.601 58.9295 319.601 58.9287 319.601 58.9279C319.601 58.9271 319.601 58.9264 319.601 58.9256C319.601 58.9248 319.601 58.9241 319.601 58.9233C319.601 58.9225 319.601 58.9217 319.601 58.921C319.601 58.9202 319.601 58.9194 319.601 58.9187C319.601 58.9179 319.601 58.9171 319.601 58.9164C319.601 58.9156 319.601 58.9148 319.601 58.914C319.601 58.9133 319.601 58.9125 319.601 58.9117C319.601 58.911 319.601 58.9102 319.601 58.9094C319.601 58.9087 319.601 58.9079 319.601 58.9071C319.601 58.9063 319.601 58.9056 319.601 58.9048C319.601 58.904 319.601 58.9033 319.601 58.9025C319.601 58.9017 319.601 58.901 319.601 58.9002C319.601 58.8994 319.601 58.8987 319.601 58.8979C319.601 58.8971 319.601 58.8964 319.601 58.8956C319.601 58.8948 319.601 58.8941 319.601 58.8933C319.601 58.8925 319.601 58.8918 319.601 58.891C319.601 58.8902 319.601 58.8895 319.601 58.8887C319.601 58.8879 319.601 58.8872 319.601 58.8864C319.601 58.8856 319.601 58.8849 319.601 58.8841C319.601 58.8833 319.601 58.8826 319.601 58.8818C319.601 58.8811 319.601 58.8803 319.601 58.8795C319.601 58.8788 319.601 58.878 319.601 58.8772H316.36ZM316.36 60.1974C316.36 62.441 317.8 64.2373 319.853 65.6421L321.683 62.9671C320.02 61.8293 319.601 60.8876 319.601 60.1974H316.36ZM319.902 65.6748C321.886 66.9276 324.204 68.0043 326.839 68.9164L327.899 65.8536C325.449 65.0055 323.366 64.0286 321.633 62.9344L319.902 65.6748ZM326.908 68.9388C329.596 69.7352 332.239 70.3838 334.837 70.8833L335.449 67.7005C332.962 67.2222 330.422 66.5994 327.829 65.8312L326.908 68.9388ZM334.848 70.8854C337.52 71.3802 339.688 71.6459 341.304 71.6459V68.4048C339.986 68.4048 338.047 68.1816 335.438 67.6985L334.848 70.8854ZM341.304 71.6459C342.744 71.6459 344.464 71.5434 346.452 71.3445L346.13 68.1195C344.207 68.3118 342.602 68.4048 341.304 68.4048V71.6459ZM346.445 71.3453C348.603 71.1397 350.712 70.7283 352.771 70.1107L351.84 67.0063C349.987 67.5622 348.086 67.9331 346.138 68.1187L346.445 71.3453ZM352.841 70.0881C354.934 69.3555 356.761 68.3969 358.294 67.1924L356.291 64.6439C355.086 65.5908 353.589 66.3924 351.77 67.0289L352.841 70.0881ZM358.347 67.1486C360.088 65.6566 360.967 63.6855 360.967 61.3709H357.726C357.726 62.7723 357.236 63.8327 356.238 64.6877L358.347 67.1486ZM360.967 61.3709C360.967 59.9658 360.559 58.6778 359.706 57.5862C358.871 56.5162 357.685 55.734 356.281 55.1723L355.077 58.1816C356.118 58.5978 356.766 59.0869 357.152 59.5815C357.522 60.0546 357.726 60.6246 357.726 61.3709H360.967ZM356.302 55.181C353.782 54.1311 350.651 53.3711 346.948 52.8707L346.514 56.0826C350.048 56.5602 352.882 57.267 355.056 58.1728L356.302 55.181ZM346.991 52.877C343.345 52.2858 339.409 51.7447 335.184 51.2534L334.809 54.4728C338.994 54.9594 342.881 55.494 346.472 56.0763L346.991 52.877ZM335.22 51.2581C331.098 50.6829 327.28 49.8224 323.761 48.6812L322.762 51.7643C326.479 52.9701 330.484 53.8698 334.772 54.4681L335.22 51.2581ZM323.799 48.6938C320.356 47.4843 317.524 45.8284 315.264 43.7494L313.07 46.1347C315.699 48.5541 318.93 50.4187 322.724 51.7517L323.799 48.6938ZM315.313 43.7962C313.346 41.8289 312.267 39.0099 312.267 35.1141H309.026C309.026 39.6283 310.294 43.3613 313.021 46.088L315.313 43.7962ZM312.267 35.1141C312.267 29.3895 314.597 24.8877 319.365 21.4692L317.477 18.8351C311.879 22.8487 309.026 28.3215 309.026 35.1141H312.267ZM319.365 21.4692C324.171 18.0238 331.076 16.1986 340.277 16.1986V12.9575C330.703 12.9575 323.037 14.8484 317.477 18.8351L319.365 21.4692ZM340.277 16.1986C344.79 16.1986 348.565 16.5836 351.63 17.3265L352.394 14.1766C349.004 13.3549 344.957 12.9575 340.277 12.9575V16.1986ZM351.685 17.3388C354.953 18.0117 357.645 18.7714 359.783 19.6077L360.964 16.5894C358.602 15.6654 355.72 14.8605 352.339 14.1643L351.685 17.3388ZM359.783 19.6077C361.992 20.4724 363.722 21.2709 364.996 21.9992L366.604 19.1852C365.141 18.3489 363.252 17.4849 360.964 16.5894L359.783 19.6077ZM365.115 22.0607C366.58 22.7445 367.948 23.2396 369.027 23.2396V19.9984C368.738 19.9984 367.954 19.8089 366.486 19.1237L365.115 22.0607ZM369.027 23.2396C369.893 23.2396 370.783 23.14 371.512 22.7751L370.063 19.8762C370.01 19.9024 369.727 19.9984 369.027 19.9984V23.2396ZM371.76 22.6221C372.052 22.4029 372.452 22.1586 372.979 21.895L371.53 18.996C370.884 19.3192 370.305 19.6616 369.815 20.0292L371.76 22.6221ZM371.109 21.5914L372.722 23.205L375.014 20.9132L373.4 19.2996L371.109 21.5914ZM372.437 21.298L365.103 35.0865L367.965 36.6086L375.299 22.8201L372.437 21.298ZM367.046 34.3101L364.406 33.43L363.381 36.5048L366.021 37.3849L367.046 34.3101ZM365.492 34.701C365.394 34.1143 365.296 33.5275 365.199 32.9408L362.002 33.4736C362.099 34.0603 362.197 34.6471 362.295 35.2338L365.492 34.701ZM365.199 32.9408C365 31.747 364.165 30.8352 363.252 30.1505L361.308 32.7434C361.614 32.9733 361.797 33.162 361.9 33.2994C362 33.4327 362.004 33.4892 362.002 33.4736L365.199 32.9408ZM363.329 30.2122C361.118 28.3326 357.831 26.835 353.631 25.6349L352.74 28.7513C356.754 29.8981 359.53 31.2365 361.23 32.6817L363.329 30.2122ZM353.631 25.6349C349.354 24.413 344.605 23.8123 339.397 23.8123V27.0534C344.359 27.0534 348.802 27.6261 352.74 28.7513L353.631 25.6349ZM339.397 23.8123C337.36 23.8123 335.413 23.965 333.556 24.2744L334.089 27.4714C335.754 27.194 337.522 27.0534 339.397 27.0534V23.8123ZM333.644 24.2622C331.754 24.4722 330.031 24.8968 328.491 25.5568L329.767 28.5359C330.965 28.0224 332.371 27.6648 334.002 27.4835L333.644 24.2622ZM328.491 25.5568C326.923 26.2288 325.614 27.1588 324.636 28.381L327.167 30.4057C327.754 29.6721 328.597 29.0375 329.767 28.5359L328.491 25.5568ZM324.691 28.3167C323.602 29.541 323.108 31.0697 323.108 32.7671H326.349C326.349 31.7264 326.637 31.0059 327.113 30.47L324.691 28.3167ZM323.108 32.7671C323.108 34.1565 323.494 35.4354 324.312 36.5265C325.117 37.5999 326.263 38.3894 327.626 38.957L328.872 35.9652C327.887 35.5549 327.273 35.0731 326.905 34.5818C326.55 34.1082 326.349 33.5292 326.349 32.7671H323.108ZM327.7 38.9858C330.268 39.9104 333.404 40.6643 337.084 41.261L337.603 38.0617C334.046 37.485 331.119 36.772 328.798 35.9363L327.7 38.9858ZM337.126 41.2673C340.742 41.7559 344.651 42.2935 348.854 42.8799L349.302 39.6699C345.095 39.0829 341.181 38.5447 337.56 38.0554L337.126 41.2673ZM348.891 42.8846C352.989 43.3611 356.782 44.2166 360.276 45.4442L361.35 42.3863C357.608 41.0714 353.578 40.1666 349.265 39.6652L348.891 42.8846ZM360.276 45.4442C363.686 46.6425 366.443 48.3729 368.592 50.6116L370.93 48.367C368.385 45.7162 365.176 43.7306 361.35 42.3863L360.276 45.4442ZM368.615 50.6352C370.685 52.7056 371.807 55.6265 371.807 59.6107H375.049C375.049 54.9892 373.726 51.1626 370.907 48.3434L368.615 50.6352ZM371.807 59.6107C371.807 63.638 370.805 66.7803 368.927 69.1708L371.475 71.1733C373.9 68.0876 375.049 64.1889 375.049 59.6107H371.807ZM368.905 69.1997C367.005 71.732 364.611 73.722 361.702 75.1768L363.151 78.0757C366.501 76.4011 369.289 74.0884 371.497 71.1444L368.905 69.1997ZM361.702 75.1768C358.751 76.6523 355.457 77.6311 351.806 78.0992L352.218 81.314C356.195 80.8042 359.844 79.7294 363.151 78.0757L361.702 75.1768ZM351.801 78.0999C348.146 78.5808 344.696 78.8195 341.451 78.8195V82.0606C344.854 82.0606 348.446 81.8104 352.223 81.3133L351.801 78.0999ZM341.451 78.8195C338.222 78.8195 334.991 78.5346 331.758 77.964L331.194 81.1558C334.611 81.7587 338.03 82.0606 341.451 82.0606V78.8195ZM331.812 77.9747C328.616 77.2967 325.67 76.572 322.973 75.8014L322.083 78.9179C324.862 79.7119 327.882 80.4541 331.14 81.1452L331.812 77.9747ZM323.041 75.8223C320.41 74.9455 318.178 74.1689 316.341 73.492L315.22 76.5333C317.099 77.2255 319.365 78.0136 322.016 78.8971L323.041 75.8223ZM316.409 73.5191C315.467 73.1224 314.685 72.8139 314.076 72.6019C313.772 72.4962 313.491 72.4075 313.243 72.3434C313.025 72.2872 312.718 72.2186 312.407 72.2186V75.4598C312.291 75.4598 312.271 75.4401 312.433 75.4817C312.563 75.5154 312.753 75.5733 313.011 75.6632C313.526 75.8424 314.236 76.1207 315.152 76.5062L316.409 73.5191ZM312.407 72.2186C311.182 72.2186 310.158 72.7739 309.402 73.6818L311.891 75.7568C312.113 75.4913 312.263 75.4598 312.407 75.4598V72.2186ZM311.588 73.4006L309.535 71.9337L307.651 74.5712L309.705 76.038L311.588 73.4006ZM310.092 73.8681L316.84 57.4393L313.841 56.2079L307.094 72.6368L310.092 73.8681ZM314.928 58.3908L317.715 59.1243L318.54 55.9898L315.753 55.2564L314.928 58.3908ZM398.315 63.1311L399.461 64.277L398.315 63.1311ZM412.984 63.1311L411.838 64.277L412.984 63.1311ZM412.984 77.653L414.071 78.8547L414.087 78.8408L414.102 78.8265L412.984 77.653ZM398.315 77.653L397.198 78.8265L397.213 78.8408L397.228 78.8547L398.315 77.653ZM396.856 70.4654C396.856 68.0707 397.703 66.0349 399.461 64.277L397.169 61.9852C394.82 64.3345 393.614 67.1882 393.614 70.4654H396.856ZM399.461 64.277C401.219 62.5191 403.255 61.6713 405.65 61.6713V58.4302C402.372 58.4302 399.519 59.6359 397.169 61.9852L399.461 64.277ZM405.65 61.6713C408.044 61.6713 410.08 62.5191 411.838 64.277L414.13 61.9852C411.781 59.6359 408.927 58.4302 405.65 58.4302V61.6713ZM411.838 64.277C413.596 66.0349 414.444 68.0707 414.444 70.4654H417.685C417.685 67.1882 416.479 64.3345 414.13 61.9852L411.838 64.277ZM414.444 70.4654C414.444 72.8578 413.599 74.8296 411.866 76.4795L414.102 78.8265C416.476 76.5649 417.685 73.7449 417.685 70.4654H414.444ZM411.897 76.4513C410.149 78.0327 408.094 78.8195 405.65 78.8195V82.0606C408.877 82.0606 411.712 80.9894 414.071 78.8547L411.897 76.4513ZM405.65 78.8195C403.205 78.8195 401.15 78.0327 399.403 76.4513L397.228 78.8547C399.587 80.9894 402.423 82.0606 405.65 82.0606V78.8195ZM399.433 76.4795C397.701 74.8296 396.856 72.8578 396.856 70.4654H393.614C393.614 73.7449 394.823 76.5649 397.198 78.8265L399.433 76.4795ZM443.009 63.1311L444.155 64.277L443.009 63.1311ZM457.677 63.1311L456.531 64.277L457.677 63.1311ZM457.677 77.653L458.765 78.8547L458.78 78.8408L458.795 78.8265L457.677 77.653ZM443.009 77.653L441.891 78.8265L441.906 78.8408L441.921 78.8547L443.009 77.653ZM441.549 70.4654C441.549 68.0707 442.397 66.0349 444.155 64.277L441.863 61.9852C439.514 64.3345 438.308 67.1882 438.308 70.4654H441.549ZM444.155 64.277C445.913 62.5191 447.948 61.6713 450.343 61.6713V58.4302C447.066 58.4302 444.212 59.6359 441.863 61.9852L444.155 64.277ZM450.343 61.6713C452.738 61.6713 454.774 62.5191 456.531 64.277L458.823 61.9852C456.474 59.6359 453.62 58.4302 450.343 58.4302V61.6713ZM456.531 64.277C458.289 66.0349 459.137 68.0707 459.137 70.4654H462.378C462.378 67.1882 461.173 64.3345 458.823 61.9852L456.531 64.277ZM459.137 70.4654C459.137 72.8578 458.292 74.8296 456.56 76.4795L458.795 78.8265C461.17 76.5649 462.378 73.7449 462.378 70.4654H459.137ZM456.59 76.4513C454.842 78.0327 452.788 78.8195 450.343 78.8195V82.0606C453.57 82.0606 456.405 80.9894 458.765 78.8547L456.59 76.4513ZM450.343 78.8195C447.898 78.8195 445.844 78.0327 444.096 76.4513L441.921 78.8547C444.281 80.9894 447.116 82.0606 450.343 82.0606V78.8195ZM444.126 76.4795C442.394 74.8296 441.549 72.8578 441.549 70.4654H438.308C438.308 73.7449 439.516 76.5649 441.891 78.8265L444.126 76.4795ZM487.702 63.1311L488.848 64.277L487.702 63.1311ZM502.371 63.1311L501.225 64.277L502.371 63.1311ZM502.371 77.653L503.458 78.8547L503.473 78.8408L503.488 78.8265L502.371 77.653ZM487.702 77.653L486.584 78.8265L486.599 78.8408L486.615 78.8547L487.702 77.653ZM486.242 70.4654C486.242 68.0707 487.09 66.0349 488.848 64.277L486.556 61.9852C484.207 64.3345 483.001 67.1882 483.001 70.4654H486.242ZM488.848 64.277C490.606 62.5191 492.642 61.6713 495.036 61.6713V58.4302C491.759 58.4302 488.906 59.6359 486.556 61.9852L488.848 64.277ZM495.036 61.6713C497.431 61.6713 499.467 62.5191 501.225 64.277L503.517 61.9852C501.167 59.6359 498.314 58.4302 495.036 58.4302V61.6713ZM501.225 64.277C502.983 66.0349 503.831 68.0707 503.831 70.4654H507.072C507.072 67.1882 505.866 64.3345 503.517 61.9852L501.225 64.277ZM503.831 70.4654C503.831 72.8578 502.986 74.8296 501.253 76.4795L503.488 78.8265C505.863 76.5649 507.072 73.7449 507.072 70.4654H503.831ZM501.283 76.4513C499.536 78.0327 497.481 78.8195 495.036 78.8195V82.0606C498.263 82.0606 501.099 80.9894 503.458 78.8547L501.283 76.4513ZM495.036 78.8195C492.592 78.8195 490.537 78.0327 488.789 76.4513L486.615 78.8547C488.974 80.9894 491.809 82.0606 495.036 82.0606V78.8195ZM488.82 76.4795C487.087 74.8296 486.242 72.8578 486.242 70.4654H483.001C483.001 73.7449 484.21 76.5649 486.584 78.8265L488.82 76.4795Z" fill="url(#paint0_linear)"/>
<defs>
<linearGradient id="paint0_linear" x1="258.5" y1="23.2568" x2="258.5" y2="133.52" gradientUnits="userSpaceOnUse">
<stop stop-color="white"/>
<stop offset="0.708333" stop-color="white" stop-opacity="0"/>
</linearGradient>
</defs>
</svg>
