<svg width="416" height="56" viewBox="0 0 416 56" fill="none" xmlns="http://www.w3.org/2000/svg">
<path opacity="0.66" d="M33.922 27.2768L34.4177 28.2187L34.4263 28.2141L34.4349 28.2094L33.922 27.2768ZM33.922 18.9915L33.3209 19.8699L33.3471 19.8878L33.3743 19.9041L33.922 18.9915ZM13.1122 17.739V16.6746H12.0478V17.739H13.1122ZM13.1122 28.2402H12.0478V29.3046H13.1122V28.2402ZM1.45488 12.3439H0.390513V13.4083H1.45488V12.3439ZM1.45488 10.6097V9.54538H0.390513V10.6097H1.45488ZM41.1476 13.4036L40.5228 14.2654L40.5329 14.2726L41.1476 13.4036ZM41.1476 32.7683L41.7431 33.6505L41.7478 33.6472L41.1476 32.7683ZM13.1122 35.3695V34.3051H12.0478V35.3695H13.1122ZM15.1354 51.2659H16.1997V50.2015H15.1354V51.2659ZM15.1354 53V54.0644H16.1997V53H15.1354ZM1.45488 53H0.390513L0.390513 54.0644H1.45488L1.45488 53ZM1.45488 51.2659V50.2015H0.390513V51.2659H1.45488ZM29.2976 29.3046C31.275 29.3046 33.0004 28.9646 34.4177 28.2187L33.4262 26.3349C32.4029 26.8736 31.0453 27.1759 29.2976 27.1759V29.3046ZM34.4349 28.2094C36.1899 27.2442 36.9132 25.4017 36.9132 23.1341H34.7844C34.7844 24.9771 34.2231 25.8965 33.409 26.3442L34.4349 28.2094ZM36.9132 23.1341C36.9132 20.9084 36.1784 19.104 34.4696 18.0788L33.3743 19.9041C34.2347 20.4203 34.7844 21.3777 34.7844 23.1341H36.9132ZM34.523 18.113C33.0846 17.1288 31.3189 16.6746 29.2976 16.6746V18.8034C31.0015 18.8034 32.3187 19.1841 33.3209 19.8699L34.523 18.113ZM29.2976 16.6746L13.1122 16.6746V18.8034L29.2976 18.8034V16.6746ZM12.0478 17.739V28.2402H14.1766V17.739H12.0478ZM13.1122 29.3046L29.2976 29.3046V27.1759L13.1122 27.1759V29.3046ZM4.92778 13.789C4.92778 12.9467 4.54214 12.2324 3.8089 11.7925C3.16227 11.4045 2.32942 11.2795 1.45488 11.2795V13.4083C2.18603 13.4083 2.55745 13.5241 2.71367 13.6179C2.74673 13.6377 2.76412 13.653 2.7721 13.661C2.77956 13.6685 2.78175 13.6724 2.78246 13.6737C2.78323 13.6751 2.78668 13.6814 2.79036 13.6968C2.79422 13.713 2.79905 13.7425 2.79905 13.789H4.92778ZM2.51925 12.3439V10.6097H0.390513V12.3439H2.51925ZM1.45488 11.6741L29.4903 11.6741V9.54538L1.45488 9.54538V11.6741ZM29.4903 11.6741C34.5993 11.6741 38.2186 12.5948 40.5228 14.2654L41.7723 12.5419C38.9384 10.4873 34.7861 9.54538 29.4903 9.54538V11.6741ZM40.5329 14.2726C42.7751 15.8585 44.0332 18.6954 44.0332 23.1341H46.1619C46.1619 18.3241 44.7868 14.674 41.7622 12.5347L40.5329 14.2726ZM44.0332 23.1341C44.0332 27.576 42.774 30.3687 40.5473 31.8893L41.7478 33.6472C44.7878 31.5712 46.1619 27.941 46.1619 23.1341H44.0332ZM40.5521 31.8861C38.2419 33.4455 34.6096 34.3051 29.4903 34.3051V36.4339C34.7758 36.4339 38.915 35.5594 41.7431 33.6505L40.5521 31.8861ZM29.4903 34.3051L13.1122 34.3051V36.4339L29.4903 36.4339V34.3051ZM12.0478 35.3695V49.8207H14.1766V35.3695H12.0478ZM12.0478 49.8207C12.0478 50.5822 12.3341 51.2955 12.9993 51.7707C13.5986 52.1987 14.3664 52.3302 15.1354 52.3302V50.2015C14.5555 50.2015 14.3118 50.0922 14.2366 50.0385C14.2111 50.0202 14.2068 50.0107 14.2032 50.0029C14.1969 49.9894 14.1766 49.9379 14.1766 49.8207H12.0478ZM14.071 51.2659V53H16.1997V51.2659H14.071ZM15.1354 51.9356H1.45488L1.45488 54.0644H15.1354V51.9356ZM2.51925 53V51.2659H0.390513V53H2.51925ZM1.45488 52.3302C2.32942 52.3302 3.16227 52.2052 3.80889 51.8173C4.54214 51.3773 4.92778 50.663 4.92778 49.8207H2.79905C2.79905 49.8672 2.79422 49.8967 2.79036 49.9129C2.78668 49.9284 2.78323 49.9347 2.78246 49.9361C2.78175 49.9373 2.77956 49.9413 2.7721 49.9487C2.76412 49.9567 2.74673 49.9721 2.71367 49.9919C2.55745 50.0856 2.18603 50.2015 1.45488 50.2015V52.3302ZM4.92778 49.8207L4.92778 13.789H2.79905L2.79905 49.8207H4.92778ZM82.1567 35.2732V36.3375H83.8515L83.1154 34.8109L82.1567 35.2732ZM74.353 19.0878L75.3118 18.6255L74.2892 16.5046L73.3726 18.6735L74.353 19.0878ZM67.5128 35.2732L66.5324 34.8588L65.9074 36.3375H67.5128V35.2732ZM49.9786 51.2659L49.8036 50.216L48.9143 50.3642V51.2659H49.9786ZM51.8091 50.2061L50.978 49.5412L50.9734 49.5469L50.969 49.5526L51.8091 50.2061ZM52.9652 48.4719L53.9172 48.948L53.9252 48.9319L53.9327 48.9155L52.9652 48.4719ZM67.3201 17.161L68.2876 17.6045L68.2932 17.5925L68.2984 17.5802L67.3201 17.161ZM68.1872 15.0415L67.2145 14.6092L67.2017 14.6381L67.1906 14.6677L68.1872 15.0415ZM68.2835 12.7293L67.5309 13.4819L67.7086 13.6595L67.9469 13.739L68.2835 12.7293ZM67.8018 12.3439H66.7374V12.9135L67.2114 13.2295L67.8018 12.3439ZM67.8018 10.6097V9.54538H66.7374V10.6097H67.8018ZM82.3494 10.6097H83.4137V9.54538H82.3494V10.6097ZM82.3494 12.3439L82.9398 13.2295L83.4137 12.9135V12.3439H82.3494ZM81.675 12.6329L81.4168 11.6003L81.3772 11.6102L81.3384 11.6232L81.675 12.6329ZM81.7713 14.8488L80.7987 15.2811L80.8291 15.3494L80.8687 15.4129L81.7713 14.8488ZM82.7347 16.6793L81.7658 17.1197L81.7697 17.1284L81.7739 17.1371L82.7347 16.6793ZM98.342 49.4354L97.3812 49.8932L97.3955 49.9232L97.4116 49.9523L98.342 49.4354ZM99.4018 50.6878L98.8114 51.5734L99.4018 50.6878ZM100.654 51.2659H101.719V50.463L100.947 50.2424L100.654 51.2659ZM100.654 53V54.0644H101.719V53H100.654ZM86.9738 53H85.9094V54.0644H86.9738V53ZM86.9738 51.5549V50.4905H85.9094V51.5549H86.9738ZM87.9372 51.2659L87.4612 50.3139L87.4246 50.3321L87.3896 50.3532L87.9372 51.2659ZM88.3225 49.1463L89.3108 48.751L88.3225 49.1463ZM87.8408 47.8939L88.8374 47.5202L88.8218 47.4785L88.8027 47.4383L87.8408 47.8939ZM85.2396 42.4024L86.2015 41.9468L85.9132 41.3381H85.2396V42.4024ZM64.6225 42.4024V41.3381H63.9755L63.6776 41.9125L64.6225 42.4024ZM61.925 47.6049L60.9801 47.1149L60.9765 47.1219L60.973 47.1289L61.925 47.6049ZM61.2506 49.05L60.2723 48.6307L60.2548 48.6714L60.2408 48.7134L61.2506 49.05ZM62.8884 51.2659H63.9528V50.2015H62.8884V51.2659ZM62.8884 53V54.0644H63.9528V53H62.8884ZM49.9786 53H48.9143V54.0644H49.9786V53ZM83.1154 34.8109L75.3118 18.6255L73.3943 19.55L81.1979 35.7354L83.1154 34.8109ZM73.3726 18.6735L66.5324 34.8588L68.4932 35.6875L75.3334 19.5021L73.3726 18.6735ZM67.5128 36.3375H82.1567V34.2088H67.5128V36.3375ZM50.1536 52.3157C51.1686 52.1466 52.0239 51.6635 52.6493 50.8596L50.969 49.5526C50.6951 49.9047 50.3301 50.1282 49.8036 50.216L50.1536 52.3157ZM52.6402 50.871C53.1826 50.193 53.6158 49.5507 53.9172 48.948L52.0132 47.9959C51.8008 48.4208 51.4632 48.9346 50.978 49.5412L52.6402 50.871ZM53.9327 48.9155L68.2876 17.6045L66.3526 16.7174L51.9977 48.0284L53.9327 48.9155ZM68.2984 17.5802C68.6861 16.6757 68.9826 15.9517 69.1838 15.4152L67.1906 14.6677C67.0064 15.1588 66.7248 15.8479 66.3418 16.7417L68.2984 17.5802ZM69.1598 15.4737C69.4636 14.7902 69.6369 14.0966 69.6369 13.4036H67.5082C67.5082 13.7383 67.4246 14.1366 67.2145 14.6092L69.1598 15.4737ZM69.6369 13.4036C69.6369 13.1406 69.6068 12.8258 69.4786 12.5268C69.3373 12.1971 69.0633 11.8673 68.6201 11.7195L67.9469 13.739C67.8373 13.7025 67.7373 13.6401 67.6573 13.5602C67.5809 13.4837 67.541 13.4096 67.522 13.3653C67.4901 13.291 67.5082 13.2813 67.5082 13.4036H69.6369ZM69.0361 11.9766C68.8468 11.7873 68.6282 11.6156 68.3922 11.4583L67.2114 13.2295C67.3608 13.3291 67.4633 13.4143 67.5309 13.4819L69.0361 11.9766ZM68.8662 12.3439V10.6097H66.7374V12.3439H68.8662ZM67.8018 11.6741H82.3494V9.54538L67.8018 9.54538V11.6741ZM81.285 10.6097V12.3439H83.4137V10.6097H81.285ZM81.759 11.4583C81.6812 11.5101 81.5721 11.5615 81.4168 11.6003L81.9331 13.6655C82.2916 13.5759 82.6321 13.4346 82.9398 13.2295L81.759 11.4583ZM81.3384 11.6232C80.8393 11.7895 80.5804 12.1832 80.4616 12.5C80.3491 12.8001 80.3216 13.1221 80.3216 13.4036H82.4503C82.4503 13.3276 82.4545 13.2766 82.4586 13.2464C82.4629 13.2146 82.4654 13.2192 82.4548 13.2475C82.4443 13.2756 82.413 13.3477 82.3397 13.4292C82.2607 13.517 82.1493 13.5968 82.0116 13.6427L81.3384 11.6232ZM80.3216 13.4036C80.3216 14.0035 80.5153 14.6434 80.7987 15.2811L82.7439 14.4165C82.5135 13.898 82.4503 13.5745 82.4503 13.4036H80.3216ZM80.8687 15.4129C81.1593 15.8778 81.4589 16.4447 81.7658 17.1197L83.7037 16.2388C83.3683 15.5009 83.0256 14.8474 82.6739 14.2847L80.8687 15.4129ZM81.7739 17.1371L97.3812 49.8932L99.3029 48.9775L83.6956 16.2214L81.7739 17.1371ZM97.4116 49.9523C97.7822 50.6193 98.2377 51.1909 98.8114 51.5734L99.9922 49.8022C99.7952 49.6709 99.5442 49.4076 99.2725 48.9185L97.4116 49.9523ZM98.8114 51.5734C99.2893 51.892 99.8074 52.1309 100.362 52.2893L100.947 50.2424C100.602 50.1439 100.285 49.9974 99.9922 49.8022L98.8114 51.5734ZM99.5899 51.2659V53H101.719V51.2659H99.5899ZM100.654 51.9356H86.9738V54.0644H100.654V51.9356ZM88.0381 53V51.5549H85.9094V53H88.0381ZM86.9738 52.6192C87.5179 52.6192 88.0261 52.4538 88.4848 52.1785L87.3896 50.3532C87.206 50.4633 87.0719 50.4905 86.9738 50.4905V52.6192ZM88.4132 52.2178C88.7857 52.0316 89.0972 51.7472 89.3051 51.3661C89.5071 50.9957 89.5796 50.5929 89.5796 50.2061H87.4509C87.4509 50.3331 87.4269 50.3639 87.4363 50.3467C87.441 50.3381 87.4492 50.3269 87.4592 50.3174C87.4688 50.3084 87.4721 50.3084 87.4612 50.3139L88.4132 52.2178ZM89.5796 50.2061C89.5796 49.7008 89.4949 49.2115 89.3108 48.751L87.3343 49.5416C87.407 49.7235 87.4509 49.9407 87.4509 50.2061H89.5796ZM89.3108 48.751C89.1863 48.4399 89.0288 48.0304 88.8374 47.5202L86.8442 48.2676C87.0383 48.785 87.2018 49.2105 87.3343 49.5416L89.3108 48.751ZM88.8027 47.4383L86.2015 41.9468L84.2777 42.8581L86.8789 48.3495L88.8027 47.4383ZM85.2396 41.3381H64.6225V43.4668H85.2396V41.3381ZM63.6776 41.9125L60.9801 47.1149L62.8699 48.0948L65.5674 42.8924L63.6776 41.9125ZM60.973 47.1289C60.7083 47.6582 60.4744 48.159 60.2723 48.6307L62.2289 49.4693C62.4121 49.0418 62.6278 48.5792 62.877 48.0809L60.973 47.1289ZM60.2408 48.7134C60.0853 49.1799 59.9935 49.6485 59.9935 50.1098H62.1223C62.1223 49.9287 62.1589 49.6908 62.2603 49.3866L60.2408 48.7134ZM59.9935 50.1098C59.9935 50.8122 60.2307 51.696 61.1443 52.0614L61.9349 50.0849C61.9708 50.0993 62.0142 50.1244 62.0551 50.1626C62.0955 50.2003 62.1189 50.2371 62.1303 50.26C62.1408 50.2809 62.1382 50.2839 62.1332 50.258C62.1282 50.2319 62.1223 50.1842 62.1223 50.1098H59.9935ZM61.1443 52.0614C61.6479 52.2628 62.2536 52.3302 62.8884 52.3302V50.2015C62.3671 50.2015 62.0736 50.1404 61.9349 50.0849L61.1443 52.0614ZM61.824 51.2659V53H63.9528V51.2659H61.824ZM62.8884 51.9356H49.9786V54.0644H62.8884V51.9356ZM51.043 53V51.2659H48.9143V53H51.043ZM147.444 24.5793L146.908 25.4986L147.864 26.0563L148.383 25.0792L147.444 24.5793ZM146.288 23.9049L145.244 23.6961L145.095 24.4413L145.751 24.8242L146.288 23.9049ZM145.228 21.0146L144.54 21.8271L144.559 21.8432L144.579 21.8583L145.228 21.0146ZM141.952 19.0878L142.372 18.1095L141.952 19.0878ZM137.328 17.739L137.089 18.7761L137.111 18.7814L137.134 18.7856L137.328 17.739ZM125.478 18.028L125.729 19.0624L125.743 19.0589L125.758 19.0549L125.478 18.028ZM119.89 20.6293L120.512 21.493L120.523 21.485L120.534 21.4767L119.89 20.6293ZM116.037 25.1573L116.982 25.6463L116.037 25.1573ZM116.133 38.8378L115.201 39.352L115.205 39.359L115.209 39.3659L116.133 38.8378ZM120.083 43.2695L119.461 44.1333L119.48 44.1473L119.5 44.1604L120.083 43.2695ZM125.574 45.678L125.84 44.6474L125.574 45.678ZM139.158 45.8707L138.997 44.8187L138.992 44.8194L139.158 45.8707ZM145.999 43.6549L146.498 44.5948L147.063 44.2947V43.6549H145.999ZM145.999 37.5854H147.063V36.521H145.999V37.5854ZM134.245 38.0671L134.721 39.0191L134.766 38.9965L134.809 38.9697L134.245 38.0671ZM133.282 39.6085V40.6729H134.183L134.332 39.7835L133.282 39.6085ZM131.548 39.6085H130.483V40.6729H131.548V39.6085ZM131.548 29.6854V28.621H130.483V29.6854H131.548ZM133.282 29.6854L134.325 29.4766L134.154 28.621H133.282V29.6854ZM134.245 30.9378L134.619 29.9412H134.619L134.245 30.9378ZM154.958 31.2268H156.023V30.1625H154.958V31.2268ZM154.958 32.961L155.391 33.9336L156.023 33.6527V32.961H154.958ZM153.802 33.828L152.89 33.2804V33.2804L153.802 33.828ZM153.706 45.678L152.754 46.154L152.831 46.3085L152.953 46.4307L153.706 45.678ZM154.958 46.3524H156.023V45.6318L155.354 45.3642L154.958 46.3524ZM154.958 47.5085L155.549 48.3941L156.023 48.0782V47.5085H154.958ZM152.165 49.1463L152.66 50.0882L152.669 50.0837L152.678 50.079L152.165 49.1463ZM147.444 51.0732L147.107 50.0634L147.097 50.0669L147.444 51.0732ZM140.893 52.711L141.054 53.763L141.068 53.7609L141.081 53.7586L140.893 52.711ZM121.143 51.9402L120.848 52.9629L120.859 52.9662L120.871 52.9693L121.143 51.9402ZM112.568 47.7012L111.901 48.5301L111.906 48.5346L111.912 48.5389L112.568 47.7012ZM107.173 40.9573L106.203 41.396L106.21 41.4101L106.216 41.424L107.173 40.9573ZM107.173 22.7488L106.212 22.2911L106.207 22.3013L107.173 22.7488ZM112.568 15.9085L113.236 16.7374L113.239 16.7353L112.568 15.9085ZM121.143 11.5732L121.438 12.5959L121.45 12.5921L121.143 11.5732ZM144.168 12.1512L143.804 13.1515L143.812 13.154L143.819 13.1565L144.168 12.1512ZM147.733 13.5963L148.209 12.6443L147.733 13.5963ZM150.912 14.1744L151.17 15.207L151.284 15.1786L151.388 15.1264L150.912 14.1744ZM151.876 13.5L152.352 12.548L151.729 12.2367L151.194 12.6823L151.876 13.5ZM153.032 14.078L153.971 14.578L154.484 13.6143L153.508 13.126L153.032 14.078ZM147.98 23.6599L146.824 22.9855L145.751 24.8242L146.908 25.4986L147.98 23.6599ZM147.331 24.1136C147.396 23.7905 147.446 23.5344 147.479 23.3486C147.496 23.2564 147.51 23.1754 147.52 23.1093C147.525 23.0762 147.545 22.9579 147.545 22.8451H145.416C145.416 22.8097 145.418 22.7838 145.419 22.7757C145.42 22.765 145.42 22.7586 145.42 22.7584C145.42 22.7582 145.419 22.7662 145.416 22.7856C145.41 22.824 145.4 22.8834 145.385 22.9678C145.355 23.1353 145.308 23.377 145.244 23.6961L147.331 24.1136ZM147.545 22.8451C147.545 21.7445 146.77 20.8579 145.877 20.171L144.579 21.8583C145.356 22.4559 145.416 22.7896 145.416 22.8451H147.545ZM145.916 20.2021C144.978 19.4086 143.787 18.7159 142.372 18.1095L141.533 20.0661C142.816 20.6158 143.808 21.2077 144.54 21.8271L145.916 20.2021ZM142.372 18.1095C140.938 17.4949 139.318 17.0251 137.522 16.6924L137.134 18.7856C138.806 19.0952 140.27 19.5246 141.533 20.0661L142.372 18.1095ZM137.567 16.7019C135.818 16.2982 134.036 16.0966 132.222 16.0966V18.2253C133.876 18.2253 135.498 18.4091 137.089 18.7761L137.567 16.7019ZM132.222 16.0966C129.759 16.0966 127.416 16.3963 125.198 17.0012L125.758 19.0549C127.779 18.5037 129.932 18.2253 132.222 18.2253V16.0966ZM125.227 16.9936C122.977 17.5392 120.978 18.4657 119.246 19.7818L120.534 21.4767C122.014 20.3521 123.74 19.5445 125.729 19.0624L125.227 16.9936ZM119.268 19.7655C117.519 21.0252 116.127 22.6662 115.091 24.6683L116.982 25.6463C117.873 23.9232 119.05 22.5455 120.512 21.493L119.268 19.7655ZM115.091 24.6683C114.03 26.7191 113.527 29.1771 113.527 31.9976H115.656C115.656 29.4229 116.116 27.3207 116.982 25.6463L115.091 24.6683ZM113.527 31.9976C113.527 34.8277 114.066 37.2952 115.201 39.352L117.065 38.3236C116.144 36.6552 115.656 34.5625 115.656 31.9976H113.527ZM115.209 39.3659C116.308 41.2901 117.726 42.884 119.461 44.1333L120.705 42.4057C119.228 41.3428 118.013 39.9822 117.057 38.3097L115.209 39.3659ZM119.5 44.1604C121.27 45.3177 123.208 46.1667 125.308 46.7086L125.84 44.6474C123.958 44.1617 122.235 43.4051 120.665 42.3787L119.5 44.1604ZM125.308 46.7086C127.377 47.2426 129.394 47.5131 131.355 47.5131V45.3844C129.591 45.3844 127.753 45.1411 125.84 44.6474L125.308 46.7086ZM131.355 47.5131C134.166 47.5131 136.823 47.317 139.324 46.9221L138.992 44.8194C136.613 45.1951 134.067 45.3844 131.355 45.3844V47.5131ZM139.32 46.9227C141.933 46.5208 144.328 45.7475 146.498 44.5948L145.499 42.7149C143.558 43.746 141.394 44.4499 138.997 44.8187L139.32 46.9227ZM147.063 43.6549V37.5854H144.934V43.6549H147.063ZM145.999 36.521H136.076V38.6497H145.999V36.521ZM136.076 36.521C135.203 36.521 134.39 36.7211 133.681 37.1645L134.809 38.9697C135.127 38.7708 135.535 38.6497 136.076 38.6497V36.521ZM133.769 37.1151C132.849 37.5752 132.394 38.4579 132.232 39.4336L134.332 39.7835C134.426 39.2177 134.614 39.0727 134.721 39.0191L133.769 37.1151ZM133.282 38.5442H131.548V40.6729H133.282V38.5442ZM132.612 39.6085V29.6854H130.483V39.6085H132.612ZM131.548 30.7497H133.282V28.621H131.548V30.7497ZM132.238 29.8941C132.422 30.8157 132.942 31.5858 133.871 31.9344L134.619 29.9412C134.521 29.9044 134.398 29.8396 134.325 29.4766L132.238 29.8941ZM133.871 31.9344C134.533 32.1827 135.276 32.2912 136.076 32.2912V30.1625C135.462 30.1625 134.984 30.0783 134.619 29.9412L133.871 31.9344ZM136.076 32.2912L154.958 32.2912V30.1625L136.076 30.1625V32.2912ZM153.894 31.2268V32.961H156.023V31.2268H153.894ZM154.526 31.9883C153.872 32.2791 153.249 32.6818 152.89 33.2804L154.715 34.3757C154.741 34.3321 154.889 34.1566 155.391 33.9336L154.526 31.9883ZM152.89 33.2804C152.55 33.8468 152.449 34.5592 152.449 35.2732H154.578C154.578 34.7026 154.67 34.4516 154.715 34.3756L152.89 33.2804ZM152.449 35.2732V44.4256H154.578V35.2732H152.449ZM152.449 44.4256C152.449 45.0342 152.509 45.6635 152.754 46.154L154.658 45.202C154.661 45.2072 154.636 45.1563 154.614 45.0104C154.592 44.8707 154.578 44.6787 154.578 44.4256H152.449ZM152.953 46.4307C153.319 46.7966 153.933 47.0884 154.563 47.3407L155.354 45.3642C155.055 45.2446 154.83 45.1409 154.668 45.054C154.494 44.9602 154.447 44.9138 154.459 44.9254L152.953 46.4307ZM153.894 46.3524V47.5085H156.023V46.3524H153.894ZM154.368 46.6229C153.83 46.9817 152.932 47.5095 151.652 48.2137L152.678 50.079C153.966 49.3702 154.931 48.8061 155.549 48.3941L154.368 46.6229ZM151.669 48.2045C150.517 48.8105 149.002 49.4317 147.107 50.0634L147.78 52.0829C149.739 51.4301 151.371 50.7667 152.66 50.0882L151.669 48.2045ZM147.097 50.0669C145.299 50.6871 143.17 51.2208 140.705 51.6634L141.081 53.7586C143.625 53.302 145.864 52.7438 147.791 52.0794L147.097 50.0669ZM140.731 51.659C138.289 52.0346 135.551 52.2247 132.511 52.2247V54.3534C135.637 54.3534 138.486 54.1581 141.054 53.763L140.731 51.659ZM132.511 52.2247C128.411 52.2247 124.715 51.7831 121.414 50.9112L120.871 52.9693C124.378 53.8958 128.261 54.3534 132.511 54.3534V52.2247ZM121.438 50.9176C118.209 49.9864 115.479 48.6301 113.225 46.8635L111.912 48.5389C114.411 50.4976 117.396 51.9673 120.848 52.9629L121.438 50.9176ZM113.236 46.8723C111.044 45.1064 109.345 42.9816 108.13 40.4907L106.216 41.424C107.571 44.1997 109.468 46.5708 111.901 48.5301L113.236 46.8723ZM108.143 40.5186C106.994 37.9781 106.407 35.0802 106.407 31.8049L104.278 31.8049C104.278 35.3377 104.912 38.5414 106.203 41.396L108.143 40.5186ZM106.407 31.8049C106.407 28.5289 106.994 25.6672 108.139 23.1963L106.207 22.3013C104.912 25.097 104.278 28.2727 104.278 31.8049L106.407 31.8049ZM108.134 23.2064C109.35 20.6521 111.049 18.4992 113.236 16.7374L111.901 15.0796C109.463 17.0431 107.565 19.4504 106.212 22.2912L108.134 23.2064ZM113.239 16.7353C115.49 14.9097 118.216 13.5251 121.438 12.5958L120.848 10.5505C117.389 11.5481 114.399 13.0537 111.898 15.0818L113.239 16.7353ZM121.45 12.5921C124.739 11.5993 128.423 11.0961 132.511 11.0961V8.96733C128.25 8.96733 124.354 9.49175 120.835 10.5542L121.45 12.5921ZM132.511 11.0961C134.955 11.0961 137.087 11.3156 138.917 11.7426L139.4 9.66956C137.377 9.19734 135.077 8.96733 132.511 8.96733V11.0961ZM138.917 11.7426C140.814 12.1854 142.442 12.6559 143.804 13.1515L144.532 11.1509C143.069 10.6189 141.356 10.126 139.4 9.66956L138.917 11.7426ZM143.819 13.1565C145.273 13.6626 146.415 14.1272 147.257 14.5483L148.209 12.6443C147.253 12.1663 146.017 11.6675 144.518 11.1459L143.819 13.1565ZM147.257 14.5483C148.164 15.0021 149.035 15.3351 149.756 15.3351V13.2064C149.578 13.2064 149.1 13.0898 148.209 12.6443L147.257 14.5483ZM149.756 15.3351C150.292 15.3351 150.783 15.3038 151.17 15.207L150.654 13.1418C150.527 13.1735 150.248 13.2064 149.756 13.2064V15.3351ZM151.388 15.1264C151.753 14.9438 152.148 14.6586 152.557 14.3177L151.194 12.6823C150.833 12.9837 150.585 13.148 150.436 13.2224L151.388 15.1264ZM151.4 14.452L152.556 15.03L153.508 13.126L152.352 12.548L151.4 14.452ZM152.092 13.5781L146.504 24.0793L148.383 25.0792L153.971 14.578L152.092 13.5781ZM206.051 19.5695H204.987V20.6339H206.051V19.5695ZM179.557 17.739V16.6746H178.493V17.739H179.557ZM179.557 27.3732H178.493V28.4375H179.557V27.3732ZM196.802 27.1805L197.06 28.2131L197.119 28.1984L197.176 28.1771L196.802 27.1805ZM197.573 25.8317V24.7673H196.509V25.8317H197.573ZM199.307 25.8317H200.372V24.7673H199.307V25.8317ZM199.307 36.0439V37.1083H200.372V36.0439H199.307ZM197.38 36.0439L196.353 35.7638L195.987 37.1083H197.38V36.0439ZM196.61 34.7915L196.33 35.8183L196.374 35.8304L196.419 35.8387L196.61 34.7915ZM179.557 34.5024V33.4381H178.493V34.5024H179.557ZM179.557 45.8707H178.493V46.9351H179.557V45.8707ZM206.147 45.389L206.712 46.2916L206.75 46.2676L206.786 46.2405L206.147 45.389ZM206.918 43.9439V42.8795H205.854V43.9439H206.918ZM208.652 43.9439H209.717V42.8795H208.652V43.9439ZM208.652 54.0598V55.1241H209.717V54.0598H208.652ZM206.918 54.0598H205.854V55.1241H206.918V54.0598ZM206.147 53.0963L206.015 54.1525L206.147 53.0963ZM168.863 53H167.799V54.0644H168.863V53ZM168.863 51.2659V50.2015H167.799V51.2659H168.863ZM169.827 50.9768L170.374 51.8895L170.436 51.8527L170.492 51.808L169.827 50.9768ZM169.827 12.7293L169.162 13.5604L169.218 13.6051L169.279 13.6419L169.827 12.7293ZM168.863 12.3439H167.799V13.4083H168.863V12.3439ZM168.863 10.6097V9.54538H167.799V10.6097H168.863ZM206.051 8.8756V7.81123H204.987V8.8756H206.051ZM207.785 8.8756H208.85V7.81123H207.785V8.8756ZM207.785 19.5695V20.6339H208.85V19.5695H207.785ZM207.115 19.5695C207.115 18.6094 206.691 17.7981 205.861 17.2892C205.115 16.8323 204.134 16.6746 203.064 16.6746V18.8034C203.986 18.8034 204.498 18.9508 204.748 19.1041C204.913 19.2053 204.987 19.3093 204.987 19.5695H207.115ZM203.064 16.6746L179.557 16.6746V18.8034L203.064 18.8034V16.6746ZM178.493 17.739V27.3732H180.622V17.739H178.493ZM179.557 28.4375L194.394 28.4375V26.3088L179.557 26.3088V28.4375ZM194.394 28.4375C195.501 28.4375 196.413 28.3749 197.06 28.2131L196.544 26.1479C196.164 26.243 195.47 26.3088 194.394 26.3088V28.4375ZM197.176 28.1771C197.65 27.9992 198.045 27.6808 198.304 27.2268C198.552 26.7931 198.637 26.3055 198.637 25.8317H196.509C196.509 26.0644 196.465 26.1548 196.456 26.1707C196.453 26.1765 196.454 26.1737 196.458 26.1701C196.462 26.1671 196.456 26.1737 196.429 26.1839L197.176 28.1771ZM197.573 26.8961H199.307V24.7673H197.573V26.8961ZM198.243 25.8317V36.0439H200.372V25.8317H198.243ZM199.307 34.9795H197.38V37.1083H199.307V34.9795ZM198.407 36.324C198.543 35.827 198.584 35.204 198.239 34.6431C197.89 34.0764 197.31 33.837 196.8 33.7443L196.419 35.8387C196.511 35.8554 196.54 35.8732 196.53 35.868C196.525 35.8647 196.509 35.8547 196.488 35.8355C196.467 35.8158 196.445 35.79 196.426 35.7587C196.406 35.7275 196.394 35.6975 196.387 35.6722C196.379 35.6476 196.378 35.632 196.378 35.6289C196.378 35.626 196.38 35.6666 196.353 35.7638L198.407 36.324ZM196.89 33.7646C196.048 33.5351 194.943 33.4381 193.623 33.4381V35.5668C194.873 35.5668 195.758 35.6624 196.33 35.8183L196.89 33.7646ZM193.623 33.4381H179.557V35.5668H193.623V33.4381ZM178.493 34.5024V45.8707H180.622V34.5024H178.493ZM179.557 46.9351H204.221V44.8064H179.557V46.9351ZM204.221 46.9351C205.137 46.9351 205.988 46.7437 206.712 46.2916L205.583 44.4864C205.279 44.6766 204.846 44.8064 204.221 44.8064V46.9351ZM206.786 46.2405C207.534 45.6798 207.983 44.8976 207.983 43.9439H205.854C205.854 44.1463 205.789 44.3275 205.509 44.5375L206.786 46.2405ZM206.918 45.0083H208.652V42.8795H206.918V45.0083ZM207.588 43.9439V54.0598H209.717V43.9439H207.588ZM208.652 52.9954H206.918V55.1241H208.652V52.9954ZM207.983 54.0598C207.983 53.6253 207.887 53.1332 207.557 52.7205C207.213 52.2909 206.737 52.0973 206.279 52.0402L206.015 54.1525C206.048 54.1565 206.039 54.1601 206.009 54.1447C205.974 54.1273 205.931 54.096 205.894 54.0503C205.821 53.9586 205.854 53.9162 205.854 54.0598H207.983ZM206.279 52.0402C205.706 51.9686 205.016 51.9356 204.221 51.9356V54.0644C204.966 54.0644 205.561 54.0957 206.015 54.1525L206.279 52.0402ZM204.221 51.9356H168.863V54.0644H204.221V51.9356ZM169.928 53V51.2659H167.799V53H169.928ZM168.863 52.3302C169.407 52.3302 169.916 52.1647 170.374 51.8895L169.279 50.0641C169.095 50.1743 168.961 50.2015 168.863 50.2015V52.3302ZM170.492 51.808C171.127 51.2996 171.373 50.5695 171.373 49.8207H169.244C169.244 49.9686 169.221 50.049 169.205 50.0857C169.193 50.116 169.181 50.1307 169.162 50.1457L170.492 51.808ZM171.373 49.8207V13.789H169.244V49.8207H171.373ZM171.373 13.789C171.373 13.0569 171.13 12.27 170.374 11.8166L169.279 13.6419C169.268 13.6355 169.253 13.6241 169.239 13.6081C169.225 13.5923 169.22 13.5804 169.219 13.5791C169.219 13.5789 169.225 13.5929 169.232 13.6276C169.238 13.6626 169.244 13.7152 169.244 13.789H171.373ZM170.492 11.8981C170.035 11.5332 169.487 11.2795 168.863 11.2795V13.4083C168.882 13.4083 168.976 13.4115 169.162 13.5604L170.492 11.8981ZM169.928 12.3439V10.6097H167.799V12.3439H169.928ZM168.863 11.6741L203.064 11.6741V9.54538L168.863 9.54538V11.6741ZM203.064 11.6741C204.128 11.6741 205.1 11.5259 205.839 11.0967C206.666 10.6162 207.115 9.83096 207.115 8.8756H204.987C204.987 9.00809 204.96 9.07259 204.941 9.10437C204.923 9.13593 204.882 9.19066 204.77 9.25576C204.514 9.40461 203.992 9.54538 203.064 9.54538V11.6741ZM206.051 9.93996H207.785V7.81123H206.051V9.93996ZM206.721 8.8756V19.5695H208.85V8.8756H206.721ZM207.785 18.5051H206.051V20.6339H207.785V18.5051ZM279.304 12.1512H280.369V9.40303L278.518 11.4343L279.304 12.1512ZM257.531 36.0439L256.745 35.327L255.121 37.1083H257.531V36.0439ZM279.304 36.0439V37.1083H280.369V36.0439H279.304ZM248.668 44.811L249.144 45.763L249.165 45.7526L249.185 45.7414L248.668 44.811ZM247.897 46.4488V47.5131H248.962V46.4488H247.897ZM246.741 46.4488H245.677V47.5131H246.741V46.4488ZM246.741 35.6585L245.958 34.9374L245.677 35.243V35.6585H246.741ZM271.501 8.77926L272.284 9.50038L272.285 9.49848L271.501 8.77926ZM273.428 6.65974L274.219 7.37177L274.236 7.35314L274.251 7.33374L273.428 6.65974ZM273.717 4.05853L273.241 5.01052L273.308 5.04435L273.38 5.06827L273.717 4.05853ZM272.657 3.48048H271.593V4.08311L272.109 4.39317L272.657 3.48048ZM272.657 2.32438V1.26001H271.593V2.32438H272.657ZM291.347 2.32438H292.412V1.26001H291.347V2.32438ZM291.347 3.48048V4.54484H292.412V3.48048H291.347ZM289.902 3.96218L289.221 3.14451V3.14452L289.902 3.96218ZM289.324 36.0439H288.26V37.1083H289.324V36.0439ZM294.334 35.6585L293.858 34.7065L293.831 34.7197L293.806 34.7344L294.334 35.6585ZM295.104 33.7317V32.6673H294.04V33.7317H295.104ZM296.261 33.7317H297.325V32.6673H296.261V33.7317ZM296.261 46.7378V47.8022H297.325V46.7378H296.261ZM295.104 46.7378H294.04V47.8022H295.104V46.7378ZM294.334 44.7146L293.806 45.6388L293.831 45.6534L293.858 45.6666L294.334 44.7146ZM289.324 44.3293V43.2649H288.26V44.3293H289.324ZM289.902 51.3622L289.149 52.1148L289.212 52.1771L289.283 52.2283L289.902 51.3622ZM291.251 51.8439H292.315V50.7795H291.251V51.8439ZM291.251 53V54.0644H292.315V53H291.251ZM276.703 53H275.639V54.0644H276.703V53ZM276.703 51.8439V50.7795H275.639V51.8439H276.703ZM278.534 51.3622L279.098 52.2648L279.136 52.2408L279.172 52.2137L278.534 51.3622ZM279.304 44.3293H280.369V43.2649H279.304V44.3293ZM278.518 11.4343L256.745 35.327L258.318 36.7608L280.091 12.8681L278.518 11.4343ZM257.531 37.1083H279.304V34.9795H257.531V37.1083ZM280.369 36.0439V12.1512H278.24V36.0439H280.369ZM251.173 43.2649C250.005 43.2649 248.959 43.4319 248.151 43.8806L249.185 45.7414C249.533 45.5478 250.157 45.3936 251.173 45.3936V43.2649ZM248.192 43.859C247.164 44.3731 246.833 45.4174 246.833 46.4488H248.962C248.962 46.1315 249.012 45.954 249.053 45.8663C249.085 45.7979 249.112 45.7789 249.144 45.763L248.192 43.859ZM247.897 45.3844H246.741V47.5131H247.897V45.3844ZM247.805 46.4488V35.6585H245.677V46.4488H247.805ZM247.524 36.3797L272.284 9.50038L270.718 8.05813L245.958 34.9374L247.524 36.3797ZM272.285 9.49848C272.994 8.72583 273.638 8.01689 274.219 7.37177L272.637 5.94772C272.061 6.58715 271.421 7.29122 270.716 8.06004L272.285 9.49848ZM274.251 7.33374C274.566 6.94912 274.829 6.57568 275.019 6.21842C275.201 5.87484 275.359 5.4625 275.359 5.02194H273.23C273.23 4.96675 273.244 5.02005 273.137 5.22241C273.037 5.41108 272.867 5.66386 272.604 5.98574L274.251 7.33374ZM275.359 5.02194C275.359 4.64103 275.289 4.2246 275.063 3.8481C274.824 3.45057 274.465 3.18602 274.053 3.04878L273.38 5.06827C273.374 5.06638 273.349 5.05669 273.316 5.03115C273.282 5.00482 273.255 4.97311 273.238 4.94333C273.204 4.88798 273.23 4.88902 273.23 5.02194H275.359ZM274.193 3.10653C273.828 2.92426 273.499 2.74456 273.204 2.56779L272.109 4.39317C272.457 4.60176 272.834 4.80742 273.241 5.01052L274.193 3.10653ZM273.721 3.48048V2.32438H271.593V3.48048H273.721ZM272.657 3.38874H291.347V1.26001H272.657V3.38874ZM290.283 2.32438V3.48048H292.412V2.32438H290.283ZM291.347 2.41611C290.56 2.41611 289.826 2.6401 289.221 3.14451L290.583 4.77985C290.749 4.64199 290.978 4.54484 291.347 4.54484V2.41611ZM289.221 3.14452C288.554 3.69994 288.26 4.47079 288.26 5.31096H290.388C290.388 4.99504 290.479 4.8667 290.583 4.77985L289.221 3.14452ZM288.26 5.31096V36.0439H290.388V5.31096H288.26ZM289.324 37.1083H292.407V34.9795H289.324V37.1083ZM292.407 37.1083C293.325 37.1083 294.181 36.9714 294.862 36.5827L293.806 34.7344C293.587 34.8594 293.159 34.9795 292.407 34.9795V37.1083ZM294.81 36.6105C295.905 36.0629 296.169 34.8349 296.169 33.7317H294.04C294.04 34.1698 293.984 34.439 293.924 34.5888C293.896 34.6589 293.872 34.6906 293.863 34.7009C293.858 34.7061 293.856 34.7076 293.857 34.7072C293.857 34.7068 293.858 34.7064 293.858 34.7065L294.81 36.6105ZM295.104 34.7961H296.261V32.6673H295.104V34.7961ZM295.196 33.7317V46.7378H297.325V33.7317H295.196ZM296.261 45.6734H295.104V47.8022H296.261V45.6734ZM296.169 46.7378C296.169 45.6056 295.922 44.3188 294.81 43.7626L293.858 45.6666C293.819 45.6474 293.858 45.6376 293.917 45.792C293.982 45.9627 294.04 46.2617 294.04 46.7378H296.169ZM294.862 43.7905C294.181 43.4017 293.325 43.2649 292.407 43.2649V45.3936C293.159 45.3936 293.587 45.5137 293.806 45.6388L294.862 43.7905ZM292.407 43.2649H289.324V45.3936H292.407V43.2649ZM288.26 44.3293V49.1463H290.388V44.3293H288.26ZM288.26 49.1463C288.26 50.2749 288.44 51.4057 289.149 52.1148L290.655 50.6096C290.593 50.548 290.388 50.2015 290.388 49.1463H288.26ZM289.283 52.2283C289.872 52.6484 290.533 52.9083 291.251 52.9083V50.7795C291.07 50.7795 290.832 50.7182 290.521 50.4961L289.283 52.2283ZM290.186 51.8439V53H292.315V51.8439H290.186ZM291.251 51.9356H276.703V54.0644H291.251V51.9356ZM277.768 53V51.8439H275.639V53H277.768ZM276.703 52.9083C277.576 52.9083 278.388 52.7082 279.098 52.2648L277.97 50.4596C277.651 50.6585 277.244 50.7795 276.703 50.7795V52.9083ZM279.172 52.2137C280.096 51.5207 280.369 50.3429 280.369 49.1463H278.24C278.24 50.1335 277.999 50.4329 277.895 50.5107L279.172 52.2137ZM280.369 49.1463V44.3293H278.24V49.1463H280.369ZM279.304 43.2649H251.173V45.3936H279.304V43.2649ZM320.859 15.1378L320.06 14.4346L320.058 14.4369L320.859 15.1378ZM317.584 20.7256L316.589 20.3455L316.586 20.3536L316.583 20.3619L317.584 20.7256ZM317.584 34.6951L316.58 35.0494L316.586 35.0674L316.593 35.0852L317.584 34.6951ZM320.859 40.2829L320.044 40.9675L320.059 40.9852L320.075 41.0021L320.859 40.2829ZM325.869 43.9439L326.319 42.9794L325.869 43.9439ZM343.307 40.2829L342.508 39.5798L342.506 39.582L343.307 40.2829ZM346.582 34.6951L345.588 34.315L345.585 34.3232L345.582 34.3314L346.582 34.6951ZM346.582 20.7256L345.579 21.0798L345.585 21.0979L345.592 21.1157L346.582 20.7256ZM343.307 15.1378L342.492 15.8224L342.507 15.84L342.522 15.857L343.307 15.1378ZM342.536 3.67316L342.141 4.66142L342.148 4.66405L342.536 3.67316ZM351.014 9.06828L350.272 9.83114L350.277 9.83608L350.282 9.84096L351.014 9.06828ZM356.698 17.2573L355.72 17.6766L355.724 17.685L355.727 17.6933L356.698 17.2573ZM356.698 38.0671L355.727 37.6311L355.724 37.6394L355.72 37.6478L356.698 38.0671ZM351.014 46.2561L351.746 47.0293L351.746 47.0288L351.014 46.2561ZM342.536 51.4585L342.165 50.4611L342.158 50.4636L342.536 51.4585ZM321.63 51.4585L321.252 52.4535L321.258 52.4559L321.63 51.4585ZM313.152 46.2561L312.41 47.019L312.42 47.0291L312.431 47.039L313.152 46.2561ZM307.468 38.0671L306.49 38.4863L306.493 38.4947L306.497 38.503L307.468 38.0671ZM307.468 17.2573L306.497 16.8214L306.493 16.8297L306.49 16.838L307.468 17.2573ZM313.152 9.06828L312.42 8.2956L312.415 8.30048L312.41 8.30542L313.152 9.06828ZM321.63 3.67316L321.241 2.68224L321.235 2.68492L321.63 3.67316ZM332.131 8.96733C329.737 8.96733 327.495 9.44727 325.419 10.416L326.319 12.345C328.097 11.5153 330.03 11.0961 332.131 11.0961V8.96733ZM325.419 10.416C323.358 11.3776 321.57 12.7194 320.06 14.4346L321.658 15.8409C322.975 14.3448 324.526 13.1817 326.319 12.345L325.419 10.416ZM320.058 14.4369C318.616 16.0854 317.463 18.0607 316.589 20.3455L318.578 21.1057C319.374 19.0231 320.405 17.2731 321.66 15.8387L320.058 14.4369ZM316.583 20.3619C315.766 22.6101 315.363 25.0469 315.363 27.6622H317.492C317.492 25.2677 317.86 23.0801 318.584 21.0893L316.583 20.3619ZM315.363 27.6622C315.363 30.2779 315.766 32.7429 316.58 35.0494L318.587 34.3409C317.86 32.2799 317.492 30.0563 317.492 27.6622H315.363ZM316.593 35.0852C317.467 37.3025 318.615 39.2665 320.044 40.9675L321.674 39.5983C320.406 38.088 319.37 36.3267 318.574 34.305L316.593 35.0852ZM320.075 41.0021C321.584 42.6483 323.368 43.9512 325.419 44.9084L326.319 42.9794C324.517 42.1382 322.961 41.0005 321.644 39.5637L320.075 41.0021ZM325.419 44.9084C327.495 45.8771 329.737 46.357 332.131 46.357V44.2283C330.03 44.2283 328.097 43.8091 326.319 42.9794L325.419 44.9084ZM332.131 46.357C334.526 46.357 336.768 45.8771 338.844 44.9084L337.943 42.9794C336.165 43.8091 334.233 44.2283 332.131 44.2283V46.357ZM338.844 44.9084C340.899 43.9491 342.658 42.6408 344.108 40.9838L342.506 39.582C341.258 41.0079 339.741 42.1403 337.943 42.9794L338.844 44.9084ZM344.106 40.9861C345.611 39.2754 346.769 37.2962 347.583 35.0589L345.582 34.3314C344.854 36.3331 343.828 38.079 342.508 39.5798L344.106 40.9861ZM347.577 35.0752C348.461 32.7617 348.899 30.2877 348.899 27.6622H346.771C346.771 30.0465 346.374 32.261 345.588 34.315L347.577 35.0752ZM348.899 27.6622C348.899 25.0371 348.461 22.5911 347.573 20.3355L345.592 21.1157C346.374 23.0992 346.771 25.2775 346.771 27.6622H348.899ZM347.586 20.3714C346.773 18.067 345.611 16.0765 344.091 14.4186L342.522 15.857C343.828 17.282 344.851 19.0167 345.579 21.0798L347.586 20.3714ZM344.122 14.4532C342.672 12.727 340.909 11.3798 338.844 10.416L337.943 12.345C339.732 13.1795 341.244 14.3372 342.492 15.8224L344.122 14.4532ZM338.844 10.416C336.768 9.44727 334.526 8.96733 332.131 8.96733V11.0961C334.233 11.0961 336.165 11.5153 337.943 12.345L338.844 10.416ZM332.131 2.8107C335.732 2.8107 339.065 3.4309 342.141 4.6614L342.931 2.68492C339.585 1.34632 335.981 0.681965 332.131 0.681965V2.8107ZM342.148 4.66405C345.299 5.9001 348.003 7.62369 350.272 9.83114L351.756 8.30542C349.272 5.88848 346.324 4.01533 342.925 2.68226L342.148 4.66405ZM350.282 9.84096C352.615 12.0515 354.427 14.6603 355.72 17.6766L357.677 16.838C356.272 13.56 354.294 10.7095 351.746 8.2956L350.282 9.84096ZM355.727 17.6933C357.073 20.6903 357.753 24.0081 357.753 27.6622H359.882C359.882 23.7374 359.15 20.1186 357.669 16.8214L355.727 17.6933ZM357.753 27.6622C357.753 31.3163 357.073 34.634 355.727 37.6311L357.669 38.503C359.15 35.2058 359.882 31.587 359.882 27.6622H357.753ZM355.72 37.6478C354.427 40.6641 352.615 43.2729 350.282 45.4834L351.746 47.0288C354.294 44.6149 356.272 41.7643 357.677 38.4863L355.72 37.6478ZM350.283 45.4829C348.017 47.6261 345.316 49.2872 342.165 50.4611L342.908 52.4559C346.308 51.1892 349.258 49.382 351.746 47.0293L350.283 45.4829ZM342.158 50.4636C339.077 51.6343 335.738 52.2247 332.131 52.2247V54.3534C335.975 54.3534 339.572 53.7234 342.914 52.4535L342.158 50.4636ZM332.131 52.2247C328.524 52.2247 325.151 51.6343 322.002 50.4611L321.258 52.4559C324.661 53.7234 328.288 54.3534 332.131 54.3534V52.2247ZM322.008 50.4636C318.919 49.2897 316.21 47.626 313.873 45.4732L312.431 47.039C314.975 49.3821 317.918 51.1867 321.252 52.4535L322.008 50.4636ZM313.894 45.4932C311.618 43.2784 309.799 40.6609 308.439 37.6311L306.497 38.503C307.963 41.7676 309.933 44.6094 312.41 47.019L313.894 45.4932ZM308.446 37.6478C307.16 34.6466 306.509 31.3229 306.509 27.6622H304.38C304.38 31.5803 305.078 35.1932 306.49 38.4863L308.446 37.6478ZM306.509 27.6622C306.509 24.0015 307.16 20.6778 308.446 17.6766L306.49 16.838C305.078 20.1312 304.38 23.7441 304.38 27.6622H306.509ZM308.439 17.6933C309.799 14.6635 311.618 12.046 313.894 9.83114L312.41 8.30542C309.933 10.715 307.963 13.5568 306.497 16.8214L308.439 17.6933ZM313.884 9.84096C316.224 7.62392 318.935 5.89748 322.025 4.6614L321.235 2.68492C317.902 4.01795 314.961 5.88825 312.42 8.2956L313.884 9.84096ZM322.019 4.66405C325.163 3.43086 328.531 2.8107 332.131 2.8107V0.681965C328.281 0.681965 324.648 1.34636 321.241 2.68226L322.019 4.66405ZM397.097 12.1512H398.161V9.40303L396.31 11.4343L397.097 12.1512ZM375.324 36.0439L374.537 35.327L372.914 37.1083H375.324V36.0439ZM397.097 36.0439V37.1083H398.161V36.0439H397.097ZM366.46 44.811L366.936 45.763L366.957 45.7526L366.977 45.7414L366.46 44.811ZM365.69 46.4488V47.5131H366.754V46.4488H365.69ZM364.534 46.4488H363.469V47.5131H364.534V46.4488ZM364.534 35.6585L363.751 34.9374L363.469 35.243V35.6585H364.534ZM389.293 8.77926L390.076 9.50038L390.078 9.49848L389.293 8.77926ZM391.22 6.65974L392.011 7.37177L392.028 7.35314L392.044 7.33374L391.22 6.65974ZM391.509 4.05853L391.033 5.01052L391.101 5.04435L391.173 5.06827L391.509 4.05853ZM390.449 3.48048H389.385V4.08311L389.902 4.39317L390.449 3.48048ZM390.449 2.32438V1.26001H389.385V2.32438H390.449ZM409.14 2.32438H410.204V1.26001H409.14V2.32438ZM409.14 3.48048V4.54484H410.204V3.48048H409.14ZM407.695 3.96218L407.013 3.14451V3.14452L407.695 3.96218ZM407.116 36.0439H406.052V37.1083H407.116V36.0439ZM412.126 35.6585L411.65 34.7065L411.624 34.7197L411.598 34.7344L412.126 35.6585ZM412.897 33.7317V32.6673H411.833V33.7317H412.897ZM414.053 33.7317L415.117 33.7317V32.6673L414.053 32.6673V33.7317ZM414.053 46.7378V47.8022H415.117V46.7378H414.053ZM412.897 46.7378H411.833V47.8022H412.897V46.7378ZM412.126 44.7146L411.598 45.6388L411.624 45.6534L411.65 45.6666L412.126 44.7146ZM407.116 44.3293V43.2649H406.052V44.3293H407.116ZM407.695 51.3622L406.942 52.1148L407.004 52.1771L407.076 52.2283L407.695 51.3622ZM409.043 51.8439H410.108V50.7795H409.043V51.8439ZM409.043 53V54.0644H410.108V53H409.043ZM394.496 53H393.431V54.0644H394.496V53ZM394.496 51.8439V50.7795H393.431V51.8439H394.496ZM396.326 51.3622L396.89 52.2648L396.929 52.2408L396.965 52.2137L396.326 51.3622ZM397.097 44.3293H398.161V43.2649H397.097V44.3293ZM396.31 11.4343L374.537 35.327L376.111 36.7608L397.884 12.8681L396.31 11.4343ZM375.324 37.1083H397.097V34.9795H375.324V37.1083ZM398.161 36.0439V12.1512H396.033V36.0439H398.161ZM368.965 43.2649C367.797 43.2649 366.751 43.4319 365.943 43.8806L366.977 45.7414C367.326 45.5478 367.95 45.3936 368.965 45.3936V43.2649ZM365.984 43.859C364.956 44.3731 364.625 45.4174 364.625 46.4488H366.754C366.754 46.1315 366.804 45.954 366.845 45.8663C366.878 45.7979 366.905 45.7789 366.936 45.763L365.984 43.859ZM365.69 45.3844H364.534V47.5131H365.69V45.3844ZM365.598 46.4488V35.6585H363.469V46.4488H365.598ZM365.316 36.3797L390.076 9.50038L388.51 8.05813L363.751 34.9374L365.316 36.3797ZM390.078 9.49848C390.786 8.72583 391.431 8.01689 392.011 7.37177L390.429 5.94772C389.854 6.58715 389.213 7.29122 388.509 8.06004L390.078 9.49848ZM392.044 7.33374C392.359 6.94912 392.622 6.57568 392.811 6.21842C392.993 5.87484 393.152 5.4625 393.152 5.02194H391.023C391.023 4.96675 391.037 5.02005 390.93 5.22241C390.83 5.41108 390.66 5.66386 390.396 5.98574L392.044 7.33374ZM393.152 5.02194C393.152 4.64103 393.081 4.2246 392.855 3.8481C392.617 3.45057 392.257 3.18602 391.846 3.04878L391.173 5.06827C391.167 5.06638 391.141 5.05669 391.109 5.03115C391.075 5.00482 391.048 4.97311 391.03 4.94333C390.997 4.88798 391.023 4.88902 391.023 5.02194H393.152ZM391.985 3.10653C391.621 2.92426 391.292 2.74456 390.997 2.56779L389.902 4.39317C390.249 4.60176 390.627 4.80742 391.033 5.01052L391.985 3.10653ZM391.514 3.48048V2.32438H389.385V3.48048H391.514ZM390.449 3.38874L409.14 3.38874V1.26001L390.449 1.26001V3.38874ZM408.075 2.32438V3.48048H410.204V2.32438H408.075ZM409.14 2.41611C408.353 2.41611 407.618 2.6401 407.013 3.14451L408.376 4.77985C408.541 4.64199 408.771 4.54484 409.14 4.54484V2.41611ZM407.013 3.14452C406.347 3.69994 406.052 4.47079 406.052 5.31096H408.181C408.181 4.99504 408.272 4.8667 408.376 4.77985L407.013 3.14452ZM406.052 5.31096V36.0439H408.181V5.31096H406.052ZM407.116 37.1083H410.199V34.9795H407.116V37.1083ZM410.199 37.1083C411.118 37.1083 411.974 36.9714 412.654 36.5827L411.598 34.7344C411.379 34.8594 410.951 34.9795 410.199 34.9795V37.1083ZM412.602 36.6105C413.698 36.0629 413.961 34.8349 413.961 33.7317H411.833C411.833 34.1698 411.776 34.439 411.716 34.5888C411.688 34.6589 411.664 34.6906 411.655 34.7009C411.651 34.7061 411.649 34.7076 411.649 34.7072C411.65 34.7068 411.651 34.7064 411.65 34.7065L412.602 36.6105ZM412.897 34.7961H414.053V32.6673H412.897V34.7961ZM412.989 33.7317V46.7378H415.117V33.7317L412.989 33.7317ZM414.053 45.6734H412.897V47.8022H414.053V45.6734ZM413.961 46.7378C413.961 45.6056 413.715 44.3188 412.602 43.7626L411.65 45.6666C411.612 45.6474 411.651 45.6376 411.71 45.792C411.775 45.9627 411.833 46.2617 411.833 46.7378H413.961ZM412.654 43.7905C411.974 43.4017 411.118 43.2649 410.199 43.2649V45.3936C410.951 45.3936 411.379 45.5137 411.598 45.6388L412.654 43.7905ZM410.199 43.2649H407.116V45.3936H410.199V43.2649ZM406.052 44.3293V49.1463H408.181V44.3293H406.052ZM406.052 49.1463C406.052 50.2749 406.233 51.4057 406.942 52.1148L408.447 50.6096C408.386 50.548 408.181 50.2015 408.181 49.1463H406.052ZM407.076 52.2283C407.664 52.6484 408.325 52.9083 409.043 52.9083V50.7795C408.862 50.7795 408.624 50.7182 408.313 50.4961L407.076 52.2283ZM407.979 51.8439V53H410.108V51.8439H407.979ZM409.043 51.9356H394.496V54.0644H409.043V51.9356ZM395.56 53V51.8439H393.431V53H395.56ZM394.496 52.9083C395.368 52.9083 396.181 52.7082 396.89 52.2648L395.762 50.4596C395.444 50.6585 395.036 50.7795 394.496 50.7795V52.9083ZM396.965 52.2137C397.889 51.5207 398.161 50.3429 398.161 49.1463H396.033C396.033 50.1335 395.791 50.4329 395.688 50.5107L396.965 52.2137ZM398.161 49.1463V44.3293H396.033V49.1463H398.161ZM397.097 43.2649L368.965 43.2649V45.3936L397.097 45.3936V43.2649Z" fill="url(#paint0_linear)"/>
<defs>
<linearGradient id="paint0_linear" x1="210.5" y1="7.25924" x2="210.5" y2="62.6473" gradientUnits="userSpaceOnUse">
<stop stop-color="white"/>
<stop offset="1" stop-color="white" stop-opacity="0"/>
</linearGradient>
</defs>
</svg>
